<?xml version="1.0" encoding="UTF-8" standalone="no"?>
<svg
   xmlns:dc="http://purl.org/dc/elements/1.1/"
   xmlns:cc="http://creativecommons.org/ns#"
   xmlns:rdf="http://www.w3.org/1999/02/22-rdf-syntax-ns#"
   xmlns:svg="http://www.w3.org/2000/svg"
   xmlns="http://www.w3.org/2000/svg"
   xmlns:sodipodi="http://sodipodi.sourceforge.net/DTD/sodipodi-0.dtd"
   xmlns:inkscape="http://www.inkscape.org/namespaces/inkscape"
   viewBox="0 0 19 19"
   height="19"
   width="19"
   version="1.1"
   id="svg8174"
   sodipodi:docname="aerialway.svg"
   inkscape:version="1.0.2 (e86c8708, 2021-01-15)">
  <metadata
     id="metadata8180">
    <rdf:RDF>
      <cc:Work
         rdf:about="">
        <dc:format>image/svg+xml</dc:format>
        <dc:type
           rdf:resource="http://purl.org/dc/dcmitype/StillImage" />
        <dc:title>aerialway_15.svg</dc:title>
      </cc:Work>
    </rdf:RDF>
  </metadata>
  <defs
     id="defs8178" />
  <sodipodi:namedview
     pagecolor="#ffffff"
     bordercolor="#666666"
     borderopacity="1"
     objecttolerance="10"
     gridtolerance="10"
     guidetolerance="10"
     inkscape:pageopacity="0"
     inkscape:pageshadow="2"
     inkscape:window-width="1109"
     inkscape:window-height="766"
     id="namedview8176"
     showgrid="false"
     inkscape:pagecheckerboard="true"
     inkscape:zoom="28.894737"
     inkscape:cx="9.5"
     inkscape:cy="9.5"
     inkscape:window-x="0"
     inkscape:window-y="25"
     inkscape:window-maximized="0"
     inkscape:current-layer="svg8174" />
  <title
     id="title8166">aerialway_15.svg</title>
  <rect
     fill="none"
     x="0"
     y="0"
     width="19"
     height="19"
     id="rect8168" />
  <g
     id="path8172"
     transform="translate(2,2)"
     style="opacity:1">
    <path
       style="color:#000000;font-style:normal;font-variant:normal;font-weight:normal;font-stretch:normal;font-size:medium;line-height:normal;font-family:sans-serif;font-variant-ligatures:normal;font-variant-position:normal;font-variant-caps:normal;font-variant-numeric:normal;font-variant-alternates:normal;font-variant-east-asian:normal;font-feature-settings:normal;font-variation-settings:normal;text-indent:0;text-align:start;text-decoration:none;text-decoration-line:none;text-decoration-style:solid;text-decoration-color:#000000;letter-spacing:normal;word-spacing:normal;text-transform:none;writing-mode:lr-tb;direction:ltr;text-orientation:mixed;dominant-baseline:auto;baseline-shift:baseline;text-anchor:start;white-space:normal;shape-padding:0;shape-margin:0;inline-size:0;clip-rule:nonzero;display:inline;overflow:visible;visibility:visible;isolation:auto;mix-blend-mode:normal;color-interpolation:sRGB;color-interpolation-filters:linearRGB;solid-color:#000000;solid-opacity:1;vector-effect:none;fill:#ffffff;fill-opacity:1;fill-rule:nonzero;stroke:none;stroke-linecap:round;stroke-linejoin:miter;stroke-miterlimit:4;stroke-dasharray:none;stroke-dashoffset:0;stroke-opacity:1;paint-order:stroke fill markers;color-rendering:auto;image-rendering:auto;shape-rendering:auto;text-rendering:auto;enable-background:accumulate;stop-color:#000000;stop-opacity:1"
       d="M 13.40625,-1 8.6953125,-0.41210938 C 8.3399801,-0.61206379 7.9464119,-0.74159534 7.5292969,-0.75 h -0.017578 -0.019531 c -0.6214568,0.003079 -1.1523346,0.2935874 -1.5996094,0.69335938 L 1.3144531,0.51171875 1.5,0.5 c -1.08703807,0 -2,0.9129619 -2,2 0,0.7235685 0.46749879,1.2521145 1.05859375,1.6035156 C -0.04756097,4.5631418 -0.5,5.1945705 -0.5,6 v 7 c 0,1.36291 1.13708982,2.5 2.5,2.5 h 11 c 1.36291,0 2.5,-1.13709 2.5,-2.5 V 6 C 15.5,4.6370898 14.36291,3.5 13,3.5 H 9.6289062 L 13.6875,2.9882812 13.5,3 c 1.087038,0 2,-0.9129619 2,-2 0,-1.08703807 -0.912962,-2 -2,-2 z"
       id="path8773"
       sodipodi:nodetypes="ccccccccscssssssscccssc" />
    <path
       style="color:#000000;font-style:normal;font-variant:normal;font-weight:normal;font-stretch:normal;font-size:medium;line-height:normal;font-family:sans-serif;font-variant-ligatures:normal;font-variant-position:normal;font-variant-caps:normal;font-variant-numeric:normal;font-variant-alternates:normal;font-variant-east-asian:normal;font-feature-settings:normal;font-variation-settings:normal;text-indent:0;text-align:start;text-decoration:none;text-decoration-line:none;text-decoration-style:solid;text-decoration-color:#000000;letter-spacing:normal;word-spacing:normal;text-transform:none;writing-mode:lr-tb;direction:ltr;text-orientation:mixed;dominant-baseline:auto;baseline-shift:baseline;text-anchor:start;white-space:normal;shape-padding:0;shape-margin:0;inline-size:0;clip-rule:nonzero;display:inline;overflow:visible;visibility:visible;isolation:auto;mix-blend-mode:normal;color-interpolation:sRGB;color-interpolation-filters:linearRGB;solid-color:#000000;solid-opacity:1;vector-effect:none;fill:#4898ff;fill-opacity:1;fill-rule:nonzero;stroke:none;stroke-width:3;stroke-linecap:round;stroke-linejoin:miter;stroke-miterlimit:4;stroke-dasharray:none;stroke-dashoffset:0;stroke-opacity:1.0;paint-order:stroke fill markers;color-rendering:auto;image-rendering:auto;shape-rendering:auto;text-rendering:auto;enable-background:accumulate;stop-color:#000000;stop-opacity:1;"
       d="M 13,5 H 8 V 2.6 C 8.1854,2.4953 8.3325,2.3341 8.42,2.14 L 13.5,1.5 C 13.7761,1.5 14,1.2761 14,1 14,0.7239 13.7761,0.5 13.5,0.5 L 8.28,1.15 C 8.0954,0.9037 7.8077,0.7562 7.5,0.75 7.0963,0.752 6.7334,0.9966 6.58,1.37 L 1.5,2 C 1.2239,2 1,2.2239 1,2.5 1,2.7761 1.2239,3 1.5,3 L 6.72,2.35 C 6.7967,2.4503 6.8917,2.5351 7,2.6 V 5 H 2 C 1.4477,5 1,5.4477 1,6 v 7 c 0,0.5523 0.4477,1 1,1 h 11 c 0.5523,0 1,-0.4477 1,-1 V 6 C 14,5.4477 13.5523,5 13,5 Z M 7,11 H 3 V 7 H 5.5100182 7 Z m 5,0 H 8 V 7 h 4 z"
       id="path8775" />
  </g>
</svg>
