<?xml version="1.0" encoding="UTF-8" standalone="no"?>
<svg
   xmlns:dc="http://purl.org/dc/elements/1.1/"
   xmlns:cc="http://creativecommons.org/ns#"
   xmlns:rdf="http://www.w3.org/1999/02/22-rdf-syntax-ns#"
   xmlns:svg="http://www.w3.org/2000/svg"
   xmlns="http://www.w3.org/2000/svg"
   xmlns:sodipodi="http://sodipodi.sourceforge.net/DTD/sodipodi-0.dtd"
   xmlns:inkscape="http://www.inkscape.org/namespaces/inkscape"
   viewBox="0 0 19 19"
   height="19"
   width="19"
   version="1.1"
   id="svg857"
   sodipodi:docname="airfield.svg"
   inkscape:version="1.0.2 (e86c8708, 2021-01-15)">
  <metadata
     id="metadata863">
    <rdf:RDF>
      <cc:Work
         rdf:about="">
        <dc:format>image/svg+xml</dc:format>
        <dc:type
           rdf:resource="http://purl.org/dc/dcmitype/StillImage" />
        <dc:title>airfield_15.svg</dc:title>
      </cc:Work>
    </rdf:RDF>
  </metadata>
  <defs
     id="defs861" />
  <sodipodi:namedview
     pagecolor="#ffffff"
     bordercolor="#666666"
     borderopacity="1"
     objecttolerance="10"
     gridtolerance="10"
     guidetolerance="10"
     inkscape:pageopacity="0"
     inkscape:pageshadow="2"
     inkscape:window-width="1249"
     inkscape:window-height="766"
     id="namedview859"
     showgrid="false"
     inkscape:pagecheckerboard="true"
     inkscape:zoom="20.992233"
     inkscape:cx="11.693853"
     inkscape:cy="9.3142411"
     inkscape:window-x="51"
     inkscape:window-y="25"
     inkscape:window-maximized="0"
     inkscape:current-layer="svg857"
     inkscape:document-rotation="0" />
  <title
     id="title849">airfield_15.svg</title>
  <rect
     fill="none"
     x="0"
     y="0"
     width="19"
     height="19"
     id="rect851" />
  <rect
     x="0.032631654"
     y="0.032631595"
     width="19"
     height="19"
     rx="0"
     ry="0"
     fill="#4898ff"
     id="rect869" />
  <path
     fill="#fff"
     d="m 8.9884438,2.75677 h -2.0455 c -0.681801,0 -0.681801,-0.6818 0,-0.6818 h 5.4545002 c 0.6818,0 0.6818,0.6818 0,0.6818 h -2.0454 c 0,0 0.8182,0.5909 0.8182,1.9545 v 1.3637 h 6 v 2 l -6,2 -0.5,5 2.5,1.3182 v 0.6818 H 6.1702438 v -0.6818 l 2.5,-1.3182 -0.5,-5 -6,-2 v -2 h 6 v -1.3636 c 0,-1.3637 0.8182,-1.9546 0.8182,-1.9546 z"
     id="path855"
     style="fill:#ffffff;fill-opacity:1;stroke:none;stroke-width:3;stroke-miterlimit:4;stroke-dasharray:none;stroke-opacity:1;paint-order:stroke fill markers" />
</svg>
