<?xml version="1.0" encoding="UTF-8" standalone="no"?>
<svg
   xmlns:dc="http://purl.org/dc/elements/1.1/"
   xmlns:cc="http://creativecommons.org/ns#"
   xmlns:rdf="http://www.w3.org/1999/02/22-rdf-syntax-ns#"
   xmlns:svg="http://www.w3.org/2000/svg"
   xmlns="http://www.w3.org/2000/svg"
   xmlns:sodipodi="http://sodipodi.sourceforge.net/DTD/sodipodi-0.dtd"
   xmlns:inkscape="http://www.inkscape.org/namespaces/inkscape"
   viewBox="0 0 18.6 19.799999"
   height="19.799999"
   width="18.6"
   version="1.1"
   id="svg14940"
   sodipodi:docname="alcohol_shop.svg"
   inkscape:version="1.0.2 (e86c8708, 2021-01-15)">
  <metadata
     id="metadata14946">
    <rdf:RDF>
      <cc:Work
         rdf:about="">
        <dc:format>image/svg+xml</dc:format>
        <dc:type
           rdf:resource="http://purl.org/dc/dcmitype/StillImage" />
        <dc:title>alcohol_shop_15.svg</dc:title>
      </cc:Work>
    </rdf:RDF>
  </metadata>
  <defs
     id="defs14944" />
  <sodipodi:namedview
     pagecolor="#ffffff"
     bordercolor="#666666"
     borderopacity="1"
     objecttolerance="10"
     gridtolerance="10"
     guidetolerance="10"
     inkscape:pageopacity="0"
     inkscape:pageshadow="2"
     inkscape:window-width="1137"
     inkscape:window-height="719"
     id="namedview14942"
     showgrid="false"
     inkscape:pagecheckerboard="true"
     inkscape:zoom="26.142857"
     inkscape:cx="7.5213115"
     inkscape:cy="13.613115"
     inkscape:window-x="203"
     inkscape:window-y="25"
     inkscape:window-maximized="0"
     inkscape:current-layer="svg14940" />
  <title
     id="title14930">alcohol_shop_15.svg</title>
  <rect
     fill="none"
     x="-1.2"
     y="-0.1"
     width="21"
     height="21"
     id="rect14932" />
  <g
     id="path14938"
     style="opacity:1">
    <path
       style="color:#000000;font-style:normal;font-variant:normal;font-weight:normal;font-stretch:normal;font-size:medium;line-height:normal;font-family:sans-serif;font-variant-ligatures:normal;font-variant-position:normal;font-variant-caps:normal;font-variant-numeric:normal;font-variant-alternates:normal;font-variant-east-asian:normal;font-feature-settings:normal;font-variation-settings:normal;text-indent:0;text-align:start;text-decoration:none;text-decoration-line:none;text-decoration-style:solid;text-decoration-color:#000000;letter-spacing:normal;word-spacing:normal;text-transform:none;writing-mode:lr-tb;direction:ltr;text-orientation:mixed;dominant-baseline:auto;baseline-shift:baseline;text-anchor:start;white-space:normal;shape-padding:0;shape-margin:0;inline-size:0;clip-rule:nonzero;display:inline;overflow:visible;visibility:visible;isolation:auto;mix-blend-mode:normal;color-interpolation:sRGB;color-interpolation-filters:linearRGB;solid-color:#000000;solid-opacity:1;vector-effect:none;fill:#ffffff;fill-opacity:1;fill-rule:nonzero;stroke:none;stroke-linecap:round;stroke-linejoin:miter;stroke-miterlimit:4;stroke-dasharray:none;stroke-dashoffset:0;stroke-opacity:1;paint-order:stroke fill markers;color-rendering:auto;image-rendering:auto;shape-rendering:auto;text-rendering:auto;enable-background:accumulate;stop-color:#000000;stop-opacity:1"
       d="M 5.0996094,0 C 4.0833055,0 3.3162795,0.80170381 3.1367188,1.7734375 2.7013076,2.1608231 2.4003906,2.6851018 2.4003906,3.3007812 c 0,0.4972368 0.2418236,0.9235852 0.5410156,1.2871094 C 2.9021792,4.6531076 2.5482734,5.3772046 1.8359375,6.2519531 1.0859375,7.1729531 0,8.1682648 0,9.9003906 v 7.1992184 c 0,1.473371 1.2258486,2.701172 2.6992188,2.701172 H 8.765625 l 0.064453,-0.0059 C 10.183649,19.676567 11.276177,18.58404 11.394531,17.230469 l 0.0059,-0.06445 v -4.927735 c 0.290401,0.549031 0.687438,0.92909 1.199218,1.28711 v 2.453125 c -0.666312,0.355833 -1.199218,0.926345 -1.199218,1.720703 0,1.142258 0.957351,2.101562 2.099609,2.101562 h 2.400391 C 17.042649,19.800781 18,18.841477 18,17.699219 c 0,-0.794358 -0.532906,-1.36487 -1.199219,-1.720703 v -2.453125 c 1.018883,-0.712768 1.794563,-1.726255 1.798828,-3.019532 v -0.0039 -0.07422 -5.6269528 h -1.5 -6.298828 V 7.8925781 C 10.430459,7.2803842 9.9679227,6.7636451 9.5742188,6.2675781 8.8615559,5.3696229 8.4989517,4.5750207 8.4589844,4.5878906 8.7581765,4.2243664 9,3.798018 9,3.3007812 9,2.6851018 8.699083,2.1608231 8.2636719,1.7734375 8.0841111,0.80170381 7.3170852,0 6.3007812,0 Z M 5.6992188,5.5019531 C 6.0280544,6.5760238 6.6523917,7.4118182 7.2246094,8.1328125 7.5909018,8.594341 7.5992423,8.6597571 7.7988281,8.9960938 7.1621036,8.6488082 6.4692052,8.4003906 5.6992188,8.4003906 4.929089,8.4003906 4.2364186,8.648688 3.5996094,8.9960938 3.7961592,8.6741153 3.8006429,8.5927637 4.1640625,8.1464844 4.737369,7.4424641 5.3681586,6.5883818 5.6992188,5.5019531 Z M 3,16.396484 c 0.1909358,0.148155 0.3844832,0.287818 0.5976562,0.404297 H 3 Z m 5.4003906,0 v 0.404297 H 7.8027344 c 0.212939,-0.116426 0.4069172,-0.256259 0.5976562,-0.404297 z"
       id="path16673"
       sodipodi:nodetypes="scscsssscccccccsssscccccccccscscsscscscsccccccccc" />
    <path
       style="color:#000000;font-style:normal;font-variant:normal;font-weight:normal;font-stretch:normal;font-size:medium;line-height:normal;font-family:sans-serif;font-variant-ligatures:normal;font-variant-position:normal;font-variant-caps:normal;font-variant-numeric:normal;font-variant-alternates:normal;font-variant-east-asian:normal;font-feature-settings:normal;font-variation-settings:normal;text-indent:0;text-align:start;text-decoration:none;text-decoration-line:none;text-decoration-style:solid;text-decoration-color:#000000;letter-spacing:normal;word-spacing:normal;text-transform:none;writing-mode:lr-tb;direction:ltr;text-orientation:mixed;dominant-baseline:auto;baseline-shift:baseline;text-anchor:start;white-space:normal;shape-padding:0;shape-margin:0;inline-size:0;clip-rule:nonzero;display:inline;overflow:visible;visibility:visible;isolation:auto;mix-blend-mode:normal;color-interpolation:sRGB;color-interpolation-filters:linearRGB;solid-color:#000000;solid-opacity:1;vector-effect:none;fill:#725a50;fill-opacity:1;fill-rule:nonzero;stroke:none;stroke-width:3;stroke-linecap:round;stroke-linejoin:miter;stroke-miterlimit:4;stroke-dasharray:none;stroke-dashoffset:0;stroke-opacity:1.0;paint-order:stroke fill markers;color-rendering:auto;image-rendering:auto;shape-rendering:auto;text-rendering:auto;enable-background:accumulate;stop-color:#000000;stop-opacity:1;"
       d="m 17.1,6.3 h -4.8 v 4.128 0 0.072 c 0.0036,1.09152 0.74316,2.04312 1.8,2.316 V 17.1 h -0.6 c -0.33132,0 -0.6,0.26868 -0.6,0.6 0,0.33132 0.26868,0.6 0.6,0.6 h 2.4 c 0.33132,0 0.6,-0.26868 0.6,-0.6 0,-0.33132 -0.26868,-0.6 -0.6,-0.6 h -0.6 v -4.284 c 1.05684,-0.27288 1.7964,-1.22448 1.8,-2.316 v -0.072 0 z m -1.2,4.2 c 0,0.66276 -0.53724,1.2 -1.2,1.2 -0.66276,0 -1.2,-0.53724 -1.2,-1.2 v -3 h 2.4 z m -9,-6 V 3.9 C 7.23132,3.9 7.5,3.63132 7.5,3.3 7.5,2.96868 7.23132,2.7 6.9,2.7 V 2.1 C 6.9,1.76868 6.63132,1.5 6.3,1.5 H 5.1 C 4.76868,1.5 4.5,1.76868 4.5,2.1 v 0.6 c -0.33132,0 -0.6,0.26868 -0.6,0.6 0,0.33132 0.26868,0.6 0.6,0.6 v 0.6 c 0,1.716 -3,3.684 -3,5.4 v 7.2 c 0,0.66276 0.53724,1.2 1.2,1.2 h 6 C 9.33816,18.2442 9.8442,17.73816 9.9,17.1 V 9.9 c 0,-1.62 -3,-3.78 -3,-5.4 z M 5.7,15.9 c -1.65684,0 -3,-1.34316 -3,-3 0,-1.65684 1.34316,-3 3,-3 1.65684,0 3,1.34316 3,3 0,1.65684 -1.34316,3 -3,3 z"
       id="path16675" />
  </g>
</svg>
