<?xml version="1.0" encoding="UTF-8" standalone="no"?>
<svg
   xmlns:dc="http://purl.org/dc/elements/1.1/"
   xmlns:cc="http://creativecommons.org/ns#"
   xmlns:rdf="http://www.w3.org/1999/02/22-rdf-syntax-ns#"
   xmlns:svg="http://www.w3.org/2000/svg"
   xmlns="http://www.w3.org/2000/svg"
   xmlns:sodipodi="http://sodipodi.sourceforge.net/DTD/sodipodi-0.dtd"
   xmlns:inkscape="http://www.inkscape.org/namespaces/inkscape"
   viewBox="0 0 18.897392 13.8"
   height="13.8"
   width="18.897392"
   version="1.1"
   id="svg16741"
   sodipodi:docname="america_football.svg"
   inkscape:version="1.0.2 (e86c8708, 2021-01-15)">
  <metadata
     id="metadata16747">
    <rdf:RDF>
      <cc:Work
         rdf:about="">
        <dc:format>image/svg+xml</dc:format>
        <dc:type
           rdf:resource="http://purl.org/dc/dcmitype/StillImage" />
        <dc:title>america_football_15.svg</dc:title>
      </cc:Work>
    </rdf:RDF>
  </metadata>
  <defs
     id="defs16745" />
  <sodipodi:namedview
     pagecolor="#ffffff"
     bordercolor="#666666"
     borderopacity="1"
     objecttolerance="10"
     gridtolerance="10"
     guidetolerance="10"
     inkscape:pageopacity="0"
     inkscape:pageshadow="2"
     inkscape:window-width="1038"
     inkscape:window-height="708"
     id="namedview16743"
     showgrid="false"
     inkscape:pagecheckerboard="true"
     inkscape:zoom="26.238095"
     inkscape:cx="7.7197679"
     inkscape:cy="4.8419238"
     inkscape:window-x="252"
     inkscape:window-y="81"
     inkscape:window-maximized="0"
     inkscape:current-layer="svg16741" />
  <title
     id="title16731">america_football_15.svg</title>
  <rect
     fill="none"
     x="-1.0461123"
     y="-3.5999999"
     width="21"
     height="21"
     id="rect16733" />
  <path
     fill="#76a723"
     d="m 9.4898877,1.5 c -5.328,0 -7.836,5.4 -7.836,5.4 0,0 2.508,5.4 7.836,5.4 5.3280003,0 7.7640003,-5.4 7.7640003,-5.4 0,0 -2.4,-5.4 -7.7640003,-5.4 z m 4.1640003,4.8 v 1.8 c 0,0.33132 -0.26868,0.6 -0.6,0.6 -0.33132,0 -0.6,-0.26868 -0.6,-0.6 V 7.5 h -2.4 v 0.6 c 0,0.33132 -0.2686803,0.6 -0.6000003,0.6 -0.33132,0 -0.6,-0.26868 -0.6,-0.6 V 7.5 h -2.4 v 0.6 c 0,0.33132 -0.26868,0.6 -0.6,0.6 -0.33132,0 -0.6,-0.26868 -0.6,-0.6 V 5.7 c 0,-0.33132 0.26868,-0.6 0.6,-0.6 0.33132,0 0.6,0.26868 0.6,0.6 v 0.6 h 2.4 V 5.7 c 0,-0.33132 0.26868,-0.6 0.6,-0.6 0.33132,0 0.6000003,0.26868 0.6000003,0.6 v 0.6 h 2.4 V 5.7 c 0,-0.33132 0.26868,-0.6 0.6,-0.6 0.33132,0 0.6,0.26868 0.6,0.6 z"
     id="path16739"
     style="fill:#725a50;fill-opacity:1;stroke:#ffffff;stroke-width:3;stroke-linecap:round;stroke-miterlimit:4;stroke-dasharray:none;stroke-opacity:1;paint-order:stroke fill markers" />
</svg>
