<?xml version="1.0" encoding="UTF-8" standalone="no"?>
<svg
   xmlns:dc="http://purl.org/dc/elements/1.1/"
   xmlns:cc="http://creativecommons.org/ns#"
   xmlns:rdf="http://www.w3.org/1999/02/22-rdf-syntax-ns#"
   xmlns:svg="http://www.w3.org/2000/svg"
   xmlns="http://www.w3.org/2000/svg"
   xmlns:sodipodi="http://sodipodi.sourceforge.net/DTD/sodipodi-0.dtd"
   xmlns:inkscape="http://www.inkscape.org/namespaces/inkscape"
   viewBox="0 0 21 21"
   height="21"
   width="21"
   version="1.1"
   id="svg16723"
   sodipodi:docname="amusement_park.svg"
   inkscape:version="1.0.2 (e86c8708, 2021-01-15)">
  <metadata
     id="metadata16729">
    <rdf:RDF>
      <cc:Work
         rdf:about="">
        <dc:format>image/svg+xml</dc:format>
        <dc:type
           rdf:resource="http://purl.org/dc/dcmitype/StillImage" />
        <dc:title>amusement_park_15.svg</dc:title>
      </cc:Work>
    </rdf:RDF>
  </metadata>
  <defs
     id="defs16727" />
  <sodipodi:namedview
     pagecolor="#ffffff"
     bordercolor="#666666"
     borderopacity="1"
     objecttolerance="10"
     gridtolerance="10"
     guidetolerance="10"
     inkscape:pageopacity="0"
     inkscape:pageshadow="2"
     inkscape:window-width="1103"
     inkscape:window-height="714"
     id="namedview16725"
     showgrid="false"
     inkscape:pagecheckerboard="true"
     inkscape:zoom="26.238095"
     inkscape:cx="10.023593"
     inkscape:cy="16.178766"
     inkscape:window-x="0"
     inkscape:window-y="25"
     inkscape:window-maximized="0"
     inkscape:current-layer="svg16723" />
  <title
     id="title16713">amusement_park_15.svg</title>
  <rect
     fill="none"
     x="0"
     y="0"
     width="21"
     height="21"
     id="rect16715" />
  <path
     fill="#5d60be"
     d="m 10.5,1.7905626 c -4.2972,0 -7.8,3.5028 -7.8,7.8 0,2.7793204 1.47012,5.2180804 3.66792,6.6000004 H 6.3 l -1.2,2.4 h 10.8 l -1.2,-2.4 H 14.63208 C 16.82988,14.808643 18.3,12.369883 18.3,9.5905626 c 0,-4.2972 -3.5028,-7.8 -7.8,-7.8 z m -0.15,1.80708 v 4.2 c -0.37296,0.0312 -0.72684,0.17784 -1.01256,0.41952 l -2.96952,-2.96952 c 1.04124,-0.99048 2.4342,-1.61196 3.98208,-1.65 z m 0.3,0 c 1.54788,0.03804 2.94084,0.65952 3.98208,1.65 l -2.96952,2.96952 c -8.4e-4,-8.4e-4 -0.0016,-0.00156 -0.0024,-0.0024 -0.28536,-0.24036 -0.6384,-0.38616 -1.01016,-0.41712 z m -4.49292,1.86084 2.96952,2.96952 c -8.4e-4,8.4e-4 -0.00156,0.00156 -0.0024,0.0024 -0.24036,0.28536 -0.38616,0.6384 -0.41712,1.01016 h -4.2 c 0.03804,-1.54788 0.65952,-2.94084 1.65,-3.98208 z m 8.68584,0 c 0.99048,1.04112 1.61196,2.4342 1.65,3.98208 h -4.2 c -0.0312,-0.37296 -0.17784,-0.72684 -0.41952,-1.01256 z m -10.33584,4.28208 h 4.2 c 0.0312,0.3729604 0.17784,0.7268404 0.41952,1.0125604 l -2.96952,2.96952 c -0.99048,-1.04124 -1.61196,-2.4342 -1.65,-3.9820804 z m 7.78584,0 h 4.2 c -0.03804,1.5478804 -0.65952,2.9408404 -1.65,3.9820804 l -2.96952,-2.96952 c 8.4e-4,-8.4e-4 0.0016,-0.0016 0.0024,-0.0024 0.24036,-0.28536 0.38616,-0.6384 0.41712,-1.0101604 z M 9.33744,10.963963 c 8.4e-4,8.4e-4 0.00156,0.0016 0.0024,0.0024 0.16608,0.13908 0.3558,0.24708 0.56016,0.31872 v 4.275 c -1.36836,-0.13488 -2.59272,-0.73296 -3.53208,-1.6266 z m 2.32512,0 2.96952,2.96952 c -0.93936,0.89364 -2.1636,1.4916 -3.53208,1.6266 v -4.275 c 0.20532,-0.07212 0.396,-0.18096 0.56256,-0.32112 z"
     id="path16721"
     style="fill:#725a50;fill-opacity:1;stroke:#ffffff;stroke-width:3;stroke-linecap:round;stroke-miterlimit:4;stroke-dasharray:none;stroke-opacity:1;paint-order:stroke fill markers" />
</svg>
