<?xml version="1.0" encoding="UTF-8" standalone="no"?>
<svg
   xmlns:dc="http://purl.org/dc/elements/1.1/"
   xmlns:cc="http://creativecommons.org/ns#"
   xmlns:rdf="http://www.w3.org/1999/02/22-rdf-syntax-ns#"
   xmlns:svg="http://www.w3.org/2000/svg"
   xmlns="http://www.w3.org/2000/svg"
   xmlns:sodipodi="http://sodipodi.sourceforge.net/DTD/sodipodi-0.dtd"
   xmlns:inkscape="http://www.inkscape.org/namespaces/inkscape"
   viewBox="0 0 16.799999 14.822529"
   height="14.822529"
   width="16.799999"
   version="1.1"
   id="svg16705"
   sodipodi:docname="aquarium.svg"
   inkscape:version="1.0.2 (e86c8708, 2021-01-15)">
  <metadata
     id="metadata16711">
    <rdf:RDF>
      <cc:Work
         rdf:about="">
        <dc:format>image/svg+xml</dc:format>
        <dc:type
           rdf:resource="http://purl.org/dc/dcmitype/StillImage" />
        <dc:title>aquarium_15.svg</dc:title>
      </cc:Work>
    </rdf:RDF>
  </metadata>
  <defs
     id="defs16709" />
  <sodipodi:namedview
     pagecolor="#ffffff"
     bordercolor="#666666"
     borderopacity="1"
     objecttolerance="10"
     gridtolerance="10"
     guidetolerance="10"
     inkscape:pageopacity="0"
     inkscape:pageshadow="2"
     inkscape:window-width="1159"
     inkscape:window-height="772"
     id="namedview16707"
     showgrid="false"
     inkscape:pagecheckerboard="true"
     inkscape:zoom="37.10627"
     inkscape:cx="6.8442146"
     inkscape:cy="7.9336877"
     inkscape:window-x="109"
     inkscape:window-y="25"
     inkscape:window-maximized="0"
     inkscape:current-layer="svg16705"
     inkscape:document-rotation="0" />
  <title
     id="title16695">aquarium_15.svg</title>
  <rect
     fill="none"
     x="-2.0999999"
     y="-3.0590661"
     width="21"
     height="21"
     id="rect16697" />
  <g
     id="path16703"
     style="opacity:1"
     transform="scale(0.8)">
    <path
       style="color:#000000;font-style:normal;font-variant:normal;font-weight:normal;font-stretch:normal;font-size:medium;line-height:normal;font-family:sans-serif;font-variant-ligatures:normal;font-variant-position:normal;font-variant-caps:normal;font-variant-numeric:normal;font-variant-alternates:normal;font-variant-east-asian:normal;font-feature-settings:normal;font-variation-settings:normal;text-indent:0;text-align:start;text-decoration:none;text-decoration-line:none;text-decoration-style:solid;text-decoration-color:#000000;letter-spacing:normal;word-spacing:normal;text-transform:none;writing-mode:lr-tb;direction:ltr;text-orientation:mixed;dominant-baseline:auto;baseline-shift:baseline;text-anchor:start;white-space:normal;shape-padding:0;shape-margin:0;inline-size:0;clip-rule:nonzero;display:inline;overflow:visible;visibility:visible;isolation:auto;mix-blend-mode:normal;color-interpolation:sRGB;color-interpolation-filters:linearRGB;solid-color:#000000;solid-opacity:1;vector-effect:none;fill:#ffffff;fill-opacity:1;fill-rule:nonzero;stroke:none;stroke-linecap:round;stroke-linejoin:miter;stroke-miterlimit:4;stroke-dasharray:none;stroke-dashoffset:0;stroke-opacity:1;paint-order:stroke fill markers;color-rendering:auto;image-rendering:auto;shape-rendering:auto;text-rendering:auto;enable-background:accumulate;stop-color:#000000;stop-opacity:1"
       d="M 14.580078,0 C 13.065637,0 11.223114,0.15225098 9.09375,1.0761719 6.9310262,1.8964179 5.1979651,3.2414882 3.6796875,4.7597656 2.827105,5.6123481 1.9890486,6.7426375 1.3085938,7.828125 0.96836631,8.3708688 0.67237024,8.8969721 0.44335938,9.3886719 0.21434851,9.8803717 0,10.234754 0,10.980469 c 0,0.745714 0.24158681,1.146852 0.51757812,1.634765 0.27599132,0.487914 0.64123688,0.989189 1.09570308,1.496094 0.9089326,1.01381 2.1699773,2.047697 3.7578126,2.697266 2.7300974,1.116858 4.2693266,1.408169 5.7226562,1.65039 l 0.05469,0.0098 0.05664,0.0059 c 1.52993,0.139085 3.411524,0.0064 5.144531,-0.392578 0.653827,-0.131806 1.531257,-0.341799 2.333985,-0.609375 0.407434,-0.135811 0.786513,-0.27645 1.162109,-0.482422 0.187798,-0.102986 0.379182,-0.215649 0.599609,-0.429687 C 20.66574,16.346509 21,15.954531 21,15.300781 21,14.699531 20.649214,14.296276 20.453125,14.130859 20.257036,13.965443 20.132863,13.916545 20.035156,13.875 19.853874,13.79792 19.757113,13.78173 19.65625,13.759766 c 0.302167,-0.198809 0.522356,-0.424067 0.638672,-0.615235 0.274309,-0.450832 0.356124,-0.821764 0.441406,-1.236328 0.170563,-0.829128 0.234375,-1.800292 0.234375,-2.7890624 0,-0.9887704 -0.06381,-1.9579813 -0.234375,-2.7871094 C 20.651046,5.9174672 20.569231,5.5465351 20.294922,5.0957031 20.214658,4.9637873 20.007743,4.8181384 19.853516,4.671875 L 21,4.640625 V 3.1796875 C 21,2.5568304 20.691804,2.1043416 20.435547,1.8339844 20.17929,1.5636272 19.928826,1.4028653 19.671875,1.2578125 19.157974,0.96770687 18.603252,0.76535057 18.011719,0.58789062 16.828652,0.23297074 15.591745,0 14.580078,0 Z m -1.033203,3.0703125 c -0.106532,0.1177654 -0.211982,0.086074 -0.308594,0.2792969 l -0.01953,0.039063 -0.01758,0.041016 c -0.322626,0.7527939 -0.390625,1.4966741 -0.390625,2.2695313 0,0.7728571 0.068,1.5186904 0.390625,2.2714843 0.28271,0.6596565 1.073361,1.0336485 1.53125,1.0722657 0.457889,0.038617 0.764855,-0.044777 1.0625,-0.1328126 0.59529,-0.1760717 1.13914,-0.4475175 1.671875,-0.734375 0.214562,-0.1155334 0.210502,-0.1316023 0.410156,-0.2480468 0.03571,0.4057797 0.09375,0.7324178 0.09375,1.1914062 0,0.4653639 -0.0591,0.799232 -0.0957,1.2089845 -0.182918,-0.10458 -0.175281,-0.11863 -0.371096,-0.222657 C 16.980188,9.8272432 16.437899,9.5621337 15.857422,9.3847656 15.567183,9.2960816 15.272137,9.2171815 14.859375,9.2265625 c -0.412762,0.00938 -1.120656,0.1907498 -1.527344,0.8007815 l -0.01953,0.03125 -0.01953,0.0293 c -0.565872,0.943119 -0.482422,1.597916 -0.482422,2.40625 0,0.808333 -0.0057,1.529642 0.427734,2.396484 0.146012,0.292024 0.302475,0.287512 0.464844,0.421875 -0.770051,0.06287 -1.597086,0.219533 -2.177734,0.169922 C 10.123137,15.24853 9.0273035,15.061951 6.5078125,14.03125 5.4556478,13.600819 4.4987237,12.835566 3.8476562,12.109375 3.5221225,11.74628 3.2729149,11.393259 3.1289062,11.138672 2.9848976,10.884085 3,10.654754 3,10.980469 c 0,0.325714 0.010573,0.0034 0.1640625,-0.326172 0.1043205,-0.223982 0.2928516,-0.53906 0.4667969,-0.8378908 0.085122,1.7566738 1.4901373,3.1445318 3.2695312,3.1445318 1.835,0 3.2988284,-1.465782 3.2988284,-3.3007818 0,-1.8349999 -1.4638285,-3.3007812 -3.2988284,-3.3007812 -0.2275732,0 -0.426522,0.083977 -0.640625,0.1269531 C 7.4697609,5.3460564 8.7136545,4.4179265 10.1875,3.8652344 l 0.03711,-0.015625 0.03711,-0.015625 c 1.264122,-0.5530534 2.282155,-0.701731 3.285156,-0.7636719 z"
       id="path19084"
       sodipodi:nodetypes="scsssssssccccsssssscsssssccssssscscsssssscscssscccssccssssscsssccccc" />
    <path
       style="color:#000000;font-style:normal;font-variant:normal;font-weight:normal;font-stretch:normal;font-size:medium;line-height:normal;font-family:sans-serif;font-variant-ligatures:normal;font-variant-position:normal;font-variant-caps:normal;font-variant-numeric:normal;font-variant-alternates:normal;font-variant-east-asian:normal;font-feature-settings:normal;font-variation-settings:normal;text-indent:0;text-align:start;text-decoration:none;text-decoration-line:none;text-decoration-style:solid;text-decoration-color:#000000;letter-spacing:normal;word-spacing:normal;text-transform:none;writing-mode:lr-tb;direction:ltr;text-orientation:mixed;dominant-baseline:auto;baseline-shift:baseline;text-anchor:start;white-space:normal;shape-padding:0;shape-margin:0;inline-size:0;clip-rule:nonzero;display:inline;overflow:visible;visibility:visible;isolation:auto;mix-blend-mode:normal;color-interpolation:sRGB;color-interpolation-filters:linearRGB;solid-color:#000000;solid-opacity:1;vector-effect:none;fill:#725a50;fill-opacity:1;fill-rule:nonzero;stroke:none;stroke-width:3;stroke-linecap:round;stroke-linejoin:miter;stroke-miterlimit:4;stroke-dasharray:none;stroke-dashoffset:0;stroke-opacity:1;paint-order:stroke fill markers;color-rendering:auto;image-rendering:auto;shape-rendering:auto;text-rendering:auto;enable-background:accumulate;stop-color:#000000;stop-opacity:1"
       d="m 14.58,14.22 c -0.36,-0.72 -0.36,-2.76 0,-3.36 0.48,-0.72 4.08,1.68 4.08,1.68 1.079999,0.48 1.079999,-7.3199999 0,-6.84 0,0 -3.72,2.52 -4.08,1.68 -0.36,-0.84 -0.36,-2.52 0,-3.36 C 14.94,3.3 19.5,3.18 19.5,3.18 19.5,2.34 16.02,1.5 14.58,1.5 13.14,1.5 11.58,1.62 9.66,2.46 7.7400001,3.18 6.18,4.3800001 4.74,5.82 3.3,7.26 1.5,10.14 1.5,10.98 c 0,0.84 1.8,3.36 4.44,4.44 2.64,1.08 3.96,1.32 5.4,1.56 1.32,0.12 3.12,0 4.68,-0.36 1.2,-0.24 3.48,-0.84 3.48,-1.32 0,-0.24 -4.56,-0.36 -4.92,-1.08 z M 6.9,11.46 C 5.94,11.46 5.1,10.62 5.1,9.66 5.1,8.7 5.94,7.8600001 6.9,7.8600001 7.86,7.8600001 8.7,8.7 8.7,9.66 c 0,0.96 -0.84,1.8 -1.8,1.8 z"
       id="path19086" />
  </g>
</svg>
