<?xml version="1.0" encoding="UTF-8" standalone="no"?>
<svg
   xmlns:dc="http://purl.org/dc/elements/1.1/"
   xmlns:cc="http://creativecommons.org/ns#"
   xmlns:rdf="http://www.w3.org/1999/02/22-rdf-syntax-ns#"
   xmlns:svg="http://www.w3.org/2000/svg"
   xmlns="http://www.w3.org/2000/svg"
   xmlns:sodipodi="http://sodipodi.sourceforge.net/DTD/sodipodi-0.dtd"
   xmlns:inkscape="http://www.inkscape.org/namespaces/inkscape"
   viewBox="0 0 21 21"
   height="21"
   width="21"
   version="1.1"
   id="svg37183"
   sodipodi:docname="artwork.svg"
   inkscape:version="1.0.2 (e86c8708, 2021-01-15)">
  <metadata
     id="metadata37189">
    <rdf:RDF>
      <cc:Work
         rdf:about="">
        <dc:format>image/svg+xml</dc:format>
        <dc:type
           rdf:resource="http://purl.org/dc/dcmitype/StillImage" />
        <dc:title>art_gallery_15.svg</dc:title>
      </cc:Work>
    </rdf:RDF>
  </metadata>
  <defs
     id="defs37187" />
  <sodipodi:namedview
     pagecolor="#ffffff"
     bordercolor="#666666"
     borderopacity="1"
     objecttolerance="10"
     gridtolerance="10"
     guidetolerance="10"
     inkscape:pageopacity="0"
     inkscape:pageshadow="2"
     inkscape:window-width="1087"
     inkscape:window-height="660"
     id="namedview37185"
     showgrid="false"
     inkscape:pagecheckerboard="true"
     inkscape:zoom="26.428571"
     inkscape:cx="11.483784"
     inkscape:cy="11.559459"
     inkscape:window-x="0"
     inkscape:window-y="25"
     inkscape:window-maximized="0"
     inkscape:current-layer="svg37183" />
  <title
     id="title37173">art_gallery_15.svg</title>
  <rect
     fill="none"
     x="0"
     y="0"
     width="21"
     height="21"
     id="rect37175" />
  <g
     id="path37181"
     transform="translate(3 3)"
     style="opacity:1">
    <path
       style="color:#000000;font-style:normal;font-variant:normal;font-weight:normal;font-stretch:normal;font-size:medium;line-height:normal;font-family:sans-serif;font-variant-ligatures:normal;font-variant-position:normal;font-variant-caps:normal;font-variant-numeric:normal;font-variant-alternates:normal;font-variant-east-asian:normal;font-feature-settings:normal;font-variation-settings:normal;text-indent:0;text-align:start;text-decoration:none;text-decoration-line:none;text-decoration-style:solid;text-decoration-color:#000000;letter-spacing:normal;word-spacing:normal;text-transform:none;writing-mode:lr-tb;direction:ltr;text-orientation:mixed;dominant-baseline:auto;baseline-shift:baseline;text-anchor:start;white-space:normal;shape-padding:0;shape-margin:0;inline-size:0;clip-rule:nonzero;display:inline;overflow:visible;visibility:visible;isolation:auto;mix-blend-mode:normal;color-interpolation:sRGB;color-interpolation-filters:linearRGB;solid-color:#000000;solid-opacity:1;vector-effect:none;fill:#ffffff;fill-opacity:1;fill-rule:nonzero;stroke:none;stroke-linecap:round;stroke-linejoin:miter;stroke-miterlimit:4;stroke-dasharray:none;stroke-dashoffset:0;stroke-opacity:1;paint-order:stroke fill markers;color-rendering:auto;image-rendering:auto;shape-rendering:auto;text-rendering:auto;enable-background:accumulate;stop-color:#000000;stop-opacity:1"
       d="m 7.5039062,-0.48828125 c -0.5150361,-0.002112 -1.032263,0.18775376 -1.4179687,0.5703125 l -0.00195,0.0019531 -0.00391,0.0058594 L 3.6679688,2.5 H 1.5 c -1.08703807,0 -2,0.9129619 -2,2 v 9 c 0,1.087038 0.91296193,2 2,2 h 12 c 1.087038,0 2,-0.912962 2,-2 v -9 c 0,-1.0870381 -0.912962,-2 -2,-2 H 11.330078 L 8.9140625,0.09375 C 8.5315101,-0.29194933 8.0189424,-0.48616904 7.5039062,-0.48828125 Z M 5,6.5 c 0.1977687,0 0.305539,0.2004744 0.3828125,0.3828125 L 5.1464844,7.3535156 C 5.0793202,7.3893449 5.0756768,7.5 5,7.5 4.7416898,7.5 4.5,7.2583102 4.5,7 4.5,6.7416898 4.7416898,6.5 5,6.5 Z M 9.5,10.353516 9.5742188,10.5 H 9.4257812 Z"
       id="path37776"
       sodipodi:nodetypes="sccccssssssssccssccssscccc" />
    <path
       style="color:#000000;font-style:normal;font-variant:normal;font-weight:normal;font-stretch:normal;font-size:medium;line-height:normal;font-family:sans-serif;font-variant-ligatures:normal;font-variant-position:normal;font-variant-caps:normal;font-variant-numeric:normal;font-variant-alternates:normal;font-variant-east-asian:normal;font-feature-settings:normal;font-variation-settings:normal;text-indent:0;text-align:start;text-decoration:none;text-decoration-line:none;text-decoration-style:solid;text-decoration-color:#000000;letter-spacing:normal;word-spacing:normal;text-transform:none;writing-mode:lr-tb;direction:ltr;text-orientation:mixed;dominant-baseline:auto;baseline-shift:baseline;text-anchor:start;white-space:normal;shape-padding:0;shape-margin:0;inline-size:0;clip-rule:nonzero;display:inline;overflow:visible;visibility:visible;isolation:auto;mix-blend-mode:normal;color-interpolation:sRGB;color-interpolation-filters:linearRGB;solid-color:#000000;solid-opacity:1;vector-effect:none;fill:#725a50;fill-opacity:1;fill-rule:nonzero;stroke:none;stroke-width:3;stroke-linecap:round;stroke-linejoin:miter;stroke-miterlimit:4;stroke-dasharray:none;stroke-dashoffset:0;stroke-opacity:1.0;paint-order:stroke fill markers;color-rendering:auto;image-rendering:auto;shape-rendering:auto;text-rendering:auto;enable-background:accumulate;stop-color:#000000;stop-opacity:1;"
       d="M 10.71,4 7.85,1.15 C 7.6555,0.9539 7.339,0.9526 7.1429,1.1471 L 7.14,1.15 4.29,4 H 1.5 C 1.2239,4 1,4.2239 1,4.5 v 9 C 1,13.7761 1.2239,14 1.5,14 h 12 c 0.2761,0 0.5,-0.2239 0.5,-0.5 v -9 C 14,4.2239 13.7761,4 13.5,4 Z M 7.5,2.21 9.29,4 H 5.71 Z M 13,13 H 2 V 5 H 13 Z M 5,8 C 4.4477,8 4,7.5523 4,7 4,6.4477 4.4477,6 5,6 5.5523,6 6,6.4477 6,7 6,7.5523 5.5523,8 5,8 Z m 7,4 H 4.5 L 6,9 7.25,11.5 9.5,7 Z"
       id="path37778" />
  </g>
</svg>
