<?xml version="1.0" encoding="UTF-8" standalone="no"?>
<svg
   xmlns:dc="http://purl.org/dc/elements/1.1/"
   xmlns:cc="http://creativecommons.org/ns#"
   xmlns:rdf="http://www.w3.org/1999/02/22-rdf-syntax-ns#"
   xmlns:svg="http://www.w3.org/2000/svg"
   xmlns="http://www.w3.org/2000/svg"
   xmlns:sodipodi="http://sodipodi.sourceforge.net/DTD/sodipodi-0.dtd"
   xmlns:inkscape="http://www.inkscape.org/namespaces/inkscape"
   version="1.1"
   id="fast-food"
   width="15.540208"
   height="15.037135"
   viewBox="0 0 15.540208 15.037135"
   sodipodi:docname="atm.svg"
   inkscape:version="1.0.2 (e86c8708, 2021-01-15)">
  <metadata
     id="metadata81079">
    <rdf:RDF>
      <cc:Work
         rdf:about="">
        <dc:format>image/svg+xml</dc:format>
        <dc:type
           rdf:resource="http://purl.org/dc/dcmitype/StillImage" />
        <dc:title></dc:title>
      </cc:Work>
    </rdf:RDF>
  </metadata>
  <defs
     id="defs81077" />
  <sodipodi:namedview
     pagecolor="#ffffff"
     bordercolor="#666666"
     borderopacity="1"
     objecttolerance="10"
     gridtolerance="10"
     guidetolerance="10"
     inkscape:pageopacity="0"
     inkscape:pageshadow="2"
     inkscape:window-width="1314"
     inkscape:window-height="775"
     id="namedview81075"
     showgrid="false"
     inkscape:zoom="26.11581"
     inkscape:cx="6.4181969"
     inkscape:cy="7.4995172"
     inkscape:window-x="90"
     inkscape:window-y="25"
     inkscape:window-maximized="0"
     inkscape:current-layer="fast-food" />
  <path
     id="path79765"
     style="fill:#725a50;fill-opacity:1;stroke:#ffffff;stroke-width:3;stroke-linecap:round;stroke-miterlimit:4;stroke-dasharray:none;stroke-opacity:1;paint-order:stroke fill markers"
     d="M 1.5,1.5000007 V 8.4258783 H 1.993836 L 3.0772044,4.1320589 3.1533488,3.8245195 v -0.00209 h 9.2342072 v 2.8218254 l 0.348972,1.7815936 h 1.303679 V 1.5000067 Z M 10.388322,5.282616 4.1422714,5.2827376 3.8020473,6.6444455 3.3568296,8.4260397 2.5332786,11.718002 H 11.651395 L 11.005197,8.4260768 10.746114,7.1019494 10.654976,6.6443643 Z M 5.4803495,5.9205439 H 6.0484558 L 5.8811737,7.1019102 5.7956214,7.702019 H 4.9116172 Z m 1.3654183,0 h 0.5681803 l 0.084855,1.1813663 0.042445,0.6001088 H 6.6559219 l 0.06501,-0.6001088 z m 1.3099273,0 h 0.5675195 l 0.3503298,1.1813663 0.178565,0.6001088 h -0.88404 L 8.2962252,7.1019102 Z m 3.1536009,1.1812473 0.235379,1.2016426 0.646898,3.2914082 0.139829,0.717127 H 4.3214614 L 4.0149362,13.537135 H 13.132464 L 12.487551,10.245212 12.136596,8.4636184 11.870054,7.1017912 Z M 6.9657173,8.4260768 c 1.5484756,0 2.8027931,0.509928 2.8027931,1.138362 0,0.6298112 -1.2542926,1.1390332 -2.8027931,1.1390332 -0.8628844,0 -1.6251943,-0.162099 -2.1396887,-0.411729 C 4.419536,10.094688 4.1642481,9.8430352 4.1642481,9.5644771 c 0,-0.3592554 0.4207926,-0.6775612 1.0651398,-0.8867775 C 5.7082078,8.5229917 6.3076472,8.4260768 6.9657173,8.4260768 Z" />
</svg>
