<?xml version="1.0" encoding="UTF-8" standalone="no"?>
<svg
   xmlns:dc="http://purl.org/dc/elements/1.1/"
   xmlns:cc="http://creativecommons.org/ns#"
   xmlns:rdf="http://www.w3.org/1999/02/22-rdf-syntax-ns#"
   xmlns:svg="http://www.w3.org/2000/svg"
   xmlns="http://www.w3.org/2000/svg"
   xmlns:sodipodi="http://sodipodi.sourceforge.net/DTD/sodipodi-0.dtd"
   xmlns:inkscape="http://www.inkscape.org/namespaces/inkscape"
   viewBox="0 0 17.6 14.3"
   height="14.3"
   width="17.6"
   version="1.1"
   id="svg37808"
   sodipodi:docname="attraction.svg"
   inkscape:version="1.0.2 (e86c8708, 2021-01-15)">
  <metadata
     id="metadata37814">
    <rdf:RDF>
      <cc:Work
         rdf:about="">
        <dc:format>image/svg+xml</dc:format>
        <dc:type
           rdf:resource="http://purl.org/dc/dcmitype/StillImage" />
        <dc:title>attraction_15.svg</dc:title>
      </cc:Work>
    </rdf:RDF>
  </metadata>
  <defs
     id="defs37812" />
  <sodipodi:namedview
     pagecolor="#ffffff"
     bordercolor="#666666"
     borderopacity="1"
     objecttolerance="10"
     gridtolerance="10"
     guidetolerance="10"
     inkscape:pageopacity="0"
     inkscape:pageshadow="2"
     inkscape:window-width="1204"
     inkscape:window-height="742"
     id="namedview37810"
     showgrid="false"
     inkscape:zoom="26.428571"
     inkscape:cx="6.927027"
     inkscape:cy="6.6662162"
     inkscape:window-x="0"
     inkscape:window-y="25"
     inkscape:window-maximized="0"
     inkscape:current-layer="svg37808" />
  <title
     id="title37798">attraction_15.svg</title>
  <rect
     fill="none"
     x="-1.7"
     y="-2.8499999"
     width="21"
     height="21"
     id="rect37800" />
  <path
     fill="#5d60be"
     d="m 7.15,1.65 c -0.6094,0 -0.82742,0.55495 -1.1,1.1 L 5.5,3.85 H 3.3 C 2.3859,3.85 1.65,4.5859 1.65,5.5 V 11 c 0,0.9141 0.7359,1.65 1.65,1.65 h 11 c 0.9141,0 1.65,-0.7359 1.65,-1.65 V 5.5 C 15.95,4.5859 15.2141,3.85 14.3,3.85 H 12.1 L 11.55,2.75 C 11.275,2.2 11.0594,1.65 10.45,1.65 Z M 3.3,4.95 C 3.60371,4.95 3.85,5.19629 3.85,5.5 3.85,5.80371 3.60371,6.05 3.3,6.05 2.99629,6.05 2.75,5.80371 2.75,5.5 2.75,5.19629 2.99629,4.95 3.3,4.95 Z m 5.5,0 c 1.82259,0 3.3,1.47741 3.3,3.3 0,1.82259 -1.47741,3.3 -3.3,3.3 -1.82259,0 -3.3,-1.47741 -3.3,-3.3 0,-1.82259 1.47741,-3.3 3.3,-3.3 z m 0,1.65 C 7.88876,6.6 7.15,7.33876 7.15,8.25 v 0 c 0,0.91124 0.73876,1.65 1.65,1.65 v 0 c 0.91124,0 1.65,-0.73876 1.65,-1.65 v 0 C 10.45,7.33876 9.71124,6.6 8.8,6.6 Z"
     id="path37806"
     style="fill:#725a50;fill-opacity:1;stroke:#ffffff;stroke-width:3.3;stroke-linecap:round;stroke-miterlimit:4;stroke-dasharray:none;stroke-opacity:1;paint-order:stroke fill markers" />
</svg>
