<?xml version="1.0" encoding="UTF-8" standalone="no"?>
<svg
   xmlns:dc="http://purl.org/dc/elements/1.1/"
   xmlns:cc="http://creativecommons.org/ns#"
   xmlns:rdf="http://www.w3.org/1999/02/22-rdf-syntax-ns#"
   xmlns:svg="http://www.w3.org/2000/svg"
   xmlns="http://www.w3.org/2000/svg"
   xmlns:sodipodi="http://sodipodi.sourceforge.net/DTD/sodipodi-0.dtd"
   xmlns:inkscape="http://www.inkscape.org/namespaces/inkscape"
   viewBox="0 0 19.799999 12.100242"
   height="12.100243"
   width="19.799999"
   version="1.1"
   id="svg43571"
   sodipodi:docname="bakery.svg"
   inkscape:version="1.0.2 (e86c8708, 2021-01-15)">
  <metadata
     id="metadata43577">
    <rdf:RDF>
      <cc:Work
         rdf:about="">
        <dc:format>image/svg+xml</dc:format>
        <dc:type
           rdf:resource="http://purl.org/dc/dcmitype/StillImage" />
        <dc:title>bakery_15.svg</dc:title>
      </cc:Work>
    </rdf:RDF>
  </metadata>
  <defs
     id="defs43575" />
  <sodipodi:namedview
     pagecolor="#ffffff"
     bordercolor="#666666"
     borderopacity="1"
     objecttolerance="10"
     gridtolerance="10"
     guidetolerance="10"
     inkscape:pageopacity="0"
     inkscape:pageshadow="2"
     inkscape:window-width="1161"
     inkscape:window-height="675"
     id="namedview43573"
     showgrid="false"
     inkscape:pagecheckerboard="true"
     inkscape:zoom="26.428571"
     inkscape:cx="11.962162"
     inkscape:cy="7.4583398"
     inkscape:window-x="0"
     inkscape:window-y="25"
     inkscape:window-maximized="0"
     inkscape:current-layer="svg43571" />
  <title
     id="title43559">bakery_15.svg</title>
  <rect
     fill="none"
     x="-0.60000002"
     y="-3.9497681"
     width="21"
     height="21"
     id="rect43561" />
  <path
     id="path43569"
     d="m 14.3,3.8502427 c 1.65,0 1.65,1.1 1.65,1.1 l -1.1,4.4 H 13.2 c -0.8305,0 -0.87351,-0.84117 -0.87351,-0.84117 L 13.2,3.8502427 Z m 2.2,2.75 c 0,0 0.67936,-0.03234 1.16468,0.45298 0.48532,0.48521 0.48532,0.97053 0.48532,0.97053 V 10.450243 H 17.17936 C 15.95,10.450243 15.95,9.3502427 15.95,9.3502427 Z M 7.47351,3.1708827 8.25,8.8002427 c 0,0 0,1.1 1.1,1.1 h 1.1 c 1.1,0 1.1,-1.1 1.1,-1.1 l 0.77649,-5.62936 c 0,-1.52064 -2.42649,-1.52064 -2.42649,-1.52064 0,0 -2.4299,0 -2.42649,1.52064 z M 5.5,3.8502427 c -1.65,0 -1.65,1.1 -1.65,1.1 l 1.1,4.4 H 6.6 c 0.8305,0 0.87351,-0.84117 0.87351,-0.84117 L 6.6,3.8502427 Z m -2.2,2.75 c 0,0 -0.67936,-0.03234 -1.16468,0.45298 C 1.65,7.5384327 1.65,8.0237527 1.65,8.0237527 V 10.450243 H 2.62064 C 3.85,10.450243 3.85,9.3502427 3.85,9.3502427 Z"
     style="fill:#725a50;fill-opacity:1;stroke:#ffffff;stroke-width:3.3;stroke-linecap:round;stroke-miterlimit:4;stroke-dasharray:none;stroke-opacity:1;paint-order:stroke fill markers" />
</svg>
