<?xml version="1.0" encoding="UTF-8" standalone="no"?>
<svg
   xmlns:dc="http://purl.org/dc/elements/1.1/"
   xmlns:cc="http://creativecommons.org/ns#"
   xmlns:rdf="http://www.w3.org/1999/02/22-rdf-syntax-ns#"
   xmlns:svg="http://www.w3.org/2000/svg"
   xmlns="http://www.w3.org/2000/svg"
   xmlns:sodipodi="http://sodipodi.sourceforge.net/DTD/sodipodi-0.dtd"
   xmlns:inkscape="http://www.inkscape.org/namespaces/inkscape"
   viewBox="0 0 17.305248 11.541571"
   height="11.541571"
   width="17.305248"
   version="1.1"
   id="svg6744"
   sodipodi:docname="bank.svg"
   inkscape:version="1.0.2 (e86c8708, 2021-01-15)">
  <metadata
     id="metadata6750">
    <rdf:RDF>
      <cc:Work
         rdf:about="">
        <dc:format>image/svg+xml</dc:format>
        <dc:type
           rdf:resource="http://purl.org/dc/dcmitype/StillImage" />
        <dc:title>bank_15.svg</dc:title>
      </cc:Work>
    </rdf:RDF>
  </metadata>
  <defs
     id="defs6748" />
  <sodipodi:namedview
     pagecolor="#ffffff"
     bordercolor="#666666"
     borderopacity="1"
     objecttolerance="10"
     gridtolerance="10"
     guidetolerance="10"
     inkscape:pageopacity="0"
     inkscape:pageshadow="2"
     inkscape:window-width="1144"
     inkscape:window-height="748"
     id="namedview6746"
     showgrid="false"
     inkscape:pagecheckerboard="true"
     inkscape:zoom="26.142857"
     inkscape:cx="6.9830031"
     inkscape:cy="3.872486"
     inkscape:window-x="70"
     inkscape:window-y="25"
     inkscape:window-maximized="0"
     inkscape:current-layer="svg6744"
     inkscape:document-rotation="0" />
  <title
     id="title6734">bank_15.svg</title>
  <rect
     fill="none"
     x="-1.8386261"
     y="-4.7399626"
     width="21"
     height="21"
     id="rect6736" />
  <g
     id="path6742"
     style="opacity:1"
     transform="translate(-2.8842104,-2.1855469)">
    <path
       style="color:#000000;font-style:normal;font-variant:normal;font-weight:normal;font-stretch:normal;font-size:medium;line-height:normal;font-family:sans-serif;font-variant-ligatures:normal;font-variant-position:normal;font-variant-caps:normal;font-variant-numeric:normal;font-variant-alternates:normal;font-variant-east-asian:normal;font-feature-settings:normal;font-variation-settings:normal;text-indent:0;text-align:start;text-decoration:none;text-decoration-line:none;text-decoration-style:solid;text-decoration-color:#000000;letter-spacing:normal;word-spacing:normal;text-transform:none;writing-mode:lr-tb;direction:ltr;text-orientation:mixed;dominant-baseline:auto;baseline-shift:baseline;text-anchor:start;white-space:normal;shape-padding:0;shape-margin:0;inline-size:0;clip-rule:nonzero;display:inline;overflow:visible;visibility:visible;isolation:auto;mix-blend-mode:normal;color-interpolation:sRGB;color-interpolation-filters:linearRGB;solid-color:#000000;solid-opacity:1;vector-effect:none;fill:#ffffff;fill-opacity:1;fill-rule:nonzero;stroke:none;stroke-linecap:round;stroke-linejoin:miter;stroke-miterlimit:4;stroke-dasharray:none;stroke-dashoffset:0;stroke-opacity:1;paint-order:stroke fill markers;color-rendering:auto;image-rendering:auto;shape-rendering:auto;text-rendering:auto;enable-background:accumulate;stop-color:#000000;stop-opacity:1"
       d="M 7.109375,2.1855469 H 5.3046875 c -1.304692,0 -2.3984375,1.0956986 -2.3984375,2.4003906 v 1.8027344 c 0,2.5175781 0,0.5208762 0,0.5976562 V 8.90625 c 0,0.5976562 -0.049589,-0.9437361 0,0.5976562 v 1.8007818 c 0,1.304692 1.0937455,2.40039 2.3984375,2.40039 h 1.8027344 c 1.6057656,0.0096 0.5208763,0 0.5976562,0 h 7.6796879 c 0.597656,0 -0.714228,0.04959 0.597656,0 h 1.802734 c 1.304692,0 2.400391,-1.095698 2.400391,-2.40039 V 9.5019531 c 0.0058,-1.5268905 0,-0.5191741 0,-0.5957031 V 6.9863281 c 0,-0.5957031 0.0088,0.6753924 0,-0.5957031 V 4.5859375 c 0,-1.304692 -1.095699,-2.4003906 -2.400391,-2.4003906 h -1.804687 c -1.718147,0.032412 -0.519174,0 -0.595703,0 H 7.7050781 c -1.0628647,0.00716 0.4841357,0.029451 -0.5957031,0 z M 5.7851562,5.0664062 c 0.1279121,0 0.2221985,0.093019 0.3359376,0.1425782 L 5.9277344,5.4023438 C 5.8779458,5.2883746 5.7851562,5.1946326 5.7851562,5.0664062 Z m 11.5195318,0 c 0,0.1282264 -0.09279,0.2219684 -0.142579,0.3359376 L 16.96875,5.2089844 c 0.113969,-0.049789 0.207711,-0.1425782 0.335938,-0.1425782 z M 7.9140625,6.4941406 C 7.8565355,6.7247545 7.839907,6.970769 7.8105469,7.2128906 l -0.515625,0.4921875 h 0.4453125 c -0.00325,0.083104 -0.035156,0.1562232 -0.035156,0.2402344 0,0.1679262 0.055441,0.3163553 0.068359,0.4804687 H 7.5078125 L 7.828125,8.796875 c 0.01453,0.1024999 0.023304,0.2061778 0.042969,0.3066406 L 7.6777344,9.296875 C 7.5978444,9.2476967 7.5085334,9.2267099 7.421875,9.1894531 7.1265429,8.5025181 6.5679576,7.9453125 5.7851562,7.9453125 c 0.7825328,0 1.3392647,-0.5575754 1.6347657,-1.2441406 0.1672847,-0.07177 0.3541175,-0.092927 0.4941406,-0.2070313 z m 7.2636715,0 c 0.139553,0.1137213 0.325542,0.1353459 0.492188,0.2070313 0.04159,0.096688 0.06475,0.1969844 0.121094,0.2851562 h -0.542969 c -0.02623,-0.1635016 -0.03092,-0.3342673 -0.07031,-0.4921875 z m 0.669922,0.6269532 c 0.35322,0.4705912 0.836552,0.8242187 1.457032,0.8242187 -0.783307,0 -1.339752,0.5584651 -1.634766,1.2460937 -0.129001,0.055523 -0.267522,0.078864 -0.38086,0.1601563 l -0.0957,-0.064453 c 0.05546,-0.2420297 0.0826,-0.4940188 0.107422,-0.7480469 l 0.08399,-0.1132813 h -0.06836 c 0.01292,-0.164139 0.06836,-0.3125156 0.06836,-0.4804687 0,-0.084024 -0.03191,-0.1571178 -0.03516,-0.2402344 H 15.79688 L 15.523438,7.4453125 Z m -9.9179685,3.3671872 0.1933594,0.19336 c -0.1143957,0.05022 -0.2090807,0.144531 -0.3378907,0.144531 0,-0.12881 0.094315,-0.223495 0.1445313,-0.337891 z m 11.2304685,0 c 0.05022,0.114396 0.144532,0.209081 0.144532,0.337891 -0.128496,0 -0.221772,-0.09455 -0.335938,-0.144531 l 0.0957,-0.0957 h 0.07617 l -0.04492,-0.03125 z"
       id="path41259"
       sodipodi:nodetypes="cssccccssccccssccccssccccccccccccccccsccccccccccccccccccccccsccccccccccccccc" />
    <path
       style="color:#000000;font-style:normal;font-variant:normal;font-weight:normal;font-stretch:normal;font-size:medium;line-height:normal;font-family:sans-serif;font-variant-ligatures:normal;font-variant-position:normal;font-variant-caps:normal;font-variant-numeric:normal;font-variant-alternates:normal;font-variant-east-asian:normal;font-feature-settings:normal;font-variation-settings:normal;text-indent:0;text-align:start;text-decoration:none;text-decoration-line:none;text-decoration-style:solid;text-decoration-color:#000000;letter-spacing:normal;word-spacing:normal;text-transform:none;writing-mode:lr-tb;direction:ltr;text-orientation:mixed;dominant-baseline:auto;baseline-shift:baseline;text-anchor:start;white-space:normal;shape-padding:0;shape-margin:0;inline-size:0;clip-rule:nonzero;display:inline;overflow:visible;visibility:visible;isolation:auto;mix-blend-mode:normal;color-interpolation:sRGB;color-interpolation-filters:linearRGB;solid-color:#000000;solid-opacity:1;vector-effect:none;fill:#725a50;fill-opacity:1;fill-rule:nonzero;stroke:none;stroke-width:2.88;stroke-linecap:round;stroke-linejoin:miter;stroke-miterlimit:4;stroke-dasharray:none;stroke-dashoffset:0;stroke-opacity:1;paint-order:stroke fill markers;color-rendering:auto;image-rendering:auto;shape-rendering:auto;text-rendering:auto;enable-background:accumulate;stop-color:#000000;stop-opacity:1"
       d="m 5.3055843,3.6255843 c -0.53184,0 -0.96,0.42816 -0.96,0.96 v 6.7199997 c 0,0.53184 0.42816,0.96 0.96,0.96 H 17.785584 c 0.53184,0 0.96,-0.42816 0.96,-0.96 V 4.5855843 c 0,-0.53184 -0.42816,-0.96 -0.96,-0.96 z m 0,0.96 h 1.44 c 0.265056,0 0.48,0.214944 0.48,0.48 0,0.265056 -0.214944,0.48 -0.48,0.48 -0.265056,0 -0.48,-0.214944 -0.48,-0.48 l -0.48,0.48 c 0.265056,0 0.48,0.214944 0.48,0.48 0,0.265056 -0.214944,0.48 -0.48,0.48 -0.265056,0 -0.48,-0.214944 -0.48,-0.48 z m 6.2399997,0 c 1.325472,0 2.4,1.50432 2.4,3.36 v 0 c 0,1.8556797 -1.074528,3.3599997 -2.4,3.3599997 -1.325472,0 -2.3999997,-1.50432 -2.3999997,-3.3599997 0,-1.85568 1.0745277,-3.36 2.3999997,-3.36 z m 4.8,0 h 1.44 v 1.44 c 0,0.265056 -0.214944,0.48 -0.48,0.48 -0.265056,0 -0.48,-0.214944 -0.48,-0.48 0,-0.265056 0.214944,-0.48 0.48,-0.48 l -0.48,-0.48 c 0,0.265056 -0.214944,0.48 -0.48,0.48 -0.265056,0 -0.48,-0.214944 -0.48,-0.48 0,-0.265056 0.214944,-0.48 0.48,-0.48 z m -4.8,1.44 c -0.31008,0 -0.512256,0.104448 -0.654336,0.24 h 1.308768 c -0.142176,-0.135552 -0.344352,-0.24 -0.654432,-0.24 z m -0.84,0.48 c -0.04368,0.08736 -0.05923,0.164256 -0.0769,0.24 h 1.833792 c -0.01766,-0.075744 -0.03322,-0.15264 -0.0769,-0.24 z m -0.12,0.48 v 0.24 h 1.92 v -0.24 z m 0,0.48 v 0.24 h 1.92 v -0.24 z m 0,0.48 v 0.24 h 1.92 v -0.24 z m 0,0.48 -0.24,0.24 h 1.92 l 0.24,-0.24 z m -0.48,0.48 c 0,0 0.03389,0.098304 0.09754,0.24 h 2.182464 l -0.36,-0.24 z m -4.3199997,0.48 c 0.265056,0 0.48,0.2149437 0.48,0.4799997 0,0.265056 -0.214944,0.48 -0.48,0.48 l 0.48,0.48 c 0,-0.265056 0.214944,-0.48 0.48,-0.48 0.265056,0 0.48,0.214944 0.48,0.48 0,0.265056 -0.214944,0.48 -0.48,0.48 h -1.44 v -1.44 c 0,-0.265056 0.214944,-0.4799997 0.48,-0.4799997 z m 4.5487677,0 c 0.04406,0.082176 0.07306,0.15264 0.131232,0.2399997 h 2.176896 c 0.06394,-0.1323837 0.103104,-0.2399997 0.103104,-0.2399997 z m 6.971232,0 c 0.265056,0 0.48,0.2149437 0.48,0.4799997 v 1.44 h -1.44 c -0.265056,0 -0.48,-0.214944 -0.48,-0.48 0,-0.265056 0.214944,-0.48 0.48,-0.48 0.265056,0 0.48,0.214944 0.48,0.48 l 0.48,-0.48 c -0.265056,0 -0.48,-0.214944 -0.48,-0.48 0,-0.265056 0.214944,-0.4799997 0.48,-0.4799997 z M 10.649328,9.865584 c 0.07546,0.087552 0.158112,0.169248 0.249408,0.24 h 1.363104 c 0.0961,-0.07421 0.180192,-0.155232 0.243744,-0.24 z"
       id="path41261" />
  </g>
</svg>
