<?xml version="1.0" encoding="UTF-8" standalone="no"?>
<svg
   xmlns:dc="http://purl.org/dc/elements/1.1/"
   xmlns:cc="http://creativecommons.org/ns#"
   xmlns:rdf="http://www.w3.org/1999/02/22-rdf-syntax-ns#"
   xmlns:svg="http://www.w3.org/2000/svg"
   xmlns="http://www.w3.org/2000/svg"
   xmlns:sodipodi="http://sodipodi.sourceforge.net/DTD/sodipodi-0.dtd"
   xmlns:inkscape="http://www.inkscape.org/namespaces/inkscape"
   viewBox="0 0 12 16.5"
   height="16.5"
   width="12"
   version="1.1"
   id="svg45338"
   sodipodi:docname="beer.svg"
   inkscape:version="1.0.2 (e86c8708, 2021-01-15)">
  <metadata
     id="metadata45344">
    <rdf:RDF>
      <cc:Work
         rdf:about="">
        <dc:format>image/svg+xml</dc:format>
        <dc:type
           rdf:resource="http://purl.org/dc/dcmitype/StillImage" />
        <dc:title>bar_15.svg</dc:title>
      </cc:Work>
    </rdf:RDF>
  </metadata>
  <defs
     id="defs45342" />
  <sodipodi:namedview
     pagecolor="#ffffff"
     bordercolor="#666666"
     borderopacity="1"
     objecttolerance="10"
     gridtolerance="10"
     guidetolerance="10"
     inkscape:pageopacity="0"
     inkscape:pageshadow="2"
     inkscape:window-width="1241"
     inkscape:window-height="676"
     id="namedview45340"
     showgrid="false"
     inkscape:pagecheckerboard="true"
     inkscape:zoom="26.428571"
     inkscape:cx="9.7418204"
     inkscape:cy="6.0337836"
     inkscape:window-x="0"
     inkscape:window-y="25"
     inkscape:window-maximized="0"
     inkscape:current-layer="svg45338"
     inkscape:document-rotation="0" />
  <title
     id="title45328">bar_15.svg</title>
  <rect
     fill="none"
     x="-4.4662876"
     y="-2.1959462"
     width="21"
     height="21"
     id="rect45330" />
  <path
     fill="#d97200"
     d="m 10.5,5.5 v -3 c 0,0 -0.9999999,-1 -4.5000001,-1 C 2.5,1.5 1.5,2.5 1.5,2.5 v 3 c 0.0288,1.3915 0.3706,2.7586 1,4 0.6255,1.4348 0.6255,3.0652 0,4.5 0,0 0,1 3.4999999,1 3.5000002,0 3.5000002,-1 3.5000002,-1 -0.6255,-1.4348 -0.6255,-3.0652 0,-4.5 C 10.1294,8.2586 10.4712,6.8915 10.5,5.5 Z M 5.9999999,14 C 5.2034,14.035 4.4063,13.9404 3.64,13.72 3.843,12.9976 3.944,12.2504 3.94,11.5 h 4.1200001 c -0.004,0.7504 0.097,1.4976 0.3,2.22 C 7.5936999,13.9404 6.7965999,14.035 5.9999999,14 Z m 0,-8.5 C 4.8136,5.5299 3.6306,5.3609 2.5,5 V 3 C 3.631,2.6411 4.8137,2.4722 5.9999999,2.5 7.1862999,2.4722 8.3690001,2.6411 9.5000001,3 v 2 c -1.1306,0.3609 -2.3136002,0.5299 -3.5000002,0.5 z"
     id="path48886"
     style="fill:#725a50;fill-opacity:1;stroke:#ffffff;stroke-width:3;stroke-linecap:round;stroke-miterlimit:4;stroke-dasharray:none;stroke-opacity:1;paint-order:stroke fill markers" />
</svg>
