<?xml version="1.0" encoding="UTF-8" standalone="no"?>
<svg
   xmlns:dc="http://purl.org/dc/elements/1.1/"
   xmlns:cc="http://creativecommons.org/ns#"
   xmlns:rdf="http://www.w3.org/1999/02/22-rdf-syntax-ns#"
   xmlns:svg="http://www.w3.org/2000/svg"
   xmlns="http://www.w3.org/2000/svg"
   xmlns:sodipodi="http://sodipodi.sourceforge.net/DTD/sodipodi-0.dtd"
   xmlns:inkscape="http://www.inkscape.org/namespaces/inkscape"
   viewBox="0 0 19.799999 16.5"
   height="16.5"
   width="19.799999"
   version="1.1"
   id="svg53763"
   sodipodi:docname="bicycle_rental.svg"
   inkscape:version="1.0.2 (e86c8708, 2021-01-15)">
  <metadata
     id="metadata53769">
    <rdf:RDF>
      <cc:Work
         rdf:about="">
        <dc:format>image/svg+xml</dc:format>
        <dc:type
           rdf:resource="http://purl.org/dc/dcmitype/StillImage" />
        <dc:title>bicycle_rental_15.svg</dc:title>
      </cc:Work>
    </rdf:RDF>
  </metadata>
  <defs
     id="defs53767" />
  <sodipodi:namedview
     pagecolor="#ffffff"
     bordercolor="#666666"
     borderopacity="1"
     objecttolerance="10"
     gridtolerance="10"
     guidetolerance="10"
     inkscape:pageopacity="0"
     inkscape:pageshadow="2"
     inkscape:window-width="1298"
     inkscape:window-height="776"
     id="namedview53765"
     showgrid="false"
     inkscape:zoom="26.428571"
     inkscape:cx="12.264865"
     inkscape:cy="8.4094594"
     inkscape:window-x="63"
     inkscape:window-y="25"
     inkscape:window-maximized="0"
     inkscape:current-layer="svg53763" />
  <title
     id="title53753">bicycle_rental_15.svg</title>
  <rect
     fill="none"
     x="-0.60000002"
     y="-1.75"
     width="21"
     height="21"
     id="rect53755" />
  <rect
     x="-0.45884445"
     y="-0.0010806109"
     width="20.286953"
     height="16.802162"
     rx="0"
     ry="0"
     fill="#4898ff"
     id="rect22618"
     style="stroke-width:0.971712" />
  <path
     fill="#5d60be"
     d="m 12.360811,1.7621622 c -0.60753,0 -1.1,0.49247 -1.1,1.1 0,0.60753 0.49247,1.1 1.1,1.1 0.60753,0 1.1,-0.49247 1.1,-1.1 0,-0.60753 -0.49247,-1.1 -1.1,-1.1 z m -2.04105,2.19351 c -0.143,5.5e-4 -0.28017,0.05687 -0.3824701,0.15686 l -2.90466,2.75 c -0.24816,0.23408 -0.22561,0.63525 0.0473,0.84007 l 1.98088,1.48456 v 3.0249998 c -0.011,0.74382 1.1105601,0.74382 1.1000001,0 V 8.9121622 c 3.3e-4,-0.17314 -0.08085,-0.33627 -0.2191201,-0.44044 l -0.84436,-0.63382 1.9998001,-1.89332 0.82324,1.09835 c 0.10417,0.13838 0.2673,0.21956 0.44044,0.21923 h 1.65 c 0.74371,0.011 0.74371,-1.11056 0,-1.1 h -1.375 l -0.825,-1.1 -0.65956,-0.88088 c -0.09911,-0.13596 -0.25509,-0.21912 -0.42328,-0.22561 z m -5.6589501,4.40649 c -1.82259,0 -3.3,1.47752 -3.3,3.2999998 0,1.82248 1.47741,3.3 3.3,3.3 1.82259,0 3.3,-1.47752 3.3,-3.3 0,-1.8224798 -1.47741,-3.2999998 -3.3,-3.2999998 z m 9.9000001,0 c -1.82259,0 -3.3,1.47752 -3.3,3.2999998 0,1.82248 1.47741,3.3 3.3,3.3 1.82259,0 3.3,-1.47752 3.3,-3.3 0,-1.8224798 -1.47741,-3.2999998 -3.3,-3.2999998 z m -9.9000001,1.1 c 1.21506,0 2.2,0.9849398 2.2,2.1999998 0,1.21506 -0.98494,2.2 -2.2,2.2 -1.21506,0 -2.2,-0.98494 -2.2,-2.2 0,-1.21506 0.98494,-2.1999998 2.2,-2.1999998 z m 9.9000001,0 c 1.21506,0 2.2,0.9849398 2.2,2.1999998 0,1.21506 -0.98494,2.2 -2.2,2.2 -1.21506,0 -2.2,-0.98494 -2.2,-2.2 0,-1.21506 0.98494,-2.1999998 2.2,-2.1999998 z"
     id="path53761"
     style="fill:#ffffff;fill-opacity:1;stroke:none;stroke-width:3.3;stroke-linecap:round;stroke-miterlimit:4;stroke-dasharray:none;stroke-opacity:1;paint-order:stroke fill markers" />
</svg>
