<?xml version="1.0" encoding="UTF-8" standalone="no"?>
<svg
   xmlns:dc="http://purl.org/dc/elements/1.1/"
   xmlns:cc="http://creativecommons.org/ns#"
   xmlns:rdf="http://www.w3.org/1999/02/22-rdf-syntax-ns#"
   xmlns:svg="http://www.w3.org/2000/svg"
   xmlns="http://www.w3.org/2000/svg"
   xmlns:sodipodi="http://sodipodi.sourceforge.net/DTD/sodipodi-0.dtd"
   xmlns:inkscape="http://www.inkscape.org/namespaces/inkscape"
   viewBox="0 0 19.799999 16.5"
   height="16.5"
   width="19.799999"
   version="1.1"
   id="svg53763"
   sodipodi:docname="bicycle.svg"
   inkscape:version="1.0.2 (e86c8708, 2021-01-15)">
  <metadata
     id="metadata53769">
    <rdf:RDF>
      <cc:Work
         rdf:about="">
        <dc:format>image/svg+xml</dc:format>
        <dc:type
           rdf:resource="http://purl.org/dc/dcmitype/StillImage" />
        <dc:title>bicycle_rental_15.svg</dc:title>
      </cc:Work>
    </rdf:RDF>
  </metadata>
  <defs
     id="defs53767" />
  <sodipodi:namedview
     pagecolor="#ffffff"
     bordercolor="#666666"
     borderopacity="1"
     objecttolerance="10"
     gridtolerance="10"
     guidetolerance="10"
     inkscape:pageopacity="0"
     inkscape:pageshadow="2"
     inkscape:window-width="1298"
     inkscape:window-height="776"
     id="namedview53765"
     showgrid="false"
     inkscape:zoom="26.428571"
     inkscape:cx="5.7378381"
     inkscape:cy="7.6148648"
     inkscape:window-x="80"
     inkscape:window-y="25"
     inkscape:window-maximized="0"
     inkscape:current-layer="svg53763"
     inkscape:document-rotation="0" />
  <title
     id="title53753">bicycle_rental_15.svg</title>
  <rect
     fill="none"
     x="-0.60000002"
     y="-1.75"
     width="21"
     height="21"
     id="rect53755" />
  <path
     fill="#5d60be"
     d="m 12.65,1.65 c -0.60753,0 -1.1,0.49247 -1.1,1.1 0,0.60753 0.49247,1.1 1.1,1.1 0.60753,0 1.1,-0.49247 1.1,-1.1 0,-0.60753 -0.49247,-1.1 -1.1,-1.1 z m -2.04105,2.19351 c -0.143,5.5e-4 -0.28017,0.05687 -0.38247,0.15686 l -2.90466,2.75 C 7.07366,6.98445 7.09621,7.38562 7.36912,7.59044 L 9.35,9.075 V 12.1 c -0.011,0.74382 1.11056,0.74382 1.1,0 V 8.8 C 10.45033,8.62686 10.36915,8.46373 10.23088,8.35956 L 9.38652,7.72574 11.38632,5.83242 12.20956,6.93077 C 12.31373,7.06915 12.47686,7.15033 12.65,7.15 h 1.65 c 0.74371,0.011 0.74371,-1.11056 0,-1.1 H 12.925 L 12.1,4.95 11.44044,4.06912 C 11.34133,3.93316 11.18535,3.85 11.01716,3.84351 Z M 4.95,8.25 c -1.82259,0 -3.3,1.47752 -3.3,3.3 0,1.82248 1.47741,3.3 3.3,3.3 1.82259,0 3.3,-1.47752 3.3,-3.3 0,-1.82248 -1.47741,-3.3 -3.3,-3.3 z m 9.9,0 c -1.82259,0 -3.3,1.47752 -3.3,3.3 0,1.82248 1.47741,3.3 3.3,3.3 1.82259,0 3.3,-1.47752 3.3,-3.3 0,-1.82248 -1.47741,-3.3 -3.3,-3.3 z m -9.9,1.1 c 1.21506,0 2.2,0.98494 2.2,2.2 0,1.21506 -0.98494,2.2 -2.2,2.2 -1.21506,0 -2.2,-0.98494 -2.2,-2.2 0,-1.21506 0.98494,-2.2 2.2,-2.2 z m 9.9,0 c 1.21506,0 2.2,0.98494 2.2,2.2 0,1.21506 -0.98494,2.2 -2.2,2.2 -1.21506,0 -2.2,-0.98494 -2.2,-2.2 0,-1.21506 0.98494,-2.2 2.2,-2.2 z"
     id="path53761"
     style="fill:#725a50;fill-opacity:1;stroke:#ffffff;stroke-width:3.3;stroke-linecap:round;stroke-miterlimit:4;stroke-dasharray:none;stroke-opacity:1;paint-order:stroke fill markers" />
</svg>
