<?xml version="1.0" encoding="UTF-8" standalone="no"?>
<svg
   xmlns:dc="http://purl.org/dc/elements/1.1/"
   xmlns:cc="http://creativecommons.org/ns#"
   xmlns:rdf="http://www.w3.org/1999/02/22-rdf-syntax-ns#"
   xmlns:svg="http://www.w3.org/2000/svg"
   xmlns="http://www.w3.org/2000/svg"
   xmlns:sodipodi="http://sodipodi.sourceforge.net/DTD/sodipodi-0.dtd"
   xmlns:inkscape="http://www.inkscape.org/namespaces/inkscape"
   version="1.1"
   width="17.585325"
   height="17.597851"
   viewBox="0 0 17.585325 17.597851"
   id="religious-buddhist"
   sodipodi:docname="buddhist.svg"
   inkscape:version="1.0.2 (e86c8708, 2021-01-15)">
  <metadata
     id="metadata25634">
    <rdf:RDF>
      <cc:Work
         rdf:about="">
        <dc:format>image/svg+xml</dc:format>
        <dc:type
           rdf:resource="http://purl.org/dc/dcmitype/StillImage" />
        <dc:title />
      </cc:Work>
    </rdf:RDF>
  </metadata>
  <defs
     id="defs25632" />
  <sodipodi:namedview
     pagecolor="#ffffff"
     bordercolor="#666666"
     borderopacity="1"
     objecttolerance="10"
     gridtolerance="10"
     guidetolerance="10"
     inkscape:pageopacity="0"
     inkscape:pageshadow="2"
     inkscape:window-width="1198"
     inkscape:window-height="768"
     id="namedview25630"
     showgrid="false"
     inkscape:pagecheckerboard="true"
     inkscape:zoom="37"
     inkscape:cx="12.637171"
     inkscape:cy="10.90801"
     inkscape:window-x="0"
     inkscape:window-y="25"
     inkscape:window-maximized="0"
     inkscape:current-layer="path25627"
     inkscape:document-rotation="0" />
  <g
     id="path25627"
     style="opacity:1"
     transform="scale(1.1)">
    <path
       style="color:#000000;font-style:normal;font-variant:normal;font-weight:normal;font-stretch:normal;font-size:medium;line-height:normal;font-family:sans-serif;font-variant-ligatures:normal;font-variant-position:normal;font-variant-caps:normal;font-variant-numeric:normal;font-variant-alternates:normal;font-variant-east-asian:normal;font-feature-settings:normal;font-variation-settings:normal;text-indent:0;text-align:start;text-decoration:none;text-decoration-line:none;text-decoration-style:solid;text-decoration-color:#000000;letter-spacing:normal;word-spacing:normal;text-transform:none;writing-mode:lr-tb;direction:ltr;text-orientation:mixed;dominant-baseline:auto;baseline-shift:baseline;text-anchor:start;white-space:normal;shape-padding:0;shape-margin:0;inline-size:0;clip-rule:nonzero;display:inline;overflow:visible;visibility:visible;isolation:auto;mix-blend-mode:normal;color-interpolation:sRGB;color-interpolation-filters:linearRGB;solid-color:#000000;solid-opacity:1;vector-effect:none;fill:#ffffff;fill-opacity:1;fill-rule:nonzero;stroke:none;stroke-linecap:round;stroke-linejoin:miter;stroke-miterlimit:4;stroke-dasharray:none;stroke-dashoffset:0;stroke-opacity:1;paint-order:stroke fill markers;color-rendering:auto;image-rendering:auto;shape-rendering:auto;text-rendering:auto;enable-background:accumulate;stop-color:#000000;stop-opacity:1"
       d="M 7.9980469,0 C 7.1804255,0 6.5991606,0.58395593 6.2929688,1.3027344 5.6466348,1.467641 5.0439812,1.7175749 4.4707031,2.0585938 3.7321807,1.7662663 2.8892154,1.7815854 2.3164062,2.3828125 1.9680342,2.7484517 1.3763016,4.0383863 1.7949219,3.7070312 0.37231208,3.5557544 2.8694408,5.9427622 1.9003906,4.7304688 1.6335223,5.2281353 1.442134,5.7449858 1.3027344,6.2929688 0.58395593,6.5991606 0,7.1804255 0,7.9980469 c 0,0.8177575 0.58376891,1.400926 1.3027344,1.7070312 0.1644363,0.6452869 0.413893,1.2477589 0.7539062,1.8203129 -0.2928414,0.724825 -0.2949113,1.55008 0.2832032,2.128906 0.5790559,0.579755 1.4131565,0.587431 2.140625,0.291015 0.5700716,0.337573 1.1685228,0.586296 1.8105468,0.75 0.3060201,0.719149 0.8891401,1.302735 1.7070313,1.302735 0.8183981,0 1.4013345,-0.584843 1.7070312,-1.304688 0.6453029,-0.164715 1.2478339,-0.413599 1.8203129,-0.753906 0.724825,0.292842 1.55008,0.294911 2.128906,-0.283203 0.371661,-0.371213 0.559527,-0.866814 0.572265,-1.365234 -0.427951,-0.548025 -0.417383,-0.66257 -0.130859,-1.023438 0.267924,-0.498795 0.459789,-1.016987 0.599609,-1.5664061 C 15.420196,9.3864123 16.002579,8.7852618 15.986328,7.9589844 15.970549,7.1586498 15.397949,6.5892517 14.693359,6.2871094 14.528789,5.6436051 14.28064,5.0437198 13.941406,4.4726562 14.234255,3.74974 14.237002,2.9252663 13.662109,2.3457031 13.082881,1.7617733 12.247247,1.7550658 11.517578,2.0527344 10.947043,1.7147569 10.347686,1.4665804 9.7050781,1.3027344 9.3989729,0.58376891 8.8158044,0 7.9980469,0 Z"
       id="path26760"
       sodipodi:nodetypes="sccccccscccccscccccccccsccs" />
    <path
       style="color:#000000;font-style:normal;font-variant:normal;font-weight:normal;font-stretch:normal;font-size:medium;line-height:normal;font-family:sans-serif;font-variant-ligatures:normal;font-variant-position:normal;font-variant-caps:normal;font-variant-numeric:normal;font-variant-alternates:normal;font-variant-east-asian:normal;font-feature-settings:normal;font-variation-settings:normal;text-indent:0;text-align:start;text-decoration:none;text-decoration-line:none;text-decoration-style:solid;text-decoration-color:#000000;letter-spacing:normal;word-spacing:normal;text-transform:none;writing-mode:lr-tb;direction:ltr;text-orientation:mixed;dominant-baseline:auto;baseline-shift:baseline;text-anchor:start;white-space:normal;shape-padding:0;shape-margin:0;inline-size:0;clip-rule:nonzero;display:inline;overflow:visible;visibility:visible;isolation:auto;mix-blend-mode:normal;color-interpolation:sRGB;color-interpolation-filters:linearRGB;solid-color:#000000;solid-opacity:1;vector-effect:none;fill:#725a50;fill-opacity:1;fill-rule:nonzero;stroke:none;stroke-width:3;stroke-linecap:round;stroke-linejoin:miter;stroke-miterlimit:4;stroke-dasharray:none;stroke-dashoffset:0;stroke-opacity:1;paint-order:stroke fill markers;color-rendering:auto;image-rendering:auto;shape-rendering:auto;text-rendering:auto;enable-background:accumulate;stop-color:#000000;stop-opacity:1"
       d="M 13.9978,7.4989 H 13.4649 C 13.36493,6.39182 12.92962,5.34159 12.2171,4.4884 L 12.5951,4.11 C 12.79115,3.91553 12.79243,3.59895 12.59796,3.4029 12.40698,3.21037 12.09733,3.20518 11.9,3.3912 v 0 L 11.8877,3.4035 11.51,3.7815 C 10.65669,3.06852 9.60615,2.63286 8.4987,2.5327 V 2 c 0,-0.27614 -0.22386,-0.5 -0.5,-0.5 -0.27614,0 -0.5,0.22386 -0.5,0.5 V 2.5327 C 6.3916,2.63306 5.34144,3.06871 4.4884,3.7815 L 4.11,3.4 C 3.91007,3.20952 3.59358,3.21717 3.4031,3.4171 c -0.184,0.19312 -0.184,0.49668 0,0.6898 L 3.7815,4.4844 C 3.06787,5.33856 2.63216,6.39031 2.5327,7.4989 H 2 c -0.27614,0 -0.5,0.22386 -0.5,0.5 0,0.27614 0.22386,0.5 0.5,0.5 h 0.5327 c 0.09987,1.10695 0.535,2.15711 1.2473,3.0103 l -0.3779,0.3779 c -0.19538,0.19514 -0.19557,0.51173 -4.3e-4,0.70711 0.19053,0.19076 0.49798,0.19611 0.69503,0.01209 L 4.109,12.594 4.4869,12.2161 c 0.8533,0.71312 1.90395,1.1488 3.0115,1.2488 v 0.5329 c 0,0.27614 0.22386,0.5 0.5,0.5 0.27614,0 0.5,-0.22386 0.5,-0.5 v -0.5329 c 1.10719,-0.10026 2.15744,-0.53592 3.0105,-1.2488 l 0.3779,0.3779 c 0.19514,0.19538 0.51173,0.19557 0.70711,4.3e-4 0.19076,-0.19053 0.19611,-0.49798 0.01209,-0.69503 l -0.0123,-0.0123 v 0 l -0.3779,-0.3779 c 0.71283,-0.8531 1.14848,-1.90333 1.2488,-3.0105 h 0.5329 C 14.27359,8.49326 14.49299,8.26504 14.48756,7.98895 14.48227,7.72064 14.26611,7.50435 13.9978,7.4989 Z M 8.4987,3.5505 c 0.83871,0.09248 1.63383,0.42154 2.2926,0.9488 l -2.15,2.15 C 8.59467,6.6275 8.54694,6.60814 8.4983,6.5913 V 3.5505 Z m -1,0 V 6.591 C 7.45006,6.60784 7.40233,6.6272 7.3557,6.649 l -2.15,-2.15 C 5.86467,3.97174 6.66001,3.64278 7.4989,3.5505 Z m -3,1.6557 2.15,2.15 C 6.6269,7.40283 6.60754,7.45056 6.5907,7.4992 H 3.5505 C 3.64293,6.66034 3.97204,5.86507 4.4994,5.2062 Z M 3.5505,8.4987 H 6.591 c 0.01687,0.04863 0.03623,0.09636 0.058,0.143 l -2.15,2.15 C 3.97173,10.13281 3.64276,9.33753 3.5505,8.4987 Z m 3.9484,3.9484 C 6.66019,12.35462 5.86507,12.02556 5.2063,11.4983 l 2.15,-2.15 c 0.04663,0.0218 0.09436,0.04116 0.143,0.058 v 3.0405 z m 1,0 V 9.4066 C 8.54754,9.38977 8.59528,9.37041 8.6419,9.3486 l 2.15,2.15 c -0.65895,0.5273 -1.4543,0.85627 -2.2932,0.9485 z m 3,-1.6557 -2.15,-2.15 C 9.37067,8.59476 9.39003,8.54703 9.4069,8.4984 h 3.0415 c -0.09276,0.83901 -0.42232,1.6343 -0.9502,2.293 z M 9.4066,7.4989 C 9.38976,7.45026 9.3704,7.40253 9.3486,7.3559 l 2.15,-2.15 c 0.52726,0.65877 0.85632,1.45389 0.9488,2.2926 H 9.4066 Z"
       id="path26762" />
  </g>
</svg>
