<?xml version="1.0" encoding="UTF-8" standalone="no"?>
<svg
   xmlns:dc="http://purl.org/dc/elements/1.1/"
   xmlns:cc="http://creativecommons.org/ns#"
   xmlns:rdf="http://www.w3.org/1999/02/22-rdf-syntax-ns#"
   xmlns:svg="http://www.w3.org/2000/svg"
   xmlns="http://www.w3.org/2000/svg"
   xmlns:sodipodi="http://sodipodi.sourceforge.net/DTD/sodipodi-0.dtd"
   xmlns:inkscape="http://www.inkscape.org/namespaces/inkscape"
   version="1.1"
   id="Layer_1"
   x="0px"
   y="0px"
   width="19px"
   height="19px"
   viewBox="0 0 19 19"
   enable-background="new 0 0 19 19"
   xml:space="preserve"
   sodipodi:docname="bus.svg"
   inkscape:version="1.0.2 (e86c8708, 2021-01-15)"><metadata
   id="metadata6389"><rdf:RDF><cc:Work
       rdf:about=""><dc:format>image/svg+xml</dc:format><dc:type
         rdf:resource="http://purl.org/dc/dcmitype/StillImage" /><dc:title>bus_15.svg</dc:title></cc:Work></rdf:RDF></metadata><defs
   id="defs6387" /><sodipodi:namedview
   pagecolor="#ffffff"
   bordercolor="#666666"
   borderopacity="1"
   objecttolerance="10"
   gridtolerance="10"
   guidetolerance="10"
   inkscape:pageopacity="0"
   inkscape:pageshadow="2"
   inkscape:window-width="1315"
   inkscape:window-height="770"
   id="namedview6385"
   showgrid="false"
   inkscape:zoom="28.894737"
   inkscape:cx="9.8460838"
   inkscape:cy="9.0846995"
   inkscape:window-x="76"
   inkscape:window-y="25"
   inkscape:window-maximized="0"
   inkscape:current-layer="path6382"
   inkscape:pagecheckerboard="true" />
<title
   id="title6376">bus_15.svg</title>
<rect
   fill="none"
   width="19"
   height="19"
   id="rect6378" />

<g
   id="path6382"
   style="opacity:1"><path
     style="color:#000000;font-style:normal;font-variant:normal;font-weight:normal;font-stretch:normal;font-size:medium;line-height:normal;font-family:sans-serif;font-variant-ligatures:normal;font-variant-position:normal;font-variant-caps:normal;font-variant-numeric:normal;font-variant-alternates:normal;font-variant-east-asian:normal;font-feature-settings:normal;font-variation-settings:normal;text-indent:0;text-align:start;text-decoration:none;text-decoration-line:none;text-decoration-style:solid;text-decoration-color:#000000;letter-spacing:normal;word-spacing:normal;text-transform:none;writing-mode:lr-tb;direction:ltr;text-orientation:mixed;dominant-baseline:auto;baseline-shift:baseline;text-anchor:start;white-space:normal;shape-padding:0;shape-margin:0;inline-size:0;clip-rule:nonzero;display:inline;overflow:visible;visibility:visible;isolation:auto;mix-blend-mode:normal;color-interpolation:sRGB;color-interpolation-filters:linearRGB;solid-color:#000000;solid-opacity:1;vector-effect:none;fill:#ffffff;fill-opacity:1;fill-rule:nonzero;stroke:none;stroke-linecap:butt;stroke-linejoin:miter;stroke-miterlimit:4;stroke-dasharray:none;stroke-dashoffset:0;stroke-opacity:1;paint-order:stroke fill markers;color-rendering:auto;image-rendering:auto;shape-rendering:auto;text-rendering:auto;enable-background:accumulate;stop-color:#000000;stop-opacity:1"
     d="M 6,0.5 C 5.0456393,0.5 3.9987736,0.73683824 3.0859375,1.4238281 2.1731014,2.110818 1.5,3.3362063 1.5,4.7460938 V 10.199219 14 c 0,0 -0.020682,0.562151 0.2832031,1.169922 C 1.9116107,15.426737 2.1935192,15.689435 2.5,15.923828 V 16 c 0,0 -0.020682,0.562151 0.2832031,1.169922 C 3.0870886,17.777693 4,18.5 5,18.5 6,18.5 6.9129114,17.777693 7.2167969,17.169922 7.3908046,16.821906 7.3528744,16.721374 7.3789062,16.5 h 4.2421878 c 0.02603,0.221374 -0.0119,0.321906 0.162109,0.669922 C 12.087089,17.777693 13,18.5 14,18.5 c 1,0 1.912911,-0.722307 2.216797,-1.330078 C 16.520682,16.562151 16.5,16 16.5,16 v -0.0957 C 17.006562,15.487695 17.5,14.815369 17.5,14 V 4.7460938 C 17.5,3.4213933 17.04522,2.2364037 16.214844,1.4902344 15.384468,0.74406504 14.339355,0.5 13.400391,0.5 Z m 0.8691406,11 H 12.130859 C 11.788128,11.928385 11.5,12.41983 11.5,13 c 0,0.19348 0.167565,0.318145 0.210938,0.5 H 7.2890625 C 7.3323414,13.318176 7.5,13.193554 7.5,13 7.5,12.419607 7.2112323,11.928068 6.8691406,11.5 Z"
     id="path8151"
     sodipodi:nodetypes="sssccsccsssccsssccsssssccsccsc" /><path
     style="color:#000000;font-style:normal;font-variant:normal;font-weight:normal;font-stretch:normal;font-size:medium;line-height:normal;font-family:sans-serif;font-variant-ligatures:normal;font-variant-position:normal;font-variant-caps:normal;font-variant-numeric:normal;font-variant-alternates:normal;font-variant-east-asian:normal;font-feature-settings:normal;font-variation-settings:normal;text-indent:0;text-align:start;text-decoration:none;text-decoration-line:none;text-decoration-style:solid;text-decoration-color:#000000;letter-spacing:normal;word-spacing:normal;text-transform:none;writing-mode:lr-tb;direction:ltr;text-orientation:mixed;dominant-baseline:auto;baseline-shift:baseline;text-anchor:start;white-space:normal;shape-padding:0;shape-margin:0;inline-size:0;clip-rule:nonzero;display:inline;overflow:visible;visibility:visible;isolation:auto;mix-blend-mode:normal;color-interpolation:sRGB;color-interpolation-filters:linearRGB;solid-color:#000000;solid-opacity:1;vector-effect:none;fill:#4898ff;fill-opacity:1;fill-rule:nonzero;stroke:none;stroke-width:3;stroke-linecap:butt;stroke-linejoin:miter;stroke-miterlimit:4;stroke-dasharray:none;stroke-dashoffset:0;stroke-opacity:1.0;paint-order:stroke fill markers;color-rendering:auto;image-rendering:auto;shape-rendering:auto;text-rendering:auto;enable-background:accumulate;stop-color:#000000;stop-opacity:1;"
     d="M 6,2 C 4.636,2 3,2.743 3,4.746 V 10.199 14 c 0,0 0,1 1,1 v 1 c 0,0 0,1 1,1 1,0 1,-1 1,-1 v -1 h 7 v 1 c 0,0 0,1 1,1 1,0 1,-1 1,-1 v -1 c 0,0 1,0 1,-1 V 4.746 C 16,2.701 14.764,2 13.4,2 Z m 0.25,1.5 h 6.5 C 12.889,3.5 13,3.611 13,3.75 13,3.889 12.889,4 12.75,4 H 6.25 C 6.111,4 6,3.889 6,3.75 6,3.611 6.111,3.5 6.25,3.5 Z M 5,5 h 9 c 1,0 1,0.967 1,0.967 V 9 c 0,0 0,1 -1,1 H 5 C 4,10 4,9 4,9 V 6 C 4,6 4,5 5,5 Z m 0,7 c 0.552,0 1,0.447 1,1 0,0.553 -0.448,1 -1,1 -0.552,0 -1,-0.447 -1,-1 0,-0.553 0.448,-1 1,-1 z m 9,0 c 0.553,0 1,0.447 1,1 0,0.553 -0.447,1 -1,1 -0.553,0 -1,-0.447 -1,-1 0,-0.553 0.447,-1 1,-1 z"
     id="path8153" /></g>
</svg>
