<?xml version="1.0" encoding="UTF-8" standalone="no"?>
<svg
   xmlns:dc="http://purl.org/dc/elements/1.1/"
   xmlns:cc="http://creativecommons.org/ns#"
   xmlns:rdf="http://www.w3.org/1999/02/22-rdf-syntax-ns#"
   xmlns:svg="http://www.w3.org/2000/svg"
   xmlns="http://www.w3.org/2000/svg"
   xmlns:sodipodi="http://sodipodi.sourceforge.net/DTD/sodipodi-0.dtd"
   xmlns:inkscape="http://www.inkscape.org/namespaces/inkscape"
   id="car"
   width="16"
   height="12.000014"
   viewBox="0 0 16 12.000014"
   version="1.1"
   sodipodi:docname="car.svg"
   inkscape:version="1.0.2 (e86c8708, 2021-01-15)">
  <metadata
     id="metadata61549">
    <rdf:RDF>
      <cc:Work
         rdf:about="">
        <dc:format>image/svg+xml</dc:format>
        <dc:type
           rdf:resource="http://purl.org/dc/dcmitype/StillImage" />
        <dc:title />
      </cc:Work>
    </rdf:RDF>
  </metadata>
  <defs
     id="defs61547" />
  <sodipodi:namedview
     pagecolor="#ffffff"
     bordercolor="#666666"
     borderopacity="1"
     objecttolerance="10"
     gridtolerance="10"
     guidetolerance="10"
     inkscape:pageopacity="0"
     inkscape:pageshadow="2"
     inkscape:window-width="1179"
     inkscape:window-height="724"
     id="namedview61545"
     showgrid="false"
     inkscape:zoom="37"
     inkscape:cx="1.5675678"
     inkscape:cy="6.0000146"
     inkscape:window-x="12"
     inkscape:window-y="25"
     inkscape:window-maximized="0"
     inkscape:current-layer="car"
     inkscape:document-rotation="0" />
  <path
     d="m 14.974,5.2872153 -1.364,-1.2672 -1.21,-2.42 a 1.155,1.155 0 0 0 -0.99,-0.55 H 4.5900002 a 1.155,1.155 0 0 0 -0.99,0.55 l -1.21,2.42 -1.364,1.2672 a 0.55,0.55 0 0 0 -0.17599999,0.4037 v 4.7091007 a 0.55,0.55 0 0 0 0.54999999,0.55 h 2.2 c 0.22,0 0.55,-0.22 0.55,-0.44 V 9.8500153 H 11.85 v 0.5500007 c 0,0.22 0.22,0.55 0.44,0.55 h 2.31 a 0.55,0.55 0 0 0 0.55,-0.55 V 5.6909153 a 0.55,0.55 0 0 0 -0.176,-0.4037 z M 4.7000002,2.1500153 H 11.3 l 1.1,2.2 H 3.6000002 Z m 0.55,5.06 c 0,0.22 -0.33,0.44 -0.55,0.44 h -2.31 c -0.22,0 -0.44,-0.33 -0.44,-0.55 v -1.21 c 0.11,-0.33 0.33,-0.55 0.66,-0.44 l 2.2,0.44 c 0.22,0 0.44,0.33 0.44,0.55 z m 8.7999998,-0.11 c 0,0.22 -0.22,0.55 -0.44,0.55 H 11.3 c -0.22,0 -0.55,-0.22 -0.55,-0.44 v -0.77 c 0,-0.22 0.22,-0.55 0.44,-0.55 l 2.2,-0.44 c 0.33,-0.11 0.55,0.11 0.66,0.44 z"
     id="path61542"
     style="fill:#725a50;fill-opacity:1;stroke:#ffffff;stroke-width:3.3;stroke-linecap:round;stroke-miterlimit:4;stroke-dasharray:none;stroke-opacity:1;paint-order:stroke fill markers" />
</svg>
