<?xml version="1.0" encoding="UTF-8" standalone="no"?>
<svg
   xmlns:dc="http://purl.org/dc/elements/1.1/"
   xmlns:cc="http://creativecommons.org/ns#"
   xmlns:rdf="http://www.w3.org/1999/02/22-rdf-syntax-ns#"
   xmlns:svg="http://www.w3.org/2000/svg"
   xmlns="http://www.w3.org/2000/svg"
   xmlns:sodipodi="http://sodipodi.sourceforge.net/DTD/sodipodi-0.dtd"
   xmlns:inkscape="http://www.inkscape.org/namespaces/inkscape"
   id="car-repair"
   width="16.822691"
   height="17.95879"
   viewBox="0 0 16.822691 17.95879"
   version="1.1"
   sodipodi:docname="car-repair.svg"
   inkscape:version="1.0.2 (e86c8708, 2021-01-15)">
  <metadata
     id="metadata61558">
    <rdf:RDF>
      <cc:Work
         rdf:about="">
        <dc:format>image/svg+xml</dc:format>
        <dc:type
           rdf:resource="http://purl.org/dc/dcmitype/StillImage" />
        <dc:title></dc:title>
      </cc:Work>
    </rdf:RDF>
  </metadata>
  <defs
     id="defs61556" />
  <sodipodi:namedview
     pagecolor="#ffffff"
     bordercolor="#666666"
     borderopacity="1"
     objecttolerance="10"
     gridtolerance="10"
     guidetolerance="10"
     inkscape:pageopacity="0"
     inkscape:pageshadow="2"
     inkscape:window-width="1127"
     inkscape:window-height="648"
     id="namedview61554"
     showgrid="false"
     inkscape:zoom="37"
     inkscape:cx="8.8226901"
     inkscape:cy="8.9587896"
     inkscape:window-x="0"
     inkscape:window-y="25"
     inkscape:window-maximized="0"
     inkscape:current-layer="car-repair" />
  <path
     d="m 13.92269,10.15879 -1.1,-2.2000004 a 1.05,1.05 0 0 0 -0.9,-0.5 H 5.7226901 a 1.05,1.05 0 0 0 -0.9,0.5 l -1.1,2.2000004 -1.24,1.152 a 0.5,0.5 0 0 0 -0.16,0.367 v 4.281 a 0.5,0.5 0 0 0 0.5,0.5 h 2 c 0.2,0 0.5,-0.2 0.5,-0.4 v -0.6 H 12.32269 v 0.5 c 0,0.2 0.2,0.5 0.4,0.5 h 2.1 a 0.5,0.5 0 0 0 0.5,-0.5 v -4.281 a 0.5,0.5 0 0 0 -0.16,-0.367 z M 5.8226901,8.4587896 H 11.82269 l 1,2.0000004 H 4.8226901 Z m 0.5,4.6000004 c 0,0.2 -0.3,0.4 -0.5,0.4 h -2.1 c -0.2,0 -0.4,-0.3 -0.4,-0.5 v -1.1 c 0.1,-0.3 0.3,-0.5 0.6,-0.4 l 2,0.4 c 0.2,0 0.4,0.3 0.4,0.5 z m 7.9999999,-0.1 c 0,0.2 -0.2,0.5 -0.4,0.5 h -2.1 c -0.2,0 -0.5,-0.2 -0.5,-0.4 v -0.7 c 0,-0.2 0.2,-0.5 0.4,-0.5 l 2,-0.4 c 0.3,-0.1 0.5,0.1 0.6,0.4 z m 1,-9.5000004 v 1 a 1.009,1.009 0 0 1 -1.017,1 H 6.6706901 a 2.549,2.549 0 0 1 -4.348,-0.5 h 2.5 v -2 h -2.5 a 2.549,2.549 0 0 1 4.348,-0.5 H 14.30569 a 1.009,1.009 0 0 1 1.017,1 z"
     id="path61551"
     style="fill:#725a50;fill-opacity:1;stroke:#ffffff;stroke-width:3;stroke-linecap:round;stroke-miterlimit:4;stroke-dasharray:none;stroke-opacity:1;paint-order:stroke fill markers" />
</svg>
