<?xml version="1.0" encoding="UTF-8" standalone="no"?>
<svg
   xmlns:dc="http://purl.org/dc/elements/1.1/"
   xmlns:cc="http://creativecommons.org/ns#"
   xmlns:rdf="http://www.w3.org/1999/02/22-rdf-syntax-ns#"
   xmlns:svg="http://www.w3.org/2000/svg"
   xmlns="http://www.w3.org/2000/svg"
   xmlns:sodipodi="http://sodipodi.sourceforge.net/DTD/sodipodi-0.dtd"
   xmlns:inkscape="http://www.inkscape.org/namespaces/inkscape"
   id="car-rental"
   width="16"
   height="18"
   viewBox="0 0 16 18"
   version="1.1"
   sodipodi:docname="car-rental.svg"
   inkscape:version="1.0.2 (e86c8708, 2021-01-15)">
  <metadata
     id="metadata61567">
    <rdf:RDF>
      <cc:Work
         rdf:about="">
        <dc:format>image/svg+xml</dc:format>
        <dc:type
           rdf:resource="http://purl.org/dc/dcmitype/StillImage" />
        <dc:title></dc:title>
      </cc:Work>
    </rdf:RDF>
  </metadata>
  <defs
     id="defs61565" />
  <sodipodi:namedview
     pagecolor="#ffffff"
     bordercolor="#666666"
     borderopacity="1"
     objecttolerance="10"
     gridtolerance="10"
     guidetolerance="10"
     inkscape:pageopacity="0"
     inkscape:pageshadow="2"
     inkscape:window-width="1311"
     inkscape:window-height="743"
     id="namedview61563"
     showgrid="false"
     inkscape:pagecheckerboard="true"
     inkscape:zoom="37"
     inkscape:cx="8.1081083"
     inkscape:cy="4.8378378"
     inkscape:window-x="0"
     inkscape:window-y="25"
     inkscape:window-maximized="0"
     inkscape:current-layer="car-rental" />
  <path
     d="M 13.1,10.2 12,8 A 1.05,1.05 0 0 0 11.1,7.5 H 4.9000002 a 1.05,1.05 0 0 0 -0.9,0.5 l -1.1,2.2 -1.24,1.152 a 0.5,0.5 0 0 0 -0.16,0.367 V 16 a 0.5,0.5 0 0 0 0.5,0.5 h 2 c 0.2,0 0.5,-0.2 0.5,-0.4 V 15.5 H 11.5 V 16 c 0,0.2 0.2,0.5 0.4,0.5 H 14 A 0.5,0.5 0 0 0 14.5,16 V 11.719 A 0.5,0.5 0 0 0 14.34,11.352 Z M 5.0000002,8.5 H 11 l 1,2 H 4.0000002 Z m 0.5,4.6 c 0,0.2 -0.3,0.4 -0.5,0.4 h -2.1 c -0.2,0 -0.4,-0.3 -0.4,-0.5 v -1.1 c 0.1,-0.3 0.3,-0.5 0.6,-0.4 l 2,0.4 c 0.2,0 0.4,0.3 0.4,0.5 z M 13.5,13 c 0,0.2 -0.2,0.5 -0.4,0.5 H 11 c -0.2,0 -0.5,-0.2 -0.5,-0.4 v -0.7 c 0,-0.2 0.2,-0.5 0.4,-0.5 l 2,-0.4 c 0.3,-0.1 0.5,0.1 0.6,0.4 z M 14,1.5 h -2.5 a 1,1 0 0 0 -1,1 H 2.5000002 l -1,1 v 1 l 1,1 1.5,-1.5 1.5,1.5 1.5,-1.5 1.5,1.5 H 10.5 a 1,1 0 0 0 1,1 H 14 A 0.5,0.5 0 0 0 14.5,6 V 2 A 0.5,0.5 0 0 0 14,1.5 Z M 13.5,5 a 0.5,0.5 0 0 1 -1,0 V 3 a 0.5,0.5 0 0 1 1,0 z"
     id="path61560"
     style="fill:#725a50;fill-opacity:1;stroke:#ffffff;stroke-width:3;stroke-linecap:round;stroke-miterlimit:4;stroke-dasharray:none;stroke-opacity:1;paint-order:stroke fill markers" />
</svg>
