<?xml version="1.0" encoding="UTF-8" standalone="no"?>
<svg
   xmlns:dc="http://purl.org/dc/elements/1.1/"
   xmlns:cc="http://creativecommons.org/ns#"
   xmlns:rdf="http://www.w3.org/1999/02/22-rdf-syntax-ns#"
   xmlns:svg="http://www.w3.org/2000/svg"
   xmlns="http://www.w3.org/2000/svg"
   xmlns:sodipodi="http://sodipodi.sourceforge.net/DTD/sodipodi-0.dtd"
   xmlns:inkscape="http://www.inkscape.org/namespaces/inkscape"
   version="1.1"
   id="casino"
   width="15.212161"
   height="16.843075"
   viewBox="0 0 15.212161 16.843075"
   sodipodi:docname="casino.svg"
   inkscape:version="1.0.2 (e86c8708, 2021-01-15)">
  <metadata
     id="metadata61540">
    <rdf:RDF>
      <cc:Work
         rdf:about="">
        <dc:format>image/svg+xml</dc:format>
        <dc:type
           rdf:resource="http://purl.org/dc/dcmitype/StillImage" />
        <dc:title></dc:title>
      </cc:Work>
    </rdf:RDF>
  </metadata>
  <defs
     id="defs61538" />
  <sodipodi:namedview
     pagecolor="#ffffff"
     bordercolor="#666666"
     borderopacity="1"
     objecttolerance="10"
     gridtolerance="10"
     guidetolerance="10"
     inkscape:pageopacity="0"
     inkscape:pageshadow="2"
     inkscape:window-width="1095"
     inkscape:window-height="727"
     id="namedview61536"
     showgrid="false"
     inkscape:zoom="37"
     inkscape:cx="7.6060806"
     inkscape:cy="8.8430749"
     inkscape:window-x="0"
     inkscape:window-y="25"
     inkscape:window-maximized="0"
     inkscape:current-layer="casino" />
  <path
     d="m 8.6060806,11.343075 c 0.4561,0.6072 1.1821,1 2.0000004,1 1.3807,0 2.5,-1.1193 2.5,-2.5000001 0,-0.5642 -0.1938,-1.0789 -0.509,-1.4973 l 0.009,-0.0027 -5.0000004,-6 -5,6 0.009,0.0027 c -0.3152,0.4184 -0.509,0.9331 -0.509,1.4973 0,1.3807001 1.1193,2.5000001 2.5,2.5000001 0.8179,0 1.5439,-0.3928 2,-1 0.0997,-0.1328 0.2902,-0.3865 0.5,-0.6663 v 2.1663 c 0,1.5 -2.5,1.5 -2.5,1.5 -0.2761,0 -0.5,0.2238 -0.5,0.5 0,0.2761 0.2239,0.5 0.5,0.5 h 2.5 1 2.5000004 c 0.2761,0 0.5,-0.2239 0.5,-0.5 0,-0.2762 -0.2239,-0.5 -0.5,-0.5 0,0 -2.5000004,0 -2.5000004,-1.5 v -2.1663 c 0.2098,0.2798 0.4003,0.5335 0.5,0.6663 z"
     id="path61533"
     style="fill:#725a50;fill-opacity:1;stroke:#ffffff;stroke-width:3;stroke-linecap:round;stroke-miterlimit:4;stroke-dasharray:none;stroke-opacity:1;paint-order:stroke fill markers" />
</svg>
