<?xml version="1.0" encoding="UTF-8" standalone="no"?>
<svg
   xmlns:dc="http://purl.org/dc/elements/1.1/"
   xmlns:cc="http://creativecommons.org/ns#"
   xmlns:rdf="http://www.w3.org/1999/02/22-rdf-syntax-ns#"
   xmlns:svg="http://www.w3.org/2000/svg"
   xmlns="http://www.w3.org/2000/svg"
   xmlns:sodipodi="http://sodipodi.sourceforge.net/DTD/sodipodi-0.dtd"
   xmlns:inkscape="http://www.inkscape.org/namespaces/inkscape"
   viewBox="0 0 13.391719 15.12"
   height="15.12"
   width="13.391719"
   version="1.1"
   id="svg8521"
   sodipodi:docname="castle.svg"
   inkscape:version="1.0.2 (e86c8708, 2021-01-15)">
  <metadata
     id="metadata8527">
    <rdf:RDF>
      <cc:Work
         rdf:about="">
        <dc:format>image/svg+xml</dc:format>
        <dc:type
           rdf:resource="http://purl.org/dc/dcmitype/StillImage" />
        <dc:title>castle_15.svg</dc:title>
      </cc:Work>
    </rdf:RDF>
  </metadata>
  <defs
     id="defs8525" />
  <sodipodi:namedview
     pagecolor="#ffffff"
     bordercolor="#666666"
     borderopacity="1"
     objecttolerance="10"
     gridtolerance="10"
     guidetolerance="10"
     inkscape:pageopacity="0"
     inkscape:pageshadow="2"
     inkscape:window-width="1371"
     inkscape:window-height="721"
     id="namedview8523"
     showgrid="false"
     inkscape:pagecheckerboard="true"
     inkscape:zoom="26.142857"
     inkscape:cx="9.1632675"
     inkscape:cy="9.0900547"
     inkscape:window-x="0"
     inkscape:window-y="25"
     inkscape:window-maximized="0"
     inkscape:current-layer="svg8521"
     inkscape:document-rotation="0" />
  <title
     id="title8511">castle_15.svg</title>
  <rect
     fill="none"
     x="-1.7039453"
     y="-0.84000009"
     width="16.799999"
     height="16.799999"
     id="rect8513"
     style="stroke-width:0.8" />
  <g
     id="path8519"
     style="opacity:1"
     transform="scale(0.72)">
    <path
       style="color:#000000;font-style:normal;font-variant:normal;font-weight:normal;font-stretch:normal;font-size:medium;line-height:normal;font-family:sans-serif;font-variant-ligatures:normal;font-variant-position:normal;font-variant-caps:normal;font-variant-numeric:normal;font-variant-alternates:normal;font-variant-east-asian:normal;font-feature-settings:normal;font-variation-settings:normal;text-indent:0;text-align:start;text-decoration:none;text-decoration-line:none;text-decoration-style:solid;text-decoration-color:#000000;letter-spacing:normal;word-spacing:normal;text-transform:none;writing-mode:lr-tb;direction:ltr;text-orientation:mixed;dominant-baseline:auto;baseline-shift:baseline;text-anchor:start;white-space:normal;shape-padding:0;shape-margin:0;inline-size:0;clip-rule:nonzero;display:inline;overflow:visible;visibility:visible;isolation:auto;mix-blend-mode:normal;color-interpolation:sRGB;color-interpolation-filters:linearRGB;solid-color:#000000;solid-opacity:1;vector-effect:none;fill:#ffffff;fill-opacity:1;fill-rule:nonzero;stroke:none;stroke-linecap:round;stroke-linejoin:miter;stroke-miterlimit:4;stroke-dasharray:none;stroke-dashoffset:0;stroke-opacity:1;paint-order:stroke fill markers;color-rendering:auto;image-rendering:auto;shape-rendering:auto;text-rendering:auto;enable-background:accumulate;stop-color:#000000;stop-opacity:1"
       d="M 4.5,0 C 3.3577419,0 2.4003906,0.95735131 2.4003906,2.0996094 v 3 c 0,1.1036067 0.779527,1.8858422 1.7441406,2.3007812 -0.2468536,0.4064452 -0.5449218,0.7959215 -0.5449218,1.2988282 0,0.05 -0.063637,0.7946577 -0.1738282,1.6210932 -0.1101914,0.826436 -0.259082,1.831495 -0.4082031,2.800782 -0.2940362,1.911235 -0.581594,3.630155 -0.5898437,3.679687 H 2.0996094 C 0.95735131,16.800781 0,17.758133 0,18.900391 0,20.042649 0.95735131,21 2.0996094,21 H 16.5 c 1.142258,0 2.099609,-0.957351 2.099609,-2.099609 v -0.02734 -0.01563 C 18.577252,17.730456 17.62728,16.800367 16.5,16.800781 h -0.328125 c -0.0083,-0.04953 -0.295808,-1.768452 -0.589844,-3.679687 C 15.43291,12.151807 15.28402,11.146748 15.173828,10.320312 15.063637,9.4938765 15,8.7492187 15,8.6992188 15,8.196128 14.702098,7.8069351 14.455078,7.4003906 15.419692,6.9854516 16.199219,6.2032161 16.199219,5.0996094 v -3 C 16.199219,0.95735131 15.241867,0 14.099609,0 13.523183,0 12.998316,0.24633798 12.615234,0.63476562 12.168566,0.30742112 11.686521,0 11.099609,0 10.402957,0 9.7835242,0.30902023 9.3007812,0.75390625 8.817886,0.30829388 8.1972962,0 7.5,0 6.9130883,0 6.4310429,0.30742112 5.984375,0.63476562 5.6012938,0.24633798 5.0764263,0 4.5,0 Z m 2.0703125,9 h 5.4589845 c 0.0207,0.4859779 0.07418,0.9840713 0.171875,1.716797 0.114808,0.861064 0.265137,1.880615 0.416016,2.861328 0.301757,1.961426 0.603515,3.767578 0.603515,3.767578 l -0.02148,-0.246094 c 0,0.348791 0.254423,0.592256 0.378906,0.900391 h -0.978516 v -3.900391 c 0,-1.804799 -1.494028,-3.298828 -3.2988278,-3.298828 C 7.4959818,10.800781 6,12.29481 6,14.099609 V 18 H 5.0214844 c 0.1244831,-0.308135 0.3789062,-0.5516 0.3789062,-0.900391 l -0.021484,0.246094 c 0,0 0.3017578,-1.806152 0.6035157,-3.767578 C 6.1333008,12.597412 6.283629,11.577861 6.3984375,10.716797 6.4961342,9.9840713 6.5496111,9.4859779 6.5703125,9 Z"
       id="path9114"
       sodipodi:nodetypes="ssscssscsssssccccssscssscscscsccssccccsssccccssc" />
    <path
       style="color:#000000;font-style:normal;font-variant:normal;font-weight:normal;font-stretch:normal;font-size:medium;line-height:normal;font-family:sans-serif;font-variant-ligatures:normal;font-variant-position:normal;font-variant-caps:normal;font-variant-numeric:normal;font-variant-alternates:normal;font-variant-east-asian:normal;font-feature-settings:normal;font-variation-settings:normal;text-indent:0;text-align:start;text-decoration:none;text-decoration-line:none;text-decoration-style:solid;text-decoration-color:#000000;letter-spacing:normal;word-spacing:normal;text-transform:none;writing-mode:lr-tb;direction:ltr;text-orientation:mixed;dominant-baseline:auto;baseline-shift:baseline;text-anchor:start;white-space:normal;shape-padding:0;shape-margin:0;inline-size:0;clip-rule:nonzero;display:inline;overflow:visible;visibility:visible;isolation:auto;mix-blend-mode:normal;color-interpolation:sRGB;color-interpolation-filters:linearRGB;solid-color:#000000;solid-opacity:1;vector-effect:none;fill:#725a50;fill-opacity:1;fill-rule:nonzero;stroke:none;stroke-width:3;stroke-linecap:round;stroke-linejoin:miter;stroke-miterlimit:4;stroke-dasharray:none;stroke-dashoffset:0;stroke-opacity:1;paint-order:stroke fill markers;color-rendering:auto;image-rendering:auto;shape-rendering:auto;text-rendering:auto;enable-background:accumulate;stop-color:#000000;stop-opacity:1"
       d="M 13.5,6.3 H 5.1 C 4.43724,6.3 3.9,5.76276 3.9,5.1 v -3 c 0,-0.33132 0.26868,-0.6 0.6,-0.6 0.33132,0 0.6,0.26868 0.6,0.6 V 3.9 H 6.3 V 2.7 c 0,-0.66276 0.53724,-1.2 1.2,-1.2 0.66276,0 1.2,0.53724 1.2,1.2 V 3.9 H 9.9 V 2.7 c 0,-0.66276 0.53724,-1.2 1.2,-1.2 0.66276,0 1.2,0.53724 1.2,1.2 v 1.2 h 1.2 V 2.1 c 0,-0.33132 0.26868,-0.6 0.6,-0.6 0.33132,0 0.6,0.26868 0.6,0.6 v 3 c 0,0.66276 -0.53724,1.2 -1.2,1.2 z m 3.6,12.6 c 0,0.33132 -0.26868,0.6 -0.6,0.6 H 2.1 c -0.33132,0 -0.6,-0.26868 -0.6,-0.6 0,-0.33132 0.26868,-0.6 0.6,-0.6 h 0.6 c 0.66276,0 1.2,-0.53724 1.2,-1.2 0,0 1.2,-7.2 1.2,-8.4 0,-0.66276 0.53724,-1.2 1.2,-1.2 h 6 c 0.66276,0 1.2,0.53724 1.2,1.2 0,1.2 1.2,8.4 1.2,8.4 0,0.66276 0.53724,1.2 1.2,1.2 h 0.6 c 0.32676,-1.2e-4 0.59352,0.26136 0.6,0.588 z m -6,-4.8 c 0,-0.99408 -0.80592,-1.8 -1.8,-1.8 -0.99408,0 -1.8,0.80592 -1.8,1.8 v 4.2 h 3.6 z"
       id="path9116" />
  </g>
</svg>
