<?xml version="1.0" encoding="UTF-8" standalone="no"?>
<svg
   xmlns:dc="http://purl.org/dc/elements/1.1/"
   xmlns:cc="http://creativecommons.org/ns#"
   xmlns:rdf="http://www.w3.org/1999/02/22-rdf-syntax-ns#"
   xmlns:svg="http://www.w3.org/2000/svg"
   xmlns="http://www.w3.org/2000/svg"
   xmlns:sodipodi="http://sodipodi.sourceforge.net/DTD/sodipodi-0.dtd"
   xmlns:inkscape="http://www.inkscape.org/namespaces/inkscape"
   viewBox="0 0 12.901954 17.299999"
   height="17.299999"
   width="12.901954"
   version="1.1"
   id="svg59203"
   sodipodi:docname="cemetery.svg"
   inkscape:version="1.0.2 (e86c8708, 2021-01-15)">
  <metadata
     id="metadata59209">
    <rdf:RDF>
      <cc:Work
         rdf:about="">
        <dc:format>image/svg+xml</dc:format>
        <dc:type
           rdf:resource="http://purl.org/dc/dcmitype/StillImage" />
        <dc:title>cemetery_15.svg</dc:title>
      </cc:Work>
    </rdf:RDF>
  </metadata>
  <defs
     id="defs59207" />
  <sodipodi:namedview
     pagecolor="#ffffff"
     bordercolor="#666666"
     borderopacity="1"
     objecttolerance="10"
     gridtolerance="10"
     guidetolerance="10"
     inkscape:pageopacity="0"
     inkscape:pageshadow="2"
     inkscape:window-width="995"
     inkscape:window-height="716"
     id="namedview59205"
     showgrid="false"
     inkscape:pagecheckerboard="true"
     inkscape:zoom="26.428571"
     inkscape:cx="6.2428996"
     inkscape:cy="7.2121622"
     inkscape:window-x="0"
     inkscape:window-y="25"
     inkscape:window-maximized="0"
     inkscape:current-layer="svg59203" />
  <title
     id="title59193">cemetery_15.svg</title>
  <rect
     fill="none"
     x="-4.0489922"
     y="-1.85"
     width="21"
     height="21"
     id="rect59195" />
  <path
     fill="#725a50"
     d="m 10.807005,13.6 h -0.748 l 1.342,-9.295 C 11.420255,3.98963 11.180125,3.71848 10.864865,3.69923 10.838245,3.69769 10.811515,3.69791 10.785005,3.7 H 9.4870047 c 0,-1.012 -1.353,-2.2 -3.025,-2.2 -1.6720004,0 -3.0140004,1.188 -3.0140004,2.2 h -1.353 c -0.3157,-0.01265 -0.58179,0.23287 -0.59455,0.54857 -7.7e-4,0.01881 -5.5e-4,0.03762 5.5e-4,0.05643 l 1.32,9.295 h -0.715 c -0.31801,-0.01254 -0.58718,0.23232 -0.605,0.55 v 1.65 h 9.9000007 v -1.661 c -0.01771,-0.31163 -0.28215,-0.55154 -0.594,-0.539 z M 3.1510043,5.9 H 9.7510047 V 7 H 3.1510043 Z"
     id="path59201"
     style="stroke:#ffffff;stroke-width:3;stroke-linecap:round;stroke-miterlimit:4;stroke-dasharray:none;stroke-opacity:1;paint-order:stroke fill markers" />
</svg>
