<?xml version="1.0" encoding="UTF-8" standalone="no"?>
<svg
   xmlns:dc="http://purl.org/dc/elements/1.1/"
   xmlns:cc="http://creativecommons.org/ns#"
   xmlns:rdf="http://www.w3.org/1999/02/22-rdf-syntax-ns#"
   xmlns:svg="http://www.w3.org/2000/svg"
   xmlns="http://www.w3.org/2000/svg"
   xmlns:sodipodi="http://sodipodi.sourceforge.net/DTD/sodipodi-0.dtd"
   xmlns:inkscape="http://www.inkscape.org/namespaces/inkscape"
   version="1.1"
   id="cinema"
   width="18.15"
   height="15.73"
   viewBox="0 0 18.15 15.73"
   sodipodi:docname="cinema.svg"
   inkscape:version="1.0.2 (e86c8708, 2021-01-15)">
  <metadata
     id="metadata61531">
    <rdf:RDF>
      <cc:Work
         rdf:about="">
        <dc:format>image/svg+xml</dc:format>
        <dc:type
           rdf:resource="http://purl.org/dc/dcmitype/StillImage" />
        <dc:title />
      </cc:Work>
    </rdf:RDF>
  </metadata>
  <defs
     id="defs61529" />
  <sodipodi:namedview
     pagecolor="#ffffff"
     bordercolor="#666666"
     borderopacity="1"
     objecttolerance="10"
     gridtolerance="10"
     guidetolerance="10"
     inkscape:pageopacity="0"
     inkscape:pageshadow="2"
     inkscape:window-width="1257"
     inkscape:window-height="755"
     id="namedview61527"
     showgrid="false"
     inkscape:zoom="37"
     inkscape:cx="13.412838"
     inkscape:cy="9.392027"
     inkscape:window-x="0"
     inkscape:window-y="25"
     inkscape:window-maximized="0"
     inkscape:current-layer="cinema"
     inkscape:document-rotation="0" />
  <path
     d="M 16.335,8.4700001 V 10.89 c 0,0.334081 -0.270919,0.605 -0.605,0.605 -0.334081,0 -0.605,-0.270919 -0.605,-0.605 0,0 0.0726,-0.605 -1.21,-0.605 h -1.21 v 3.025 c 0,0.334081 -0.270919,0.605 -0.605,0.605 H 2.4200001 c -0.334081,0 -0.605,-0.270919 -0.605,-0.605 V 8.4700001 c 0,-0.334081 0.270919,-0.605 0.605,-0.605 H 12.1 c 0.334081,0 0.605,0.270919 0.605,0.605 v 0.605 h 1.21 c 1.2826,0 1.21,-0.605 1.21,-0.605 0,-0.334081 0.270919,-0.605 0.605,-0.605 0.334081,0 0.605,0.270919 0.605,0.605 z m -12.0999999,-5.445 c -1.336566,0 -2.42,1.083434 -2.42,2.42 0,1.336566 1.083434,2.42 2.42,2.42 1.336566,0 2.42,-1.083434 2.42,-2.42 0,-1.336566 -1.083434,-2.42 -2.42,-2.42 z m 0,3.63 c -0.668283,0 -1.21,-0.541717 -1.21,-1.21 0,-0.668283 0.541717,-1.21 1.21,-1.21 0.668283,0 1.21,0.541717 1.21,1.21 0,0.668283 -0.541717,1.21 -1.21,1.21 z m 5.445,-4.84 c -1.670647,0 -3.025,1.354353 -3.025,3.025 0,1.670647 1.354353,3.025 3.025,3.025 1.6706469,0 3.0249999,-1.354353 3.0249999,-3.025 0,-1.670647 -1.354353,-3.025 -3.0249999,-3.025 z m 0,4.84 c -1.002364,0 -1.815,-0.812636 -1.815,-1.815 0,-1.002364 0.812636,-1.815 1.815,-1.815 1.0023639,0 1.8149999,0.812636 1.8149999,1.815 0,1.002364 -0.812636,1.815 -1.8149999,1.815 z"
     id="path61524"
     style="fill:#725a50;fill-opacity:1;stroke:#ffffff;stroke-width:3.63;stroke-linecap:round;stroke-miterlimit:4;stroke-dasharray:none;stroke-opacity:1;paint-order:stroke fill markers" />
</svg>
