<?xml version="1.0" encoding="UTF-8" standalone="no"?>
<svg
   xmlns:dc="http://purl.org/dc/elements/1.1/"
   xmlns:cc="http://creativecommons.org/ns#"
   xmlns:rdf="http://www.w3.org/1999/02/22-rdf-syntax-ns#"
   xmlns:svg="http://www.w3.org/2000/svg"
   xmlns="http://www.w3.org/2000/svg"
   xmlns:sodipodi="http://sodipodi.sourceforge.net/DTD/sodipodi-0.dtd"
   xmlns:inkscape="http://www.inkscape.org/namespaces/inkscape"
   version="1.1"
   id="Layer_1"
   x="0px"
   y="0px"
   width="8.812px"
   height="9.688px"
   viewBox="5.188 4.625 8.812 9.688"
   enable-background="new 5.188 4.625 8.812 9.688"
   xml:space="preserve"
   sodipodi:docname="circle-stroke.svg"
   inkscape:version="1.0.2 (e86c8708, 2021-01-15)"><metadata
   id="metadata2063"><rdf:RDF><cc:Work
       rdf:about=""><dc:format>image/svg+xml</dc:format><dc:type
         rdf:resource="http://purl.org/dc/dcmitype/StillImage" /><dc:title>circle_15.svg</dc:title></cc:Work></rdf:RDF></metadata><defs
   id="defs2061" /><sodipodi:namedview
   pagecolor="#ffffff"
   bordercolor="#666666"
   borderopacity="1"
   objecttolerance="10"
   gridtolerance="10"
   guidetolerance="10"
   inkscape:pageopacity="0"
   inkscape:pageshadow="2"
   inkscape:window-width="1059"
   inkscape:window-height="649"
   id="namedview2059"
   showgrid="false"
   inkscape:zoom="56.668045"
   inkscape:cx="4.4060001"
   inkscape:cy="4.8439999"
   inkscape:window-x="0"
   inkscape:window-y="25"
   inkscape:window-maximized="0"
   inkscape:current-layer="Layer_1" />
<title
   id="title2050">circle_15.svg</title>
<g
   id="g2056">
	<path
   fill="#FFFFFF"
   d="M12.646,9.417c0,1.69-1.371,3.062-3.063,3.062c-1.691,0-3.062-1.371-3.062-3.062   c0-1.691,1.371-3.062,3.062-3.062C11.275,6.354,12.646,7.726,12.646,9.417z"
   id="path2052" />
	<path
   fill="#4D4D4F"
   d="M9.583,12.979c-1.964,0-3.562-1.598-3.562-3.562c0-1.964,1.598-3.562,3.562-3.562   c1.965,0,3.563,1.598,3.563,3.562C13.146,11.381,11.548,12.979,9.583,12.979z M9.583,6.854c-1.413,0-2.562,1.149-2.562,2.562   c0,1.412,1.149,2.562,2.562,2.562s2.563-1.149,2.563-2.562C12.146,8.004,10.996,6.854,9.583,6.854z"
   id="path2054" />
</g>
</svg>
