<?xml version="1.0" encoding="UTF-8" standalone="no"?>
<svg
   xmlns:dc="http://purl.org/dc/elements/1.1/"
   xmlns:cc="http://creativecommons.org/ns#"
   xmlns:rdf="http://www.w3.org/1999/02/22-rdf-syntax-ns#"
   xmlns:svg="http://www.w3.org/2000/svg"
   xmlns="http://www.w3.org/2000/svg"
   xmlns:sodipodi="http://sodipodi.sourceforge.net/DTD/sodipodi-0.dtd"
   xmlns:inkscape="http://www.inkscape.org/namespaces/inkscape"
   viewBox="0 0 22.147249 16.155294"
   height="16.155294"
   width="22.147249"
   version="1.1"
   id="svg35945"
   sodipodi:docname="college.svg"
   inkscape:version="1.0.2 (e86c8708, 2021-01-15)">
  <metadata
     id="metadata35951">
    <rdf:RDF>
      <cc:Work
         rdf:about="">
        <dc:format>image/svg+xml</dc:format>
        <dc:type
           rdf:resource="http://purl.org/dc/dcmitype/StillImage" />
        <dc:title>college_15.svg</dc:title>
      </cc:Work>
    </rdf:RDF>
  </metadata>
  <defs
     id="defs35949" />
  <sodipodi:namedview
     pagecolor="#ffffff"
     bordercolor="#666666"
     borderopacity="1"
     objecttolerance="10"
     gridtolerance="10"
     guidetolerance="10"
     inkscape:pageopacity="0"
     inkscape:pageshadow="2"
     inkscape:window-width="1182"
     inkscape:window-height="757"
     id="namedview35947"
     showgrid="false"
     inkscape:zoom="27.75"
     inkscape:cx="10.879468"
     inkscape:cy="7.2859252"
     inkscape:window-x="0"
     inkscape:window-y="25"
     inkscape:window-maximized="0"
     inkscape:current-layer="svg35945" />
  <title
     id="title35935">college_15.svg</title>
  <rect
     fill="none"
     x="1.6001887"
     y="-1.3447055"
     width="20"
     height="20"
     id="rect35937" />
  <path
     fill="#725a50"
     d="m 11.100189,1.6552945 -7.5000003,3.5 2,0.9 v 1.7 c -0.6,0.2 -1,0.8 -1,1.4 0,0.6 0.4,1.2000005 1,1.4000005 v 0.1 l -0.9,2.1 c -0.3,0.9 -0.1,1.9 1.4,1.9 1.5,0 1.7,-1 1.4,-1.9 l -0.9,-2.1 c 0.6,-0.3 1,-0.8000005 1,-1.5000005 0,-0.7 -0.4,-1.2 -1,-1.4 v -1.2 l 4.5000003,2.1 7.5,-3.5 z m 4.4,6.5 -4.5,2.0000005 -2.4000003,-1.1000005 v 0.1 c 0,0.7 -0.3,1.3000005 -0.8,1.8000005 l 0.6,1.4 v 0.1 c 0.1,0.4 0.2,0.8 0.1,1.2 0.7,0.3 1.5000003,0.5 2.5000003,0.5 3.3,0 4.5,-2 4.5,-3 z"
     id="path35943"
     style="stroke:#ffffff;stroke-width:3;stroke-linecap:round;stroke-miterlimit:4;stroke-dasharray:none;stroke-opacity:1;paint-order:stroke fill markers" />
</svg>
