<?xml version="1.0" encoding="UTF-8" standalone="no"?>
<svg
   xmlns:dc="http://purl.org/dc/elements/1.1/"
   xmlns:cc="http://creativecommons.org/ns#"
   xmlns:rdf="http://www.w3.org/1999/02/22-rdf-syntax-ns#"
   xmlns:svg="http://www.w3.org/2000/svg"
   xmlns="http://www.w3.org/2000/svg"
   xmlns:sodipodi="http://sodipodi.sourceforge.net/DTD/sodipodi-0.dtd"
   xmlns:inkscape="http://www.inkscape.org/namespaces/inkscape"
   version="1.1"
   width="15.82457"
   height="14.704589"
   viewBox="0 0 15.82457 14.704589"
   id="home"
   sodipodi:docname="community_centre.svg"
   inkscape:version="1.0.2 (e86c8708, 2021-01-15)">
  <metadata
     id="metadata74911">
    <rdf:RDF>
      <cc:Work
         rdf:about="">
        <dc:format>image/svg+xml</dc:format>
        <dc:type
           rdf:resource="http://purl.org/dc/dcmitype/StillImage" />
        <dc:title></dc:title>
      </cc:Work>
    </rdf:RDF>
  </metadata>
  <defs
     id="defs74909" />
  <sodipodi:namedview
     pagecolor="#ffffff"
     bordercolor="#666666"
     borderopacity="1"
     objecttolerance="10"
     gridtolerance="10"
     guidetolerance="10"
     inkscape:pageopacity="0"
     inkscape:pageshadow="2"
     inkscape:window-width="1247"
     inkscape:window-height="679"
     id="namedview74907"
     showgrid="false"
     inkscape:zoom="36.933333"
     inkscape:cx="7.3639475"
     inkscape:cy="11.688237"
     inkscape:window-x="32"
     inkscape:window-y="44"
     inkscape:window-maximized="0"
     inkscape:current-layer="home" />
  <path
     d="m 2.4469152,12.979589 c 0,0.124263 0.1108107,0.225 0.2475,0.225 h 3.71151 c 4.2330578,-0.04982 1.9514079,-0.0069 2.97,0 h 3.7115098 c 0.136689,0 0.2475,-0.100737 0.2475,-0.225 V 7.8053988 H 2.4469152 Z M 14.257615,6.5265888 13.335034,5.7895788 c -2.977557,-2.3833886 0.566481,0.4149566 -1.98,-1.58301 L 8.0709072,1.5875689 c -0.093555,-0.09027 -0.2498166,-0.094698 -0.349371,-0.0099 l -0.01089,0.0099 -6.186609,4.9166999 c -0.093456,0.090684 -0.088348,0.233073 0.011405,0.318033 0.045005,0.038331 0.1041381,0.060003 0.1658052,0.060777 l 1.735668,0.0225 H 14.076247 c 0.136689,4.14e-4 0.247866,-0.09999 0.248322,-0.224253 2.08e-4,-0.057429 -0.02374,-0.112752 -0.06695,-0.154647 z"
     id="path74904"
     sodipodi:nodetypes="ssccssccscccccccscccscc"
     style="fill:#725a50;fill-opacity:1;stroke:#ffffff;stroke-width:3;stroke-linecap:round;stroke-miterlimit:4;stroke-dasharray:none;stroke-opacity:1;paint-order:stroke fill markers" />
</svg>
