<?xml version="1.0" encoding="UTF-8" standalone="no"?>
<svg
   xmlns:dc="http://purl.org/dc/elements/1.1/"
   xmlns:cc="http://creativecommons.org/ns#"
   xmlns:rdf="http://www.w3.org/1999/02/22-rdf-syntax-ns#"
   xmlns:svg="http://www.w3.org/2000/svg"
   xmlns="http://www.w3.org/2000/svg"
   xmlns:sodipodi="http://sodipodi.sourceforge.net/DTD/sodipodi-0.dtd"
   xmlns:inkscape="http://www.inkscape.org/namespaces/inkscape"
   id="convenience"
   width="17.594345"
   height="17.347219"
   viewBox="0 0 17.594345 17.347219"
   version="1.1"
   sodipodi:docname="convenience.svg"
   inkscape:version="1.0.2 (e86c8708, 2021-01-15)">
  <metadata
     id="metadata71401">
    <rdf:RDF>
      <cc:Work
         rdf:about="">
        <dc:format>image/svg+xml</dc:format>
        <dc:type
           rdf:resource="http://purl.org/dc/dcmitype/StillImage" />
        <dc:title></dc:title>
      </cc:Work>
    </rdf:RDF>
  </metadata>
  <defs
     id="defs71399" />
  <sodipodi:namedview
     pagecolor="#ffffff"
     bordercolor="#666666"
     borderopacity="1"
     objecttolerance="10"
     gridtolerance="10"
     guidetolerance="10"
     inkscape:pageopacity="0"
     inkscape:pageshadow="2"
     inkscape:window-width="1149"
     inkscape:window-height="727"
     id="namedview71397"
     showgrid="false"
     inkscape:zoom="36.933333"
     inkscape:cx="7.2666178"
     inkscape:cy="8.3172277"
     inkscape:window-x="134"
     inkscape:window-y="44"
     inkscape:window-maximized="0"
     inkscape:current-layer="convenience" />
  <path
     d="m 3.8443441,3.67521 c 0,0 0.20625,-1.1682 1.1,-1.1682 h 1.10671 V 2.2 a 0.55,0.55 0 0 1 0.55,-0.55 h 4.3822899 a 0.55,0.55 0 0 1 0.55,0.55 v 0.30701 h 1.111 a 0.91564,0.91564 0 0 1 0.70103,0.32307 1.93479,1.93479 0 0 1 0.39897,0.84513 c 0,0 0.34188,1.72909 0.65131,3.20991 h -1.0318 L 12.646324,3.59964 4.9265241,3.5948 4.2132841,6.88512 h -1.04676 z M 15.944344,9.08105 a 1.1,1.1 0 0 1 -1.09912,1.1 l -1.10088,4.3703 c 0,0 -0.20625,1.14587 -1.1,1.14587 H 4.9443441 c -0.89375,0 -1.1,-1.14587 -1.1,-1.14587 l -1.1176,-4.37371 a 1.09835,1.09835 0 0 1 0.0176,-2.19648 H 14.844344 a 1.1,1.1 0 0 1 1.1,1.09989 z m -9.8620499,4.56159 -0.00297,-1.23739 -0.42988,-1.69015 a 0.59106253,0.59106253 0 1 0 -1.17139,0.15895 l 0.22627,1.53384 0.20614,1.39392 a 0.59129532,0.59129532 0 1 0 1.17183,-0.15917 z m 2.2,-2.85637 a 0.58652,0.58652 0 0 0 -0.58663,-0.58663 l -0.00429,8.8e-4 -0.00759,-8.8e-4 a 0.54912,0.54912 0 0 0 -0.39325,0.16599 0.5819,0.5819 0 0 0 -0.18128,0.42108 v 2.948 a 0.58652,0.58652 0 1 0 1.17293,0 z m 2.1977999,0 a 0.58454,0.58454 0 0 0 -0.37037,-0.54263 0.54912,0.54912 0 0 0 -0.4322999,0 0.58432,0.58432 0 0 0 -0.37026,0.54274 v 2.948 a 0.58641,0.58641 0 1 0 1.1728199,0 z m 2.62427,0.088 a 0.59106253,0.59106253 0 1 0 -1.17139,-0.15895 l -0.43065,1.6775 -0.0023,1.24982 a 0.59106992,0.59106992 0 1 0 1.17139,0.15906 z"
     id="path71394"
     style="fill:#725a50;fill-opacity:0.929412;stroke:#ffffff;stroke-width:3.3;stroke-linecap:round;stroke-miterlimit:4;stroke-dasharray:none;stroke-opacity:1;paint-order:stroke fill markers" />
</svg>
