<?xml version="1.0" encoding="UTF-8" standalone="no"?>
<svg
   xmlns:dc="http://purl.org/dc/elements/1.1/"
   xmlns:cc="http://creativecommons.org/ns#"
   xmlns:rdf="http://www.w3.org/1999/02/22-rdf-syntax-ns#"
   xmlns:svg="http://www.w3.org/2000/svg"
   xmlns="http://www.w3.org/2000/svg"
   xmlns:sodipodi="http://sodipodi.sourceforge.net/DTD/sodipodi-0.dtd"
   xmlns:inkscape="http://www.inkscape.org/namespaces/inkscape"
   height="16.347267"
   viewBox="0 0 17.497574 16.347267"
   width="17.497574"
   id="defibrillator"
   version="1.1"
   sodipodi:docname="defibrillator.svg"
   inkscape:version="1.0.2 (e86c8708, 2021-01-15)">
  <metadata
     id="metadata67938">
    <rdf:RDF>
      <cc:Work
         rdf:about="">
        <dc:format>image/svg+xml</dc:format>
        <dc:type
           rdf:resource="http://purl.org/dc/dcmitype/StillImage" />
        <dc:title></dc:title>
      </cc:Work>
    </rdf:RDF>
  </metadata>
  <defs
     id="defs67936" />
  <sodipodi:namedview
     pagecolor="#ffffff"
     bordercolor="#666666"
     borderopacity="1"
     objecttolerance="10"
     gridtolerance="10"
     guidetolerance="10"
     inkscape:pageopacity="0"
     inkscape:pageshadow="2"
     inkscape:window-width="1179"
     inkscape:window-height="727"
     id="namedview67934"
     showgrid="false"
     inkscape:zoom="36.933333"
     inkscape:cx="7.5147998"
     inkscape:cy="7.7019088"
     inkscape:window-x="42"
     inkscape:window-y="42"
     inkscape:window-maximized="0"
     inkscape:current-layer="defibrillator" />
  <path
     d="m 2.2014904,7.4766574 c -2.62547884,-5.05615 3.9930001,-8.42698895 6.5472001,-3.37084 2.5536495,-5.05614895 9.1726245,-1.68542 6.5475845,3.37084 -0.09559,0.18381 -0.22308,0.38016 -0.34254,0.57332 h -1.98869 l -1.996005,-2.99376 c -0.06953,-0.104203 -0.16621,-0.18744 -0.279587,-0.240724 -0.113388,-0.053273 -0.239173,-0.074569 -0.36377,-0.061589 -0.124597,0.012991 -0.243287,0.059763 -0.3432545,0.135278 -0.099957,0.075515 -0.177386,0.176902 -0.223938,0.293205 l -1.81324,4.532 -1.463,-1.463 c -0.128876,-0.128777 -0.303567,-0.201168 -0.48576,-0.2013 h -3.45279 c -0.11946,-0.19327 -0.24695,-0.38962 -0.3422101,-0.57343 z m 10.3950546,1.94843 c -0.1133,-3.3e-5 -0.22484,-0.027995 -0.32461,-0.081389 -0.09988,-0.053394 -0.18502,-0.130581 -0.24794,-0.224741 L 10.54906,6.9067474 8.8344905,11.193217 c -0.042229,0.1056 -0.110022,0.1991 -0.197296,0.27214 -0.087285,0.07293 -0.191323,0.12309 -0.302764,0.14586 -0.045375,0.0095 -0.091597,0.01408 -0.13794,0.01386 -0.182248,1.1e-4 -0.357082,-0.07216 -0.48609,-0.20086 l -1.99859,-1.9991296 h -2.20594 c 1.503095,1.8350096 3.143129,3.5534296 4.906,5.1405096 0.093841,0.0847 0.215776,0.13167 0.34221,0.13167 0.126434,0 0.248369,-0.04697 0.34221,-0.13167 1.7575575,-1.58917 3.3939945,-3.30748 4.8956045,-5.1405096 z"
     id="path67931"
     style="fill:#725a4b;fill-opacity:1;stroke:#ffffff;stroke-width:3.3;stroke-linecap:round;stroke-miterlimit:4;stroke-dasharray:none;stroke-opacity:1;paint-order:stroke fill markers" />
</svg>
