<?xml version="1.0" encoding="UTF-8" standalone="no"?>
<svg
   xmlns:dc="http://purl.org/dc/elements/1.1/"
   xmlns:cc="http://creativecommons.org/ns#"
   xmlns:rdf="http://www.w3.org/1999/02/22-rdf-syntax-ns#"
   xmlns:svg="http://www.w3.org/2000/svg"
   xmlns="http://www.w3.org/2000/svg"
   xmlns:sodipodi="http://sodipodi.sourceforge.net/DTD/sodipodi-0.dtd"
   xmlns:inkscape="http://www.inkscape.org/namespaces/inkscape"
   version="1.1"
   id="dentist"
   width="15.410789"
   height="17.651957"
   viewBox="0 0 15.410789 17.651957"
   sodipodi:docname="dentist.svg"
   inkscape:version="1.0.2 (e86c8708, 2021-01-15)">
  <metadata
     id="metadata67947">
    <rdf:RDF>
      <cc:Work
         rdf:about="">
        <dc:format>image/svg+xml</dc:format>
        <dc:type
           rdf:resource="http://purl.org/dc/dcmitype/StillImage" />
        <dc:title></dc:title>
      </cc:Work>
    </rdf:RDF>
  </metadata>
  <defs
     id="defs67945" />
  <sodipodi:namedview
     pagecolor="#ffffff"
     bordercolor="#666666"
     borderopacity="1"
     objecttolerance="10"
     gridtolerance="10"
     guidetolerance="10"
     inkscape:pageopacity="0"
     inkscape:pageshadow="2"
     inkscape:window-width="1193"
     inkscape:window-height="733"
     id="namedview67943"
     showgrid="false"
     inkscape:zoom="36.933333"
     inkscape:cx="6.460598"
     inkscape:cy="8.8495948"
     inkscape:window-x="55"
     inkscape:window-y="25"
     inkscape:window-maximized="0"
     inkscape:current-layer="dentist" />
  <path
     d="m 4.2372627,16.001957 c -1.1,0 -0.616,-2.937 -0.946,-5.5 -0.11,-0.8360005 -1.1,-1.6390005 -1.232,-2.2660005 -0.418,-2.134 -1.08899994,-6.05 1.408,-6.534 2.497,-0.484 2.574,2.2 4.268,2.2 1.694,0 1.727,-2.596 4.2349993,-2.2 2.508,0.396 1.749,4.29 1.419,6.49 -0.11,0.495 -1.21,1.628 -1.298,2.2660005 -0.363,2.64 0.352,5.5 -0.88,5.5 -1.022999,0 -1.4519993,-2.992 -2.1999993,-4.95 -0.297,-0.913 -0.704,-1.6060005 -1.276,-1.6060005 -1.694,0 -1.969,6.6000005 -3.498,6.6000005 z"
     id="path67940"
     style="fill:#725a4b;fill-opacity:1;stroke:#ffffff;stroke-width:3.3;stroke-linecap:round;stroke-miterlimit:4;stroke-dasharray:none;stroke-opacity:1;paint-order:stroke fill markers" />
</svg>
