<?xml version="1.0" encoding="UTF-8" standalone="no"?>
<svg
   xmlns:dc="http://purl.org/dc/elements/1.1/"
   xmlns:cc="http://creativecommons.org/ns#"
   xmlns:rdf="http://www.w3.org/1999/02/22-rdf-syntax-ns#"
   xmlns:svg="http://www.w3.org/2000/svg"
   xmlns="http://www.w3.org/2000/svg"
   xmlns:sodipodi="http://sodipodi.sourceforge.net/DTD/sodipodi-0.dtd"
   xmlns:inkscape="http://www.inkscape.org/namespaces/inkscape"
   viewBox="0 0 15.122686 16.718401"
   height="16.718401"
   width="15.122686"
   version="1.1"
   id="svg8521"
   sodipodi:docname="diplomatic.svg"
   inkscape:version="1.0.2 (e86c8708, 2021-01-15)">
  <metadata
     id="metadata8527">
    <rdf:RDF>
      <cc:Work
         rdf:about="">
        <dc:format>image/svg+xml</dc:format>
        <dc:type
           rdf:resource="http://purl.org/dc/dcmitype/StillImage" />
        <dc:title>castle_15.svg</dc:title>
      </cc:Work>
    </rdf:RDF>
  </metadata>
  <defs
     id="defs8525" />
  <sodipodi:namedview
     pagecolor="#ffffff"
     bordercolor="#666666"
     borderopacity="1"
     objecttolerance="10"
     gridtolerance="10"
     guidetolerance="10"
     inkscape:pageopacity="0"
     inkscape:pageshadow="2"
     inkscape:window-width="1328"
     inkscape:window-height="761"
     id="namedview8523"
     showgrid="false"
     inkscape:pagecheckerboard="true"
     inkscape:zoom="26.142857"
     inkscape:cx="6.4102818"
     inkscape:cy="3.0856184"
     inkscape:window-x="104"
     inkscape:window-y="25"
     inkscape:window-maximized="0"
     inkscape:current-layer="svg8521"
     inkscape:document-rotation="0" />
  <title
     id="title8511">castle_15.svg</title>
  <rect
     fill="none"
     x="-2.549921"
     y="-2.8411515"
     width="21"
     height="21"
     id="rect8513" />
  <path
     d="m 6.912,2.4299999 c -1.3176,0 -2.3436,1.4904 -2.7432,1.9656001 C 4.08942,4.493016 4.0473,4.6155959 4.05,4.7412 v 4.7520005 c -0.012528,0.262116 0.189864,0.484812 0.45198,0.49734 0.11826,0.0056 0.23436,-0.03305 0.32562,-0.10854 0.50382,-0.676512 1.251612,-1.129788 2.0844,-1.2636 1.5228,0 2.1060001,1.3716 3.6936,1.3716 1.074384,-0.105408 2.09682,-0.513648 2.9484,-1.1772 0.137376,-0.100872 0.217728,-0.261576 0.216,-0.432 V 2.9159999 C 13.7997,2.655288 13.612428,2.4197399 13.351608,2.39004 13.265858,2.38032 13.178916,2.39414 13.1004,2.43 12.364596,2.9928961 11.512152,3.3840721 10.6056,3.5748001 9.0180001,3.5964001 8.4996,2.43 6.912,2.4299999 Z M 2.43,3.51 C 1.833516,3.51 1.35,3.0264839 1.35,2.4299999 1.35,1.833516 1.833516,1.35 2.43,1.35 3.026484,1.35 3.51,1.833516 3.51,2.4299999 3.51,3.0264839 3.026484,3.51 2.43,3.51 Z M 2.97,4.5899999 V 14.828401 c 0,0.298188 -0.241812,0.54 -0.54,0.54 -0.298188,0 -0.54,-0.241812 -0.54,-0.54 V 4.5899999 c 0,-0.2981879 0.241812,-0.54 0.54,-0.54 0.298188,0 0.54,0.2418121 0.54,0.54 z"
     id="path24998"
     style="fill:#725a50;fill-opacity:1;stroke:#ffffff;stroke-width:2.7;stroke-linecap:round;stroke-miterlimit:4;stroke-dasharray:none;stroke-opacity:1;paint-order:stroke fill markers" />
</svg>
