<?xml version="1.0" encoding="UTF-8" standalone="no"?>
<svg
   xmlns:dc="http://purl.org/dc/elements/1.1/"
   xmlns:cc="http://creativecommons.org/ns#"
   xmlns:rdf="http://www.w3.org/1999/02/22-rdf-syntax-ns#"
   xmlns:svg="http://www.w3.org/2000/svg"
   xmlns="http://www.w3.org/2000/svg"
   xmlns:sodipodi="http://sodipodi.sourceforge.net/DTD/sodipodi-0.dtd"
   xmlns:inkscape="http://www.inkscape.org/namespaces/inkscape"
   version="1.1"
   id="doctor"
   width="15.948137"
   height="17.6"
   viewBox="0 0 15.948137 17.6"
   sodipodi:docname="doctor.svg"
   inkscape:version="1.0.2 (e86c8708, 2021-01-15)">
  <metadata
     id="metadata67929">
    <rdf:RDF>
      <cc:Work
         rdf:about="">
        <dc:format>image/svg+xml</dc:format>
        <dc:type
           rdf:resource="http://purl.org/dc/dcmitype/StillImage" />
        <dc:title></dc:title>
      </cc:Work>
    </rdf:RDF>
  </metadata>
  <defs
     id="defs67927" />
  <sodipodi:namedview
     pagecolor="#ffffff"
     bordercolor="#666666"
     borderopacity="1"
     objecttolerance="10"
     gridtolerance="10"
     guidetolerance="10"
     inkscape:pageopacity="0"
     inkscape:pageshadow="2"
     inkscape:window-width="1142"
     inkscape:window-height="775"
     id="namedview67925"
     showgrid="false"
     inkscape:zoom="36.933333"
     inkscape:cx="8.3124604"
     inkscape:cy="8.8"
     inkscape:window-x="157"
     inkscape:window-y="88"
     inkscape:window-maximized="0"
     inkscape:current-layer="doctor" />
  <path
     d="M 5.5,8.25 C 3.98123,8.25 2.75,7.01877 2.75,5.5 v 0 -2.2 C 2.75,2.99629 2.99629,2.75 3.3,2.75 H 3.85 C 4.15371,2.75 4.4,2.50371 4.4,2.2 4.4,1.89629 4.15371,1.65 3.85,1.65 H 3.3 C 2.38876,1.65 1.65,2.38876 1.65,3.3 v 2.2 c 0.00143,1.26126 0.62238,2.44145 1.661,3.157 v 0 c 0.99341,0.87582 1.58554,2.1197 1.639,3.443 0,2.1263 1.7237,3.85 3.85,3.85 2.1263,0 3.85,-1.7237 3.85,-3.85 V 11.473 C 13.82645,11.16929 14.53386,9.9693 14.23015,8.79285 13.92633,7.6164 12.72645,6.90899 11.55,7.2127 10.37355,7.51652 9.66614,8.7164 9.96985,9.89285 10.16994,10.6678 10.77505,11.27291 11.55,11.473 V 12.1 c 0,1.51877 -1.23123,2.75 -2.75,2.75 C 7.28123,14.85 6.05,13.61877 6.05,12.1 6.10621,10.77505 6.70252,9.53084 7.7,8.657 v 0 C 8.73444,7.93892 9.3511,6.75928 9.35,5.5 V 3.3 C 9.35,2.38876 8.61124,1.65 7.7,1.65 H 7.15 C 6.84629,1.65 6.6,1.89629 6.6,2.2 6.6,2.50371 6.84629,2.75 7.15,2.75 H 7.7 c 0.30371,0 0.55,0.24629 0.55,0.55 v 2.2 0 c 0,1.51877 -1.23123,2.75 -2.75,2.75 m 6.6,2.2 c -0.60753,0 -1.1,-0.49247 -1.1,-1.1 0,-0.60753 0.49247,-1.1 1.1,-1.1 0.60753,0 1.1,0.49247 1.1,1.1 0,0.60753 -0.49247,1.1 -1.1,1.1 z"
     id="path67922"
     style="fill:#725a4b;fill-opacity:1;stroke:#ffffff;stroke-width:3.3;stroke-linecap:round;stroke-miterlimit:4;stroke-dasharray:none;stroke-opacity:1;paint-order:stroke fill markers" />
</svg>
