<?xml version="1.0" encoding="UTF-8" standalone="no"?>
<svg
   xmlns:dc="http://purl.org/dc/elements/1.1/"
   xmlns:cc="http://creativecommons.org/ns#"
   xmlns:rdf="http://www.w3.org/1999/02/22-rdf-syntax-ns#"
   xmlns:svg="http://www.w3.org/2000/svg"
   xmlns="http://www.w3.org/2000/svg"
   xmlns:sodipodi="http://sodipodi.sourceforge.net/DTD/sodipodi-0.dtd"
   xmlns:inkscape="http://www.inkscape.org/namespaces/inkscape"
   viewBox="0 0 16.847263 14.214419"
   height="14.214418"
   width="16.847263"
   version="1.1"
   id="svg23812"
   sodipodi:docname="dog_park.svg"
   inkscape:version="1.0.2 (e86c8708, 2021-01-15)">
  <metadata
     id="metadata23818">
    <rdf:RDF>
      <cc:Work
         rdf:about="">
        <dc:format>image/svg+xml</dc:format>
        <dc:type
           rdf:resource="http://purl.org/dc/dcmitype/StillImage" />
        <dc:title>dog_park_15.svg</dc:title>
      </cc:Work>
    </rdf:RDF>
  </metadata>
  <defs
     id="defs23816" />
  <sodipodi:namedview
     pagecolor="#ffffff"
     bordercolor="#666666"
     borderopacity="1"
     objecttolerance="10"
     gridtolerance="10"
     guidetolerance="10"
     inkscape:pageopacity="0"
     inkscape:pageshadow="2"
     inkscape:window-width="1224"
     inkscape:window-height="716"
     id="namedview23814"
     showgrid="false"
     inkscape:pagecheckerboard="true"
     inkscape:zoom="26.380952"
     inkscape:cx="9.3609731"
     inkscape:cy="6.4815309"
     inkscape:window-x="118"
     inkscape:window-y="25"
     inkscape:window-maximized="0"
     inkscape:current-layer="svg23812"
     inkscape:document-rotation="0" />
  <title
     id="title23802">dog_park_15.svg</title>
  <rect
     fill="none"
     x="-2.105633"
     y="-3.2603462"
     width="21"
     height="21"
     id="rect23804" />
  <path
     fill="#5d60be"
     d="m 11.088969,1.2056687 c -0.370848,0 -0.672749,-0.019875 -0.768749,0.7481251 l -0.3843749,2.420625 2.3043749,1.899375 h 1.92 c 1.344,0 1.44,-0.9206251 1.44,-0.9206251 l -1.824375,-2.13 c -0.672,-0.672 -1.343625,-0.7893749 -2.015625,-0.7893749 v -0.48 c 0,0 0.06478,-0.7482211 -0.671251,-0.7481251 z M 5.7602199,1.4737938 c 0,0 -0.9127501,0.019779 -1.4887499,0.2118749 -0.5760002,0.192 -1.1512501,0.8643752 -1.1512501,1.8243752 v 3.7443752 c 0,1.6319997 -0.672,1.8993747 -0.96,1.8993747 0,0 -0.96,0.02062 -0.96,0.9806252 v 2.11125 c 0,0 7.5e-4,0.76875 0.76875,0.76875 h 0.19125 0.48 0.48 v -0.48 -0.191249 c 0,-0.384 -0.192,-0.577126 -0.48,-0.673126 v -1.055625 c 0.96,0 1.056,-0.19275 1.44,-0.28875 l 0.5287499,2.109375 c 0.096,0.288 0.1920002,0.479625 0.48,0.575625 h 0.96 l 0.9112501,-0.01687 v -0.76875 c 0,-0.649344 -0.96,-0.67125 -0.96,-0.67125 V 9.1537988 H 9.3602201 L 10.03147,11.670049 c 0.384,1.344 1.24875,1.32375 1.24875,1.32375 h 0.48 0.96 v -0.76875 c 0,-0.683328 -0.96,-0.67125 -0.96,-0.67125 L 11.855845,7.6387935 8.8802201,5.3137938 H 4.5602199 v -1.92 c 0,-0.384 0.26544,-0.474912 0.48,-0.48 0.474336,-0.011328 0.72,0 0.72,0 0.397632,0 0.72,-0.322368 0.72,-0.72 0,-0.397632 -0.322368,-0.72 -0.72,-0.72 z m 6.7200001,2.4 c 0.132576,0 0.24,0.107424 0.24,0.24 0,0.132576 -0.107424,0.24 -0.24,0.24 -0.132576,0 -0.24,-0.107424 -0.24,-0.24 0,-0.132576 0.107424,-0.24 0.24,-0.24 z"
     id="path23810"
     style="fill:#725a50;fill-opacity:1;stroke:#ffffff;stroke-width:2.4;stroke-linecap:round;stroke-miterlimit:4;stroke-dasharray:none;stroke-opacity:1;paint-order:stroke fill markers" />
</svg>
