<?xml version="1.0" encoding="UTF-8" standalone="no"?>
<svg
   xmlns:dc="http://purl.org/dc/elements/1.1/"
   xmlns:cc="http://creativecommons.org/ns#"
   xmlns:rdf="http://www.w3.org/1999/02/22-rdf-syntax-ns#"
   xmlns:svg="http://www.w3.org/2000/svg"
   xmlns="http://www.w3.org/2000/svg"
   xmlns:sodipodi="http://sodipodi.sourceforge.net/DTD/sodipodi-0.dtd"
   xmlns:inkscape="http://www.inkscape.org/namespaces/inkscape"
   width="16.514162"
   height="18.700214"
   viewBox="0 0 16.514162 18.700214"
   id="drinking-water"
   version="1.1"
   sodipodi:docname="drinking-water.svg"
   inkscape:version="1.0.2 (e86c8708, 2021-01-15)">
  <metadata
     id="metadata70261">
    <rdf:RDF>
      <cc:Work
         rdf:about="">
        <dc:format>image/svg+xml</dc:format>
        <dc:type
           rdf:resource="http://purl.org/dc/dcmitype/StillImage" />
        <dc:title></dc:title>
      </cc:Work>
    </rdf:RDF>
  </metadata>
  <defs
     id="defs70259" />
  <sodipodi:namedview
     pagecolor="#ffffff"
     bordercolor="#666666"
     borderopacity="1"
     objecttolerance="10"
     gridtolerance="10"
     guidetolerance="10"
     inkscape:pageopacity="0"
     inkscape:pageshadow="2"
     inkscape:window-width="1146"
     inkscape:window-height="661"
     id="namedview70257"
     showgrid="false"
     inkscape:zoom="36.933333"
     inkscape:cx="6.2878857"
     inkscape:cy="7.7128257"
     inkscape:window-x="199"
     inkscape:window-y="25"
     inkscape:window-maximized="0"
     inkscape:current-layer="drinking-water" />
  <path
     d="m 6.0641612,1.65 a 2.2,2.2 0 0 0 -2.2,2.2 V 7.7 a 0.55,0.55 0 0 0 0.55,0.55 h 2.2 a 0.55,0.55 0 0 0 0.55,-0.55 V 5.5 a 0.55,0.55 0 0 1 0.55,-0.55 h 7.1499998 v -3.3 z m 1.1,15.4 h -3.3 a 0.55,0.55 0 0 1 -0.528,-0.418 l -1.672,-6.6 a 0.55,0.55 0 0 1 0.4015,-0.6666 0.6138,0.6138 0 0 1 0.1485,-0.0154 h 6.6 a 0.55,0.55 0 0 1 0.5654,0.5335 0.517,0.517 0 0 1 -0.0154,0.1485 l -1.65,6.6 a 0.55,0.55 0 0 1 -0.55,0.418 z m -3.685,-4.4 h 4.081 l 0.55,-2.2 h -5.192 z"
     id="path70254"
     style="fill:#725a50;fill-opacity:0.929412;stroke:#ffffff;stroke-width:3.3;stroke-linecap:round;stroke-miterlimit:4;stroke-dasharray:none;stroke-opacity:1;paint-order:stroke fill markers" />
</svg>
