<?xml version="1.0" encoding="UTF-8" standalone="no"?>
<svg
   xmlns:dc="http://purl.org/dc/elements/1.1/"
   xmlns:cc="http://creativecommons.org/ns#"
   xmlns:rdf="http://www.w3.org/1999/02/22-rdf-syntax-ns#"
   xmlns:svg="http://www.w3.org/2000/svg"
   xmlns="http://www.w3.org/2000/svg"
   xmlns:sodipodi="http://sodipodi.sourceforge.net/DTD/sodipodi-0.dtd"
   xmlns:inkscape="http://www.inkscape.org/namespaces/inkscape"
   id="emergency-phone"
   width="16.5"
   height="16.5"
   viewBox="0 0 16.5 16.5"
   version="1.1"
   sodipodi:docname="emergency-phone.svg"
   inkscape:version="1.0.2 (e86c8708, 2021-01-15)">
  <metadata
     id="metadata74341">
    <rdf:RDF>
      <cc:Work
         rdf:about="">
        <dc:format>image/svg+xml</dc:format>
        <dc:type
           rdf:resource="http://purl.org/dc/dcmitype/StillImage" />
        <dc:title></dc:title>
      </cc:Work>
    </rdf:RDF>
  </metadata>
  <defs
     id="defs74339" />
  <sodipodi:namedview
     pagecolor="#ffffff"
     bordercolor="#666666"
     borderopacity="1"
     objecttolerance="10"
     gridtolerance="10"
     guidetolerance="10"
     inkscape:pageopacity="0"
     inkscape:pageshadow="2"
     inkscape:window-width="1154"
     inkscape:window-height="751"
     id="namedview74337"
     showgrid="false"
     inkscape:zoom="36.933333"
     inkscape:cx="7.5180505"
     inkscape:cy="7.75"
     inkscape:window-x="227"
     inkscape:window-y="51"
     inkscape:window-maximized="0"
     inkscape:current-layer="emergency-phone" />
  <path
     d="m 9.2125,12.089 a 0.561,0.561 0 0 0 0.792,0 l 0.792,-0.792 2.398,2.376 -0.407,0.407 a 2.464,2.464 0 0 1 -1.584,0.77 H 9.614 A 2.464,2.464 0 0 1 8.019,14.08 L 2.442,8.503 A 2.464,2.464 0 0 1 1.65,6.908 V 5.313 A 2.464,2.464 0 0 1 2.442,3.718 L 2.838,3.322 5.236,5.709 4.433,6.512 a 0.561,0.561 0 0 0 0,0.792 z m 5.192,0.418 a 1.1,1.1 0 0 0 0.0396,-1.5554 v 0 L 14.4045,10.912 13.6125,10.12 a 1.1,1.1 0 0 0 -1.5554,-0.0396 v 0 L 12.0175,10.12 Z M 6.3965,4.532 A 1.1,1.1 0 0 0 6.4361,2.9766 v 0 L 5.6045,2.145 A 1.1,1.1 0 0 0 4.0491,2.1054 v 0 L 4.004,2.145 Z M 11.55,1.65 v 2.2 h -2.2 v 1.1 h 2.2 v 2.2 h 1.1 v -2.2 h 2.2 v -1.1 h -2.2 v -2.2 z"
     id="path74334"
     style="fill:#725a50;fill-opacity:1;stroke:#ffffff;stroke-width:3.3;stroke-linecap:round;stroke-miterlimit:4;stroke-dasharray:none;stroke-opacity:1;paint-order:stroke fill markers" />
</svg>
