<?xml version="1.0" encoding="UTF-8" standalone="no"?>
<svg
   xmlns:dc="http://purl.org/dc/elements/1.1/"
   xmlns:cc="http://creativecommons.org/ns#"
   xmlns:rdf="http://www.w3.org/1999/02/22-rdf-syntax-ns#"
   xmlns:svg="http://www.w3.org/2000/svg"
   xmlns="http://www.w3.org/2000/svg"
   xmlns:sodipodi="http://sodipodi.sourceforge.net/DTD/sodipodi-0.dtd"
   xmlns:inkscape="http://www.inkscape.org/namespaces/inkscape"
   viewBox="0 0 15.2 15.2"
   height="15.2"
   width="15.2"
   version="1.1"
   id="svg22624"
   sodipodi:docname="entrance.svg"
   inkscape:version="1.0.2 (e86c8708, 2021-01-15)">
  <metadata
     id="metadata22630">
    <rdf:RDF>
      <cc:Work
         rdf:about="">
        <dc:format>image/svg+xml</dc:format>
        <dc:type
           rdf:resource="http://purl.org/dc/dcmitype/StillImage" />
        <dc:title>entrance_15.svg</dc:title>
      </cc:Work>
    </rdf:RDF>
  </metadata>
  <defs
     id="defs22628" />
  <sodipodi:namedview
     pagecolor="#ffffff"
     bordercolor="#666666"
     borderopacity="1"
     objecttolerance="10"
     gridtolerance="10"
     guidetolerance="10"
     inkscape:pageopacity="0"
     inkscape:pageshadow="2"
     inkscape:window-width="1195"
     inkscape:window-height="775"
     id="namedview22626"
     showgrid="false"
     inkscape:pagecheckerboard="true"
     inkscape:zoom="29.157895"
     inkscape:cx="7.8453791"
     inkscape:cy="9.371986"
     inkscape:window-x="124"
     inkscape:window-y="25"
     inkscape:window-maximized="0"
     inkscape:current-layer="svg22624"
     inkscape:document-rotation="0" />
  <title
     id="title22614">entrance_15.svg</title>
  <rect
     fill="none"
     x="0"
     y="0"
     width="15.2"
     height="15.2"
     id="rect22616"
     style="stroke-width:0.8" />
  <rect
     x="0"
     y="0"
     width="15.2"
     height="15.2"
     rx="0"
     ry="0"
     fill="#4898ff"
     id="rect22618"
     style="stroke-width:0.8" />
  <path
     id="path23799"
     style="fill:#ffffff;fill-opacity:1;stroke-width:0.936"
     d="M 6.1965625,2.4517188 C 5.6796097,2.4517188 5.26,2.8713285 5.26,3.3882813 c 0,0.5169528 0.4196097,0.9351562 0.9365625,0.9351563 0.5169529,0 0.9351563,-0.4182035 0.9351563,-0.9351563 0,-0.5169528 -0.4182034,-0.9365625 -0.9351563,-0.9365625 z m 0,2.34 C 5.6796097,4.7917188 5.26,5.2113285 5.26,5.7282813 V 8.536562 L 7.1317188,6.6634376 V 5.7282813 c 0,-0.5169528 -0.4182034,-0.9365625 -0.9351563,-0.9365625 z M 10.33375,5.26 C 10.084962,5.258596 9.846622,5.3547808 9.67,5.53 L 4.5948438,10.605156 C 4.420467,10.778035 4.185044,10.875533 3.9395312,10.876562 H 2.4517188 c -0.5169528,0 -0.9351562,0.418204 -0.9351563,0.935156 0,0.516953 0.4182035,0.936564 0.9351563,0.936564 h 2.424375 C 5.1216065,12.747274 5.3556232,12.649754 5.53,12.476875 l 5.075156,-5.0737499 c 0.176622,-0.1752192 0.414962,-0.2728102 0.66375,-0.2714062 h 1.479376 c 0.516952,0 0.935156,-0.4182035 0.935156,-0.9351564 C 13.683438,5.6796097 13.265234,5.26 12.748282,5.26 Z" />
</svg>
