<?xml version="1.0" encoding="UTF-8" standalone="no"?>
<svg
   xmlns:dc="http://purl.org/dc/elements/1.1/"
   xmlns:cc="http://creativecommons.org/ns#"
   xmlns:rdf="http://www.w3.org/1999/02/22-rdf-syntax-ns#"
   xmlns:svg="http://www.w3.org/2000/svg"
   xmlns="http://www.w3.org/2000/svg"
   xmlns:sodipodi="http://sodipodi.sourceforge.net/DTD/sodipodi-0.dtd"
   xmlns:inkscape="http://www.inkscape.org/namespaces/inkscape"
   version="1.1"
   id="fast-food"
   width="17.6"
   height="15.4"
   viewBox="0 0 17.6 15.4"
   sodipodi:docname="fast-food.svg"
   inkscape:version="1.0.2 (e86c8708, 2021-01-15)">
  <metadata
     id="metadata81079">
    <rdf:RDF>
      <cc:Work
         rdf:about="">
        <dc:format>image/svg+xml</dc:format>
        <dc:type
           rdf:resource="http://purl.org/dc/dcmitype/StillImage" />
        <dc:title></dc:title>
      </cc:Work>
    </rdf:RDF>
  </metadata>
  <defs
     id="defs81077" />
  <sodipodi:namedview
     pagecolor="#ffffff"
     bordercolor="#666666"
     borderopacity="1"
     objecttolerance="10"
     gridtolerance="10"
     guidetolerance="10"
     inkscape:pageopacity="0"
     inkscape:pageshadow="2"
     inkscape:window-width="1314"
     inkscape:window-height="775"
     id="namedview81075"
     showgrid="false"
     inkscape:zoom="36.933333"
     inkscape:cx="7.5680505"
     inkscape:cy="7.7"
     inkscape:window-x="0"
     inkscape:window-y="25"
     inkscape:window-maximized="0"
     inkscape:current-layer="fast-food" />
  <path
     d="m 15.95,8.25 c 0,0.60753 -0.49247,1.1 -1.1,1.1 H 2.75 c -0.60753,0 -1.1,-0.49247 -1.1,-1.1 0,-0.60753 0.49247,-1.1 1.1,-1.1 h 12.1 c 0.60753,0 1.1,0.49247 1.1,1.1 z M 4.4,10.45 H 2.75 c 0,1.82259 1.47741,3.3 3.3,3.3 h 5.5 c 1.82259,0 3.3,-1.47741 3.3,-3.3 z M 3.85,6.05 h -1.1 v -2.2 c 0,-1.21506 0.98494,-2.2 2.2,-2.2 h 7.7 c 1.21506,0 2.2,0.98494 2.2,2.2 v 2.2 z m 8.8,-1.65 c 0,0.30371 0.24629,0.55 0.55,0.55 0.30371,0 0.55,-0.24629 0.55,-0.55 0,-0.30371 -0.24629,-0.55 -0.55,-0.55 -0.30371,0 -0.55,0.24629 -0.55,0.55 z m -2.2,-1.1 c 0,0.30371 0.24629,0.55 0.55,0.55 0.30371,0 0.55,-0.24629 0.55,-0.55 0,-0.30371 -0.24629,-0.55 -0.55,-0.55 -0.30371,0 -0.55,0.24629 -0.55,0.55 z M 8.25,4.4 C 8.25,4.70371 8.49629,4.95 8.8,4.95 9.10371,4.95 9.35,4.70371 9.35,4.4 9.35,4.09629 9.10371,3.85 8.8,3.85 8.49629,3.85 8.25,4.09629 8.25,4.4 Z M 6.05,3.3 C 6.05,3.60371 6.29629,3.85 6.6,3.85 6.90371,3.85 7.15,3.60371 7.15,3.3 7.15,2.99629 6.90371,2.75 6.6,2.75 6.29629,2.75 6.05,2.99629 6.05,3.3 Z M 3.85,4.4 C 3.85,4.70371 4.09629,4.95 4.4,4.95 4.70371,4.95 4.95,4.70371 4.95,4.4 4.95,4.09629 4.70371,3.85 4.4,3.85 4.09629,3.85 3.85,4.09629 3.85,4.4 Z"
     id="path81072"
     style="fill:#725a50;fill-opacity:1;stroke:#ffffff;stroke-width:3.3;stroke-linecap:round;stroke-miterlimit:4;stroke-dasharray:none;stroke-opacity:1;paint-order:stroke fill markers" />
</svg>
