<?xml version="1.0" encoding="UTF-8" standalone="no"?>
<svg
   xmlns:dc="http://purl.org/dc/elements/1.1/"
   xmlns:cc="http://creativecommons.org/ns#"
   xmlns:rdf="http://www.w3.org/1999/02/22-rdf-syntax-ns#"
   xmlns:svg="http://www.w3.org/2000/svg"
   xmlns="http://www.w3.org/2000/svg"
   xmlns:sodipodi="http://sodipodi.sourceforge.net/DTD/sodipodi-0.dtd"
   xmlns:inkscape="http://www.inkscape.org/namespaces/inkscape"
   version="1.1"
   id="fire-station"
   width="18.03208"
   height="20.713215"
   viewBox="0 0 18.03208 20.713215"
   sodipodi:docname="fire-station.svg"
   inkscape:version="1.0.2 (e86c8708, 2021-01-15)">
  <metadata
     id="metadata82284">
    <rdf:RDF>
      <cc:Work
         rdf:about="">
        <dc:format>image/svg+xml</dc:format>
        <dc:type
           rdf:resource="http://purl.org/dc/dcmitype/StillImage" />
        <dc:title></dc:title>
      </cc:Work>
    </rdf:RDF>
  </metadata>
  <defs
     id="defs82282" />
  <sodipodi:namedview
     pagecolor="#ffffff"
     bordercolor="#666666"
     borderopacity="1"
     objecttolerance="10"
     gridtolerance="10"
     guidetolerance="10"
     inkscape:pageopacity="0"
     inkscape:pageshadow="2"
     inkscape:window-width="1091"
     inkscape:window-height="711"
     id="namedview82280"
     showgrid="false"
     inkscape:zoom="36.933333"
     inkscape:cx="7.7840905"
     inkscape:cy="10.771704"
     inkscape:window-x="5"
     inkscape:window-y="25"
     inkscape:window-maximized="0"
     inkscape:current-layer="fire-station" />
  <path
     id="path10041-3-3"
     d="m 9.01604,3.1132137 -2.75,4.4 -1.65,-2.2 C 4.00576,6.3860437 1.65,8.9348537 1.65,11.697174 c 0,4.06824 3.29791,7.36604 7.36604,7.36604 4.06813,0 7.36604,-3.2978 7.36604,-7.36604 0,-2.7623203 -2.35576,-5.3111303 -2.96604,-6.3839603 l -1.65,2.2 z m 0,7.1500003 c 0,0 2.75,2.81798 2.75,4.95 0,0.92081 -0.90849,2.2 -2.75,2.2 -1.84151,0 -2.75,-1.27919 -2.75,-2.2 0,-2.05887 2.75,-4.95 2.75,-4.95 z"
     style="fill:#725a50;fill-opacity:1;stroke:#ffffff;stroke-width:3.3;stroke-linecap:round;stroke-miterlimit:4;stroke-dasharray:none;stroke-opacity:1;paint-order:stroke fill markers" />
</svg>
