<?xml version="1.0" encoding="UTF-8" standalone="no"?>
<svg
   xmlns:dc="http://purl.org/dc/elements/1.1/"
   xmlns:cc="http://creativecommons.org/ns#"
   xmlns:rdf="http://www.w3.org/1999/02/22-rdf-syntax-ns#"
   xmlns:svg="http://www.w3.org/2000/svg"
   xmlns="http://www.w3.org/2000/svg"
   xmlns:sodipodi="http://sodipodi.sourceforge.net/DTD/sodipodi-0.dtd"
   xmlns:inkscape="http://www.inkscape.org/namespaces/inkscape"
   id="florist"
   width="18.697353"
   height="18.9035"
   viewBox="0 0 18.697353 18.9035"
   version="1.1"
   sodipodi:docname="florist.svg"
   inkscape:version="1.0.2 (e86c8708, 2021-01-15)">
  <metadata
     id="metadata85186">
    <rdf:RDF>
      <cc:Work
         rdf:about="">
        <dc:format>image/svg+xml</dc:format>
        <dc:type
           rdf:resource="http://purl.org/dc/dcmitype/StillImage" />
        <dc:title></dc:title>
      </cc:Work>
    </rdf:RDF>
  </metadata>
  <defs
     id="defs85184" />
  <sodipodi:namedview
     pagecolor="#ffffff"
     bordercolor="#666666"
     borderopacity="1"
     objecttolerance="10"
     gridtolerance="10"
     guidetolerance="10"
     inkscape:pageopacity="0"
     inkscape:pageshadow="2"
     inkscape:window-width="1092"
     inkscape:window-height="665"
     id="namedview85182"
     showgrid="false"
     inkscape:zoom="36.933333"
     inkscape:cx="9.0798256"
     inkscape:cy="6.4443651"
     inkscape:window-x="46"
     inkscape:window-y="25"
     inkscape:window-maximized="0"
     inkscape:current-layer="florist" />
  <path
     d="m 3.0635,2.0910995 a 2.97,2.97 0 0 1 2.7499999,2.2000001 l 0.55,-3.30000007 0.55,3.30000007 a 2.97,2.97 0 0 1 2.75,-2.2000001 c -0.22,0.033 -1.1,0.286 -1.1,2.2000001 v 0.0913 a 2.1549,2.1549 0 0 1 -2.2,2.1087 h -0.0913 a 2.1549,2.1549 0 0 1 -2.1087,-2.2 c 0,-1.9129001 -0.88,-2.1670001 -1.0999999,-2.2000001 z M 14.6267,13.0911 l 3.3,-0.55 -3.3,-0.55 a 2.9546,2.9546 0 0 0 2.1868,-2.7500004 c -0.033,0.22 -0.2728,1.1000004 -2.1868,1.1000004 a 2.2,2.2 0 0 0 0,4.4 c 1.9129,0 2.1538,0.88 2.1868,1.1 a 2.9546,2.9546 0 0 0 -2.1868,-2.75 z M 12.0703,7.0938996 a 1.1,1.1 0 0 1 0,-2.2 1.1,1.1 0 0 1 0,-2.2000001 1.0846,1.0846 0 0 1 0.9372,0.5577001 l 0.0253,-0.0132 a 1.0758,1.0758 0 0 1 -0.1276,-0.4884001 1.1,1.1 0 1 1 2.2,0 1.0758,1.0758 0 0 1 -0.1276,0.4884001 l 0.0209,0.011 a 1.0846,1.0846 0 0 1 0.935,-0.5500001 1.1000859,1.1000859 0 0 1 0.0275,2.2000001 1.1000859,1.1000859 0 0 1 -0.0275,2.2 1.0846,1.0846 0 0 1 -0.935,-0.55 l -0.0176,0.0099 a 1.0758,1.0758 0 0 1 0.1243,0.484 1.1,1.1 0 0 1 -2.2,0 1.0758,1.0758 0 0 1 0.1243,-0.484 l -0.022,-0.0121 a 1.0846,1.0846 0 0 1 -0.9372,0.5577 z m 0.781,-2.1945 a 1.1561,1.1561 0 1 0 1.1561,-1.1583 1.1561,1.1561 0 0 0 -1.1539,1.1583 v 0 z M 6.8540999,13.5795 6.2864999,13.013 11.1947,8.1135996 a 1.9206,1.9206 0 0 1 -0.4972,-0.2805 L 5.8970999,12.6236 l -0.5709,-0.5698 a 17.6561,17.6561 0 0 0 1.4905,-4.4627004 3.7103,3.7103 0 0 1 -0.4532,0.0385 c -0.0451,0 -0.0803,-0.0088 -0.1232,-0.011 a 18.6483,18.6483 0 0 1 -1.3827,3.9666004 l -0.4081,-0.4081 a 0.2706,0.2706 0 0 0 -0.44,0.0869 L 1.6676,16.8806 a 0.3157,0.3157 0 0 0 -0.0176,0.0979 0.275,0.275 0 0 0 0.275,0.275 0.3179,0.3179 0 0 0 0.11,-0.0209 l 5.6099999,-2.3364 a 0.2706,0.2706 0 0 0 0.0869,-0.44 l -0.4092,-0.4092 A 18.5614,18.5614 0 0 1 11.2959,12.6654 c 0,-0.0649 -0.0165,-0.1166 -0.0165,-0.1826 a 3.6839,3.6839 0 0 1 0.0341,-0.3938 17.6836,17.6836 0 0 0 -4.4594001,1.4905 z"
     id="path85179"
     style="fill:#725a50;fill-opacity:1;stroke:#ffffff;stroke-width:3.3;stroke-linecap:round;stroke-miterlimit:4;stroke-dasharray:none;stroke-opacity:1;paint-order:stroke fill markers" />
</svg>
