<?xml version="1.0" encoding="UTF-8" standalone="no"?>
<svg
   xmlns:dc="http://purl.org/dc/elements/1.1/"
   xmlns:cc="http://creativecommons.org/ns#"
   xmlns:rdf="http://www.w3.org/1999/02/22-rdf-syntax-ns#"
   xmlns:svg="http://www.w3.org/2000/svg"
   xmlns="http://www.w3.org/2000/svg"
   xmlns:sodipodi="http://sodipodi.sourceforge.net/DTD/sodipodi-0.dtd"
   xmlns:inkscape="http://www.inkscape.org/namespaces/inkscape"
   viewBox="0 0 17.926613 18.15073"
   height="18.15073"
   width="17.926613"
   version="1.1"
   id="svg52549"
   sodipodi:docname="grocery.svg"
   inkscape:version="1.0.2 (e86c8708, 2021-01-15)">
  <metadata
     id="metadata52555">
    <rdf:RDF>
      <cc:Work
         rdf:about="">
        <dc:format>image/svg+xml</dc:format>
        <dc:type
           rdf:resource="http://purl.org/dc/dcmitype/StillImage" />
      </cc:Work>
    </rdf:RDF>
  </metadata>
  <defs
     id="defs52553" />
  <sodipodi:namedview
     pagecolor="#ffffff"
     bordercolor="#666666"
     borderopacity="1"
     objecttolerance="10"
     gridtolerance="10"
     guidetolerance="10"
     inkscape:pageopacity="0"
     inkscape:pageshadow="2"
     inkscape:window-width="1126"
     inkscape:window-height="713"
     id="namedview52551"
     showgrid="false"
     inkscape:zoom="26.428571"
     inkscape:cx="4.9978788"
     inkscape:cy="5.6290653"
     inkscape:window-x="0"
     inkscape:window-y="25"
     inkscape:window-maximized="0"
     inkscape:current-layer="svg52549" />
  <title
     id="title52539">grocery_15.svg</title>
  <rect
     fill="none"
     x="-1.3882322"
     y="-2.1743021"
     width="21"
     height="21"
     id="rect52541" />
  <path
     fill="#5d60be"
     d="m 15.395755,1.6507311 c 0,0 -1.529454,-0.04532 -2.139844,0.55 -0.58685,0.57222 -0.829297,1.00947 -0.829297,2.2 H 2.1957546 l 1.5339843,5.2958988 c 0.00385,0.008 0.010857,0.01571 0.015039,0.02364 0.25784,0.7230281 0.9318375,1.2437731 1.7359375,1.2740231 0.0033,0.0014 0.015039,0.0065 0.015039,0.0065 h 7.1500006 v 0.219141 c 0,0 8.59e-4,0.331289 -0.219141,0.771289 -0.22,0.439949 -0.32957,0.659519 -1.20957,0.659519 H 4.0670436 c -1.1,0 -1.1,1.65 0,1.65 h 1.3191406 0.1095699 5.3904299 0.109571 0.111718 c 1.32,0 2.308282,-0.77043 2.638282,-1.54043 0.33,-0.77 0.330859,-1.428711 0.330859,-1.428711 v -0.33087 -6.5999999 c 0,-0.57596 0.251481,-1.1 0.769141,-1.1 h 0.605859 c 0.45562,0 0.825,-0.36938 0.825,-0.825 0,-0.45562 -0.36938,-0.825 -0.825,-0.825 z m -4.4,12.6499999 c -0.66,0 -1.1000002,0.44 -1.1000002,1.1 0,0.66 0.4400002,1.1 1.1000002,1.1 0.66,0 1.1,-0.44 1.1,-1.1 0,-0.66 -0.44,-1.1 -1.1,-1.1 z m -5.5000004,0 c -0.66,0 -1.1,0.44 -1.1,1.1 0,0.66 0.4399999,1.1 1.1,1.1 0.66,0 1.1,-0.44 1.1,-1.1 0,-0.66 -0.4400001,-1.1 -1.1,-1.1 z"
     id="path52547"
     style="fill:#725a50;fill-opacity:1;stroke:#ffffff;stroke-width:3.3;stroke-linecap:round;stroke-miterlimit:4;stroke-dasharray:none;stroke-opacity:1;paint-order:stroke fill markers" />
</svg>
