<?xml version="1.0" encoding="UTF-8" standalone="no"?>
<svg
   xmlns:dc="http://purl.org/dc/elements/1.1/"
   xmlns:cc="http://creativecommons.org/ns#"
   xmlns:rdf="http://www.w3.org/1999/02/22-rdf-syntax-ns#"
   xmlns:svg="http://www.w3.org/2000/svg"
   xmlns="http://www.w3.org/2000/svg"
   xmlns:sodipodi="http://sodipodi.sourceforge.net/DTD/sodipodi-0.dtd"
   xmlns:inkscape="http://www.inkscape.org/namespaces/inkscape"
   viewBox="0 0 21.416719 15.1"
   height="15.1"
   width="21.416719"
   version="1.1"
   id="svg50765"
   sodipodi:docname="hairdresser.svg"
   inkscape:version="1.0.2 (e86c8708, 2021-01-15)">
  <metadata
     id="metadata50771">
    <rdf:RDF>
      <cc:Work
         rdf:about="">
        <dc:format>image/svg+xml</dc:format>
        <dc:type
           rdf:resource="http://purl.org/dc/dcmitype/StillImage" />
        <dc:title>hairdresser_15.svg</dc:title>
      </cc:Work>
    </rdf:RDF>
  </metadata>
  <defs
     id="defs50769" />
  <sodipodi:namedview
     pagecolor="#ffffff"
     bordercolor="#666666"
     borderopacity="1"
     objecttolerance="10"
     gridtolerance="10"
     guidetolerance="10"
     inkscape:pageopacity="0"
     inkscape:pageshadow="2"
     inkscape:window-width="1081"
     inkscape:window-height="699"
     id="namedview50767"
     showgrid="false"
     inkscape:pagecheckerboard="true"
     inkscape:zoom="26.428571"
     inkscape:cx="16.201351"
     inkscape:cy="6.0743243"
     inkscape:window-x="103"
     inkscape:window-y="25"
     inkscape:window-maximized="0"
     inkscape:current-layer="svg50765" />
  <title
     id="title50755">hairdresser_15.svg</title>
  <rect
     fill="none"
     x="-0.75"
     y="-2.95"
     width="21"
     height="21"
     id="rect50757" />
  <path
     fill="#5d60be"
     d="m 18,2.6 c 0,0 -2.2,-0.66 -3.85,0.55 L 9.42,6.45 C 8.54,5.79 7.22,5.02 5.9,4.58 V 3.7 C 5.9,2.49 4.91,1.5 3.7,1.5 2.49,1.5 1.5,2.49 1.5,3.7 V 5.35 C 1.5,5.9 2.05,5.9 2.05,5.9 H 3.7 4.25 c 2.2,0 3.85,1.65 3.85,1.65 0,0 -1.65,1.65 -3.85,1.65 H 3.7 2.05 c 0,0 -0.55,0 -0.55,0.55 v 1.65 c 0,1.21 0.99,2.2 2.2,2.2 1.21,0 2.2,-0.99 2.2,-2.2 V 10.52 C 7.22,10.08 8.54,9.31 9.42,8.65 l 4.73,3.3 C 15.8,13.16 18,12.5 18,12.5 L 10.85,7.55 Z M 4.8,4.8 H 3.7 2.6 V 3.7 c 0,-0.66 0.44,-1.1 1.1,-1.1 0.66,0 1.1,0.44 1.1,1.1 z m 0,6.6 c 0,0.66 -0.44,1.1 -1.1,1.1 -0.66,0 -1.1,-0.44 -1.1,-1.1 V 10.3 H 3.7 4.8 Z M 9.475,8.1 C 9.17129,8.1 8.925,7.85371 8.925,7.55 8.925,7.24629 9.17129,7 9.475,7 c 0.30371,0 0.55,0.24629 0.55,0.55 0,0.30371 -0.24629,0.55 -0.55,0.55 z"
     id="path50763"
     style="fill:#725a50;fill-opacity:1;stroke:#ffffff;stroke-width:3;stroke-linecap:round;stroke-miterlimit:4;stroke-dasharray:none;stroke-opacity:1;paint-order:stroke fill markers" />
</svg>
