<?xml version="1.0" encoding="UTF-8" standalone="no"?>
<svg
   xmlns:dc="http://purl.org/dc/elements/1.1/"
   xmlns:cc="http://creativecommons.org/ns#"
   xmlns:rdf="http://www.w3.org/1999/02/22-rdf-syntax-ns#"
   xmlns:svg="http://www.w3.org/2000/svg"
   xmlns="http://www.w3.org/2000/svg"
   xmlns:sodipodi="http://sodipodi.sourceforge.net/DTD/sodipodi-0.dtd"
   xmlns:inkscape="http://www.inkscape.org/namespaces/inkscape"
   version="1.1"
   id="historic"
   width="17.6"
   height="17.6"
   viewBox="0 0 17.6 17.6"
   sodipodi:docname="historic.svg"
   inkscape:version="1.0.2 (e86c8708, 2021-01-15)">
  <metadata
     id="metadata77274">
    <rdf:RDF>
      <cc:Work
         rdf:about="">
        <dc:format>image/svg+xml</dc:format>
        <dc:type
           rdf:resource="http://purl.org/dc/dcmitype/StillImage" />
        <dc:title></dc:title>
      </cc:Work>
    </rdf:RDF>
  </metadata>
  <defs
     id="defs77272" />
  <sodipodi:namedview
     pagecolor="#ffffff"
     bordercolor="#666666"
     borderopacity="1"
     objecttolerance="10"
     gridtolerance="10"
     guidetolerance="10"
     inkscape:pageopacity="0"
     inkscape:pageshadow="2"
     inkscape:window-width="978"
     inkscape:window-height="756"
     id="namedview77270"
     showgrid="false"
     inkscape:zoom="36.933333"
     inkscape:cx="7.5680505"
     inkscape:cy="8.8"
     inkscape:window-x="0"
     inkscape:window-y="25"
     inkscape:window-maximized="0"
     inkscape:current-layer="historic" />
  <path
     d="m 8.8,1.65 c -1.1,0 -1.1,1.1 -2.2,1.1 H 2.75 c -0.599137,0 -1.1,0.500863 -1.1,1.1 v 7.7 c 0,0.59917 0.500863,1.1 1.1,1.1 h 5.5 v 2.75 c 0,0 0,0.55 0.55,0.55 0.55,0 0.55,-0.55 0.55,-0.55 v -2.75 h 5.5 c 0.59917,0 1.1,-0.50083 1.1,-1.1 v -7.7 c 0,-0.599137 -0.50083,-1.1 -1.1,-1.1 H 11 c -1.1,0 -1.1,-1.1 -2.2,-1.1 z m -4.95,4.4 v -1.1 h 9.9 v 1.1 z m 0,1.1 h 4.4 v 1.1 h -4.4 z m 0,2.2 h 7.7 v 1.1 h -7.7 z"
     id="path77267"
     style="fill:#725a4b;fill-opacity:1;stroke:#ffffff;stroke-width:3.3;stroke-linecap:round;stroke-miterlimit:4;stroke-dasharray:none;stroke-opacity:1;paint-order:stroke fill markers" />
</svg>
