<?xml version="1.0" encoding="UTF-8" standalone="no"?>
<svg
   xmlns:dc="http://purl.org/dc/elements/1.1/"
   xmlns:cc="http://creativecommons.org/ns#"
   xmlns:rdf="http://www.w3.org/1999/02/22-rdf-syntax-ns#"
   xmlns:svg="http://www.w3.org/2000/svg"
   xmlns="http://www.w3.org/2000/svg"
   xmlns:sodipodi="http://sodipodi.sourceforge.net/DTD/sodipodi-0.dtd"
   xmlns:inkscape="http://www.inkscape.org/namespaces/inkscape"
   id="horse-riding"
   width="19.788992"
   height="19.790352"
   viewBox="0 0 19.788992 19.790352"
   version="1.1"
   sodipodi:docname="horse-riding.svg"
   inkscape:version="1.0.2 (e86c8708, 2021-01-15)">
  <metadata
     id="metadata76686">
    <rdf:RDF>
      <cc:Work
         rdf:about="">
        <dc:format>image/svg+xml</dc:format>
        <dc:type
           rdf:resource="http://purl.org/dc/dcmitype/StillImage" />
        <dc:title></dc:title>
      </cc:Work>
    </rdf:RDF>
  </metadata>
  <defs
     id="defs76684" />
  <sodipodi:namedview
     pagecolor="#ffffff"
     bordercolor="#666666"
     borderopacity="1"
     objecttolerance="10"
     gridtolerance="10"
     guidetolerance="10"
     inkscape:pageopacity="0"
     inkscape:pageshadow="2"
     inkscape:window-width="1127"
     inkscape:window-height="761"
     id="namedview76682"
     showgrid="false"
     inkscape:zoom="36.933333"
     inkscape:cx="8.6675502"
     inkscape:cy="9.8907661"
     inkscape:window-x="0"
     inkscape:window-y="25"
     inkscape:window-maximized="0"
     inkscape:current-layer="horse-riding" />
  <path
     d="m 8.25,2.7403251 a 1.1,1.1 0 1 1 1.1,1.1 1.1,1.1 0 0 1 -1.1,-1.1 z m 2.2,2.75 a 0.5324,0.5324 0 0 0 0,-0.0638 0.5192,0.5192 0 0 0 -0.55,-0.4862 H 8.8 a 0.5324,0.5324 0 0 0 -0.0638,0 0.5192,0.5192 0 0 0 -0.4862,0.55 v 3.85 h 2.2 z m 7.535,4.0084 -2.255,-2.5784 0.0935,-0.5599 a 0.5258,0.5258 0 0 0 0.0088,-0.0693 0.275,0.275 0 0 0 -0.275,-0.275 0.3806,0.3806 0 0 0 -0.1738,0.0616 l -3.8335,3.2626 h -1.1 l 1.1,1.0999999 v 1.65 a 0.55,0.55 0 0 1 -1.1,0 v -1.1 L 8.25,9.3403251 H 6.05 A 1.65,1.65 0 0 0 4.6827,10.067425 1.6126,1.6126 0 0 0 3.3693,9.3403251 H 3.3 A 1.5939,1.5939 0 0 0 1.65,10.880325 v 0.0946 a 4.1591,4.1591 0 0 0 0.6149,2.1054 0.3058,0.3058 0 0 0 0.2101,0.11 0.275,0.275 0 0 0 0.275,-0.275 v -1.375 c 0,0 -0.022,-1.0164 0.8283,-1.1 0.55,-0.0528 0.8217,0.2783 0.8217,0.55 v 2.75 l -0.55,2.2 v 1.925 a 0.275,0.275 0 0 0 0.275,0.275 0.2794,0.2794 0 0 0 0.275,-0.2574 v -1.9426 l 1.65,-2.2 v 1.1 l 0.55,3.08 a 0.2805,0.2805 0 0 0 0.2706,0.22 0.275,0.275 0 0 0 0.2794,-0.2706 v 0 l -0.1595,-2.6994 0.7095,-1.43 h 2.75 v 1.1 l 0.5588,3.0943 a 0.2827,0.2827 0 0 0 0.2662,0.2057 0.275,0.275 0 0 0 0.275,-0.275 v -3.025 l 0.4037,-1.1 a 1.2705,1.2705 0 0 0 0.5973,-0.66 l 2.3771,-4.1436999 a 0.9493,0.9493 0 0 0 1.1253,0.44 l 1.1726,0.8997999 a 0.6501,0.6501 0 0 0 0.385,0.1485 0.5357,0.5357 0 0 0 0.5225,-0.4399999 0.6072,0.6072 0 0 0 -0.1485,-0.4862 z"
     id="path76679"
     style="fill:#725a50;fill-opacity:1;stroke:#ffffff;stroke-width:3.3;stroke-linecap:round;stroke-miterlimit:4;stroke-dasharray:none;stroke-opacity:1;paint-order:stroke fill markers" />
</svg>
