<?xml version="1.0" encoding="UTF-8" standalone="no"?>
<svg
   xmlns:dc="http://purl.org/dc/elements/1.1/"
   xmlns:cc="http://creativecommons.org/ns#"
   xmlns:rdf="http://www.w3.org/1999/02/22-rdf-syntax-ns#"
   xmlns:svg="http://www.w3.org/2000/svg"
   xmlns="http://www.w3.org/2000/svg"
   xmlns:sodipodi="http://sodipodi.sourceforge.net/DTD/sodipodi-0.dtd"
   xmlns:inkscape="http://www.inkscape.org/namespaces/inkscape"
   viewBox="0 0 15.6552 15.6552"
   height="15.6552"
   width="15.6552"
   version="1.1"
   id="svg5767"
   sodipodi:docname="hospital.svg"
   inkscape:version="1.0.2 (e86c8708, 2021-01-15)">
  <metadata
     id="metadata5773">
    <rdf:RDF>
      <cc:Work
         rdf:about="">
        <dc:format>image/svg+xml</dc:format>
        <dc:type
           rdf:resource="http://purl.org/dc/dcmitype/StillImage" />
        <dc:title>hospital_15.svg</dc:title>
      </cc:Work>
    </rdf:RDF>
  </metadata>
  <defs
     id="defs5771" />
  <sodipodi:namedview
     pagecolor="#ffffff"
     bordercolor="#666666"
     borderopacity="1"
     objecttolerance="10"
     gridtolerance="10"
     guidetolerance="10"
     inkscape:pageopacity="0"
     inkscape:pageshadow="2"
     inkscape:window-width="1348"
     inkscape:window-height="766"
     id="namedview5769"
     showgrid="false"
     inkscape:pagecheckerboard="true"
     inkscape:zoom="26.142857"
     inkscape:cx="3.1035558"
     inkscape:cy="8.210114"
     inkscape:window-x="0"
     inkscape:window-y="25"
     inkscape:window-maximized="0"
     inkscape:current-layer="svg5767"
     inkscape:document-rotation="0" />
  <title
     id="title5757">hospital_15.svg</title>
  <rect
     fill="none"
     x="-2.6724"
     y="-2.6724"
     width="21"
     height="21"
     id="rect5759" />
  <path
     fill="#ba3827"
     d="M 7.3524,1.65 C 6.78216,1.65 6.402,2.03016 6.402,2.6004 V 6.402 H 2.6004 C 2.03016,6.402 1.65,6.78216 1.65,7.3524 v 0.9504 c 0,0.57024 0.38016,0.9504 0.9504,0.9504 H 6.402 v 3.8016 c 0,0.57024 0.38016,0.9504 0.9504,0.9504 h 0.9504 c 0.57024,0 0.9504,-0.38016 0.9504,-0.9504 V 9.2532 h 3.8016 c 0.57024,0 0.9504,-0.38016 0.9504,-0.9504 V 7.3524 c 0,-0.57024 -0.38016,-0.9504 -0.9504,-0.9504 H 9.2532 V 2.6004 C 9.2532,2.03016 8.87304,1.65 8.3028,1.65 Z"
     id="path5765"
     style="stroke:#ffffff;stroke-width:3.3;stroke-miterlimit:4;stroke-dasharray:none;stroke-opacity:1;paint-order:stroke fill markers" />
</svg>
