<?xml version="1.0" encoding="UTF-8" standalone="no"?>
<svg
   xmlns:dc="http://purl.org/dc/elements/1.1/"
   xmlns:cc="http://creativecommons.org/ns#"
   xmlns:rdf="http://www.w3.org/1999/02/22-rdf-syntax-ns#"
   xmlns:svg="http://www.w3.org/2000/svg"
   xmlns="http://www.w3.org/2000/svg"
   xmlns:sodipodi="http://sodipodi.sourceforge.net/DTD/sodipodi-0.dtd"
   xmlns:inkscape="http://www.inkscape.org/namespaces/inkscape"
   id="hot-spring"
   width="17.540339"
   height="20.415552"
   viewBox="0 0 17.540339 20.415552"
   version="1.1"
   sodipodi:docname="hot-spring.svg"
   inkscape:version="1.0.2 (e86c8708, 2021-01-15)">
  <metadata
     id="metadata77862">
    <rdf:RDF>
      <cc:Work
         rdf:about="">
        <dc:format>image/svg+xml</dc:format>
        <dc:type
           rdf:resource="http://purl.org/dc/dcmitype/StillImage" />
        <dc:title></dc:title>
      </cc:Work>
    </rdf:RDF>
  </metadata>
  <defs
     id="defs77860" />
  <sodipodi:namedview
     pagecolor="#ffffff"
     bordercolor="#666666"
     borderopacity="1"
     objecttolerance="10"
     gridtolerance="10"
     guidetolerance="10"
     inkscape:pageopacity="0"
     inkscape:pageshadow="2"
     inkscape:window-width="1135"
     inkscape:window-height="759"
     id="namedview77858"
     showgrid="false"
     inkscape:zoom="36.933333"
     inkscape:cx="9.0003135"
     inkscape:cy="12.787665"
     inkscape:window-x="0"
     inkscape:window-y="25"
     inkscape:window-maximized="0"
     inkscape:current-layer="hot-spring" />
  <path
     d="m 15.409769,16.574851 v 0 a 1.7424,1.7424 0 0 0 -1.2155,0.4576 l -0.4807,0.4477 a 0.7282,0.7282 0 0 1 -1.0208,0 c -0.1529,-0.1309 -0.2959,-0.2838 -0.4499,-0.4257 a 1.8469,1.8469 0 0 0 -2.5024999,0 c -0.1628,0.1419 -0.3168,0.3058 -0.4796,0.4477 a 0.7293,0.7293 0 0 1 -1.0219,0 c -0.1628,-0.1419 -0.3168,-0.3058 -0.4796,-0.4477 a 1.848,1.848 0 0 0 -2.4926,0 c -0.1529,0.1419 -0.2959,0.2948 -0.4488,0.4257 a 0.946,0.946 0 0 1 -0.3069,0.1749 0.8228,0.8228 0 0 1 -0.8173,-0.2728 6.49,6.49 0 0 0 -0.8063,-0.6336 1.1979,1.1979 0 0 0 -0.6952,-0.1738 h -0.0616 a 0.55,0.55 0 0 0 0,1.0912 v 0 a 0.9317,0.9317 0 0 1 0.66,0.3377 l 0.3674,0.2838 a 1.8436,1.8436 0 0 0 2.3804,0.066 c 0.1936,-0.1529 0.3674,-0.3487 0.561,-0.5126 a 0.7293,0.7293 0 0 1 1.0219,0 l 0.3982,0.3817 a 1.8557,1.8557 0 0 0 2.5123999,0.077 c 0.154,-0.121 0.2761,-0.2728 0.429,-0.4037 a 0.7513,0.7513 0 0 1 1.0593,-0.0649 c 0.0187,0.0165 0.4642,0.4466 0.4642,0.4466 a 1.8337,1.8337 0 0 0 1.7974,0.4037 2.1571,2.1571 0 0 0 1.0208,-0.66 1.0153,1.0153 0 0 1 0.6072,-0.3553 v 0 a 0.55,0.55 0 0 0 0,-1.0912 z M 8.7305691,5.6177511 a 3.1581,3.1581 0 0 0 -0.6534,4.9895999 1.9635,1.9635 0 0 1 0.6182,1.8634 c -0.3443,0.9823 -1.199,1.8953 -0.7238,2.9953 0.3146,-1.0681 1.5037,-1.4201 2.0470999,-2.3364 1.089,-1.7215 -0.1704999,-3.2999999 -1.1329999,-4.6694999 -0.5071,-1.4388 1.3408999,-2.5421 0.682,-3.9941001 a 2.42,2.42 0 0 1 -0.8371,1.1517001 z m 3.2405999,1.65 a 2.4882,2.4882 0 0 0 0.5775,3.4165999 1.1649,1.1649 0 0 1 0.572,1.1737 c -0.3509,0.8151 -1.1968,1.5488 -0.7546,2.508 0.4114,-0.957 1.1176,-0.7084 1.9987,-1.7006 a 2.4871,2.4871 0 0 0 -0.5709,-3.4198999 1.1649,1.1649 0 0 1 -0.5797,-1.1737 c 0.3498,-0.8151 1.1968,-1.5466 0.7557,-2.5058 -0.4092,0.957 -1.1176,0.7095 -1.9987,1.7017 z m -8.7999999,0 a 2.4882,2.4882 0 0 0 0.5775,3.4165999 1.1649,1.1649 0 0 1 0.572,1.1737 c -0.3509,0.8151 -1.1968,1.5488 -0.7546,2.508 0.4114,-0.957 1.1176,-0.7084 1.9987,-1.7006 a 2.4871,2.4871 0 0 0 -0.5709,-3.4198999 1.1649,1.1649 0 0 1 -0.5797,-1.1737 c 0.3498,-0.8151 1.1968,-1.5466 0.7557,-2.5058 -0.4092,0.957 -1.1176,0.7095 -1.9987,1.7017 z"
     id="path77855"
     style="fill:#725a4b;fill-opacity:1;stroke:#ffffff;stroke-width:3.3;stroke-linecap:round;stroke-miterlimit:4;stroke-dasharray:none;stroke-opacity:1;paint-order:stroke fill markers" />
</svg>
