<?xml version="1.0" encoding="UTF-8" standalone="no"?>
<svg
   xmlns:dc="http://purl.org/dc/elements/1.1/"
   xmlns:cc="http://creativecommons.org/ns#"
   xmlns:rdf="http://www.w3.org/1999/02/22-rdf-syntax-ns#"
   xmlns:svg="http://www.w3.org/2000/svg"
   xmlns="http://www.w3.org/2000/svg"
   xmlns:sodipodi="http://sodipodi.sourceforge.net/DTD/sodipodi-0.dtd"
   xmlns:inkscape="http://www.inkscape.org/namespaces/inkscape"
   version="1.1"
   id="information"
   width="11"
   height="16.5"
   viewBox="0 0 11 16.5"
   sodipodi:docname="information.svg"
   inkscape:version="1.0.2 (e86c8708, 2021-01-15)">
  <metadata
     id="metadata78449">
    <rdf:RDF>
      <cc:Work
         rdf:about="">
        <dc:format>image/svg+xml</dc:format>
        <dc:type
           rdf:resource="http://purl.org/dc/dcmitype/StillImage" />
        <dc:title></dc:title>
      </cc:Work>
    </rdf:RDF>
  </metadata>
  <defs
     id="defs78447" />
  <sodipodi:namedview
     pagecolor="#ffffff"
     bordercolor="#666666"
     borderopacity="1"
     objecttolerance="10"
     gridtolerance="10"
     guidetolerance="10"
     inkscape:pageopacity="0"
     inkscape:pageshadow="2"
     inkscape:window-width="1149"
     inkscape:window-height="748"
     id="namedview78445"
     showgrid="false"
     inkscape:zoom="36.933333"
     inkscape:cx="4.2680505"
     inkscape:cy="8.75"
     inkscape:window-x="0"
     inkscape:window-y="25"
     inkscape:window-maximized="0"
     inkscape:current-layer="information" />
  <path
     id="rect8399"
     d="M 5.5,1.65 C 4.62,1.65 3.85,2.42 3.85,3.3 3.85,4.18 4.62,4.95 5.5,4.95 6.38,4.95 7.15,4.18 7.15,3.3 7.15,2.42 6.38,1.65 5.5,1.65 Z m -3.85,4.4 v 1.1 c 0,0 2.2,0 2.2,2.2 v 2.2 c 0,2.2 -2.2,2.2 -2.2,2.2 v 1.1 h 7.7 v -1.1 c 0,0 -2.2,0 -2.2,-2.2 V 7.15 C 7.15,6.6 6.6,6.05 6.05,6.05 Z"
     style="fill:#725a4b;fill-opacity:1;stroke:#ffffff;stroke-width:3.3;stroke-linecap:round;stroke-miterlimit:4;stroke-dasharray:none;stroke-opacity:1;paint-order:stroke fill markers" />
</svg>
