<?xml version="1.0" encoding="UTF-8" standalone="no"?>
<svg
   xmlns:dc="http://purl.org/dc/elements/1.1/"
   xmlns:cc="http://creativecommons.org/ns#"
   xmlns:rdf="http://www.w3.org/1999/02/22-rdf-syntax-ns#"
   xmlns:svg="http://www.w3.org/2000/svg"
   xmlns="http://www.w3.org/2000/svg"
   xmlns:sodipodi="http://sodipodi.sourceforge.net/DTD/sodipodi-0.dtd"
   xmlns:inkscape="http://www.inkscape.org/namespaces/inkscape"
   version="1.1"
   id="jewelry-store"
   width="13.2"
   height="16.5"
   viewBox="0 0 13.2 16.5"
   sodipodi:docname="jewelry.svg"
   inkscape:version="1.0.2 (e86c8708, 2021-01-15)">
  <metadata
     id="metadata88670">
    <rdf:RDF>
      <cc:Work
         rdf:about="">
        <dc:format>image/svg+xml</dc:format>
        <dc:type
           rdf:resource="http://purl.org/dc/dcmitype/StillImage" />
        <dc:title></dc:title>
      </cc:Work>
    </rdf:RDF>
  </metadata>
  <defs
     id="defs88668" />
  <sodipodi:namedview
     pagecolor="#ffffff"
     bordercolor="#666666"
     borderopacity="1"
     objecttolerance="10"
     gridtolerance="10"
     guidetolerance="10"
     inkscape:pageopacity="0"
     inkscape:pageshadow="2"
     inkscape:window-width="1316"
     inkscape:window-height="772"
     id="namedview88666"
     showgrid="false"
     inkscape:pagecheckerboard="true"
     inkscape:zoom="40.153846"
     inkscape:cx="5.4668582"
     inkscape:cy="3.5680076"
     inkscape:window-x="0"
     inkscape:window-y="25"
     inkscape:window-maximized="0"
     inkscape:current-layer="jewelry-store" />
  <path
     d="m 11.55,9.9 c 0,2.73383 -2.21617,4.95 -4.95,4.95 -2.73383,0 -4.95,-2.21617 -4.95,-4.95 0,-2.03313 1.22804,-3.77619 2.98089,-4.53805 L 4.8246,5.51265 5.67589,6.17474 C 4.00026,6.59142 2.75,8.09721 2.75,9.9 c 0,2.12289 1.72711,3.85 3.85,3.85 2.12289,0 3.85,-1.72711 3.85,-3.85 0,-1.80279 -1.25026,-3.30858 -2.92589,-3.72526 l 1.045,-0.81268 C 10.32196,6.12392 11.55,7.86687 11.55,9.9 Z M 6.6,5.5 9.35,3.36105 8.25,1.65 H 4.95 L 3.85,3.36105 5.5,4.64442 Z"
     id="path88663"
     style="fill:#725a50;fill-opacity:1;stroke:#ffffff;stroke-width:3.3;stroke-linecap:round;stroke-miterlimit:4;stroke-dasharray:none;stroke-opacity:1;paint-order:stroke fill markers" />
</svg>
