<?xml version="1.0" encoding="UTF-8" standalone="no"?>
<svg
   xmlns:dc="http://purl.org/dc/elements/1.1/"
   xmlns:cc="http://creativecommons.org/ns#"
   xmlns:rdf="http://www.w3.org/1999/02/22-rdf-syntax-ns#"
   xmlns:svg="http://www.w3.org/2000/svg"
   xmlns="http://www.w3.org/2000/svg"
   xmlns:sodipodi="http://sodipodi.sourceforge.net/DTD/sodipodi-0.dtd"
   xmlns:inkscape="http://www.inkscape.org/namespaces/inkscape"
   version="1.1"
   id="landmark"
   width="17.729202"
   height="16.5"
   viewBox="0 0 17.729202 16.5"
   sodipodi:docname="landmark.svg"
   inkscape:version="1.0.2 (e86c8708, 2021-01-15)">
  <metadata
     id="metadata89276">
    <rdf:RDF>
      <cc:Work
         rdf:about="">
        <dc:format>image/svg+xml</dc:format>
        <dc:type
           rdf:resource="http://purl.org/dc/dcmitype/StillImage" />
        <dc:title></dc:title>
      </cc:Work>
    </rdf:RDF>
  </metadata>
  <defs
     id="defs89274" />
  <sodipodi:namedview
     pagecolor="#ffffff"
     bordercolor="#666666"
     borderopacity="1"
     objecttolerance="10"
     gridtolerance="10"
     guidetolerance="10"
     inkscape:pageopacity="0"
     inkscape:pageshadow="2"
     inkscape:window-width="1172"
     inkscape:window-height="717"
     id="namedview89272"
     showgrid="false"
     inkscape:zoom="36.733333"
     inkscape:cx="7.6259438"
     inkscape:cy="8.75"
     inkscape:window-x="169"
     inkscape:window-y="47"
     inkscape:window-maximized="0"
     inkscape:current-layer="landmark" />
  <path
     d="m 14.364601,13.75 h -0.55 V 13.2 c 0,-0.33 -0.22,-0.55 -0.55,-0.55 h -0.55 v -5.5 h 1.1 l 1.1,-2.2 c -1.1,0.11 -2.2,0.11 -3.3,0 -0.88,-0.66 -1.54,-1.32 -2.2000002,-2.2 V 2.2 c 0,-0.33 -0.22,-0.55 -0.55,-0.55 -0.33,0 -0.55,0.22 -0.55,0.55 v 0.55 c -0.66,0.88 -1.32,1.54 -2.2,2.2 -1.1,0.11 -2.2,0.11 -3.3,0 l 1.1,2.2 h 1.1 v 5.5 c 0,0 -0.55,0 -0.55,0 -0.33,0 -0.55,0.22 -0.55,0.55 v 0.55 h -0.55 c -0.33,0 -0.55,0.22 -0.55,0.55 v 0.55 H 14.914601 V 14.3 c 0,-0.33 -0.22,-0.55 -0.55,-0.55 z m -6.0500002,-1.1 h -2.2 v -5.5 h 2.2 z m 3.3000002,0 H 9.4146008 v -5.5 h 2.2000002 z"
     id="path89269"
     style="fill:#725a50;fill-opacity:1;stroke:#ffffff;stroke-width:3.3;stroke-linecap:round;stroke-miterlimit:4;stroke-dasharray:none;stroke-opacity:1;paint-order:stroke fill markers" />
</svg>
