<?xml version="1.0" encoding="UTF-8" standalone="no"?>
<svg
   xmlns:dc="http://purl.org/dc/elements/1.1/"
   xmlns:cc="http://creativecommons.org/ns#"
   xmlns:rdf="http://www.w3.org/1999/02/22-rdf-syntax-ns#"
   xmlns:svg="http://www.w3.org/2000/svg"
   xmlns="http://www.w3.org/2000/svg"
   xmlns:sodipodi="http://sodipodi.sourceforge.net/DTD/sodipodi-0.dtd"
   xmlns:inkscape="http://www.inkscape.org/namespaces/inkscape"
   version="1.1"
   id="laundry"
   width="15.4"
   height="17.600639"
   viewBox="0 0 15.4 17.600639"
   sodipodi:docname="laundry.svg"
   inkscape:version="1.0.2 (e86c8708, 2021-01-15)">
  <metadata
     id="metadata102560">
    <rdf:RDF>
      <cc:Work
         rdf:about="">
        <dc:format>image/svg+xml</dc:format>
        <dc:type
           rdf:resource="http://purl.org/dc/dcmitype/StillImage" />
        <dc:title></dc:title>
      </cc:Work>
    </rdf:RDF>
  </metadata>
  <defs
     id="defs102558" />
  <sodipodi:namedview
     pagecolor="#ffffff"
     bordercolor="#666666"
     borderopacity="1"
     objecttolerance="10"
     gridtolerance="10"
     guidetolerance="10"
     inkscape:pageopacity="0"
     inkscape:pageshadow="2"
     inkscape:window-width="1099"
     inkscape:window-height="754"
     id="namedview102556"
     showgrid="false"
     inkscape:zoom="36.733333"
     inkscape:cx="6.461343"
     inkscape:cy="8.8003198"
     inkscape:window-x="0"
     inkscape:window-y="25"
     inkscape:window-maximized="0"
     inkscape:current-layer="laundry" />
  <path
     id="path3291-2"
     d="m 8.25,1.6503198 -2.2,2.2 h -3.3 c 0,0 -1.1,0 -1.1,1.1 V 14.85032 c 0,1.1 1.1,1.1 1.1,1.1 h 9.9 c 0,0 1.1,0 1.1,-1.1 V 2.7503198 c 0,-1.1 -1.1,-1.1 -1.1,-1.1 0,0 -4.4,0 -4.4,0 z m 0.55,1.1 H 11 c 0.3047,0 0.55,0.2453 0.55,0.5500001 0,0.3046999 -0.2453,0.5499999 -0.55,0.5499999 H 8.8 c -0.3047,0 -0.55,-0.2453 -0.55,-0.5499999 0,-0.3047001 0.2453,-0.5500001 0.55,-0.5500001 z M 7.7,7.1503197 c 1.82259,0 3.3,1.4774101 3.3,3.3000003 0,1.82259 -1.47741,3.3 -3.3,3.3 -1.82259,0 -3.3,-1.47741 -3.3,-3.3 0,-1.8225902 1.47741,-3.3000003 3.3,-3.3000003 z"
     style="fill:#725a50;fill-opacity:1;stroke:#ffffff;stroke-width:3.3;stroke-linecap:round;stroke-miterlimit:4;stroke-dasharray:none;stroke-opacity:1;paint-order:stroke fill markers" />
</svg>
