<?xml version="1.0" encoding="UTF-8" standalone="no"?>
<svg
   xmlns:dc="http://purl.org/dc/elements/1.1/"
   xmlns:cc="http://creativecommons.org/ns#"
   xmlns:rdf="http://www.w3.org/1999/02/22-rdf-syntax-ns#"
   xmlns:svg="http://www.w3.org/2000/svg"
   xmlns="http://www.w3.org/2000/svg"
   xmlns:sodipodi="http://sodipodi.sourceforge.net/DTD/sodipodi-0.dtd"
   xmlns:inkscape="http://www.inkscape.org/namespaces/inkscape"
   version="1.1"
   id="library"
   width="17.592026"
   height="13.475248"
   viewBox="0 0 17.592026 13.475248"
   sodipodi:docname="library.svg"
   inkscape:version="1.0.2 (e86c8708, 2021-01-15)">
  <metadata
     id="metadata89846">
    <rdf:RDF>
      <cc:Work
         rdf:about="">
        <dc:format>image/svg+xml</dc:format>
        <dc:type
           rdf:resource="http://purl.org/dc/dcmitype/StillImage" />
        <dc:title></dc:title>
      </cc:Work>
    </rdf:RDF>
  </metadata>
  <defs
     id="defs89844" />
  <sodipodi:namedview
     pagecolor="#ffffff"
     bordercolor="#666666"
     borderopacity="1"
     objecttolerance="10"
     gridtolerance="10"
     guidetolerance="10"
     inkscape:pageopacity="0"
     inkscape:pageshadow="2"
     inkscape:window-width="1253"
     inkscape:window-height="760"
     id="namedview89842"
     showgrid="false"
     inkscape:pagecheckerboard="true"
     inkscape:zoom="36.733333"
     inkscape:cx="7.5535585"
     inkscape:cy="6.6201042"
     inkscape:window-x="166"
     inkscape:window-y="106"
     inkscape:window-maximized="0"
     inkscape:current-layer="library" />
  <path
     d="M 1.6543512,9.0270877 C 1.5489212,8.9562654 1.5640461,8.8387873 1.5640461,8.8387873 L 2.1481374,2.6759694 c 0,0 0.00912,-0.067863 0.043151,-0.1025837 0.021464,-0.021701 0.0486,-0.053265 0.099758,-0.071809 0.5874276,-0.2130583 3.780467,-1.74717861 5.3889421,-0.3187984 0.2665778,0.2739183 0.5559543,0.6782364 0.5559543,0.9863823 v 5.2158908 c 0,0 0.0069,0.1106721 -0.1059861,0.1776475 -0.02658,0.015782 -0.1379042,0.060761 -0.2691357,0.00256 C 5.3859956,7.4670254 2.6215715,8.7177582 1.9241542,9.0457303 1.7842481,9.111522 1.675148,9.0411929 1.6543512,9.0270877 Z M 15.659974,9.0457303 C 14.962556,8.7177582 12.198132,7.4670254 9.7233066,8.5652635 9.5920752,8.62346 9.4807508,8.578481 9.4541709,8.5626989 9.3414008,8.4957235 9.348296,8.3850514 9.348296,8.3850514 V 3.1691606 c 0,-0.3081459 0.2893765,-0.712464 0.5559543,-0.9863823 1.6084757,-1.42838021 4.7811627,0.1056415 5.3685907,0.3187987 0.05116,0.018544 0.07829,0.050108 0.09976,0.071809 0.03403,0.034721 0.04315,0.1025837 0.04315,0.1025837 l 0.604443,6.1628179 c 0,0 0.01513,0.1174781 -0.0903,0.1883004 -0.0208,0.014105 -0.129897,0.084434 -0.269914,0.018643 z m -5.350129,2.6914427 c 0.03915,-0.0084 0.107209,-0.0437 0.13112,-0.07645 0.02625,-0.0359 0.04204,-0.06086 0.04704,-0.107318 0.05505,-0.925128 1.806657,-1.7872258 5.168852,-0.02939 0.08619,0.0435 0.185281,0.03906 0.269692,-0.01529 0.09598,-0.06185 0.09442,-0.166502 0.09442,-0.166502 V 10.79557 c 0,0 3.34e-4,-0.07536 -0.03025,-0.116787 -0.0228,-0.03078 -0.05294,-0.06343 -0.102984,-0.08463 -2.25251,-1.2965998 -5.100011,-1.8713643 -6.5453364,-0.157032 -0.02013,0.04172 -0.039258,0.06047 -0.080963,0.08927 -0.062947,0.0434 -0.1396836,0.04064 -0.1396836,0.04064 H 8.4706022 c 0,0 -0.076737,0.0028 -0.1396836,-0.04064 -0.041705,-0.0288 -0.060834,-0.04754 -0.080963,-0.08927 -1.4453254,-1.7143323 -4.2928257,-1.1666928 -6.5453359,0.129906 -0.050046,0.02121 -0.080185,0.05386 -0.1029833,0.08463 -0.030584,0.04143 -0.03025,0.116788 -0.03025,0.116788 v 0.546653 c 0,0 -0.00156,0.104655 0.09442,0.166501 0.084411,0.05435 0.1835016,0.05879 0.2696917,0.01529 3.3621945,-1.7578318 5.1138009,-0.868608 5.1688514,0.05652 0.005,0.04646 0.020797,0.07141 0.047043,0.107318 0.023911,0.03275 0.091973,0.06806 0.1311203,0.07645 0.8028473,0.176858 1.9669149,0.246595 3.0273323,0 z"
     id="path89839"
     style="fill:#725a50;fill-opacity:1;stroke:#ffffff;stroke-width:3.14211;stroke-linecap:round;stroke-miterlimit:4;stroke-dasharray:none;stroke-opacity:1;paint-order:stroke fill markers" />
</svg>
