<?xml version="1.0" encoding="UTF-8" standalone="no"?>
<svg
   xmlns:dc="http://purl.org/dc/elements/1.1/"
   xmlns:cc="http://creativecommons.org/ns#"
   xmlns:rdf="http://www.w3.org/1999/02/22-rdf-syntax-ns#"
   xmlns:svg="http://www.w3.org/2000/svg"
   xmlns="http://www.w3.org/2000/svg"
   xmlns:sodipodi="http://sodipodi.sourceforge.net/DTD/sodipodi-0.dtd"
   xmlns:inkscape="http://www.inkscape.org/namespaces/inkscape"
   version="1.1"
   id="lodging"
   width="19.799999"
   height="14.85"
   viewBox="0 0 19.799999 14.85"
   sodipodi:docname="lodging.svg"
   inkscape:version="1.0.2 (e86c8708, 2021-01-15)">
  <metadata
     id="metadata91029">
    <rdf:RDF>
      <cc:Work
         rdf:about="">
        <dc:format>image/svg+xml</dc:format>
        <dc:type
           rdf:resource="http://purl.org/dc/dcmitype/StillImage" />
        <dc:title></dc:title>
      </cc:Work>
    </rdf:RDF>
  </metadata>
  <defs
     id="defs91027" />
  <sodipodi:namedview
     pagecolor="#ffffff"
     bordercolor="#666666"
     borderopacity="1"
     objecttolerance="10"
     gridtolerance="10"
     guidetolerance="10"
     inkscape:pageopacity="0"
     inkscape:pageshadow="2"
     inkscape:window-width="1289"
     inkscape:window-height="772"
     id="namedview91025"
     showgrid="false"
     inkscape:zoom="36.733333"
     inkscape:cx="8.661343"
     inkscape:cy="7.175"
     inkscape:window-x="0"
     inkscape:window-y="25"
     inkscape:window-maximized="0"
     inkscape:current-layer="lodging" />
  <path
     id="rect6507"
     d="M 2.2,1.65 C 1.87,1.65 1.65,1.87 1.65,2.2 v 8.25 2.2 c 0,0.33 0.22,0.55 0.55,0.55 0.33,0 0.55,-0.22 0.55,-0.55 V 11 h 14.3 v 1.65 c 0,0.33 0.22,0.55 0.55,0.55 0.33,0 0.55,-0.22 0.55,-0.55 v -2.2 C 18.15,10.12 17.93,9.9 17.6,9.9 H 2.75 V 2.2 C 2.75,1.87 2.53,1.65 2.2,1.65 Z M 5.5,2.2 C 4.62,2.2 3.85,2.97 3.85,3.85 v 0 c 0,0.88 0.77,1.65 1.65,1.65 v 0 c 0.88,0 1.65,-0.77 1.65,-1.65 v 0 C 7.15,2.97 6.38,2.2 5.5,2.2 Z M 9.35,3.3 C 7.7,3.3 7.7,4.95 7.7,4.95 V 6.6 H 4.4 C 4.07,6.6 3.85,6.82 3.85,7.15 v 1.1 c 0,0.33 0.22,0.55 0.55,0.55 h 3.85 9.9 V 6.05 C 18.15,3.3 15.4,3.3 15.4,3.3 Z"
     style="fill:#725a50;fill-opacity:1;stroke:#ffffff;stroke-width:3.3;stroke-linecap:round;stroke-miterlimit:4;stroke-dasharray:none;stroke-opacity:1;paint-order:stroke fill markers" />
</svg>
