<?xml version="1.0" encoding="UTF-8" standalone="no"?>
<svg
   xmlns:dc="http://purl.org/dc/elements/1.1/"
   xmlns:cc="http://creativecommons.org/ns#"
   xmlns:rdf="http://www.w3.org/1999/02/22-rdf-syntax-ns#"
   xmlns:svg="http://www.w3.org/2000/svg"
   xmlns="http://www.w3.org/2000/svg"
   xmlns:sodipodi="http://sodipodi.sourceforge.net/DTD/sodipodi-0.dtd"
   xmlns:inkscape="http://www.inkscape.org/namespaces/inkscape"
   id="mobile-phone"
   width="11"
   height="17.6"
   viewBox="0 0 11 17.6"
   version="1.1"
   sodipodi:docname="mobile_phone.svg"
   inkscape:version="1.0.2 (e86c8708, 2021-01-15)">
  <metadata
     id="metadata92187">
    <rdf:RDF>
      <cc:Work
         rdf:about="">
        <dc:format>image/svg+xml</dc:format>
        <dc:type
           rdf:resource="http://purl.org/dc/dcmitype/StillImage" />
        <dc:title></dc:title>
      </cc:Work>
    </rdf:RDF>
  </metadata>
  <defs
     id="defs92185" />
  <sodipodi:namedview
     pagecolor="#ffffff"
     bordercolor="#666666"
     borderopacity="1"
     objecttolerance="10"
     gridtolerance="10"
     guidetolerance="10"
     inkscape:pageopacity="0"
     inkscape:pageshadow="2"
     inkscape:window-width="1162"
     inkscape:window-height="738"
     id="namedview92183"
     showgrid="false"
     inkscape:zoom="36.733333"
     inkscape:cx="8.8076225"
     inkscape:cy="9.2083482"
     inkscape:window-x="0"
     inkscape:window-y="25"
     inkscape:window-maximized="0"
     inkscape:current-layer="mobile-phone" />
  <path
     d="m 8.25,2.7499997 v 0 -0.55 a 0.55,0.55 0 0 0 -1.1,0 v 0.55 h -4.4 a 1.1,1.1 0 0 0 -1.1,1.1 V 14.85 a 1.1,1.1 0 0 0 1.1,1.1 h 5.5 a 1.1,1.1 0 0 0 1.1,-1.1 V 3.8499997 a 1.1,1.1 0 0 0 -1.1,-1.1 z M 3.85,14.85 h -1.1 v -1.1 h 1.1 z m 0,-2.2 h -1.1 v -1.1 h 1.1 z m 0,-2.2 H 2.75 V 9.3499997 h 1.1 z m 2.2,4.4 h -1.1 v -1.1 h 1.1 z m 0,-2.2 h -1.1 v -1.1 h 1.1 z m 0,-2.2 H 4.95 V 9.3499997 h 1.1 z m 2.2,4.4 h -1.1 v -1.1 h 1.1 z m 0,-2.2 h -1.1 v -1.1 h 1.1 z m 0,-2.2 H 7.15 V 9.3499997 h 1.1 z m 0,-2.7500003 a 0.55,0.55 0 0 1 -0.55,0.55 H 3.3 a 0.55,0.55 0 0 1 -0.55,-0.55 v -3.3 a 0.55,0.55 0 0 1 0.55,-0.55 h 4.4 a 0.55,0.55 0 0 1 0.55,0.55 z"
     id="path92180"
     style="fill:#725a50;fill-opacity:1;stroke:#ffffff;stroke-width:3.3;stroke-linecap:round;stroke-miterlimit:4;stroke-dasharray:none;stroke-opacity:1;paint-order:stroke fill markers" />
</svg>
