<?xml version="1.0" encoding="UTF-8" standalone="no"?>
<svg
   xmlns:dc="http://purl.org/dc/elements/1.1/"
   xmlns:cc="http://creativecommons.org/ns#"
   xmlns:rdf="http://www.w3.org/1999/02/22-rdf-syntax-ns#"
   xmlns:svg="http://www.w3.org/2000/svg"
   xmlns="http://www.w3.org/2000/svg"
   xmlns:sodipodi="http://sodipodi.sourceforge.net/DTD/sodipodi-0.dtd"
   xmlns:inkscape="http://www.inkscape.org/namespaces/inkscape"
   height="17.6"
   viewBox="0 0 17.6 17.6"
   width="17.6"
   id="music"
   version="1.1"
   sodipodi:docname="music.svg"
   inkscape:version="1.0.2 (e86c8708, 2021-01-15)">
  <metadata
     id="metadata96246">
    <rdf:RDF>
      <cc:Work
         rdf:about="">
        <dc:format>image/svg+xml</dc:format>
        <dc:type
           rdf:resource="http://purl.org/dc/dcmitype/StillImage" />
        <dc:title></dc:title>
      </cc:Work>
    </rdf:RDF>
  </metadata>
  <defs
     id="defs96244" />
  <sodipodi:namedview
     pagecolor="#ffffff"
     bordercolor="#666666"
     borderopacity="1"
     objecttolerance="10"
     gridtolerance="10"
     guidetolerance="10"
     inkscape:pageopacity="0"
     inkscape:pageshadow="2"
     inkscape:window-width="1289"
     inkscape:window-height="720"
     id="namedview96242"
     showgrid="false"
     inkscape:zoom="36.733333"
     inkscape:cx="8.561343"
     inkscape:cy="9.8"
     inkscape:window-x="0"
     inkscape:window-y="25"
     inkscape:window-maximized="0"
     inkscape:current-layer="music" />
  <path
     d="m 15.4,1.65 c -0.08844,8.8e-4 -0.17534,0.02354 -0.253,0.066 L 5.5,4.4 C 5.19629,4.4 4.95,4.64629 4.95,4.95 v 6.908 C 4.61681,11.66022 4.23742,11.55407 3.85,11.55 c -1.21506,0 -2.2,0.98494 -2.2,2.2 0,1.21506 0.98494,2.2 2.2,2.2 1.21506,0 2.2,-0.98494 2.2,-2.2 V 8.646 l 8.8,-2.442 v 4.004 C 14.51681,10.01022 14.13742,9.90407 13.75,9.9 c -1.21506,0 -2.2,0.98494 -2.2,2.2 0,1.21506 0.98494,2.2 2.2,2.2 1.21506,0 2.2,-0.98494 2.2,-2.2 V 2.2 c 0,-0.30371 -0.24629,-0.55 -0.55,-0.55 z m -0.55,3.454 -8.8,2.442 v -2.2 l 8.8,-2.442 z"
     id="path96239"
     style="fill:#725a50;fill-opacity:1;stroke:#ffffff;stroke-width:3.3;stroke-linecap:round;stroke-miterlimit:4;stroke-dasharray:none;stroke-opacity:1;paint-order:stroke fill markers" />
</svg>
