<?xml version="1.0" encoding="UTF-8" standalone="no"?>
<svg
   xmlns:dc="http://purl.org/dc/elements/1.1/"
   xmlns:cc="http://creativecommons.org/ns#"
   xmlns:rdf="http://www.w3.org/1999/02/22-rdf-syntax-ns#"
   xmlns:svg="http://www.w3.org/2000/svg"
   xmlns="http://www.w3.org/2000/svg"
   xmlns:sodipodi="http://sodipodi.sourceforge.net/DTD/sodipodi-0.dtd"
   xmlns:inkscape="http://www.inkscape.org/namespaces/inkscape"
   version="1.1"
   id="optician"
   width="25.200001"
   height="10.8"
   viewBox="0 0 25.200001 10.8"
   sodipodi:docname="optician.svg"
   inkscape:version="1.0.2 (e86c8708, 2021-01-15)">
  <metadata
     id="metadata96834">
    <rdf:RDF>
      <cc:Work
         rdf:about="">
        <dc:format>image/svg+xml</dc:format>
        <dc:type
           rdf:resource="http://purl.org/dc/dcmitype/StillImage" />
        <dc:title />
      </cc:Work>
    </rdf:RDF>
  </metadata>
  <defs
     id="defs96832" />
  <sodipodi:namedview
     pagecolor="#ffffff"
     bordercolor="#666666"
     borderopacity="1"
     objecttolerance="10"
     gridtolerance="10"
     guidetolerance="10"
     inkscape:pageopacity="0"
     inkscape:pageshadow="2"
     inkscape:window-width="1081"
     inkscape:window-height="704"
     id="namedview96830"
     showgrid="false"
     inkscape:zoom="36.733333"
     inkscape:cx="11.361343"
     inkscape:cy="5.4"
     inkscape:window-x="90"
     inkscape:window-y="53"
     inkscape:window-maximized="0"
     inkscape:current-layer="optician"
     inkscape:document-rotation="0" />
  <path
     d="M 22.68,3.24 H 21.705696 C 21.298464,2.391552 20.438352,1.8 19.435824,1.8 H 15.84288 C 14.665536,1.8 13.681872,2.614464 13.40496,3.707424 13.154976,3.64824 12.886704,3.6 12.6,3.6 12.313296,3.6 12.045024,3.648096 11.79504,3.70728 11.518128,2.614464 10.534176,1.8 9.356544,1.8 H 5.764176 C 4.761504,1.8 3.901248,2.391552 3.49416,3.24 H 2.518848 C 2.12184,3.24 1.8,3.561696 1.8,3.958704 v 0.0023 C 1.8,4.35816 2.12184,4.68 2.518848,4.68 H 3.24 V 5.4 C 3.24,7.688016 4.683456,9 7.2,9 h 0.72 c 2.516544,0 3.96,-1.311984 3.96,-3.6 V 5.171472 C 12.096432,5.102352 12.356208,5.04 12.6,5.04 c 0.243792,0 0.503856,0.062352 0.72,0.131472 V 5.4 c 0,2.288016 1.44288,3.6 3.96,3.6 H 18 c 2.51712,0 3.96,-1.311984 3.96,-3.6 V 4.68 h 0.72 c 0.397584,0 0.72,-0.322416 0.72,-0.72 0,-0.397728 -0.322416,-0.72 -0.72,-0.72 z M 10.44,5.4 c 0,1.005408 -0.286128,2.16 -2.52,2.16 H 7.2 C 4.966128,7.56 4.68,6.405408 4.68,5.4 V 4.323456 C 4.68,3.725856 5.166576,3.24 5.764176,3.24 H 9.3564 c 0.597744,0 1.0836,0.485856 1.0836,1.083456 z m 10.08,0 c 0,1.005408 -0.286848,2.16 -2.52,2.16 H 17.28 C 15.046848,7.56 14.76,6.405408 14.76,5.4 V 4.323456 C 14.76,3.725856 15.245136,3.24 15.84288,3.24 h 3.592944 c 0.5976,0 1.084176,0.486576 1.084176,1.084176 z"
     id="path96827"
     style="fill:#725a50;fill-opacity:1;stroke:#ffffff;stroke-width:3.6;stroke-linecap:round;stroke-miterlimit:4;stroke-dasharray:none;stroke-opacity:1;paint-order:stroke fill markers" />
</svg>
