<?xml version="1.0" encoding="UTF-8" standalone="no"?>
<svg
   xmlns:dc="http://purl.org/dc/elements/1.1/"
   xmlns:cc="http://creativecommons.org/ns#"
   xmlns:rdf="http://www.w3.org/1999/02/22-rdf-syntax-ns#"
   xmlns:svg="http://www.w3.org/2000/svg"
   xmlns="http://www.w3.org/2000/svg"
   xmlns:sodipodi="http://sodipodi.sourceforge.net/DTD/sodipodi-0.dtd"
   xmlns:inkscape="http://www.inkscape.org/namespaces/inkscape"
   height="17.6"
   viewBox="0 0 17.6 17.6"
   width="17.6"
   id="paint"
   version="1.1"
   sodipodi:docname="paint.svg"
   inkscape:version="1.0.2 (e86c8708, 2021-01-15)">
  <metadata
     id="metadata98025">
    <rdf:RDF>
      <cc:Work
         rdf:about="">
        <dc:format>image/svg+xml</dc:format>
        <dc:type
           rdf:resource="http://purl.org/dc/dcmitype/StillImage" />
        <dc:title></dc:title>
      </cc:Work>
    </rdf:RDF>
  </metadata>
  <defs
     id="defs98023" />
  <sodipodi:namedview
     pagecolor="#ffffff"
     bordercolor="#666666"
     borderopacity="1"
     objecttolerance="10"
     gridtolerance="10"
     guidetolerance="10"
     inkscape:pageopacity="0"
     inkscape:pageshadow="2"
     inkscape:window-width="1152"
     inkscape:window-height="754"
     id="namedview98021"
     showgrid="false"
     inkscape:zoom="36.733333"
     inkscape:cx="7.561343"
     inkscape:cy="7.8"
     inkscape:window-x="0"
     inkscape:window-y="25"
     inkscape:window-maximized="0"
     inkscape:current-layer="paint" />
  <path
     d="M 15.4,3.3 H 14.3 V 2.20297 C 14.3,1.8975 14.05239,1.65 13.74703,1.65 H 2.20297 C 1.89761,1.65 1.65,1.8975 1.65,2.20297 V 5.49703 C 1.65,5.80239 1.89761,6.05 2.20297,6.05 H 13.74703 C 14.05239,6.05 14.3,5.80239 14.3,5.49703 V 4.4 h 0.55 V 7.81231 L 8.12647,9.36397 C 7.87666,9.42194 7.7,9.64436 7.7,9.9 v 1.65814 c -0.30613,0.022 -0.55,0.2706 -0.55,0.58245 v 3.21871 c 0,0.32626 0.26444,0.5907 0.59059,0.5907 H 8.7593 C 9.08556,15.95 9.35,15.68556 9.35,15.35941 V 12.1407 c 0,-0.31174 -0.24387,-0.56045 -0.55,-0.58245 v -1.221 L 15.52353,8.78603 C 15.77279,8.72861 15.95,8.50619 15.95,8.25 V 3.85 C 15.95,3.54596 15.70404,3.3 15.4,3.3 Z"
     id="path98018"
     style="fill:#725a50;fill-opacity:1;stroke:#ffffff;stroke-width:3.3;stroke-linecap:round;stroke-miterlimit:4;stroke-dasharray:none;stroke-opacity:1;paint-order:stroke fill markers" />
</svg>
