<?xml version="1.0" encoding="UTF-8" standalone="no"?>
<svg
   xmlns:dc="http://purl.org/dc/elements/1.1/"
   xmlns:cc="http://creativecommons.org/ns#"
   xmlns:rdf="http://www.w3.org/1999/02/22-rdf-syntax-ns#"
   xmlns:svg="http://www.w3.org/2000/svg"
   xmlns="http://www.w3.org/2000/svg"
   xmlns:sodipodi="http://sodipodi.sourceforge.net/DTD/sodipodi-0.dtd"
   xmlns:inkscape="http://www.inkscape.org/namespaces/inkscape"
   viewBox="0 0 13.022176 16.006615"
   height="16.006615"
   width="13.022176"
   version="1.1"
   id="svg49465"
   sodipodi:docname="parking.svg"
   inkscape:version="1.0.2 (e86c8708, 2021-01-15)">
  <metadata
     id="metadata49471">
    <rdf:RDF>
      <cc:Work
         rdf:about="">
        <dc:format>image/svg+xml</dc:format>
        <dc:type
           rdf:resource="http://purl.org/dc/dcmitype/StillImage" />
      </cc:Work>
    </rdf:RDF>
  </metadata>
  <defs
     id="defs49469" />
  <sodipodi:namedview
     pagecolor="#ffffff"
     bordercolor="#666666"
     borderopacity="1"
     objecttolerance="10"
     gridtolerance="10"
     guidetolerance="10"
     inkscape:pageopacity="0"
     inkscape:pageshadow="2"
     inkscape:window-width="1141"
     inkscape:window-height="752"
     id="namedview49467"
     showgrid="false"
     inkscape:zoom="29.210526"
     inkscape:cx="5.0517671"
     inkscape:cy="6.7787574"
     inkscape:window-x="179"
     inkscape:window-y="25"
     inkscape:window-maximized="0"
     inkscape:current-layer="svg49465" />
  <title
     id="title49457">parking_15.svg</title>
  <rect
     fill="none"
     x="-3.5"
     y="-1.4933845"
     width="19"
     height="19"
     id="rect49459" />
  <path
     fill="#fff"
     d="m 10.35,8.8766155 c -0.9532,0.7086 -2.1239,1.0623 -3.31,1 H 4.29 V 14.506616 H 1.5 V 1.5066155 h 5.72 c 1.1305,-0.0605 2.244,0.2952 3.13,1 0.8321,0.8147 1.2543,1.9601 1.15,3.12 0.1271,1.2014 -0.2955,2.3959 -1.15,3.25 z m -2.1,-4.67 c -0.4246,-0.3108 -0.9448,-0.463 -1.47,-0.43 H 4.29 v 3.82 h 2.49 c 0.5315,0.0326 1.056,-0.1351 1.47,-0.47 0.3795,-0.3947 0.5693,-0.9346 0.52,-1.48 0.054,-0.534 -0.1373,-1.0637 -0.52,-1.44 z"
     id="path49463"
     style="fill:#725a50;fill-opacity:1;stroke:#ffffff;stroke-width:3;stroke-linecap:round;stroke-miterlimit:4;stroke-dasharray:none;stroke-opacity:1;paint-order:stroke fill markers" />
</svg>
