<?xml version="1.0" encoding="UTF-8" standalone="no"?>
<svg
   xmlns:dc="http://purl.org/dc/elements/1.1/"
   xmlns:cc="http://creativecommons.org/ns#"
   xmlns:rdf="http://www.w3.org/1999/02/22-rdf-syntax-ns#"
   xmlns:svg="http://www.w3.org/2000/svg"
   xmlns="http://www.w3.org/2000/svg"
   xmlns:sodipodi="http://sodipodi.sourceforge.net/DTD/sodipodi-0.dtd"
   xmlns:inkscape="http://www.inkscape.org/namespaces/inkscape"
   viewBox="0 0 14.4 20.448"
   height="20.448"
   width="14.4"
   version="1.1"
   id="svg3215"
   sodipodi:docname="pharmacy.svg"
   inkscape:version="1.0.2 (e86c8708, 2021-01-15)">
  <metadata
     id="metadata3221">
    <rdf:RDF>
      <cc:Work
         rdf:about="">
        <dc:format>image/svg+xml</dc:format>
        <dc:type
           rdf:resource="http://purl.org/dc/dcmitype/StillImage" />
        <dc:title>pharmacy_15.svg</dc:title>
      </cc:Work>
    </rdf:RDF>
  </metadata>
  <defs
     id="defs3219" />
  <sodipodi:namedview
     pagecolor="#ffffff"
     bordercolor="#666666"
     borderopacity="1"
     objecttolerance="10"
     gridtolerance="10"
     guidetolerance="10"
     inkscape:pageopacity="0"
     inkscape:pageshadow="2"
     inkscape:window-width="1351"
     inkscape:window-height="770"
     id="namedview3217"
     showgrid="false"
     inkscape:pagecheckerboard="true"
     inkscape:zoom="26.142857"
     inkscape:cx="3.8338799"
     inkscape:cy="9.0609401"
     inkscape:window-x="37"
     inkscape:window-y="25"
     inkscape:window-maximized="0"
     inkscape:current-layer="svg3215"
     inkscape:document-rotation="0" />
  <title
     id="title3205">pharmacy_15.svg</title>
  <rect
     fill="none"
     x="-3.3"
     y="0.2440002"
     width="21"
     height="21"
     id="rect3207" />
  <path
     fill="#5d60be"
     d="m 9.6,6.6480002 1.284,-1.848 c 0.07188,0.00552 0.14412,0.00552 0.216,0 0.82848,-4.8e-4 1.49964,-0.67236 1.49928,-1.50072 -4.8e-4,-0.82848 -0.67236,-1.49976 -1.50084,-1.49928 -0.82836,4.8e-4 -1.49964,0.67236 -1.49916,1.50072 0,0.01572 2.4e-4,0.03144 7.2e-4,0.04728 0,0 0,0.084 0,0.12 l -3,3.18 z m 3,2.4 v -1.2 H 1.8 v 1.2 L 3.6,13.248 l -1.8,4.2 v 1.2 h 10.8 v -1.2 l -1.2,-4.2 z M 10.2,13.848 H 7.8 v 2.4 H 6.6 v -2.4 H 4.2 v -1.2 h 2.4 v -2.4 h 1.2 v 2.4 h 2.4 z"
     id="path3213"
     style="fill:#725a50;fill-opacity:1;stroke:#ffffff;stroke-width:3.6;stroke-linecap:round;stroke-miterlimit:4;stroke-dasharray:none;stroke-opacity:1;paint-order:stroke fill markers" />
</svg>
