<?xml version="1.0" encoding="UTF-8" standalone="no"?>
<svg
   xmlns:dc="http://purl.org/dc/elements/1.1/"
   xmlns:cc="http://creativecommons.org/ns#"
   xmlns:rdf="http://www.w3.org/1999/02/22-rdf-syntax-ns#"
   xmlns:svg="http://www.w3.org/2000/svg"
   xmlns="http://www.w3.org/2000/svg"
   xmlns:sodipodi="http://sodipodi.sourceforge.net/DTD/sodipodi-0.dtd"
   xmlns:inkscape="http://www.inkscape.org/namespaces/inkscape"
   version="1.1"
   id="pitch"
   width="15.4"
   height="17.6"
   viewBox="0 0 15.4 17.6"
   sodipodi:docname="pitch.svg"
   inkscape:version="1.0.2 (e86c8708, 2021-01-15)">
  <metadata
     id="metadata98034">
    <rdf:RDF>
      <cc:Work
         rdf:about="">
        <dc:format>image/svg+xml</dc:format>
        <dc:type
           rdf:resource="http://purl.org/dc/dcmitype/StillImage" />
        <dc:title></dc:title>
      </cc:Work>
    </rdf:RDF>
  </metadata>
  <defs
     id="defs98032" />
  <sodipodi:namedview
     pagecolor="#ffffff"
     bordercolor="#666666"
     borderopacity="1"
     objecttolerance="10"
     gridtolerance="10"
     guidetolerance="10"
     inkscape:pageopacity="0"
     inkscape:pageshadow="2"
     inkscape:window-width="969"
     inkscape:window-height="674"
     id="namedview98030"
     showgrid="false"
     inkscape:zoom="36.733333"
     inkscape:cx="6.461343"
     inkscape:cy="8.8"
     inkscape:window-x="327"
     inkscape:window-y="93"
     inkscape:window-maximized="0"
     inkscape:current-layer="pitch" />
  <path
     d="m 4.95,3.85 c -0.60753,0 -1.1,-0.49247 -1.1,-1.1 0,-0.60753 0.49247,-1.1 1.1,-1.1 0.60753,0 1.1,0.49247 1.1,1.1 0,0.60753 -0.49247,1.1 -1.1,1.1 z m 8.25,7.7 h -2.75 l -1.1,-3.3 -1.1,-1.925 1.1,-0.275 2.53,1.1 v 0 C 12.18371,7.27155 12.52845,7.12371 12.65,6.82 12.77155,6.51629 12.62371,6.17155 12.32,6.05 v 0 L 9.35,4.95 h -2.2 l -2.2,1.1 -1.1,1.1 H 2.2 c -0.30371,0 -0.55,0.24629 -0.55,0.55 0,0.30371 0.24629,0.55 0.55,0.55 h 2.75 l 1.1,-1.1 1.1,2.2 -2.2,2.2 v 3.85 c 0,0.30371 0.24629,0.55 0.55,0.55 0.30371,0 0.55,-0.24629 0.55,-0.55 v -3.421 l 2.2,-1.529 1.1,2.2 h 3.85 c 0.30371,0 0.55,-0.24629 0.55,-0.55 0,-0.30371 -0.24629,-0.55 -0.55,-0.55 z"
     id="path98027"
     style="fill:#725a50;fill-opacity:1;stroke:#ffffff;stroke-width:3.3;stroke-linecap:round;stroke-miterlimit:4;stroke-dasharray:none;stroke-opacity:1;paint-order:stroke fill markers" />
</svg>
