<?xml version="1.0" encoding="UTF-8" standalone="no"?>
<svg
   xmlns:dc="http://purl.org/dc/elements/1.1/"
   xmlns:cc="http://creativecommons.org/ns#"
   xmlns:rdf="http://www.w3.org/1999/02/22-rdf-syntax-ns#"
   xmlns:svg="http://www.w3.org/2000/svg"
   xmlns="http://www.w3.org/2000/svg"
   xmlns:sodipodi="http://sodipodi.sourceforge.net/DTD/sodipodi-0.dtd"
   xmlns:inkscape="http://www.inkscape.org/namespaces/inkscape"
   id="playground"
   height="18.7078"
   viewBox="0 0 16.489408 18.7078"
   width="16.489408"
   version="1.1"
   sodipodi:docname="playground.svg"
   inkscape:version="1.0.2 (e86c8708, 2021-01-15)">
  <metadata
     id="metadata98043">
    <rdf:RDF>
      <cc:Work
         rdf:about="">
        <dc:format>image/svg+xml</dc:format>
        <dc:type
           rdf:resource="http://purl.org/dc/dcmitype/StillImage" />
        <dc:title></dc:title>
      </cc:Work>
    </rdf:RDF>
  </metadata>
  <defs
     id="defs98041" />
  <sodipodi:namedview
     pagecolor="#ffffff"
     bordercolor="#666666"
     borderopacity="1"
     objecttolerance="10"
     gridtolerance="10"
     guidetolerance="10"
     inkscape:pageopacity="0"
     inkscape:pageshadow="2"
     inkscape:window-width="1022"
     inkscape:window-height="680"
     id="namedview98039"
     showgrid="false"
     inkscape:zoom="36.733333"
     inkscape:cx="5.5120373"
     inkscape:cy="9.8503545"
     inkscape:window-x="201"
     inkscape:window-y="55"
     inkscape:window-maximized="0"
     inkscape:current-layer="playground" />
  <path
     d="m 1.702263,2.915 c 0.23001,-0.88176 1.13124,-1.41009 2.013,-1.18019 0.88176,0.2299 1.41009,1.13124 1.18019,2.013 -0.22033,0.8449098 -1.06073,1.3718099 -1.91719,1.2021899 -0.89386,-0.1771 -1.47499,-1.04522 -1.298,-1.9391899 0.00638,-0.03212 0.01375,-0.06413 0.022,-0.09581 z m 12.099978,12.287 c 0.11352,0.59686 -0.27841,1.1726 -0.87516,1.28612 -0.0016,3.3e-4 -0.0032,6.6e-4 -0.0048,8.8e-4 -0.46772,0.0946 -0.94314,-0.12309 -1.177,-0.539 l -1.8479998,-3.707 -1.5949782,0.318999 -0.242,0.088 h -0.066 V 15.015 l 0.682,-0.165 h 0.154 c 0.31581,0.0059 0.5670502,0.26675 0.5611102,0.58267 -0.0043,0.22704 -0.1424502,0.4301 -0.3521102,0.51733 l -5.5,1.1 c -0.06193,0.01045 -0.12507,0.01045 -0.187,0 -0.31592,0 -0.572,-0.25608 -0.572,-0.572 0,-0.23089 0.13882,-0.43923 0.352,-0.528 l 4.565,-0.913 v -2.387001 l -3.542,0.638001 c -0.1804,0.04653 -0.3696,0.04653 -0.55,0 -0.37334,-0.09537 -0.66968,-0.37906 -0.781,-0.748001 h -0.022 l -1.1,-4.4769991 c -0.03432,-0.15576 -0.03432,-0.31724 0,-0.4730001 0.10296,-0.4256999 0.44858,-0.74965 0.88,-0.8249999 l 5.17,-0.5720001 V 1.65 h 0.242 v 4.5099999 h 0.066 l 0.242,-0.022 0.44,-0.088 h 0.231 c 0.2940302,0.07073 0.4758382,0.36553 0.4070002,0.66 -0.04829,0.2585 -0.2761002,0.4445101 -0.5390002,0.44 l -0.539,0.088 h -0.242 -0.066 V 10.384 h 0.066 l 0.242,-0.066 1.990978,-0.3960002 c 0.47025,-0.03872 0.91289,0.2268202 1.1,0.6600002 l 2.2,4.334 c 0.0847,0.08338 0.15521,0.17996 0.209,0.286 z m -6.049978,-7.9090002 -2.75,0.297 0.814,3.2340002 1.936,-0.374 z"
     id="path98036"
     style="fill:#725a50;fill-opacity:1;stroke:#ffffff;stroke-width:3.3;stroke-linecap:round;stroke-miterlimit:4;stroke-dasharray:none;stroke-opacity:1;paint-order:stroke fill markers" />
</svg>
