<?xml version="1.0" encoding="UTF-8" standalone="no"?>
<svg
   xmlns:dc="http://purl.org/dc/elements/1.1/"
   xmlns:cc="http://creativecommons.org/ns#"
   xmlns:rdf="http://www.w3.org/1999/02/22-rdf-syntax-ns#"
   xmlns:svg="http://www.w3.org/2000/svg"
   xmlns="http://www.w3.org/2000/svg"
   xmlns:sodipodi="http://sodipodi.sourceforge.net/DTD/sodipodi-0.dtd"
   xmlns:inkscape="http://www.inkscape.org/namespaces/inkscape"
   version="1.1"
   id="police"
   width="15.869855"
   height="20.445456"
   viewBox="0 0 15.869855 20.445456"
   sodipodi:docname="police.svg"
   inkscape:version="1.0.2 (e86c8708, 2021-01-15)">
  <metadata
     id="metadata98059">
    <rdf:RDF>
      <cc:Work
         rdf:about="">
        <dc:format>image/svg+xml</dc:format>
        <dc:type
           rdf:resource="http://purl.org/dc/dcmitype/StillImage" />
        <dc:title></dc:title>
      </cc:Work>
    </rdf:RDF>
  </metadata>
  <defs
     id="defs98057" />
  <sodipodi:namedview
     pagecolor="#ffffff"
     bordercolor="#666666"
     borderopacity="1"
     objecttolerance="10"
     gridtolerance="10"
     guidetolerance="10"
     inkscape:pageopacity="0"
     inkscape:pageshadow="2"
     inkscape:window-width="1034"
     inkscape:window-height="760"
     id="namedview98055"
     showgrid="false"
     inkscape:zoom="36.733333"
     inkscape:cx="7.4827903"
     inkscape:cy="8.9293389"
     inkscape:window-x="0"
     inkscape:window-y="25"
     inkscape:window-maximized="0"
     inkscape:current-layer="police" />
  <path
     id="rect4718"
     d="m 6.6000992,1.65 0.55,1.1 h 5.4999998 l 0.55,-1.1 z m 0.55,1.65 v 1.375 c 0,0 0,3.025 2.75,3.025 2.7499998,0 2.7499998,-3.025 2.7499998,-3.025 V 3.3 Z m -4.41716,1.63493 c -0.60665,0.00946 -1.0912,0.50842 -1.08284,1.11507 v 4.4 c -1.1e-4,0.70378 0.65142,1.22672 1.33848,1.07426 l 3.06152,-0.68112 V 15.95 L 12.516889,8.32733 C 12.363109,8.28234 12.204269,8.25 12.035639,8.25 H 7.7000992 l -3.85,0.82929 V 6.05 c 0.00847,-0.62018 -0.49709,-1.12475 -1.11716,-1.11507 z M 13.472899,9.03199 7.6034092,15.95 H 13.750099 V 9.96446 c 0,-0.34485 -0.10329,-0.66418 -0.2772,-0.93247 z"
     style="fill:#725a50;fill-opacity:1;stroke:#ffffff;stroke-width:3.3;stroke-linecap:round;stroke-miterlimit:4;stroke-dasharray:none;stroke-opacity:1;paint-order:stroke fill markers" />
</svg>
