<?xml version="1.0" encoding="UTF-8" standalone="no"?>
<svg
   xmlns:dc="http://purl.org/dc/elements/1.1/"
   xmlns:cc="http://creativecommons.org/ns#"
   xmlns:rdf="http://www.w3.org/1999/02/22-rdf-syntax-ns#"
   xmlns:svg="http://www.w3.org/2000/svg"
   xmlns="http://www.w3.org/2000/svg"
   xmlns:sodipodi="http://sodipodi.sourceforge.net/DTD/sodipodi-0.dtd"
   xmlns:inkscape="http://www.inkscape.org/namespaces/inkscape"
   version="1.1"
   id="prison"
   width="12.65"
   height="17.6"
   viewBox="0 0 12.65 17.6"
   sodipodi:docname="prison.svg"
   inkscape:version="1.0.2 (e86c8708, 2021-01-15)">
  <metadata
     id="metadata98051">
    <rdf:RDF>
      <cc:Work
         rdf:about="">
        <dc:format>image/svg+xml</dc:format>
        <dc:type
           rdf:resource="http://purl.org/dc/dcmitype/StillImage" />
        <dc:title></dc:title>
      </cc:Work>
    </rdf:RDF>
  </metadata>
  <defs
     id="defs98049" />
  <sodipodi:namedview
     pagecolor="#ffffff"
     bordercolor="#666666"
     borderopacity="1"
     objecttolerance="10"
     gridtolerance="10"
     guidetolerance="10"
     inkscape:pageopacity="0"
     inkscape:pageshadow="2"
     inkscape:window-width="1100"
     inkscape:window-height="748"
     id="namedview98047"
     showgrid="false"
     inkscape:zoom="36.733333"
     inkscape:cx="4.836343"
     inkscape:cy="8.8"
     inkscape:window-x="48"
     inkscape:window-y="44"
     inkscape:window-maximized="0"
     inkscape:current-layer="prison" />
  <path
     id="rect3607"
     d="m 1.65,1.65 v 14.3 H 11 V 1.65 Z m 6.6,1.1 H 9.9 V 6.6 H 8.25 Z M 2.75,2.81017 H 4.4 V 8.25 H 2.75 Z m 2.75,0 H 7.15 V 8.25 H 5.5 Z M 9.075,7.7 C 9.53062,7.7 9.9,8.06938 9.9,8.525 9.9,8.98062 9.53062,9.35 9.075,9.35 v 0 C 8.61938,9.35 8.25,8.98062 8.25,8.525 v 0 C 8.25,8.06938 8.61938,7.7 9.075,7.7 Z M 5.5,9.35 H 7.11997 L 7.15,14.85 H 5.53003 Z M 2.75,9.5326 H 4.4 V 14.85 H 2.75 Z M 8.25,10.45 H 9.9 v 4.4 H 8.25 Z"
     style="fill:#725a50;fill-opacity:1;stroke:#ffffff;stroke-width:3.3;stroke-linecap:round;stroke-miterlimit:4;stroke-dasharray:none;stroke-opacity:1;paint-order:stroke fill markers" />
</svg>
