<?xml version="1.0" encoding="UTF-8" standalone="no"?>
<svg
   xmlns:dc="http://purl.org/dc/elements/1.1/"
   xmlns:cc="http://creativecommons.org/ns#"
   xmlns:rdf="http://www.w3.org/1999/02/22-rdf-syntax-ns#"
   xmlns:svg="http://www.w3.org/2000/svg"
   xmlns="http://www.w3.org/2000/svg"
   xmlns:sodipodi="http://sodipodi.sourceforge.net/DTD/sodipodi-0.dtd"
   xmlns:inkscape="http://www.inkscape.org/namespaces/inkscape"
   viewBox="0 0 12.50413 18.000557"
   height="18.000557"
   width="12.50413"
   version="1.1"
   id="svg27997"
   sodipodi:docname="restaurant.svg"
   inkscape:version="1.0.2 (e86c8708, 2021-01-15)">
  <metadata
     id="metadata28003">
    <rdf:RDF>
      <cc:Work
         rdf:about="">
        <dc:format>image/svg+xml</dc:format>
        <dc:type
           rdf:resource="http://purl.org/dc/dcmitype/StillImage" />
        <dc:title>restaurant.svg</dc:title>
      </cc:Work>
    </rdf:RDF>
  </metadata>
  <defs
     id="defs28001" />
  <sodipodi:namedview
     pagecolor="#ffffff"
     bordercolor="#666666"
     borderopacity="1"
     objecttolerance="10"
     gridtolerance="10"
     guidetolerance="10"
     inkscape:pageopacity="0"
     inkscape:pageshadow="2"
     inkscape:window-width="1093"
     inkscape:window-height="668"
     id="namedview27999"
     showgrid="false"
     inkscape:pagecheckerboard="true"
     inkscape:zoom="29.210526"
     inkscape:cx="6.6410669"
     inkscape:cy="4.3441441"
     inkscape:window-x="95"
     inkscape:window-y="25"
     inkscape:window-maximized="0"
     inkscape:current-layer="svg27997" />
  <title
     id="title27991">restaurant.svg</title>
  <rect
     fill="none"
     x="-2.9958701"
     y="-0.5"
     width="19"
     height="19"
     id="rect27993" />
  <path
     fill="#000"
     d="m 2.50413,1.5 -1,5.5 c -0.1464,0.805 1.7815,1.181 1.75,2 l -0.25,6.5 c -0.0384,0.9993 1,1 1,1 0,0 1.0384,-7e-4 1,-1 L 4.75413,9 c -0.0314,-0.8176 1.7334,-1.1808 1.75,-2 l -1,-5.5 h -0.5 l 0.25,4 -0.75,0.5 -0.25,-4.5 h -0.5 l -0.25,4.5 -0.75,-0.5 0.25,-4 z m 8.5,0 c -0.7364,0 -1.9642,0.6549 -2.4551,1.6367 C 8.13993,3.8731 8.00413,5.5182 8.00413,6.5 V 9 c 0,0.8182 1.0909,1 1.5,1 l -0.5,5.5 c -0.0905,0.9959 1,1 1,1 0,0 1,0 1,-1 z"
     id="path27995"
     style="fill:#725a50;fill-opacity:1;stroke:#ffffff;stroke-width:3;stroke-linecap:round;stroke-miterlimit:4;stroke-dasharray:none;stroke-opacity:1;paint-order:stroke fill markers" />
</svg>
