<?xml version="1.0" encoding="UTF-8" standalone="no"?>
<svg
   xmlns:dc="http://purl.org/dc/elements/1.1/"
   xmlns:cc="http://creativecommons.org/ns#"
   xmlns:rdf="http://www.w3.org/1999/02/22-rdf-syntax-ns#"
   xmlns:svg="http://www.w3.org/2000/svg"
   xmlns="http://www.w3.org/2000/svg"
   xmlns:sodipodi="http://sodipodi.sourceforge.net/DTD/sodipodi-0.dtd"
   xmlns:inkscape="http://www.inkscape.org/namespaces/inkscape"
   id="scooter"
   width="17.601688"
   height="17.068954"
   viewBox="0 0 17.601688 17.068954"
   version="1.1"
   sodipodi:docname="scooter.svg"
   inkscape:version="1.0.2 (e86c8708, 2021-01-15)">
  <metadata
     id="metadata103256">
    <rdf:RDF>
      <cc:Work
         rdf:about="">
        <dc:format>image/svg+xml</dc:format>
        <dc:type
           rdf:resource="http://purl.org/dc/dcmitype/StillImage" />
        <dc:title></dc:title>
      </cc:Work>
    </rdf:RDF>
  </metadata>
  <defs
     id="defs103254" />
  <sodipodi:namedview
     pagecolor="#ffffff"
     bordercolor="#666666"
     borderopacity="1"
     objecttolerance="10"
     gridtolerance="10"
     guidetolerance="10"
     inkscape:pageopacity="0"
     inkscape:pageshadow="2"
     inkscape:window-width="989"
     inkscape:window-height="716"
     id="namedview103252"
     showgrid="false"
     inkscape:zoom="36.733333"
     inkscape:cx="7.5621867"
     inkscape:cy="8.2758616"
     inkscape:window-x="0"
     inkscape:window-y="25"
     inkscape:window-maximized="0"
     inkscape:current-layer="scooter" />
  <path
     d="m 5.9496437,13.2 a 1.65,1.65 0 1 1 -3.0976,0 z M 15.464644,6.6 c -0.0209,0 -0.6138,0 -0.6138,0 V 3.3 h 0.3861 a 0.3102,0.3102 0 0 0 0.2453,-0.1628 l 0.2948,-0.5896 a 0.3674,0.3674 0 0 0 0.0099,-0.0726 0.275,0.275 0 0 0 -0.2761,-0.275 h -0.66 V 1.87 a 0.2365,0.2365 0 0 0 -0.22,-0.22 h -3.905 a 0.275,0.275 0 0 0 0,0.55 h 3.025 V 7.26 L 8.9108437,11 h -1.76 V 8.25 a 0.55,0.55 0 0 0 -0.55,-0.55 h -0.55 V 5.5 h 1.925 a 0.275,0.275 0 0 0 0,-0.55 l -4.9324,-0.5126 c -0.0066,0 -0.011,-0.0077 -0.0176,-0.0077 a 0.275,0.275 0 0 0 -0.275,0.275 V 5.225 a 0.275,0.275 0 0 0 0.275,0.275 h 0.825 v 2.2 h -0.55 a 1.6918,1.6918 0 0 0 -1.65,1.65 v 2.2 a 0.5192,0.5192 0 0 0 0.4862,0.55 c 0.0209,0 6.6638,0 6.6638,0 L 11.550844,11 h 3.85 a 0.5192,0.5192 0 0 0 0.55,-0.4862 c 0,-0.0209 0,-3.3638 0,-3.3638 a 0.5192,0.5192 0 0 0 -0.4862,-0.55 z m -1.1638,5.5 a 1.65,1.65 0 1 0 1.65,1.65 1.6918,1.6918 0 0 0 -1.65,-1.65 z"
     id="path103249"
     style="fill:#725a50;fill-opacity:1;stroke:#ffffff;stroke-width:3.3;stroke-linecap:round;stroke-miterlimit:4;stroke-dasharray:none;stroke-opacity:1;paint-order:stroke fill markers" />
</svg>
