<?xml version="1.0" encoding="UTF-8" standalone="no"?>
<svg
   xmlns:dc="http://purl.org/dc/elements/1.1/"
   xmlns:cc="http://creativecommons.org/ns#"
   xmlns:rdf="http://www.w3.org/1999/02/22-rdf-syntax-ns#"
   xmlns:svg="http://www.w3.org/2000/svg"
   xmlns="http://www.w3.org/2000/svg"
   xmlns:sodipodi="http://sodipodi.sourceforge.net/DTD/sodipodi-0.dtd"
   xmlns:inkscape="http://www.inkscape.org/namespaces/inkscape"
   id="religious-shinto"
   width="15.003182"
   height="13.503182"
   viewBox="0 0 15.003182 13.503182"
   version="1.1"
   sodipodi:docname="shinto.svg"
   inkscape:version="1.0.2 (e86c8708, 2021-01-15)">
  <metadata
     id="metadata42410">
    <rdf:RDF>
      <cc:Work
         rdf:about="">
        <dc:format>image/svg+xml</dc:format>
        <dc:type
           rdf:resource="http://purl.org/dc/dcmitype/StillImage" />
        <dc:title></dc:title>
      </cc:Work>
    </rdf:RDF>
  </metadata>
  <defs
     id="defs42408" />
  <sodipodi:namedview
     pagecolor="#ffffff"
     bordercolor="#666666"
     borderopacity="1"
     objecttolerance="10"
     gridtolerance="10"
     guidetolerance="10"
     inkscape:pageopacity="0"
     inkscape:pageshadow="2"
     inkscape:window-width="1184"
     inkscape:window-height="722"
     id="namedview42406"
     showgrid="false"
     inkscape:pagecheckerboard="true"
     inkscape:zoom="37"
     inkscape:cx="8.3124019"
     inkscape:cy="5.3124019"
     inkscape:window-x="83"
     inkscape:window-y="79"
     inkscape:window-maximized="0"
     inkscape:current-layer="religious-shinto" />
  <path
     d="M 12.501591,1.5015911 H 2.5015911 a 0.9448,0.9448 0 0 0 -1,1 0.9448,0.9448 0 0 0 1,1 h 0.5 v 7.4999999 a 0.9448,0.9448 0 0 0 1,1 0.9448,0.9448 0 0 0 1,-1 V 7.0015911 h 4.9999999 v 3.9999999 a 0.9448,0.9448 0 0 0 1,1 0.9448,0.9448 0 0 0 1,-1 V 3.5015911 h 0.5 a 0.9448,0.9448 0 0 0 1,-1 0.9448,0.9448 0 0 0 -1,-1 z m -2.5,3.5 H 8.0015911 v -1.5 h 1.9999999 z m -2.9999999,0 h -2 v -1.5 h 2 z"
     id="path42403"
     style="fill:#725a50;fill-opacity:1;stroke:#ffffff;stroke-width:3;stroke-linecap:round;stroke-miterlimit:4;stroke-dasharray:none;stroke-opacity:1;paint-order:stroke fill markers" />
</svg>
