<?xml version="1.0" encoding="UTF-8" standalone="no"?>
<svg
   xmlns:dc="http://purl.org/dc/elements/1.1/"
   xmlns:cc="http://creativecommons.org/ns#"
   xmlns:rdf="http://www.w3.org/1999/02/22-rdf-syntax-ns#"
   xmlns:svg="http://www.w3.org/2000/svg"
   xmlns="http://www.w3.org/2000/svg"
   xmlns:sodipodi="http://sodipodi.sourceforge.net/DTD/sodipodi-0.dtd"
   xmlns:inkscape="http://www.inkscape.org/namespaces/inkscape"
   width="17.6"
   height="13.193057"
   viewBox="0 0 17.6 13.193057"
   id="shoe"
   version="1.1"
   sodipodi:docname="shoe.svg"
   inkscape:version="1.0.2 (e86c8708, 2021-01-15)">
  <metadata
     id="metadata103265">
    <rdf:RDF>
      <cc:Work
         rdf:about="">
        <dc:format>image/svg+xml</dc:format>
        <dc:type
           rdf:resource="http://purl.org/dc/dcmitype/StillImage" />
        <dc:title></dc:title>
      </cc:Work>
    </rdf:RDF>
  </metadata>
  <defs
     id="defs103263" />
  <sodipodi:namedview
     pagecolor="#ffffff"
     bordercolor="#666666"
     borderopacity="1"
     objecttolerance="10"
     gridtolerance="10"
     guidetolerance="10"
     inkscape:pageopacity="0"
     inkscape:pageshadow="2"
     inkscape:window-width="1092"
     inkscape:window-height="676"
     id="namedview103261"
     showgrid="false"
     inkscape:zoom="36.733333"
     inkscape:cx="9.684755"
     inkscape:cy="0.41370015"
     inkscape:window-x="0"
     inkscape:window-y="25"
     inkscape:window-maximized="0"
     inkscape:current-layer="shoe" />
  <path
     d="m 11,6.0430579 a 10.967,10.967 0 0 1 -1.4465,-1.0428 l -2.3925,-3.1141 a 0.6138,0.6138 0 0 0 -1.1,0.3069 H 6.05 v 1.65 H 4.0799 a 0.55,0.55 0 0 1 -0.3927,-0.1628 c 0,0 -0.3872,-0.9372 -0.9372,-0.9372 H 2.2 a 0.55,0.55 0 0 0 -0.55,0.55 v 4.95 H 7.7 c 1.65,0 2.2,1.0999996 3.85,1.0999996 h 4.4 V 8.7930579 c 0,-1.65 -3.7983,-2.0966 -4.95,-2.75 z m 0,4.3999991 A 3.4441,3.4441 0 0 1 9.3214,9.9513575 4.51,4.51 0 0 0 7.15,9.3430575 h -5.5 v 1.6499995 a 0.55,0.55 0 0 0 0.55,0.55 h 4.4 a 0.55,0.55 0 0 0 0.55,-0.55 v -0.55 a 3.4474,3.4474 0 0 1 1.6786,0.4917 4.51,4.51 0 0 0 2.1714,0.6083 h 4.4 a 0.55,0.55 0 0 0 0.55,-0.55 v -0.55 z"
     id="path103258"
     style="fill:#725a50;fill-opacity:1;stroke:#ffffff;stroke-width:3.3;stroke-linecap:round;stroke-miterlimit:4;stroke-dasharray:none;stroke-opacity:1;paint-order:stroke fill markers" />
</svg>
