<?xml version="1.0" encoding="UTF-8" standalone="no"?>
<svg
   xmlns:dc="http://purl.org/dc/elements/1.1/"
   xmlns:cc="http://creativecommons.org/ns#"
   xmlns:rdf="http://www.w3.org/1999/02/22-rdf-syntax-ns#"
   xmlns:svg="http://www.w3.org/2000/svg"
   xmlns="http://www.w3.org/2000/svg"
   xmlns:sodipodi="http://sodipodi.sourceforge.net/DTD/sodipodi-0.dtd"
   xmlns:inkscape="http://www.inkscape.org/namespaces/inkscape"
   height="14.85"
   viewBox="0 0 15.496642 14.85"
   width="15.496642"
   id="shop"
   version="1.1"
   sodipodi:docname="shop.svg"
   inkscape:version="1.0.2 (e86c8708, 2021-01-15)">
  <metadata
     id="metadata71971">
    <rdf:RDF>
      <cc:Work
         rdf:about="">
        <dc:format>image/svg+xml</dc:format>
        <dc:type
           rdf:resource="http://purl.org/dc/dcmitype/StillImage" />
        <dc:title />
      </cc:Work>
    </rdf:RDF>
  </metadata>
  <defs
     id="defs71969" />
  <sodipodi:namedview
     pagecolor="#ffffff"
     bordercolor="#666666"
     borderopacity="1"
     objecttolerance="10"
     gridtolerance="10"
     guidetolerance="10"
     inkscape:pageopacity="0"
     inkscape:pageshadow="2"
     inkscape:window-width="1137"
     inkscape:window-height="742"
     id="namedview71967"
     showgrid="false"
     inkscape:zoom="36.933333"
     inkscape:cx="7.0101577"
     inkscape:cy="2.9430505"
     inkscape:window-x="0"
     inkscape:window-y="83"
     inkscape:window-maximized="0"
     inkscape:current-layer="shop"
     inkscape:document-rotation="0" />
  <path
     d="m 13.526378,5.445 h -1.8117 l -0.3861,-2.3067 C 11.170079,2.427282 10.633895,1.860705 9.9326785,1.6632 9.5868715,1.551924 9.2267095,1.49193 8.8634783,1.485 h -2.2176 c -0.363231,0.00693 -0.723393,0.066924 -1.0692,0.1782 -0.701217,0.197505 -1.237401,0.764082 -1.3959,1.4751 l -0.3861,2.3067 h -1.8117 c -0.273339,-0.00168 -0.496287,0.218592 -0.49797,0.49203 -2.97e-4,0.051381 0.00733,0.102465 0.02277,0.15147 l 1.8612,6.237 c 0.194436,0.618354 0.767547,1.039104 1.4157,1.0395 h 5.9399997 c 0.64449,-0.0047 1.212453,-0.424611 1.4058,-1.0395 l 1.8612,-6.237 C 14.073749,5.827734 13.928813,5.549841 13.668047,5.46777 13.62221,5.453316 13.574492,5.445693 13.526378,5.445 Z m -8.7218997,0 0.3564,-2.1483 c 0.079893,-0.358875 0.369864,-0.633105 0.7326,-0.693 0.243837,-0.076824 0.496881,-0.120087 0.7524,-0.1287 h 2.2176 c 0.2587858,0.00772 0.5152952,0.050985 0.7623002,0.1287 0.362736,0.059895 0.6527065,0.334125 0.7325995,0.693 l 0.3465,2.1483 H 4.7648783 Z"
     id="path71964"
     style="fill:#725a50;fill-opacity:0.929412;stroke:#ffffff;stroke-width:2.97;stroke-linecap:round;stroke-miterlimit:4;stroke-dasharray:none;stroke-opacity:1;paint-order:stroke fill markers" />
</svg>
