<?xml version="1.0" encoding="UTF-8" standalone="no"?>
<svg
   xmlns:dc="http://purl.org/dc/elements/1.1/"
   xmlns:cc="http://creativecommons.org/ns#"
   xmlns:rdf="http://www.w3.org/1999/02/22-rdf-syntax-ns#"
   xmlns:svg="http://www.w3.org/2000/svg"
   xmlns="http://www.w3.org/2000/svg"
   xmlns:sodipodi="http://sodipodi.sourceforge.net/DTD/sodipodi-0.dtd"
   xmlns:inkscape="http://www.inkscape.org/namespaces/inkscape"
   id="skateboard"
   width="18.484747"
   height="10.54839"
   viewBox="0 0 18.484746 10.54839"
   version="1.1"
   sodipodi:docname="skateboard.svg"
   inkscape:version="1.0.2 (e86c8708, 2021-01-15)">
  <metadata
     id="metadata95640">
    <rdf:RDF>
      <cc:Work
         rdf:about="">
        <dc:format>image/svg+xml</dc:format>
        <dc:type
           rdf:resource="http://purl.org/dc/dcmitype/StillImage" />
        <dc:title />
      </cc:Work>
    </rdf:RDF>
  </metadata>
  <defs
     id="defs95638" />
  <sodipodi:namedview
     pagecolor="#ffffff"
     bordercolor="#666666"
     borderopacity="1"
     objecttolerance="10"
     gridtolerance="10"
     guidetolerance="10"
     inkscape:pageopacity="0"
     inkscape:pageshadow="2"
     inkscape:window-width="1192"
     inkscape:window-height="742"
     id="namedview95636"
     showgrid="false"
     inkscape:zoom="36.733333"
     inkscape:cx="11.48829"
     inkscape:cy="5.7486472"
     inkscape:window-x="30"
     inkscape:window-y="25"
     inkscape:window-maximized="0"
     inkscape:current-layer="skateboard"
     inkscape:document-rotation="0" />
  <path
     id="icon_concepts:_sports_leisure"
     d="M 13.862374,4.62 H 4.6223732 a 2.643168,2.643168 0 0 1 -2.64,-2.64 h 1.32 a 1.32132,1.32132 0 0 0 1.32,1.32 h 9.2400008 a 1.32132,1.32132 0 0 0 1.32,-1.32 h 1.32 a 2.643168,2.643168 0 0 1 -2.64,2.64 z m 0,1.32 a 1.32,1.32 0 1 0 1.32,1.3200002 1.32,1.32 0 0 0 -1.32,-1.3200002 z m -9.2400008,0 a 1.32,1.32 0 1 0 1.32,1.3200002 1.32,1.32 0 0 0 -1.32,-1.3200002 z"
     style="fill:#725a50;fill-opacity:1;stroke:#ffffff;stroke-width:3.96;stroke-linecap:round;stroke-miterlimit:4;stroke-dasharray:none;stroke-opacity:1;paint-order:stroke fill markers" />
</svg>
