<?xml version="1.0" encoding="UTF-8" standalone="no"?>
<svg
   xmlns:dc="http://purl.org/dc/elements/1.1/"
   xmlns:cc="http://creativecommons.org/ns#"
   xmlns:rdf="http://www.w3.org/1999/02/22-rdf-syntax-ns#"
   xmlns:svg="http://www.w3.org/2000/svg"
   xmlns="http://www.w3.org/2000/svg"
   xmlns:sodipodi="http://sodipodi.sourceforge.net/DTD/sodipodi-0.dtd"
   xmlns:inkscape="http://www.inkscape.org/namespaces/inkscape"
   height="12.899946"
   viewBox="0 0 19.500278 12.899946"
   width="19.500278"
   id="snowmobile"
   version="1.1"
   sodipodi:docname="snowmobile.svg"
   inkscape:version="1.0.2 (e86c8708, 2021-01-15)">
  <metadata
     id="metadata860">
    <rdf:RDF>
      <cc:Work
         rdf:about="">
        <dc:format>image/svg+xml</dc:format>
        <dc:type
           rdf:resource="http://purl.org/dc/dcmitype/StillImage" />
        <dc:title></dc:title>
      </cc:Work>
    </rdf:RDF>
  </metadata>
  <defs
     id="defs858" />
  <sodipodi:namedview
     pagecolor="#ffffff"
     bordercolor="#666666"
     borderopacity="1"
     objecttolerance="10"
     gridtolerance="10"
     guidetolerance="10"
     inkscape:pageopacity="0"
     inkscape:pageshadow="2"
     inkscape:window-width="993"
     inkscape:window-height="654"
     id="namedview856"
     showgrid="false"
     inkscape:zoom="36.733333"
     inkscape:cx="9.7500115"
     inkscape:cy="7.4499458"
     inkscape:window-x="394"
     inkscape:window-y="115"
     inkscape:window-maximized="0"
     inkscape:current-layer="snowmobile" />
  <g
     id="g853"
     transform="matrix(1.1,0,0,1.1,1.5000018,-0.70005422)"
     style="fill:#725a50;fill-opacity:1;stroke:#ffffff;stroke-width:2.72727;stroke-linecap:round;stroke-miterlimit:4;stroke-dasharray:none;stroke-opacity:1;paint-order:stroke fill markers">
    <path
       d="m 15,10 c 0,0.2652 -0.1054,0.5196 -0.2929,0.7071 C 14.5196,10.8946 14.2652,11 14,11 H 9.41418 C 9.14896,11 8.89461,10.8946 8.70708,10.7071 L 7.14598,9.146 C 7.09969,9.09971 7.04474,9.06299 6.98425,9.03793 6.92377,9.01288 6.85895,8.99999 6.79348,9 H 3.33428 C 3.11736,8.99999 2.90629,8.9296 2.73278,8.7994 L 1.38568,7.7888 C 1.26635,7.69466 1.16973,7.57489 1.10296,7.43834 1.0362,7.3018 1.001,7.15199 0.99998,7 1.00035,6.83074 1.04388,6.66437 1.12645,6.51662 1.20902,6.36886 1.32791,6.24461 1.47188,6.1556 L 4.99998,4 6.03848,2.3076 C 6.08296,2.20092 6.16302,2.11294 6.26504,2.05864 6.36707,2.00433 6.48475,1.98704 6.59809,2.00972 6.71142,2.0324 6.8134,2.09364 6.88667,2.18303 6.95994,2.27241 6.99998,2.38442 6.99998,2.5 V 6 l 1,1 h 1 L 14.4115,6.0078 c 0.1142,-0.02062 0.232,-8.7e-4 0.3333,0.05587 0.1012,0.05673 0.1795,0.14692 0.2216,0.2551 0.042,0.10818 0.0451,0.22761 0.0087,0.33781 C 14.9387,6.76679 14.8652,6.86091 14.767,6.9228 L 13,8 14.6313,9.2243 c 0.1157,0.09331 0.209,0.2115 0.2728,0.34579 C 14.968,9.70438 15.0007,9.85132 15,10 Z m -9.50002,0 h -2.2753 c -0.50324,-6e-5 -0.9984,-0.12656 -1.44,-0.3679 L 0.73998,9.0612 C 0.623617,8.99755 0.486733,8.98273 0.359443,9.02 0.232153,9.05728 0.124882,9.14359 0.0612304,9.25995 -0.00242154,9.37631 -0.0172412,9.5132 0.0200317,9.64049 0.0573045,9.76778 0.143617,9.87505 0.25998,9.9387 l 1.2687,0.6934 C 1.97036,10.8735 2.46564,11 2.96898,11 h 2.531 C 5.63259,11 5.75977,10.9473 5.85353,10.8536 5.9473,10.7598 5.99998,10.6326 5.99998,10.5 5.99998,10.3674 5.9473,10.2402 5.85353,10.1464 5.75977,10.0527 5.63259,10 5.49998,10 Z"
       id="path851"
       style="fill:#725a50;fill-opacity:1;stroke:#ffffff;stroke-width:2.72727;stroke-linecap:round;stroke-miterlimit:4;stroke-dasharray:none;stroke-opacity:1;paint-order:stroke fill markers" />
  </g>
</svg>
