<?xml version="1.0" encoding="UTF-8" standalone="no"?>
<svg
   xmlns:dc="http://purl.org/dc/elements/1.1/"
   xmlns:cc="http://creativecommons.org/ns#"
   xmlns:rdf="http://www.w3.org/1999/02/22-rdf-syntax-ns#"
   xmlns:svg="http://www.w3.org/2000/svg"
   xmlns="http://www.w3.org/2000/svg"
   xmlns:sodipodi="http://sodipodi.sourceforge.net/DTD/sodipodi-0.dtd"
   xmlns:inkscape="http://www.inkscape.org/namespaces/inkscape"
   version="1.1"
   id="soccer"
   width="15.956636"
   height="19.619659"
   viewBox="0 0 15.956636 19.619659"
   sodipodi:docname="soccer.svg"
   inkscape:version="1.0.2 (e86c8708, 2021-01-15)">
  <metadata
     id="metadata869">
    <rdf:RDF>
      <cc:Work
         rdf:about="">
        <dc:format>image/svg+xml</dc:format>
        <dc:type
           rdf:resource="http://purl.org/dc/dcmitype/StillImage" />
        <dc:title></dc:title>
      </cc:Work>
    </rdf:RDF>
  </metadata>
  <defs
     id="defs867" />
  <sodipodi:namedview
     pagecolor="#ffffff"
     bordercolor="#666666"
     borderopacity="1"
     objecttolerance="10"
     gridtolerance="10"
     guidetolerance="10"
     inkscape:pageopacity="0"
     inkscape:pageshadow="2"
     inkscape:window-width="1120"
     inkscape:window-height="708"
     id="namedview865"
     showgrid="false"
     inkscape:zoom="36.733333"
     inkscape:cx="6.5088977"
     inkscape:cy="9.7554995"
     inkscape:window-x="0"
     inkscape:window-y="25"
     inkscape:window-maximized="0"
     inkscape:current-layer="soccer" />
  <path
     d="m 10.311316,3.15 c 0,0.91124 -0.7387603,1.65 -1.6500003,1.65 -0.91124,0 -1.65,-0.73876 -1.65,-1.65 0,-0.91124 0.73876,-1.65 1.65,-1.65 0.91124,0 1.6500003,0.73876 1.6500003,1.65 z m 0,10.45 c -0.6075303,0 -1.1000003,0.49247 -1.1000003,1.1 0,0.60753 0.49247,1.1 1.1000003,1.1 0.60753,0 1.1,-0.49247 1.1,-1.1 0,-0.60753 -0.49247,-1.1 -1.1,-1.1 z m 2.024,-5.401 -2.101,-2.101 v 0 C 10.135206,5.97425 9.9858257,5.90154 9.8273157,5.9 h -7.766 c -0.30371,0 -0.55,0.24629 -0.55,0.55 0,0.30371 0.24629,0.55 0.55,0.55 h 2.97 l -3.52,6.93 v 0 c -0.01518,0.0726 -0.01518,0.1474 0,0.22 -0.0638,0.30371 0.13079,0.6017 0.4345,0.6655 0.30371,0.0638 0.6017,-0.13079 0.6655,-0.4345 v 0 l 1.1,-1.881 h 2.2 l -2.123,4.664 v 0 c -0.05192,0.08624 -0.07854,0.18535 -0.077,0.286 -0.06072,0.30371 0.13629,0.59928 0.44,0.66 0.30371,0.06072 0.59928,-0.13629 0.66,-0.44 v 0 l 5.17,-10.318 1.5840003,1.628 c 0.2321,0.19602 0.57904,0.16676 0.77506,-0.06523 0.17501,-0.20724 0.17292,-0.51106 -0.0051,-0.71577 z"
     id="path862"
     style="fill:#725a50;fill-opacity:1;stroke:#ffffff;stroke-width:3;stroke-linecap:round;stroke-miterlimit:4;stroke-dasharray:none;stroke-opacity:1;paint-order:stroke fill markers" />
</svg>
