<?xml version="1.0" encoding="UTF-8" standalone="no"?>
<svg
   xmlns:dc="http://purl.org/dc/elements/1.1/"
   xmlns:cc="http://creativecommons.org/ns#"
   xmlns:rdf="http://www.w3.org/1999/02/22-rdf-syntax-ns#"
   xmlns:svg="http://www.w3.org/2000/svg"
   xmlns="http://www.w3.org/2000/svg"
   xmlns:sodipodi="http://sodipodi.sourceforge.net/DTD/sodipodi-0.dtd"
   xmlns:inkscape="http://www.inkscape.org/namespaces/inkscape"
   version="1.1"
   id="stadium"
   width="15.142339"
   height="17.543524"
   viewBox="0 0 15.142339 17.543524"
   sodipodi:docname="stadium.svg"
   inkscape:version="1.0.2 (e86c8708, 2021-01-15)">
  <metadata
     id="metadata877">
    <rdf:RDF>
      <cc:Work
         rdf:about="">
        <dc:format>image/svg+xml</dc:format>
        <dc:type
           rdf:resource="http://purl.org/dc/dcmitype/StillImage" />
        <dc:title></dc:title>
      </cc:Work>
    </rdf:RDF>
  </metadata>
  <defs
     id="defs875" />
  <sodipodi:namedview
     pagecolor="#ffffff"
     bordercolor="#666666"
     borderopacity="1"
     objecttolerance="10"
     gridtolerance="10"
     guidetolerance="10"
     inkscape:pageopacity="0"
     inkscape:pageshadow="2"
     inkscape:window-width="1108"
     inkscape:window-height="716"
     id="namedview873"
     showgrid="false"
     inkscape:zoom="36.733333"
     inkscape:cx="7.55"
     inkscape:cy="9.4185234"
     inkscape:window-x="0"
     inkscape:window-y="25"
     inkscape:window-maximized="0"
     inkscape:current-layer="stadium" />
  <path
     id="path4177"
     d="m 7,2.2935234 v 2.2 1.65 0.56078 c -3.11355,0.10329 -5.49769,1.05237 -5.5,2.18922 v 4.9499996 c 0,1.21506 2.70864,2.2 6.05,2.2 3.34136,0 6.05,-0.98494 6.05,-2.2 V 8.8935234 c -0.0023,-1.13685 -2.38645,-2.08593 -5.5,-2.18922 v -1.04203 l 3.3,-1.44375 z M 2.6,10.154673 c 0.56628,0.29381 1.32154,0.53273 2.2,0.69608 v 3.26348 c -1.32572,-0.29601 -2.2,-0.79882 -2.2,-1.37071 z m 9.9,0.0021 v 2.58676 c 0,0.57189 -0.87428,1.0747 -2.2,1.37071 v -3.26139 c 0.87846,-0.16324 1.63372,-0.40227 2.2,-0.69608 z m -6.6,0.85085 c 0.53647,0.05621 1.09175,0.08503 1.65,0.08591 0.55803,-1.1e-4 1.11331,-0.02827 1.65,-0.08382 v 3.28284 c -0.51843,0.06138 -1.06832,0.10098 -1.65,0.10098 -0.58168,0 -1.13157,-0.0396 -1.65,-0.10098 z"
     style="fill:#725a50;fill-opacity:1;stroke:#ffffff;stroke-width:3;stroke-linecap:round;stroke-miterlimit:4;stroke-dasharray:none;stroke-opacity:1;paint-order:stroke fill markers" />
</svg>
