<?xml version="1.0" encoding="UTF-8" standalone="no"?>
<svg
   xmlns:dc="http://purl.org/dc/elements/1.1/"
   xmlns:cc="http://creativecommons.org/ns#"
   xmlns:rdf="http://www.w3.org/1999/02/22-rdf-syntax-ns#"
   xmlns:svg="http://www.w3.org/2000/svg"
   xmlns="http://www.w3.org/2000/svg"
   xmlns:sodipodi="http://sodipodi.sourceforge.net/DTD/sodipodi-0.dtd"
   xmlns:inkscape="http://www.inkscape.org/namespaces/inkscape"
   width="16.037985"
   height="16.092983"
   viewBox="0 0 16.037985 16.092983"
   id="telephone"
   version="1.1"
   sodipodi:docname="telephone.svg"
   inkscape:version="1.0.2 (e86c8708, 2021-01-15)">
  <metadata
     id="metadata894">
    <rdf:RDF>
      <cc:Work
         rdf:about="">
        <dc:format>image/svg+xml</dc:format>
        <dc:type
           rdf:resource="http://purl.org/dc/dcmitype/StillImage" />
        <dc:title></dc:title>
      </cc:Work>
    </rdf:RDF>
  </metadata>
  <defs
     id="defs892" />
  <sodipodi:namedview
     pagecolor="#ffffff"
     bordercolor="#666666"
     borderopacity="1"
     objecttolerance="10"
     gridtolerance="10"
     guidetolerance="10"
     inkscape:pageopacity="0"
     inkscape:pageshadow="2"
     inkscape:window-width="1110"
     inkscape:window-height="710"
     id="namedview890"
     showgrid="false"
     inkscape:zoom="36.733333"
     inkscape:cx="7.5930626"
     inkscape:cy="7.5955626"
     inkscape:window-x="0"
     inkscape:window-y="25"
     inkscape:window-maximized="0"
     inkscape:current-layer="telephone" />
  <path
     d="m 4.261,9.068 a 0.561,0.561 0 0 0 0,0.792 L 5.053,10.652 2.677,13.05 2.27,12.643 A 2.464,2.464 0 0 1 1.5,11.059 V 9.464 A 2.464,2.464 0 0 1 2.27,7.869 L 7.847,2.292 A 2.464,2.464 0 0 1 9.442,1.5 h 1.595 a 2.464,2.464 0 0 1 1.595,0.792 L 13.028,2.688 10.641,5.086 9.838,4.283 a 0.561,0.561 0 0 0 -0.792,0 z M 3.843,14.26 a 1.1,1.1 0 0 0 1.55507,0.03993 Q 5.41853,14.28046 5.438,14.26 L 6.23,13.468 A 1.1,1.1 0 0 0 6.26993,11.91293 Q 6.25046,11.89247 6.23,11.873 Z m 7.975,-8.008 a 1.1,1.1 0 0 0 1.55507,0.03993 C 13.38671,6.27895 14.205,5.46 14.205,5.46 A 1.1,1.1 0 0 0 14.24493,3.90493 Q 14.22546,3.88447 14.205,3.865 Z"
     id="path887"
     style="fill:#725a50;fill-opacity:1;stroke:#ffffff;stroke-width:3;stroke-linecap:round;stroke-miterlimit:4;stroke-dasharray:none;stroke-opacity:1;paint-order:stroke fill markers" />
</svg>
