<?xml version="1.0" encoding="UTF-8" standalone="no"?>
<svg
   xmlns:dc="http://purl.org/dc/elements/1.1/"
   xmlns:cc="http://creativecommons.org/ns#"
   xmlns:rdf="http://www.w3.org/1999/02/22-rdf-syntax-ns#"
   xmlns:svg="http://www.w3.org/2000/svg"
   xmlns="http://www.w3.org/2000/svg"
   xmlns:sodipodi="http://sodipodi.sourceforge.net/DTD/sodipodi-0.dtd"
   xmlns:inkscape="http://www.inkscape.org/namespaces/inkscape"
   id="tennis"
   width="17.215689"
   height="17.194178"
   viewBox="0 0 17.215689 17.194178"
   version="1.1"
   sodipodi:docname="tennis.svg"
   inkscape:version="1.0.2 (e86c8708, 2021-01-15)">
  <metadata
     id="metadata1008">
    <rdf:RDF>
      <cc:Work
         rdf:about="">
        <dc:format>image/svg+xml</dc:format>
        <dc:type
           rdf:resource="http://purl.org/dc/dcmitype/StillImage" />
        <dc:title></dc:title>
      </cc:Work>
    </rdf:RDF>
  </metadata>
  <defs
     id="defs1006" />
  <sodipodi:namedview
     pagecolor="#ffffff"
     bordercolor="#666666"
     borderopacity="1"
     objecttolerance="10"
     gridtolerance="10"
     guidetolerance="10"
     inkscape:pageopacity="0"
     inkscape:pageshadow="2"
     inkscape:window-width="1145"
     inkscape:window-height="719"
     id="namedview1004"
     showgrid="false"
     inkscape:zoom="36.733333"
     inkscape:cx="8.6015105"
     inkscape:cy="8.5986899"
     inkscape:window-x="0"
     inkscape:window-y="25"
     inkscape:window-maximized="0"
     inkscape:current-layer="tennis" />
  <path
     d="m 14.792434,2.4056011 c -1.69598,-1.69465999 -5.0088508,-0.85349 -6.9080008,1.155 a 7.51102,7.51102 0 0 0 -2.068,4.84 6.30025,6.30025 0 0 1 -0.627,2.9919999 0.74954,0.74954 0 0 0 -0.737,0.187 l -2.739,2.75 a 0.76351,0.76351 0 0 0 0,1.078 l 0.077,0.077 a 0.77561,0.77561 0 0 0 1.078,0 l 2.75,-2.739 a 0.7513,0.7513 0 0 0 0.198,-0.726 9.42634,9.42634 0 0 1 3.432,-0.638 7.20357,7.20357 0 0 0 4.3890008,-2.0569999 c 2.233,-2.233 2.75066,-5.32466 1.155,-6.919 z m -2.42,-0.044 a 2.53781,2.53781 0 0 1 1.804,0.671 2.8028,2.8028 0 0 1 0.55,2.684 l -3.245,-3.256 a 4.25128,4.25128 0 0 1 0.891,-0.099 z m -5.0270008,7.491 a 2.91335,2.91335 0 0 1 -0.528,-2.805 L 10.161433,10.391601 A 3.13742,3.13742 0 0 1 7.3454332,9.8526011 Z M 10.513433,10.281601 6.9274332,6.6846011 a 5.67853,5.67853 0 0 1 0.539,-1.188 l 4.2350008,4.235 a 6.06023,6.06023 0 0 1 -1.188001,0.5499999 z m 1.474001,-0.7259999 -4.3340008,-4.345 a 5.72352,5.72352 0 0 1 0.814,-0.99 l 4.5100008,4.51 a 6.25559,6.25559 0 0 1 -0.99,0.825 z m 1.221,-1.056 -4.5100008,-4.51 a 6.12854,6.12854 0 0 1 0.924,-0.715 l 4.3120008,4.312 a 6.29057,6.29057 0 0 1 -0.726,0.913 z m 0.902,-1.199 -4.1910008,-4.202 a 4.58777,4.58777 0 0 1 1.1990008,-0.528 l 3.52,3.52 a 6.12216,6.12216 0 0 1 -0.528,1.21 z"
     id="path1001"
     style="fill:#725a50;fill-opacity:1;stroke:#ffffff;stroke-width:3;stroke-linecap:round;stroke-miterlimit:4;stroke-dasharray:none;stroke-opacity:1;paint-order:stroke fill markers" />
</svg>
