<?xml version="1.0" encoding="UTF-8" standalone="no"?>
<svg
   xmlns:dc="http://purl.org/dc/elements/1.1/"
   xmlns:cc="http://creativecommons.org/ns#"
   xmlns:rdf="http://www.w3.org/1999/02/22-rdf-syntax-ns#"
   xmlns:svg="http://www.w3.org/2000/svg"
   xmlns="http://www.w3.org/2000/svg"
   xmlns:sodipodi="http://sodipodi.sourceforge.net/DTD/sodipodi-0.dtd"
   xmlns:inkscape="http://www.inkscape.org/namespaces/inkscape"
   version="1.1"
   id="theatre"
   width="15"
   height="15"
   viewBox="0 0 15 15"
   sodipodi:docname="theatre.svg"
   inkscape:version="1.0.2 (e86c8708, 2021-01-15)">
  <metadata
     id="metadata902">
    <rdf:RDF>
      <cc:Work
         rdf:about="">
        <dc:format>image/svg+xml</dc:format>
        <dc:type
           rdf:resource="http://purl.org/dc/dcmitype/StillImage" />
        <dc:title></dc:title>
      </cc:Work>
    </rdf:RDF>
  </metadata>
  <defs
     id="defs900" />
  <sodipodi:namedview
     pagecolor="#ffffff"
     bordercolor="#666666"
     borderopacity="1"
     objecttolerance="10"
     gridtolerance="10"
     guidetolerance="10"
     inkscape:pageopacity="0"
     inkscape:pageshadow="2"
     inkscape:window-width="1078"
     inkscape:window-height="716"
     id="namedview898"
     showgrid="false"
     inkscape:zoom="36.733333"
     inkscape:cx="7.5"
     inkscape:cy="7.5"
     inkscape:window-x="0"
     inkscape:window-y="25"
     inkscape:window-maximized="0"
     inkscape:current-layer="theatre" />
  <path
     id="path6342-3"
     d="m 1.45,0.35 c 0,0 -1.1,0 -1.1,1.1 V 7.12402 C 0.35,9.02735 0.7394,11.35 4.2,11.35 H 4.75 V 8.05 L 2,9.15 C 2,9.15 2,6.4 4.75,6.4 V 4.75 C 4.75,3.97142 4.84548,3.29701 5.3,2.79706 5.71965,2.3355 6.40506,1.41414 8.22182,2.27929 L 9.15,2.88297 V 1.45 c 0,0 0,-1.1 -1.1,-1.1 -0.77858,0 -2.17536,1.1 -3.3,1.1 -1.12464,0 -2.43485,-1.1 -3.3,-1.1 z m 1.1,2.2 c 0.60753,0 1.1,0.49247 1.1,1.1 0,0.60753 -0.49247,1.1 -1.1,1.1 -0.60753,0 -1.1,-0.49247 -1.1,-1.1 0,-0.60753 0.49247,-1.1 1.1,-1.1 z m 4.4,1.1 c 0,0 -1.1,0 -1.1,1.1 v 5.5 c 0,2.2 1.1,4.4 4.4,4.4 3.3,0 4.4,-2.2 4.4,-4.4 v -5.5 c 0,-1.1 -1.1,-1.1 -1.1,-1.1 -0.77858,0 -2.17536,1.1 -3.3,1.1 -1.12464,0 -2.43485,-1.1 -3.3,-1.1 z m 1.1,2.2 c 0.60753,0 1.1,0.49247 1.1,1.1 0,0.60753 -0.49247,1.1 -1.1,1.1 -0.60753,0 -1.1,-0.49247 -1.1,-1.1 0,-0.60753 0.49247,-1.1 1.1,-1.1 z m 4.4,0 c 0.60753,0 1.1,0.49247 1.1,1.1 0,0.60753 -0.49247,1.1 -1.1,1.1 -0.60753,0 -1.1,-0.49247 -1.1,-1.1 0,-0.60753 0.49247,-1.1 1.1,-1.1 z M 7.5,10.25 H 10.25 13 C 13,10.25 13,13 10.25,13 7.5,13 7.5,10.25 7.5,10.25 Z"
     style="stroke-width:3;fill:#725a50;fill-opacity:1;stroke:#ffffff;stroke-opacity:1;stroke-miterlimit:4;stroke-dasharray:none;stroke-linecap:round;paint-order:stroke fill markers" />
</svg>
