<?xml version="1.0" encoding="UTF-8" standalone="no"?>
<svg
   xmlns:dc="http://purl.org/dc/elements/1.1/"
   xmlns:cc="http://creativecommons.org/ns#"
   xmlns:rdf="http://www.w3.org/1999/02/22-rdf-syntax-ns#"
   xmlns:svg="http://www.w3.org/2000/svg"
   xmlns="http://www.w3.org/2000/svg"
   xmlns:sodipodi="http://sodipodi.sourceforge.net/DTD/sodipodi-0.dtd"
   xmlns:inkscape="http://www.inkscape.org/namespaces/inkscape"
   viewBox="0 0 19.556673 19.5"
   height="19.5"
   width="19.556673"
   version="1.1"
   id="svg48269"
   sodipodi:docname="toilets.svg"
   inkscape:version="1.0.2 (e86c8708, 2021-01-15)">
  <metadata
     id="metadata48275">
    <rdf:RDF>
      <cc:Work
         rdf:about="">
        <dc:format>image/svg+xml</dc:format>
        <dc:type
           rdf:resource="http://purl.org/dc/dcmitype/StillImage" />
        <dc:title>toilet_15.svg</dc:title>
      </cc:Work>
    </rdf:RDF>
  </metadata>
  <defs
     id="defs48273" />
  <sodipodi:namedview
     pagecolor="#ffffff"
     bordercolor="#666666"
     borderopacity="1"
     objecttolerance="10"
     gridtolerance="10"
     guidetolerance="10"
     inkscape:pageopacity="0"
     inkscape:pageshadow="2"
     inkscape:window-width="1179"
     inkscape:window-height="714"
     id="namedview48271"
     showgrid="false"
     inkscape:zoom="26.428571"
     inkscape:cx="8.0820801"
     inkscape:cy="9.75"
     inkscape:window-x="0"
     inkscape:window-y="25"
     inkscape:window-maximized="0"
     inkscape:current-layer="svg48269" />
  <title
     id="title48259">toilet_15.svg</title>
  <rect
     fill="none"
     x="-0.69629824"
     y="-0.75"
     width="21"
     height="21"
     id="rect48261" />
  <path
     fill="#725a50"
     d="m 6.5066743,4.8 c -0.91124,0 -1.65,-0.73876 -1.65,-1.65 0,-0.91124 0.73876,-1.65 1.65,-1.65 0.91124,0 1.65,0.73876 1.65,1.65 0,0.91124 -0.73876,1.65 -1.65,1.65 z M 16.956674,3.15 c 0,-0.91124 -0.73876,-1.65 -1.65,-1.65 -0.91124,0 -1.65,0.73876 -1.65,1.65 0,0.91124 0.73876,1.65 1.65,1.65 0.91124,0 1.65,-0.73876 1.65,-1.65 z m -5.654,5.654 v 0 L 8.5746743,6.065 v 0 c -0.11022,-0.11088 -0.2618,-0.17061 -0.418,-0.165 h -3.3 c -0.14333,3.3e-4 -0.28105,0.05533 -0.385,0.154 v 0 l -2.761,2.739 c -0.24871,0.1947 -0.29249,0.55429 -0.09779,0.803 0.1947,0.24871 0.55429,0.29249 0.803,0.09779 0.03641,-0.02849 0.0693,-0.06138 0.09779,-0.09779 l 2.343,-2.376 -2.2,6.38 h 2.2 v 3.663 c -0.00825,0.05467 -0.00825,0.11033 0,0.165 0.06105,0.30371 0.35684,0.5005 0.66055,0.43945 0.22165,-0.04455 0.3949,-0.2178 0.43945,-0.43945 v 0 -3.828 h 1.1 v 3.85 0 c 0.06105,0.30371 0.35684,0.5005 0.66055,0.43945 0.22165,-0.04455 0.3949,-0.2178 0.43945,-0.43945 0.00825,-0.05467 0.00825,-0.11033 0,-0.165 V 13.6 H 10.356674 L 8.1566743,7.22 10.510674,9.596 v 0 c 0.10637,0.11891 0.25839,0.187 0.418,0.187 0.30294,-0.02332 0.53471,-0.27929 0.528,-0.583 0.0025,-0.14707 -0.05269,-0.2893 -0.154,-0.396 z m 6.204,-2.904 h -4.4 c -0.30371,0 -0.55,0.24629 -0.55,0.55 v 5.5 c 0,0.30371 0.24629,0.55 0.55,0.55 0.30371,0 0.55,-0.24629 0.55,-0.55 v 5.5 c 0,0.30371 0.24629,0.55 0.55,0.55 0.30371,0 0.55,-0.24629 0.55,-0.55 v -5.5 h 1.1 v 5.5 c 0,0.30371 0.24629,0.55 0.55,0.55 0.30371,0 0.55,-0.24629 0.55,-0.55 v -5.5 c 0,0.30371 0.24629,0.55 0.55,0.55 0.30371,0 0.55,-0.24629 0.55,-0.55 v -5.5 c 0,-0.30371 -0.24629,-0.55 -0.55,-0.55 z"
     id="path48267"
     style="stroke:#ffffff;stroke-width:3;stroke-linecap:round;stroke-miterlimit:4;stroke-dasharray:none;stroke-opacity:1;paint-order:stroke fill markers" />
</svg>
