<?xml version="1.0" encoding="UTF-8" standalone="no"?>
<svg
   xmlns:dc="http://purl.org/dc/elements/1.1/"
   xmlns:cc="http://creativecommons.org/ns#"
   xmlns:rdf="http://www.w3.org/1999/02/22-rdf-syntax-ns#"
   xmlns:svg="http://www.w3.org/2000/svg"
   xmlns="http://www.w3.org/2000/svg"
   xmlns:sodipodi="http://sodipodi.sourceforge.net/DTD/sodipodi-0.dtd"
   xmlns:inkscape="http://www.inkscape.org/namespaces/inkscape"
   version="1.1"
   id="toll-booth"
   width="17.289022"
   height="17.299999"
   viewBox="0 0 17.289022 17.299999"
   sodipodi:docname="toll_booth.svg"
   inkscape:version="1.0.2 (e86c8708, 2021-01-15)">
  <metadata
     id="metadata911">
    <rdf:RDF>
      <cc:Work
         rdf:about="">
        <dc:format>image/svg+xml</dc:format>
        <dc:type
           rdf:resource="http://purl.org/dc/dcmitype/StillImage" />
        <dc:title></dc:title>
      </cc:Work>
    </rdf:RDF>
  </metadata>
  <defs
     id="defs909" />
  <sodipodi:namedview
     pagecolor="#ffffff"
     bordercolor="#666666"
     borderopacity="1"
     objecttolerance="10"
     gridtolerance="10"
     guidetolerance="10"
     inkscape:pageopacity="0"
     inkscape:pageshadow="2"
     inkscape:window-width="1083"
     inkscape:window-height="745"
     id="namedview907"
     showgrid="false"
     inkscape:zoom="36.733333"
     inkscape:cx="8.6498658"
     inkscape:cy="8.65"
     inkscape:window-x="0"
     inkscape:window-y="25"
     inkscape:window-maximized="0"
     inkscape:current-layer="toll-booth" />
  <path
     d="M 3.15,1.5 C 2.846246,1.5 2.6,1.746246 2.6,2.05 V 2.6 14.7 H 2.05 c -0.303754,0 -0.55,0.24629 -0.55,0.55 0,0.30371 0.246246,0.55 0.55,0.55 h 7.7 c 0.303754,0 0.55,-0.24629 0.55,-0.55 0,-0.30371 -0.246246,-0.55 -0.55,-0.55 H 8.1 V 11.50857 L 15.55371,6.500336 C 15.80583,6.330925 15.87293,5.989199 15.70353,5.737079 L 15.39674,5.280557 C 15.22734,5.028426 14.88568,4.96137 14.63356,5.13077 L 8.1,9.520672 V 2.6 H 8.65 C 8.953754,2.6 9.2,2.353754 9.2,2.05 9.2,1.746246 8.953754,1.5 8.65,1.5 Z M 3.7,4.25 C 3.7,3.946246 3.946246,3.7 4.25,3.7 h 2.2 C 6.753754,3.7 7,3.946246 7,4.25 v 4.4 C 7,8.953754 6.753754,9.2 6.45,9.2 H 4.25 C 3.946246,9.2 3.7,8.953754 3.7,8.65 Z"
     id="path904"
     style="fill:#725a50;fill-opacity:1;stroke:#ffffff;stroke-width:3;stroke-linecap:round;stroke-miterlimit:4;stroke-dasharray:none;stroke-opacity:1;paint-order:stroke fill markers" />
</svg>
