<?xml version="1.0" encoding="UTF-8" standalone="no"?>
<svg
   xmlns:dc="http://purl.org/dc/elements/1.1/"
   xmlns:cc="http://creativecommons.org/ns#"
   xmlns:rdf="http://www.w3.org/1999/02/22-rdf-syntax-ns#"
   xmlns:svg="http://www.w3.org/2000/svg"
   xmlns="http://www.w3.org/2000/svg"
   xmlns:sodipodi="http://sodipodi.sourceforge.net/DTD/sodipodi-0.dtd"
   xmlns:inkscape="http://www.inkscape.org/namespaces/inkscape"
   viewBox="0 0 15.994802 21.600519"
   height="21.600519"
   width="15.994802"
   version="1.1"
   id="svg8803"
   sodipodi:docname="tramway.svg"
   inkscape:version="1.0.2 (e86c8708, 2021-01-15)">
  <metadata
     id="metadata8809">
    <rdf:RDF>
      <cc:Work
         rdf:about="">
        <dc:format>image/svg+xml</dc:format>
        <dc:type
           rdf:resource="http://purl.org/dc/dcmitype/StillImage" />
        <dc:title>rail_light_15.svg</dc:title>
      </cc:Work>
    </rdf:RDF>
  </metadata>
  <defs
     id="defs8807" />
  <sodipodi:namedview
     pagecolor="#ffffff"
     bordercolor="#666666"
     borderopacity="1"
     objecttolerance="10"
     gridtolerance="10"
     guidetolerance="10"
     inkscape:pageopacity="0"
     inkscape:pageshadow="2"
     inkscape:window-width="1106"
     inkscape:window-height="737"
     id="namedview8805"
     showgrid="false"
     inkscape:pagecheckerboard="true"
     inkscape:zoom="28.894737"
     inkscape:cx="4.9977504"
     inkscape:cy="5.6289833"
     inkscape:window-x="0"
     inkscape:window-y="25"
     inkscape:window-maximized="0"
     inkscape:current-layer="svg8803"
     inkscape:document-rotation="0" />
  <title
     id="title8795">rail_light_15.svg</title>
  <rect
     fill="none"
     x="-1.5025992"
     y="1.3004769"
     width="19"
     height="19"
     id="rect8797" />
  <path
     fill="#fff"
     d="m 5.5974008,1.8005203 c -0.6,0 -0.6,0.6000001 -0.6,0.6000001 v 1.2 c 0,0.3324 0.2676,0.6 0.6,0.6 0.3324,0 0.6,-0.2676 0.6,-0.6 v -0.6 h 1.2 v 2.4 h -1.2 c 0,0 -2.4,0 -2.4,2.4 V 11.40052 c 0,3.6 3.6,3.6 3.6,3.6 h 1.2 c 0,0 3.6000002,0 3.6000002,-3.6 V 7.8005204 c 0,-2.4 -2.4000002,-2.4 -2.4000002,-2.4 h -1.2 v -2.4 h 1.2 v 0.6 c 0,0.3324 0.2676002,0.6 0.6000002,0.6 0.3324,0 0.6,-0.2676 0.6,-0.6 v -1.2 c 0,-0.6000001 -0.6,-0.6000001 -0.6,-0.6000001 z m 2.4,4.8000001 2.4538802,0.92808 0.54612,2.07192 c 0.15792,0.5999996 -0.6,0.5999996 -0.6,0.5999996 H 5.5974008 c 0,0 -0.75792,0 -0.6,-0.5999996 l 0.54612,-2.07192 z m 0,4.7999996 c 0.33132,0 0.6,0.26868 0.6,0.6 0,0.33132 -0.26868,0.6 -0.6,0.6 -0.33132,0 -0.6,-0.26868 -0.6,-0.6 0,-0.33132 0.26868,-0.6 0.6,-0.6 z m -4.05,4.8 -1.35,3.6 h 1.8 l 0.45,-1.2 h 6.3000002 l 0.45,1.2 h 1.8 l -1.35,-3.6 h -1.8 l 0.45,1.2 H 5.2974008 l 0.45,-1.2 z"
     id="path8801"
     style="fill:#4898ff;fill-opacity:1;stroke:#ffffff;stroke-width:3.6;stroke-linecap:round;stroke-miterlimit:4;stroke-dasharray:none;stroke-opacity:1;paint-order:stroke fill markers" />
</svg>
