<?xml version="1.0" encoding="UTF-8" standalone="no"?>
<svg
   xmlns:dc="http://purl.org/dc/elements/1.1/"
   xmlns:cc="http://creativecommons.org/ns#"
   xmlns:rdf="http://www.w3.org/1999/02/22-rdf-syntax-ns#"
   xmlns:svg="http://www.w3.org/2000/svg"
   xmlns="http://www.w3.org/2000/svg"
   xmlns:sodipodi="http://sodipodi.sourceforge.net/DTD/sodipodi-0.dtd"
   xmlns:inkscape="http://www.inkscape.org/namespaces/inkscape"
   version="1.1"
   id="volcano"
   width="15.100825"
   height="16.200232"
   viewBox="0 0 15.100825 16.200232"
   sodipodi:docname="volcano.svg"
   inkscape:version="1.0.2 (e86c8708, 2021-01-15)">
  <metadata
     id="metadata928">
    <rdf:RDF>
      <cc:Work
         rdf:about="">
        <dc:format>image/svg+xml</dc:format>
        <dc:type
           rdf:resource="http://purl.org/dc/dcmitype/StillImage" />
        <dc:title></dc:title>
      </cc:Work>
    </rdf:RDF>
  </metadata>
  <defs
     id="defs926" />
  <sodipodi:namedview
     pagecolor="#ffffff"
     bordercolor="#666666"
     borderopacity="1"
     objecttolerance="10"
     gridtolerance="10"
     guidetolerance="10"
     inkscape:pageopacity="0"
     inkscape:pageshadow="2"
     inkscape:window-width="1048"
     inkscape:window-height="716"
     id="namedview924"
     showgrid="false"
     inkscape:zoom="36.733333"
     inkscape:cx="7.5508254"
     inkscape:cy="8.6000187"
     inkscape:window-x="0"
     inkscape:window-y="25"
     inkscape:window-maximized="0"
     inkscape:current-layer="volcano" />
  <path
     id="path6447"
     d="m 8.6336654,1.5002308 c -0.16104,0.0055 -0.31185,0.08041 -0.4125,0.20625 l -1.82622,2.28162 -1.76594,-1.67574 c -0.47949,-0.44121 -1.19229,0.16995 -0.82929,0.71115 l 1.8326,2.64044 c 0.21043,0.30316 0.65384,0.31713 0.88297,0.02794 0.18293,-0.23089 0.48554,-0.74558 1.03554,-0.74558 0.55,0 0.87219,0.53977 1.03554,0.74547 0.1925,0.24244 0.54703,0.27841 0.78419,0.07953 l 1.8347996,-1.54044 c 0.48488,-0.41151 6.6e-4,-1.18085 -0.58003,-0.92169 l -1.4244996,0.64031 v -1.89926 c 2.2e-4,-0.31053 -0.25674,-0.55957 -0.56716,-0.55 z m -3.83284,5.5 -3.21618,6.5161802 c -0.08459,0.08459 -0.08382,0.2541 -0.08382,0.42328 0,0.59235 0.42207,0.76054 0.76054,0.76054 H 12.840285 c 0.42306,0 0.76054,-0.1683 0.76054,-0.76054 0,-0.16918 8.8e-4,-0.25399 -0.08382,-0.42328 l -3.21618,-6.5161802 c -0.5499996,0 -1.0999996,0.55 -1.0999996,1.1 v 0.55 c 0,0.3047 -0.2453,0.55 -0.55,0.55 -0.3047,0 -0.55,-0.2453 -0.55,-0.55 v -0.55 c 0,-0.30371 -0.24618,-0.55 -0.55,-0.55 -0.30382,0 -0.55,0.24629 -0.55,0.55 v 2.2000002 c 0,0.3047 -0.2453,0.55 -0.55,0.55 -0.3047,0 -0.55,-0.2453 -0.55,-0.55 V 8.1002308 c 0,-0.55 -0.55,-1.1 -1.1,-1.1 z"
     style="fill:#725a50;fill-opacity:1;stroke:#ffffff;stroke-width:3;stroke-linecap:round;stroke-miterlimit:4;stroke-dasharray:none;stroke-opacity:1;paint-order:stroke fill markers" />
</svg>
