<?xml version="1.0" encoding="UTF-8" standalone="no"?>
<svg
   xmlns:dc="http://purl.org/dc/elements/1.1/"
   xmlns:cc="http://creativecommons.org/ns#"
   xmlns:rdf="http://www.w3.org/1999/02/22-rdf-syntax-ns#"
   xmlns:svg="http://www.w3.org/2000/svg"
   xmlns="http://www.w3.org/2000/svg"
   xmlns:sodipodi="http://sodipodi.sourceforge.net/DTD/sodipodi-0.dtd"
   xmlns:inkscape="http://www.inkscape.org/namespaces/inkscape"
   version="1.1"
   id="waste-basket"
   width="12.9"
   height="14.691"
   viewBox="0 0 12.9 14.691"
   sodipodi:docname="waste_basket.svg"
   inkscape:version="1.0.2 (e86c8708, 2021-01-15)">
  <metadata
     id="metadata946">
    <rdf:RDF>
      <cc:Work
         rdf:about="">
        <dc:format>image/svg+xml</dc:format>
        <dc:type
           rdf:resource="http://purl.org/dc/dcmitype/StillImage" />
        <dc:title></dc:title>
      </cc:Work>
    </rdf:RDF>
  </metadata>
  <defs
     id="defs944" />
  <sodipodi:namedview
     pagecolor="#ffffff"
     bordercolor="#666666"
     borderopacity="1"
     objecttolerance="10"
     gridtolerance="10"
     guidetolerance="10"
     inkscape:pageopacity="0"
     inkscape:pageshadow="2"
     inkscape:window-width="1108"
     inkscape:window-height="769"
     id="namedview942"
     showgrid="false"
     inkscape:zoom="36.733333"
     inkscape:cx="6.45"
     inkscape:cy="7.3505"
     inkscape:window-x="-1"
     inkscape:window-y="25"
     inkscape:window-maximized="0"
     inkscape:current-layer="waste-basket" />
  <path
     d="m 10.869,5.622 -1.206,7.2 C 9.62403,13.03512 9.43863,13.19019 9.222,13.191 H 3.678 C 3.46137,13.19019 3.27597,13.03512 3.237,12.822 L 2.031,5.622 C 1.99122,5.37666 2.1579,5.14554 2.40315,5.10576 2.42592,5.10207 2.44896,5.10018 2.472,5.1 h 7.947 c 0.24849,-0.00324 0.45252,0.19566 0.45576,0.44415 3.6e-4,0.0261 -0.0016,0.05211 -0.0058,0.07785 z M 11.4,3.75 c 0,0.24849 -0.20151,0.45 -0.45,0.45 h -9 C 1.70151,4.2 1.5,3.99849 1.5,3.75 1.5,3.50151 1.70151,3.3 1.95,3.3 H 4.2 V 1.95 C 4.2,1.70151 4.40151,1.5 4.65,1.5 h 3.6 C 8.49849,1.5 8.7,1.70151 8.7,1.95 V 3.3 h 2.25 c 0.24849,0 0.45,0.20151 0.45,0.45 z M 7.8,3.3 V 2.4 H 5.1 v 0.9 z"
     id="path939"
     style="fill:#725a50;fill-opacity:1;stroke:#ffffff;stroke-width:3;stroke-linecap:round;stroke-miterlimit:4;stroke-dasharray:none;stroke-opacity:1;paint-order:stroke fill markers" />
</svg>
