<?xml version="1.0" encoding="UTF-8" standalone="no"?>
<svg
   xmlns:dc="http://purl.org/dc/elements/1.1/"
   xmlns:cc="http://creativecommons.org/ns#"
   xmlns:rdf="http://www.w3.org/1999/02/22-rdf-syntax-ns#"
   xmlns:svg="http://www.w3.org/2000/svg"
   xmlns="http://www.w3.org/2000/svg"
   xmlns:sodipodi="http://sodipodi.sourceforge.net/DTD/sodipodi-0.dtd"
   xmlns:inkscape="http://www.inkscape.org/namespaces/inkscape"
   width="13.964471"
   height="17.299999"
   viewBox="0 0 13.964471 17.299999"
   id="watch"
   version="1.1"
   sodipodi:docname="watch.svg"
   inkscape:version="1.0.2 (e86c8708, 2021-01-15)">
  <metadata
     id="metadata937">
    <rdf:RDF>
      <cc:Work
         rdf:about="">
        <dc:format>image/svg+xml</dc:format>
        <dc:type
           rdf:resource="http://purl.org/dc/dcmitype/StillImage" />
        <dc:title></dc:title>
      </cc:Work>
    </rdf:RDF>
  </metadata>
  <defs
     id="defs935" />
  <sodipodi:namedview
     pagecolor="#ffffff"
     bordercolor="#666666"
     borderopacity="1"
     objecttolerance="10"
     gridtolerance="10"
     guidetolerance="10"
     inkscape:pageopacity="0"
     inkscape:pageshadow="2"
     inkscape:window-width="1077"
     inkscape:window-height="741"
     id="namedview933"
     showgrid="false"
     inkscape:zoom="36.733333"
     inkscape:cx="6.4645949"
     inkscape:cy="8.65"
     inkscape:window-x="0"
     inkscape:window-y="25"
     inkscape:window-maximized="0"
     inkscape:current-layer="watch" />
  <path
     d="m 11.914471,8.1 h -0.55 A 0.4686,0.4686 0 0 0 11.310571,8.111 4.9324,4.9324 0 0 0 9.1644709,4.536 V 2.05 A 0.55,0.55 0 0 0 8.614471,1.5 h -4.4 a 0.55,0.55 0 0 0 -0.55,0.55 v 2.486 a 4.95,4.95 0 0 0 0,8.228 v 2.486 a 0.55,0.55 0 0 0 0.55,0.55 h 4.4 a 0.55,0.55 0 0 0 0.5499999,-0.55 v -2.486 a 4.9346,4.9346 0 0 0 2.1461001,-3.575 0.4686,0.4686 0 0 0 0.0539,0.011 h 0.55 a 0.55,0.55 0 0 0 0,-1.1 z m -5.5,4.4 a 3.85,3.85 0 1 1 3.85,-3.85 3.85,3.85 0 0 1 -3.85,3.85 z m 1.65,-4.4 h -1.1 V 6.45 a 0.55,0.55 0 0 0 -1.1,0 v 2.2 a 0.55,0.55 0 0 0 0.55,0.55 h 1.65 a 0.55,0.55 0 0 0 0,-1.1 z"
     id="path930"
     style="fill:#725a50;fill-opacity:1;stroke:#ffffff;stroke-width:3;stroke-linecap:round;stroke-miterlimit:4;stroke-dasharray:none;stroke-opacity:1;paint-order:stroke fill markers" />
</svg>
