<?xml version="1.0" encoding="UTF-8" standalone="no"?>
<svg
   xmlns:dc="http://purl.org/dc/elements/1.1/"
   xmlns:cc="http://creativecommons.org/ns#"
   xmlns:rdf="http://www.w3.org/1999/02/22-rdf-syntax-ns#"
   xmlns:svg="http://www.w3.org/2000/svg"
   xmlns="http://www.w3.org/2000/svg"
   xmlns:sodipodi="http://sodipodi.sourceforge.net/DTD/sodipodi-0.dtd"
   xmlns:inkscape="http://www.inkscape.org/namespaces/inkscape"
   id="waterfall"
   width="19.489439"
   height="18.400059"
   viewBox="0 0 19.489439 18.400059"
   version="1.1"
   sodipodi:docname="waterfall.svg"
   inkscape:version="1.0.2 (e86c8708, 2021-01-15)">
  <metadata
     id="metadata964">
    <rdf:RDF>
      <cc:Work
         rdf:about="">
        <dc:format>image/svg+xml</dc:format>
        <dc:type
           rdf:resource="http://purl.org/dc/dcmitype/StillImage" />
        <dc:title></dc:title>
      </cc:Work>
    </rdf:RDF>
  </metadata>
  <defs
     id="defs962" />
  <sodipodi:namedview
     pagecolor="#ffffff"
     bordercolor="#666666"
     borderopacity="1"
     objecttolerance="10"
     gridtolerance="10"
     guidetolerance="10"
     inkscape:pageopacity="0"
     inkscape:pageshadow="2"
     inkscape:window-width="1124"
     inkscape:window-height="746"
     id="namedview960"
     showgrid="false"
     inkscape:zoom="36.733333"
     inkscape:cx="9.8217788"
     inkscape:cy="9.2717462"
     inkscape:window-x="0"
     inkscape:window-y="25"
     inkscape:window-maximized="0"
     inkscape:current-layer="waterfall" />
  <path
     d="m 15.679439,3.7000583 h 2.31 v -2.2 H 6.9894391 c 0,0 -4.4,0 -4.4,4.4 v 6.0499997 0 c -1.21,0.88 -1.43,2.64 -0.55,3.85 0.88,1.21 2.64,1.43 3.85,0.55 1.1,0.88 2.75,0.66 3.74,-0.44 0.6599999,0.66 1.6499999,0.99 2.6399999,0.99 2.31,0 4.07,-1.76 4.18,-4.07 0,-1.76 -1.1,-3.2999997 -2.75,-3.8499997 v -3.08 c -0.11,-1.21 0.77,-2.2 1.98,-2.2 z m -3.19,5.5 v 0.55 c 1.65,0.11 2.86,1.6499997 2.75,3.2999997 -0.11,1.54 -1.43,2.75 -2.97,2.75 -1.21,0.11 -1.98,-0.66 -2.3099999,-1.1 h -0.88 c -0.11,0.22 -0.44,1.1 -1.54,1.1 -1.1,0 -1.43,-0.66 -1.54,-1.1 h -0.22 c -0.22,0.44 -0.55,0.88 -0.99,0.99 -0.99,0.33 -1.87,-0.22 -2.09,-1.1 -0.22,-0.88 0.22,-1.76 0.99,-1.98 V 7.0000583 c 0,-0.55 0.44,-1.1 1.1,-1.1 0,0 0,0 0,0 v 0 c 0.55,0 1.1,0.44 1.1,1.1 0,0 0,0 0,0 0,0 0,0 0,0 v 4.9499997 c 0,0.33 0.22,0.55 0.55,0.55 0.33,0 0.55,-0.22 0.55,-0.55 V 8.1000583 c 0,-0.66 0.44,-1.1 1.1,-1.1 0.66,0 1.1,0.44 1.1,1.1 v 3.8499997 c 0,0.33 0.22,0.55 0.55,0.55 0.3299999,0 0.5499999,-0.22 0.5499999,-0.55 V 7.0000583 c 0,-0.66 0.44,-1.1 1.1,-1.1 0.66,0 1.1,0.44 1.1,1.1 z"
     id="path957"
     style="fill:#725a50;fill-opacity:1;stroke:#ffffff;stroke-width:3;stroke-linecap:round;stroke-miterlimit:4;stroke-dasharray:none;stroke-opacity:1;paint-order:stroke fill markers" />
</svg>
