<?xml version="1.0" encoding="UTF-8" standalone="no"?>
<svg
   xmlns:dc="http://purl.org/dc/elements/1.1/"
   xmlns:cc="http://creativecommons.org/ns#"
   xmlns:rdf="http://www.w3.org/1999/02/22-rdf-syntax-ns#"
   xmlns:svg="http://www.w3.org/2000/svg"
   xmlns="http://www.w3.org/2000/svg"
   xmlns:sodipodi="http://sodipodi.sourceforge.net/DTD/sodipodi-0.dtd"
   xmlns:inkscape="http://www.inkscape.org/namespaces/inkscape"
   version="1.1"
   id="wheelchair"
   width="18.667662"
   height="19.5"
   viewBox="0 0 18.667662 19.5"
   sodipodi:docname="wheelchair.svg"
   inkscape:version="1.0.2 (e86c8708, 2021-01-15)">
  <metadata
     id="metadata982">
    <rdf:RDF>
      <cc:Work
         rdf:about="">
        <dc:format>image/svg+xml</dc:format>
        <dc:type
           rdf:resource="http://purl.org/dc/dcmitype/StillImage" />
        <dc:title></dc:title>
      </cc:Work>
    </rdf:RDF>
  </metadata>
  <defs
     id="defs980" />
  <sodipodi:namedview
     pagecolor="#ffffff"
     bordercolor="#666666"
     borderopacity="1"
     objecttolerance="10"
     gridtolerance="10"
     guidetolerance="10"
     inkscape:pageopacity="0"
     inkscape:pageshadow="2"
     inkscape:window-width="1117"
     inkscape:window-height="724"
     id="namedview978"
     showgrid="false"
     inkscape:zoom="36.733333"
     inkscape:cx="9.7124406"
     inkscape:cy="9.75"
     inkscape:window-x="0"
     inkscape:window-y="25"
     inkscape:window-maximized="0"
     inkscape:current-layer="wheelchair" />
  <path
     d="m 14.700005,3.15 c 0,0.9112401 -0.73876,1.65 -1.65,1.65 -0.91124,0 -1.65,-0.7387599 -1.65,-1.65 0,-0.91124 0.73876,-1.65 1.65,-1.65 0.91124,0 1.65,0.73876 1.65,1.65 z M 4.6020047,6.857 6.5160046,4.9760001 l 2.0350001,1.419 -0.814,1.3749999 c 1.18217,0.36751 2.22277,1.0894401 2.9810003,2.068 l 0.968,-1.65 c 0.25245,-0.45738 0.08635,-1.0329 -0.37103,-1.28535 -9.9e-4,-5.5e-4 -0.002,-0.0011 -0.003,-0.00165 L 10.630005,6.4940001 6.7690047,3.81 c -0.21703,-0.1546599 -0.51359,-0.13145 -0.704,0.055 l -2.2000001,2.2 c -0.18128,0.24376 -0.13068,0.58828 0.11308,0.76956 0.18315,0.13629 0.43142,0.1452 0.6239201,0.02244 z m 5.8410003,6.677 c -0.01573,1.35388 -0.6373403,2.62944 -1.6940004,3.476 -0.7829799,0.63844 -1.76176,0.98802 -2.7719999,0.99 -2.4682901,0 -4.4709501,-1.99771 -4.4770001,-4.466 0.00253,-1.01541 0.35618,-1.99859 1.001,-2.783 0.20548,-0.2552 0.4378,-0.48752 0.6930001,-0.693 0.78441,-0.64482 1.7675899,-0.9984701 2.783,-1.001 2.4682901,0.00605 4.4660003,2.00871 4.4660003,4.477 z M 8.1000048,14.931 C 8.9446947,13.82561 8.7333846,12.24469 7.6279947,11.4 c -0.9028801,-0.69003 -2.156,-0.69003 -3.05899,0 -0.2878701,0.1661 -0.5269001,0.40513 -0.693,0.693 -0.76153,1.16424 -0.4351601,2.72547 0.72908,3.487 0.83765,0.54791 1.92027,0.54791 2.75792,0 0.2755499,-0.17985 0.5237101,-0.39842 0.7370001,-0.649 z m 9.0200002,1.1 -2.739,-5.5 c -0.13134,-0.31339 -0.44132,-0.51425 -0.781,-0.506 h -2.739 c 0.36223,0.50358 0.64416,1.06018 0.836,1.65 h 1.386 l 2.519,5.038 c 0.2035,0.41008 0.70092,0.5775 1.111,0.374 0.41008,-0.2035 0.5775,-0.70092 0.374,-1.111 z"
     id="path975"
     style="fill:#725a50;fill-opacity:1;stroke:#ffffff;stroke-width:3;stroke-linecap:round;stroke-miterlimit:4;stroke-dasharray:none;stroke-opacity:1;paint-order:stroke fill markers" />
</svg>
