<?xml version="1.0" encoding="UTF-8" standalone="no"?>
<svg
   xmlns:dc="http://purl.org/dc/elements/1.1/"
   xmlns:cc="http://creativecommons.org/ns#"
   xmlns:rdf="http://www.w3.org/1999/02/22-rdf-syntax-ns#"
   xmlns:svg="http://www.w3.org/2000/svg"
   xmlns="http://www.w3.org/2000/svg"
   xmlns:sodipodi="http://sodipodi.sourceforge.net/DTD/sodipodi-0.dtd"
   xmlns:inkscape="http://www.inkscape.org/namespaces/inkscape"
   version="1.1"
   id="windmill"
   width="13.042641"
   height="18.471321"
   viewBox="0 0 13.042641 18.471321"
   sodipodi:docname="windmill.svg"
   inkscape:version="1.0.2 (e86c8708, 2021-01-15)">
  <metadata
     id="metadata991">
    <rdf:RDF>
      <cc:Work
         rdf:about="">
        <dc:format>image/svg+xml</dc:format>
        <dc:type
           rdf:resource="http://purl.org/dc/dcmitype/StillImage" />
        <dc:title></dc:title>
      </cc:Work>
    </rdf:RDF>
  </metadata>
  <defs
     id="defs989" />
  <sodipodi:namedview
     pagecolor="#ffffff"
     bordercolor="#666666"
     borderopacity="1"
     objecttolerance="10"
     gridtolerance="10"
     guidetolerance="10"
     inkscape:pageopacity="0"
     inkscape:pageshadow="2"
     inkscape:window-width="1216"
     inkscape:window-height="702"
     id="namedview987"
     showgrid="false"
     inkscape:zoom="36.733333"
     inkscape:cx="6.5213203"
     inkscape:cy="9.7963203"
     inkscape:window-x="0"
     inkscape:window-y="25"
     inkscape:window-maximized="0"
     inkscape:current-layer="windmill" />
  <path
     d="m 4.8713203,7.0713203 -2.75,2.75 1.1,1.0999997 2.75,-2.7499997 v -0.55 l 0.55,-0.55 0.55,0.55 v 0.55 l 2.75,2.7499997 1.0999997,-1.0999997 -2.7499997,-2.75 h -0.55 l -0.55,-0.55 0.55,-0.55 h 0.55 l 2.7499997,-2.75 -1.0999997,-1.1 -2.75,2.75 v 0.55 l -0.55,0.55 -0.55,-0.55 v -0.55 l -2.75,-2.75 -1.1,1.1 2.75,2.75 h 0.55 l 0.55,0.55 -0.55,0.55 z M 10.92132,15.87132 H 9.8213203 l -1.1,-4.4 -2.2,-2.1999997 -2.2,2.1999997 -1.1,4.4 h -1.1 c -0.30371,0 -0.55,0.24618 -0.55,0.55 0,0.30371 0.24629,0.55 0.55,0.55 H 10.92132 c 0.30371,0 0.55,-0.24629 0.55,-0.55 0,-0.30382 -0.24629,-0.55 -0.55,-0.55 z m -3.8499997,0 h -1.1 v -1.65264 c 0,-0.30228 0.24508,-0.54736 0.54736,-0.54736 0.30525,0 0.55264,0.24739 0.55264,0.55264 z"
     id="path984"
     style="fill:#725a50;fill-opacity:1;stroke:#ffffff;stroke-width:3;stroke-linecap:round;stroke-miterlimit:4;stroke-dasharray:none;stroke-opacity:1;paint-order:stroke fill markers" />
</svg>
