<?xml version="1.0" encoding="UTF-8"?>
<svg id="square" width="12" height="10" version="1.1" viewBox="0 0 12 10" xmlns="http://www.w3.org/2000/svg">
 <path d="m6.0058 0.056096c-0.057458-0.00179-0.11471 0.017367-0.15996 0.059766l-0.010547 0.010546-5.6232 4.9166c-0.08496 0.090684-0.080137 0.2332 0.010547 0.31816 0.040914 0.038331 0.093353 0.06075 0.14941 0.061523l0.7418 0.010547v4.2855c0 0.12426 0.10074 0.225 0.225 0.225h3.3732c3.9477 0.0048-2.0376-0.06929 2.7 0h3.375c0.12426 0 0.225-0.10074 0.225-0.225v-4.275h0.60996c0.12426 4.138e-4 0.22634-0.098979 0.22676-0.22324 1.89e-4 -0.057429-0.02224-0.11279-0.06152-0.15469l-0.83848-0.73652c-3.2099-2.8984 0.83871 0.73623-1.8-1.5838l-2.9848-2.6191c-0.042525-0.045135-0.10074-0.068522-0.1582-0.070312z"/>
</svg>
