<svg xmlns="http://www.w3.org/2000/svg" width="14" height="14"><path d="M7 0 0 3.5v2l1.5-.65V14H3V4.2l4-1.7 4 1.7V14h1.5V4.85l1.5.65v-2L7 0Zm-.027 5.049a.704.704 0 1 0-.002 1.408.704.704 0 0 0 .002-1.408ZM5.049 6.187a.199.199 0 0 0-.242.147l-.493 2.041a.2.2 0 0 0 .149.242l.586.14a.198.198 0 0 0 .242-.146l.492-2.039a.203.203 0 0 0-.146-.244l-.588-.14Zm1.719.377c-.574-.014-.72.588-.72.588l-1.487 6.254a.494.494 0 0 0 .96.24l.852-3.519.809 3.498a.494.494 0 0 0 .972-.12.644.644 0 0 0-.008-.109L7.033 8.748l.094-.408.072.322a.32.32 0 0 0 .258.229l1.145.293a.416.416 0 0 0 .07.005.335.335 0 0 0 .338-.335.34.34 0 0 0-.26-.333l-.992-.248-.272-1.107c-.13-.617-.718-.602-.718-.602Zm3.062.715c-.082 0-.143.062-.16.14l-1.182 6.407-.002.01c0 .09.073.162.162.162a.167.167 0 0 0 .163-.14L9.99 7.45v-.01a.16.16 0 0 0-.16-.16Z"/></svg>