<svg xmlns="http://www.w3.org/2000/svg" width="21" height="21"><path d="M10.5 1.79c-4.297 0-7.8 3.503-7.8 7.8 0 2.78 1.47 5.219 3.668 6.6H6.3l-1.2 2.4h10.8l-1.2-2.4h-.068c2.198-1.381 3.668-3.82 3.668-6.6 0-4.297-3.503-7.8-7.8-7.8zm-.15 1.808v4.2a1.8 1.8 0 0 0-1.013.42l-2.97-2.97a5.967 5.967 0 0 1 3.983-1.65zm.3 0a5.97 5.97 0 0 1 3.982 1.65l-2.97 2.97c0-.002-.001-.002-.002-.003a1.8 1.8 0 0 0-1.01-.417zm-4.493 1.86 2.97 2.97-.003.002a1.8 1.8 0 0 0-.417 1.01h-4.2a5.967 5.967 0 0 1 1.65-3.982zm8.686 0a5.967 5.967 0 0 1 1.65 3.983h-4.2a1.8 1.8 0 0 0-.42-1.013zM4.507 9.741h4.2a1.8 1.8 0 0 0 .42 1.012l-2.97 2.97a5.967 5.967 0 0 1-1.65-3.982zm7.786 0h4.2a5.967 5.967 0 0 1-1.65 3.982l-2.97-2.97.003-.002a1.8 1.8 0 0 0 .417-1.01zm-2.956 1.223.003.002a1.8 1.8 0 0 0 .56.32v4.274a5.965 5.965 0 0 1-3.532-1.627zm2.326 0 2.97 2.97A5.965 5.965 0 0 1 11.1 15.56v-4.275a1.8 1.8 0 0 0 .563-.321z"/></svg>