<?xml version="1.0" encoding="UTF-8"?>
<svg id="animal_shelter" width="15" height="15" version="1.1" viewBox="0 0 15 15" xmlns="http://www.w3.org/2000/svg">
 <path d="m7.528 0.98062 1.472 1.105h1l1.473-1.104c0.2165-0.16227 0.527-0.0075613 0.527 0.263v3.341c0 0.722-0.522 1.184-1 1.573v3.927l0.8 2.4 0.706 0.353c0.30292 0.15155 0.49418 0.46128 0.494 0.8 0 0.247-0.2 0.447-0.447 0.447h-8.303c-1.233 0-2.25-1-2.25-2.287 0-2.1705 0.45308-3.783 0.745-4.868 0.14608-0.54298 0.29029-0.95039 0.393-1.231 0.057603-0.15737 0.11528-0.30293 0.192-0.449 0.44884-0.85455 1.7444-0.20939 1.342 0.668-0.048775 0.10636-0.094164 0.2182-0.133 0.317-0.091248 0.23213-0.214 0.593-0.346 1.084-0.246 0.915-0.519 2.287-0.635 4.133 0.368-2.06 2.422-4.128 4.077-5.609-0.345-0.326-0.634-0.72-0.634-1.258v-3.342c0-0.27056 0.31062-0.42543 0.527-0.263z"/>
</svg>
