<svg xmlns="http://www.w3.org/2000/svg" width="16.8" height="14.823"><path d="M11.664 11.376c-.288-.576-.288-2.208 0-2.688.384-.576 3.264 1.344 3.264 1.344.864.384.864-5.856 0-5.472 0 0-2.976 2.016-3.264 1.344-.288-.672-.288-2.016 0-2.688.288-.576 3.936-.672 3.936-.672 0-.672-2.784-1.344-3.936-1.344s-2.4.096-3.936.768c-1.536.576-2.784 1.536-3.936 2.688S1.2 8.112 1.2 8.784c0 .672 1.44 2.688 3.552 3.552 2.112.864 3.168 1.056 4.32 1.248 1.056.096 2.496 0 3.744-.288.96-.192 2.784-.672 2.784-1.056 0-.192-3.648-.288-3.936-.864zM5.52 9.168c-.768 0-1.44-.672-1.44-1.44 0-.768.672-1.44 1.44-1.44.768 0 1.44.672 1.44 1.44 0 .768-.672 1.44-1.44 1.44z" overflow="visible"/></svg>