<svg fill="none" height="13" viewBox="0 0 17 13" width="17" xmlns="http://www.w3.org/2000/svg"><path clip-rule="evenodd" d="m6.91407 1.05313c.04658.03886.06941.05492.08157.06206.039.02292.15162.05815.41013.06175.24574.00343.54565-.02072.9132-.05176.01542-.00131.03094-.00262.04655-.00394.7064-.05977 1.60407-.13573 2.51868-.00275.701.10192 1.2198.29981 1.5229.65591.3339.39232.3013.8423.2212 1.16054-.0399.15869-.0972.30914-.1449.43031-.0096.02443-.0187.04736-.0272.06902-.0256.06439-.0466.11754-.0639.1654.0146.002.0312.00395.0499.00574.101.00967.211.01167.3533.01425.0569.00103.119.00215.1877.0039.4501.01145 1.054.04988 1.6867.34403.7265.33774 1.1179.72562 1.3424 1.2004.1043.22053.1635.44178.2114.63601.01.04058.0195.07984.0287.11817.0374.15489.0711.29451.1205.44444l.0102.03069.006.03173c.0418.21793.202 1.06207.0784 1.91557-.0622.42996-.2011.89846-.495 1.29476-.3004.40524-.7425.70644-1.3475.82164-.8832.2189-1.6978.0118-2.2677-.1401-.2644-.0705-.6552-.147-1.0036-.1673-.1752-.0103-.3191-.0049-.4225.0133-.0502.0089-.0774.0184-.0893.0232-.1019.1161-.1499.1875-.1743.2315-.0215.0386-.0303.0651-.0415.1109-.0039.0161-.0078.033-.012.051-.0333.1451-.0816.3554-.2868.6895-.3038.4949-.7992.8308-1.35174 1.0506-.55493.2208-1.20337.3394-1.87274.3781-1.33528.0772-2.83849-.1594-4.01854-.6423l-.00328-.0013c-.16679-.0696-.33011-.1132-.52497-.1652-.06833-.0182-.14054-.0375-.21814-.0593-.27513-.0772-.60186-.1838-.89803-.4032-.633742-.4695-.946219-1.3034-.939762-2.77495-.004878-.3534.174728-.66798.33884-.90398.150665-.21666.347572-.44665.536852-.66775.02816-.03289.05615-.06558.08379-.098.4492-.52688.8573-1.04379 1.00704-1.61087.0322-.23608.00751-.48149-.03693-.78471-.00569-.03882-.01179-.07901-.01808-.1204-.0412-.27134-.09027-.59444-.08221-.92361.00977-.3991.10115-.82094.36556-1.25629.25979-.42772.67012-.84143 1.2758-1.25741l.02135-.01466.02275-.01238c.92321-.502318 1.59636-.599927 2.13831-.426024.26176.083994.45368.220115.5924.332151.04016.032434.0882.073367.1253.104983.01749.0149.03255.02773.0432.03663zm-2.39852.81834c-.51479.35664-.80307.66942-.96588.93749-.16042.26413-.2144.50981-.22057.76166-.00575.23484.02851.46329.07009.74057.00651.04338.01319.08796.01993.13394.04692.32009.09422.70062.03273 1.10359l-.00356.02335-.00575.02291c-.20953.83498-.78314 1.5248-1.22199 2.03953-.02972.03485-.05872.06877-.087.10185-.19407.22697-.35393.41394-.47361.58604-.14492.20839-.16035.29994-.15993.31937l.00027.01308h-.00017c-.00677 1.37475.29201 1.79195.53499 1.97195.14258.1057.32117.1734.57305.2441.0492.0138.10312.0281.16046.0433.20803.0553.46098.1225.696.2204 1.03231.422 2.38454.6379 3.58051.5688.59656-.0345 1.13297-.1388 1.5608-.309.43022-.1711.71547-.3942.86921-.6446.12019-.1958.14004-.2828.16575-.3956.0043-.0189.00878-.0385.01391-.0595.02455-.1002.06036-.2179.13871-.35889.07401-.13319.177-.27116.3195-.43088.1868-.20947.4487-.28815.644-.32269.2099-.03713.4395-.03956.655-.02698.4329.02528.8923.11662 1.2029.1994.5765.15368 1.1681.28814 1.7804.13295l.0161-.00407.0163-.003c.3651-.06716.5897-.23193.7415-.43675.1612-.21739.2603-.50855.3086-.84246.0934-.64476-.0199-1.31349-.0651-1.55393-.058-.18122-.1002-.35681-.1361-.50557-.0082-.03439-.0162-.06734-.0239-.0986-.0455-.18486-.0857-.32349-.1444-.4478-.1016-.21488-.2908-.45645-.8599-.72104-.4407-.20486-.8751-.24058-1.2907-.25115-.0462-.00118-.0946-.00204-.144-.00292-.1567-.0028-.3241-.00579-.4669-.01946-.174-.01668-.4078-.05492-.6109-.19274-.2044-.11546-.3367-.3033-.374-.53066-.0326-.19795.0148-.38454.0522-.5055.033-.1066.0789-.22206.1174-.31894.0075-.01873.0146-.03676.0214-.0539.0463-.11776.0826-.21673.1056-.3081.0458-.18188.016-.23455-.0129-.26846-.0597-.07013-.2694-.22202-.9053-.31447-.79994-.11632-1.60055-.04869-2.32837.0128l-.0088.00074c-.35417.02991-.70661.05946-1.01129.05522-.29191-.00407-.62778-.03788-.90279-.19947-.08603-.05055-.16047-.11039-.21571-.15649-.02896-.02417-.05108-.04311-.07129-.06042-.02763-.02366-.05169-.04426-.08477-.07098-.09403-.07594-.1749-.12754-.26964-.15794-.16945-.05437-.53875-.08735-1.33209.33992z" fill="#000" fill-rule="evenodd"/></svg>