<?xml version="1.0" encoding="UTF-8" standalone="no"?>
<svg
   fill="#000000"
   width="15"
   height="15"
   viewBox="0 0 0.6 0.6"
   id="Layer_1"
   data-name="Layer 1"
   version="1.1"
   xmlns="http://www.w3.org/2000/svg"
   xmlns:svg="http://www.w3.org/2000/svg">
  <defs
     id="defs1">
    <style
       id="style1">
      .cls-1 {
        fill: none;
      }
    </style>
  </defs>
  <path
     d="M 0.52193932,0.42392286 V 0.17607714 A 0.08053573,0.08053573 0 1 0 0.42392286,0.07806061 H 0.17607714 A 0.08053573,0.08053573 0 1 0 0.07806061,0.17607714 v 0.24784572 a 0.08053573,0.08053573 0 1 0 0.09801653,0.0980165 h 0.24784572 a 0.08053573,0.08053573 0 1 0 0.0980165,-0.0980165 z M 0.50176303,0.05788433 A 0.04035261,0.04035261 0 1 1 0.46141077,0.09823737 0.04039902,0.04039902 0 0 1 0.50176303,0.05788433 Z M 0.05788433,0.09823737 A 0.04035261,0.04035261 0 1 1 0.09823737,0.13858965 0.04039296,0.04039296 0 0 1 0.05788433,0.09823737 Z m 0.04035304,0.4438787 A 0.04035261,0.04035261 0 1 1 0.13858955,0.50176297 0.04039902,0.04039902 0 0 1 0.09823737,0.54211607 Z M 0.42392286,0.48158674 H 0.17607714 A 0.08057811,0.08057811 0 0 0 0.11841332,0.42392291 V 0.17607714 a 0.08059829,0.08059829 0 0 0 0.0576638,-0.0576638 h 0.24784572 a 0.08057811,0.08057811 0 0 0 0.0576638,0.0576638 v 0.24784572 a 0.08056601,0.08056601 0 0 0 -0.0576638,0.0576639 z m 0.0778402,0.0605288 a 0.04035261,0.04035261 0 1 1 0.0403531,-0.040353 0.04040709,0.04040709 0 0 1 -0.0403531,0.040353 z"
     id="path1"
     style="stroke-width:0.0201763" />
</svg>
