<svg width="16" height="12" xmlns="http://www.w3.org/2000/svg">
  <path
    d="M8.5380631 9.3224c-.603283-2.4222 1.9922899-1.3924 3.2209819 0 .756162.511 1.507072.3248 2.257945.1345 1.957005-.36 1.461761-3.0218 1.379903-3.4492-.277846-.8432-.22161-1.061-1.438908-2.1021-1.073374-.499-2.076717-.1483-2.459486-.4388-.707308-.3481.356589-2.2339-1.187385-2.3689-2.8155432.2884-3.877829.1299-4.0699413-.067C5.1806737.4077 5.0494924.2495 3.7526576.9292 2.1281399 2.1623 2.6536097 3.6656 2.4563998 4.9579 2.1022806 6.3691.48298381 7.3852.49894637 8.137.29432168 10.9376 2.4055325 10.79 2.7724647 11.0813c1.051048.4388 6.4448484.9064 6.6276018-.5853-.0003162-.6497-.7628576-.6939-.8620034-1.1738z"
    fill="gray" fill-opacity=".99215686" fill-rule="evenodd" stroke="#000" stroke-width=".97307134" />
</svg>
