<?xml version="1.0" encoding="UTF-8"?>
<svg id="art_gallery" width="15" height="15" version="1.1" viewBox="0 0 15 15" xmlns="http://www.w3.org/2000/svg">
 <path d="m10.71 3.999-2.86-2.85c-0.1945-0.1961-0.511-0.1974-0.7071-0.0029l-2.8529 2.8529h-2.79c-0.2761 0-0.5 0.2239-0.5 0.5v9c0 0.2761 0.2239 0.5 0.5 0.5h12c0.2761 0 0.5-0.2239 0.5-0.5v-9c0-0.2761-0.2239-0.5-0.5-0.5zm-3.21-1.79 1.79 1.79h-3.58zm5.5 10.79h-11v-8h11zm-8-5c-0.5523 0-1-0.4477-1-1s0.4477-1 1-1 1 0.4477 1 1-0.4477 1-1 1zm7 4h-7.5l1.5-3 1.25 2.5 2.25-4.5z"/>
</svg>
