<svg xmlns="http://www.w3.org/2000/svg" width="14" height="14"><path d="M14 .002c-.667.09-1.334.198-2 .303v9.867l-.508-.04c-1.315-.093-2.706.561-3.316 1.56-.225.367-.249.95-.051 1.267.308.495 1.041.91 1.838 1.043 1.832-.053 3.145-.7 4.035-2.033C14 8 14 4 14 .002ZM7.107.006a6.922 6.922 0 0 0-6.18 3.459 6.916 6.916 0 0 0 2.534 9.45 1.15 1.15 0 0 0 1.574-.423c.15-.26.19-.55.13-.82a1.132 1.132 0 0 1 .132-.803 1.15 1.15 0 0 1 1.574-.422l.252.145C7.846 9.639 8.927 9.14 10.1 8.92a1.373 1.373 0 0 1-.141-1.57c.128-.221.316-.402.541-.522V5.551a1.373 1.373 0 0 1 0-2.713v-1.83c-.04-.025-.078-.053-.12-.076A6.888 6.888 0 0 0 7.108.006Zm.188.908a1.374 1.374 0 1 1 .136 2.744A1.374 1.374 0 0 1 7.295.914Zm-3.54 1.522A1.374 1.374 0 1 1 3.89 5.18a1.374 1.374 0 0 1-.133-2.744Z"/></svg>