<?xml version="1.0" encoding="UTF-8"?>
<svg id="atm" width="15" height="15" version="1.1" viewBox="0 0 15 15" xmlns="http://www.w3.org/2000/svg">
 <path d="m12 2h-9v10c0 0.55 0.45 1 1 1h7c0.55 0 1-0.45 1-1zm-1 3.5c0 1.38-1.57 2.5-3.5 2.5s-3.5-1.12-3.5-2.5 1.57-2.5 3.5-2.5 3.5 1.12 3.5 2.5zm0 5v1.5h-1.5c-0.28 0-0.5-0.22-0.5-0.5s0.22-0.5 0.5-0.5 0.5 0.22 0.5 0.5l0.5-0.5c-0.28 0-0.5-0.22-0.5-0.5s0.22-0.5 0.5-0.5 0.5 0.22 0.5 0.5zm-1.5-5c0-0.32-0.11-0.53-0.25-0.68v1.36c0.14-0.15 0.25-0.36 0.25-0.68zm-0.5-0.88c-0.09-0.05-0.17-0.06-0.25-0.08v1.92c0.08-0.02 0.16-0.03 0.25-0.08zm-0.5-0.12h-0.25v2h0.25zm-0.5 0h-0.25v2h0.25zm-0.5 0h-0.25v2h0.25zm-0.5 0-0.25-0.25v2l0.25 0.25zm-0.5-0.5-0.25 0.1v2.27l0.25-0.37zm-0.5 0.24c-0.09 0.05-0.16 0.08-0.25 0.14v2.26c0.14 0.07 0.25 0.11 0.25 0.11zm0 7.26c0 0.28-0.22 0.5-0.5 0.5h-1.5v-1.5c0-0.28 0.22-0.5 0.5-0.5s0.5 0.22 0.5 0.5-0.22 0.5-0.5 0.5l0.5 0.5c0-0.28 0.22-0.5 0.5-0.5s0.5 0.22 0.5 0.5zm-0.5-6.93c-0.09 0.08-0.18 0.16-0.25 0.26v1.42c0.08 0.1 0.16 0.19 0.25 0.25z"/>
 <path d="m1 0v3h1v-2h11v2h1v-3zm2 13.5c0 1.05 0.42 1.5 1 1.5h7c0.53 0 1-0.45 1-1.5-0.31 0.27-0.5 0.49-1 0.47l-7 0.06c-0.48-0.02-0.69-0.22-1-0.53z"/>
</svg>
