<svg xmlns="http://www.w3.org/2000/svg" width="15.54" height="15.037"><path d="M1.5 1.5v6.926h.494l1.083-4.294.076-.307v-.003h9.235v2.822l.349 1.782h1.303V1.5Zm8.888 3.783H4.142l-.34 1.361-.445 1.782-.824 3.292h9.118l-.646-3.292-.259-1.324-.091-.458ZM5.48 5.92h.568L5.881 7.1l-.085.601h-.884Zm1.366 0h.568l.085 1.18.042.601h-.885l.065-.6zm1.31 0h.567l.35 1.18.18.601h-.885l-.072-.6Zm3.153 1.18.236 1.202.647 3.292.14.717h-8.01l-.307 1.225h9.117l-.644-3.292-.351-1.781-.267-1.362ZM6.966 8.427c1.548 0 2.803.51 2.803 1.138 0 .63-1.255 1.14-2.803 1.14-.863 0-1.625-.163-2.14-.412-.406-.197-.662-.449-.662-.728 0-.359.421-.677 1.065-.886a5.747 5.747 0 0 1 1.737-.252Z"/></svg>