<svg xmlns="http://www.w3.org/2000/svg" width="19.8" height="12.1"><path d="M14.3 3.85c1.65 0 1.65 1.1 1.65 1.1l-1.1 4.4H13.2c-.83 0-.874-.84-.874-.84l.874-4.66Zm2.2 2.75s.68-.032 1.165.453.485.97.485.97v2.427h-.97c-1.23 0-1.23-1.1-1.23-1.1ZM7.474 3.17 8.25 8.8s0 1.1 1.1 1.1h1.1c1.1 0 1.1-1.1 1.1-1.1l.776-5.63c0-1.52-2.426-1.52-2.426-1.52s-2.43 0-2.426 1.52zM5.5 3.85c-1.65 0-1.65 1.1-1.65 1.1l1.1 4.4H6.6c.83 0 .874-.84.874-.84L6.6 3.85ZM3.3 6.6s-.68-.032-1.165.453-.485.97-.485.97v2.427h.97c1.23 0 1.23-1.1 1.23-1.1Z"/></svg>