<svg xmlns="http://www.w3.org/2000/svg" width="17.305" height="11.542"><path d="M2.422 1.44a.958.958 0 0 0-.96.96v6.72c0 .531.428.96.96.96h12.48c.531 0 .96-.429.96-.96V2.4a.958.958 0 0 0-.96-.96zm0 .96h1.44a.48.48 0 1 1-.48.48l-.48.48a.48.48 0 1 1-.48.48zm6.24 0c1.325 0 2.4 1.504 2.4 3.36 0 1.855-1.075 3.36-2.4 3.36-1.326 0-2.4-1.505-2.4-3.36 0-1.856 1.074-3.36 2.4-3.36zm4.8 0h1.44v1.44a.48.48 0 1 1-.48-.48l-.48-.48a.48.48 0 1 1-.48-.48zm-4.8 1.44c-.31 0-.513.104-.655.24h1.309c-.142-.136-.344-.24-.654-.24zm-.84.48c-.044.087-.06.164-.077.24h1.833c-.017-.076-.033-.153-.076-.24zm-.12.48v.24h1.92V4.8zm0 .48v.24h1.92v-.24zm0 .48V6h1.92v-.24zm0 .48-.24.24h1.92l.24-.24zm-.48.48s.033.098.097.24h2.183l-.36-.24zm-4.32.48a.48.48 0 0 1 0 .96l.48.48a.48.48 0 1 1 .48.48h-1.44V7.68a.48.48 0 0 1 .48-.48zm4.548 0c.044.082.073.152.132.24h2.176c.064-.133.104-.24.104-.24zm6.972 0a.48.48 0 0 1 .48.48v1.44h-1.44a.48.48 0 1 1 .48-.48l.48-.48a.48.48 0 0 1 0-.96zm-6.657.48c.076.087.158.169.25.24h1.363c.096-.075.18-.156.244-.24z" overflow="visible"/></svg>