<?xml version="1.0" encoding="UTF-8"?>
<svg id="basketball" width="15" height="15" version="1.1" viewBox="0 0 15 15" xmlns="http://www.w3.org/2000/svg">
 <path d="m14.033 7.6067c-0.020813 1.2792-0.40922 2.4693-1.0662 3.4701-1.3181-0.39619-2.3324-1.5004-2.5958-2.8706 1.3714-0.17783 2.7466-0.42328 3.662-0.59954zm-3.726-0.20779c1.398-0.19736 2.8003-0.46626 3.6852-0.64691-0.1187-1.0362-0.48012-1.9986-1.0265-2.8304-1.5068 0.45318-2.6144 1.8346-2.6587 3.4773zm-0.93926 0.10112c0-1.9846 1.2464-3.6796 2.9957-4.3549-1.1004-1.2277-2.6535-2.0362-4.3969-2.1603v6.6543c0.43422-0.020668 0.91061-0.064142 1.4021-0.12036-2.9e-5 -0.00632-9.35e-4 -0.012401-9.35e-4 -0.018729zm-6.7322-4.3549c1.7493 0.67525 2.9957 2.3702 2.9957 4.3549 0 0.014512-0.0021 0.028509-0.0021 0.042988 0.48505 0.053537 0.95836 0.090938 1.4034 0.10462v-6.6628c-1.7434 0.12409-3.2966 0.93267-4.3969 2.1603zm0.0019 8.7117c1.1002 1.2266 2.6526 2.0343 4.3951 2.1584v-5.587c-0.47201-0.011747-0.97052-0.044586-1.4802-0.092876-0.29334 1.6152-1.4189 2.9428-2.9149 3.5216zm1.9866-3.624c-1.3161-0.16406-2.6282-0.40158-3.6572-0.6104 0.023718 1.2732 0.41119 2.4577 1.0655 3.4544 1.31-0.39357 2.3205-1.4859 2.5917-2.844zm4.8195 0.081387c-0.51754 0.053793-1.0189 0.093732-1.477 0.11035v5.5907c1.7424-0.12404 3.2948-0.93179 4.395-2.1583-1.5022-0.58135-2.6307-1.9181-2.9181-3.5427zm-7.4104-4.3925c-0.54226 0.82557-0.90151 1.78-1.0229 2.8073 1.0264 0.22495 2.3588 0.5015 3.6829 0.69341-0.034208-1.6531-1.1458-3.0454-2.66-3.5007z"/>
</svg>
