<svg xmlns="http://www.w3.org/2000/svg" width="14" height="14"><path d="M4 0C3 .5 2 .5 2 1.5s1.5 1.5 1.5 2-.667 1-1 1.5c1.5-.5 2-.5 2-1.5S3.5 2 3 1.5C3 1 3.833.667 4 0Zm3.75 0c-1 .5-2 .5-2 1.5s1.5 1.5 1.5 2-.667 1-1 1.5c1.5-.5 2-.5 2-1.5s-1-1.5-1.5-2c0-.5.833-.833 1-1.5Zm3.75 0c-1 .5-2 .5-2 1.5S11 3 11 3.5s-.667 1-1 1.5c1.5-.5 2-.5 2-1.5s-1-1.5-1.5-2c0-.5.833-.833 1-1.5ZM1 6v8h1v-2h10v2h1V6H1Zm1 1h10v4H2V7Zm2 1a1 1 0 1 0 0 2 1 1 0 0 0 0-2Zm3 0a1 1 0 1 0 0 2 1 1 0 0 0 0-2Zm3 0a1 1 0 1 0 0 2 1 1 0 0 0 0-2Z"/></svg>