<?xml version="1.0" encoding="UTF-8"?>
<svg id="bbq" width="15" height="15" version="1.1" viewBox="0 0 15 15" xmlns="http://www.w3.org/2000/svg">
 <path d="m9.3189 7.655c1.5582-0.547 2.6271-2.0044 2.68-3.655h-9c0.053 1.6299 1.0978 3.0728 2.63 3.631l-0.707 1.413c-1.3571-0.2355-2.6482 0.6737-2.8837 2.0308-0.2355 1.3571 0.6737 2.6482 2.0308 2.8837 0.9226 0.1602 1.8572-0.21 2.4199-0.9585h4.223l0.335 0.717c0.0836 0.1735 0.2594 0.2836 0.452 0.283 0.0733 3e-4 0.1457-0.0158 0.212-0.047 0.2497-0.117 0.3575-0.4141 0.241-0.664zm-4.82 5.095c-0.6904 0-1.25-0.5596-1.25-1.25s0.5596-1.25 1.25-1.25 1.25 0.5596 1.25 1.25c-0.0016 0.6897-0.5603 1.2484-1.25 1.25zm2.45-0.75c0.2066-1.007-0.2268-2.0374-1.091-2.594l0.741-1.483c0.577 0.1042 1.168 0.1042 1.745 0l1.9 4.07zm-2.2-11c-0.1381 0-0.25 0.1119-0.25 0.25 0 0.5-0.5 0.5-0.5 0.5-1 0-1 1-1 1 0 0.1381 0.1119 0.25 0.25 0.25s0.25-0.1119 0.25-0.25c0-0.5 0.5-0.5 0.5-0.5 1 0 1-1 1-1 0-0.1381-0.1119-0.25-0.25-0.25zm2 0c-0.1381 0-0.25 0.1119-0.25 0.25 0 0.5-0.5 0.5-0.5 0.5-1 0-1 1-1 1 0 0.1381 0.1119 0.25 0.25 0.25s0.25-0.1119 0.25-0.25c0-0.5 0.5-0.5 0.5-0.5 1 0 1-1 1-1 0-0.1381-0.1119-0.25-0.25-0.25zm2 0c-0.1381 0-0.25 0.1119-0.25 0.25 0 0.5-0.5 0.5-0.5 0.5-1 0-1 1-1 1 0 0.1381 0.1119 0.25 0.25 0.25s0.25-0.1119 0.25-0.25c0-0.5 0.5-0.5 0.5-0.5 1 0 1-1 1-1 0-0.1381-0.1119-0.25-0.25-0.25zm2 0c-0.1381 0-0.25 0.1119-0.25 0.25 0 0.5-0.5 0.5-0.5 0.5-1 0-1 1-1 1 0 0.1381 0.1119 0.25 0.25 0.25s0.25-0.1119 0.25-0.25c0-0.5 0.5-0.5 0.5-0.5 1 0 1-1 1-1 0-0.1381-0.1119-0.25-0.25-0.25zm2 0c-0.1381 0-0.25 0.1119-0.25 0.25 0 0.5-0.5 0.5-0.5 0.5-1 0-1 1-1 1 0 0.1381 0.1119 0.25 0.25 0.25s0.25-0.1119 0.25-0.25c0-0.5 0.5-0.5 0.5-0.5 1 0 1-1 1-1 0-0.1381-0.1119-0.25-0.25-0.25z"/>
</svg>
