<svg xmlns="http://www.w3.org/2000/svg" width="14" height="14"><path d="M4.122 13.627c-.218-.059-.418-.147-1.079-.473-.65-.32-.872-.405-1.13-.428-.243-.023-.52.068-1.15.378-.27.132-.492.237-.494.232-.002-.004 0-.433.006-.952l.009-.944.38-.185c1.153-.562 1.196-.561 2.439.04.884.427 1.002.47 1.28.472.281.001.344-.021 1.243-.445 1.126-.53 1.256-.561 1.718-.406.156.052.577.236.937.408.82.393 1.052.475 1.296.454.264-.022.491-.108 1.272-.485.387-.187.803-.37.924-.406.39-.117.657-.055 1.492.346l.456.218-.014.624c-.018.788-.037 1.242-.053 1.258a5.136 5.136 0 0 1-.503-.23c-.537-.263-.887-.389-1.088-.389-.214 0-.504.108-1.244.464-.387.186-.818.374-.958.419-.41.13-.534.103-1.422-.32-1.246-.595-1.416-.637-1.897-.476-.155.052-.586.241-.958.42-.933.45-1.114.5-1.462.406Z"/><path d="M6.017 6.024c-.084-.086-2.38.962-3.322 1.517-.363.214-.733.389-.821.389-.372 0-.563-.467-.563-1.37 0-1.241.471-2.506 1.324-3.554.32-.392 1.214-1.104 1.575-1.254.198-.082.218-.116.218-.387 0-.576.5-.771.859-.336.184.223.202.23.496.172.566-.11 1.633-.075 2.209.072 1.423.363 2.668 1.268 3.365 2.447.291.492.305.586.12.821-.116.148-.236.186-.898.286-1.26.19-3.461.719-3.542.85a143.34 143.34 0 0 0 2.136 6.21l-1.317-.537a147.9 147.9 0 0 0-1.84-5.326Z"/></svg>