<?xml version="1.0" encoding="UTF-8" standalone="no"?>
<svg
   width="14"
   height="14"
   version="1.1"
   id="svg1"
   xmlns="http://www.w3.org/2000/svg"
   xmlns:svg="http://www.w3.org/2000/svg">
  <defs
     id="defs1" />
  <path
     d="m 5,1.0001179 c -1,0 -2,0.469 -3,1.469 -1,1 -2,2 -2,3 0.667,0 1.333,0.375 2,0.375 1.524,0 1.934,-1.31 3,-2.375 0.539,-0.351 0.99,-0.707 2.469,-0.531 1.56,0.332 4.531,1.522 6.531,2.936 -1.609,-1.65 -3.49,-3.464 -6,-4.406 -1,-0.49399999 -2,-0.468 -3,-0.468 z m 7.344,5.156 -4.031,1.75 c -3.34,0.548 -7.178,-0.735 -7.063,-0.593 0.045,0.054 0.082,0.101 0.125,0.156 v 0.031 L 0,11.000118 2.594,9.0001179 3,13.000118 4.969,9.8121179 c 0.182,0.032 0.358,0.073 0.562,0.094 L 7,13.000118 8.094,9.9061179 c 0.337,-0.059 0.636,-0.171 0.937,-0.281 L 11,12.000118 11.031,8.3441179 c 0.057,-0.059 0.102,-0.127 0.156,-0.188 L 14,10.000118 12.125,6.7191179 c 0.08,-0.181 0.16,-0.377 0.219,-0.563 z"
     id="path1" />
</svg>
