<?xml version="1.0" encoding="UTF-8"?>
<svg id="bench" width="10.92" height="5.4533" version="1.1" viewBox="0 0 10.92 5.4533" xmlns="http://www.w3.org/2000/svg">
 <path d="m2.8686-2.6614e-8h-1.9586c-0.50414 0-0.91 0.40586-0.91 0.91 0 0.50414 0.40586 0.91 0.91 0.91h1.3739l-0.88161 2.7389c-0.11684 0.35845 0.078988 0.74374 0.43744 0.86059s0.74374-0.078988 0.86059-0.43744c4.55e-4 -0.00118 8.19e-4 -0.00246 0.00118-0.00364l1.0167-3.1584h3.4836l1.0167 3.1583c0.11584 0.35881 0.50059 0.55574 0.85931 0.43989 0.35872-0.11584 0.55574-0.50059 0.43989-0.85931l-0.88152-2.7389h1.3739c0.50414 0 0.91-0.40586 0.91-0.91 0-0.50414-0.40586-0.91-0.91-0.91h-1.9586c-2.6108 0.022542-1.4343 0-5.1828 0zm3.7485 0h-2.3141c2.8309 0.018089-0.58666 0.015584 2.3141 0z"/>
</svg>
