<?xml version="1.0" encoding="UTF-8"?>
<svg id="bicycle" width="15" height="15" version="1.1" viewBox="0 0 15 15" xmlns="http://www.w3.org/2000/svg">
 <path d="m7.5 2c-0.6761-0.01-0.6761 1.0096 0 1h1.5v1.2656l-2.8027 2.334-0.9747-2.5996h0.2774c0.6761 0.01 0.6761-1.0096 0-1h-2c-0.6761-0.01-0.6761 1.0096 0 1h0.6523l0.8907 2.375c-0.4678-0.2326-0.9871-0.375-1.543-0.375-1.9271 0-3.5 1.5729-3.5 3.5 0 1.9271 1.5729 3.5 3.5 3.5s3.5-1.5729 3.5-3.5c0-0.6699-0.2003-1.2911-0.5293-1.8242l2.8203-2.3496 0.4629 1.1602c-1.0425 0.6073-1.7539 1.7248-1.7539 3.0136 0 1.9271 1.5729 3.5 3.5 3.5s3.5-1.5729 3.5-3.5c0-1.9271-1.5729-3.5-3.5-3.5-0.2831 0-0.5544 0.0434-0.8184 0.1074l-0.6816-1.7051v-1.9023c0-0.2761-0.2239-0.5-0.5-0.5zm-4 5c0.5923 0 1.1276 0.2119 1.5547 0.5527l-1.875 1.5625c-0.5109 0.4273 0.1278 1.1945 0.6406 0.7695l1.875-1.5625c0.1882 0.3518 0.3047 0.7489 0.3047 1.1778 0 1.3866-1.1134 2.5-2.5 2.5s-2.5-1.1134-2.5-2.5c0-1.3866 1.1133-2.5 2.5-2.5zm8 0c1.3866 0 2.5 1.1134 2.5 2.5 0 1.3866-1.1134 2.5-2.5 2.5s-2.5-1.1134-2.5-2.5c0-0.877 0.4468-1.6421 1.125-2.0879l0.9102 2.2734c0.246 0.6231 1.1804 0.2501 0.9297-0.3711l-0.9082-2.2695c0.1442-0.0256 0.2914-0.0449 0.4433-0.0449z"/>
</svg>
