<?xml version="1.0" encoding="UTF-8"?>
<svg id="bicycle_parking" width="15" height="15" version="1.1" viewBox="0 0 15 15" xmlns="http://www.w3.org/2000/svg">
 <path d="m8.6567 5.806c-0.50708-0.0075-0.50708 0.7572 0 0.75h1.125v0.9492l-2.102 1.7505-0.73102-1.9497h0.20805c0.50708 0.0075 0.50708-0.7572 0-0.75h-1.5c-0.50708-0.0075-0.50708 0.7572 0 0.75h0.48922l0.66802 1.7812c-0.35085-0.17445-0.74032-0.28125-1.1572-0.28125-1.4453 0-2.625 1.1797-2.625 2.625 0 1.4453 1.1797 2.625 2.625 2.625 1.4453 0 2.625-1.1797 2.625-2.625 0-0.50242-0.15022-0.96832-0.39698-1.3682l2.1152-1.7622 0.34718 0.87015c-0.78188 0.45548-1.3154 1.2936-1.3154 2.2602 0 1.4453 1.1797 2.625 2.625 2.625 1.4453 0 2.625-1.1797 2.625-2.625 0-1.4453-1.1797-2.625-2.625-2.625-0.21232 0-0.4158 0.03255-0.6138 0.08055l-0.5112-1.2788v-1.4267c0-0.20708-0.16792-0.375-0.375-0.375zm-3 3.75c0.44422 0 0.8457 0.15892 1.166 0.41452l-1.4062 1.1719c-0.38317 0.32048 0.09585 0.89588 0.48045 0.57712l1.4062-1.1719c0.14115 0.26385 0.22852 0.56168 0.22852 0.88335 0 1.04-0.83505 1.875-1.875 1.875-1.04 0-1.875-0.83505-1.875-1.875s0.83497-1.875 1.875-1.875zm6 0c1.04 0 1.875 0.83505 1.875 1.875s-0.83505 1.875-1.875 1.875-1.875-0.83505-1.875-1.875c0-0.65775 0.3351-1.2316 0.84375-1.5659l0.68265 1.7051c0.1845 0.46732 0.8853 0.18758 0.69727-0.27832l-0.68115-1.7021c0.10815-0.0192 0.21855-0.033675 0.33247-0.033675z"/>
 <path d="m0.71828 0.94397v8.8h1.6v-3.2h2c1.5464 0 2.8-1.2536 2.8-2.8s-1.2536-2.8-2.8-2.8zm1.6 4v-2.4h2c0.66274 0 1.2 0.53726 1.2 1.2s-0.53726 1.2-1.2 1.2z"/>
</svg>
