<svg xmlns="http://www.w3.org/2000/svg" width="19.8" height="16.5"><path d="M12.65 1.65a1.1 1.1 0 1 0 0 2.2 1.1 1.1 0 0 0 0-2.2zm-2.041 2.194a.55.55 0 0 0-.383.156L7.322 6.75a.55.55 0 0 0 .047.84L9.35 9.075V12.1c-.011.744 1.11.744 1.1 0V8.8a.55.55 0 0 0-.22-.44l-.843-.634 2-1.894.823 1.099a.55.55 0 0 0 .44.219h1.65c.744.011.744-1.11 0-1.1h-1.375l-.825-1.1-.66-.88a.55.55 0 0 0-.423-.226ZM4.95 8.25a3.3 3.3 0 1 0 0 6.6 3.3 3.3 0 0 0 0-6.6zm9.9 0a3.3 3.3 0 1 0 0 6.6 3.3 3.3 0 0 0 0-6.6zm-9.9 1.1a2.2 2.2 0 1 1 0 4.4 2.2 2.2 0 0 1 0-4.4zm9.9 0a2.2 2.2 0 1 1 0 4.4 2.2 2.2 0 0 1 0-4.4z"/></svg>