<?xml version="1.0" encoding="UTF-8" standalone="no"?>
<svg
   width="14"
   height="14"
   version="1.1"
   id="svg1"
   xmlns="http://www.w3.org/2000/svg"
   xmlns:svg="http://www.w3.org/2000/svg">
  <defs
     id="defs1" />
  <path
     d="m 6.9999299,5.2182751 c -0.50708,-0.0075 -0.50708,0.7572 0,0.75 h 1.125 v 0.9492 l -2.102,1.7505002 -0.73102,-1.9497002 h 0.20805 c 0.50708,0.0075 0.50708,-0.7572 0,-0.75 h -1.5 c -0.50708,-0.0075 -0.50708,0.7572 0,0.75 h 0.48922 l 0.66802,1.7812002 c -0.35085,-0.17445 -0.74032,-0.28125 -1.1572,-0.28125 -1.4453,0 -2.625,1.1797 -2.625,2.6249997 0,1.4453 1.1797,2.625 2.625,2.625 1.4453,0 2.625,-1.1797 2.625,-2.625 0,-0.50242 -0.15022,-0.9683197 -0.39698,-1.3681997 l 2.1152,-1.7622 0.34718,0.87015 c -0.78188,0.45548 -1.3154,1.2936 -1.3154,2.2601997 0,1.4453 1.1797,2.625 2.6250001,2.625 1.4453,0 2.625,-1.1797 2.625,-2.625 0,-1.4452997 -1.1797,-2.6249997 -2.625,-2.6249997 -0.2123201,0 -0.4158001,0.03255 -0.6138001,0.08055 l -0.5112,-1.2788002 v -1.4267 c 0,-0.20708 -0.16792,-0.375 -0.375,-0.375 z m -3,3.7500002 c 0.44422,0 0.8457,0.15892 1.166,0.41452 l -1.4062,1.1718997 c -0.38317,0.32048 0.09585,0.89588 0.48045,0.57712 l 1.4062,-1.1718997 c 0.14115,0.2638497 0.22852,0.5616797 0.22852,0.8833497 0,1.04 -0.83505,1.875 -1.875,1.875 -1.04,0 -1.875,-0.83505 -1.875,-1.875 0,-1.0399497 0.83497,-1.8749997 1.875,-1.8749997 z m 6.0000002,0 c 1.0399999,0 1.8749999,0.83505 1.8749999,1.8749997 0,1.03995 -0.83505,1.875 -1.8749999,1.875 -1.0399002,0 -1.8750002,-0.83505 -1.8750002,-1.875 0,-0.65775 0.3351,-1.2315997 0.84375,-1.5658997 l 0.68265,1.7049997 c 0.1845,0.46732 0.8853001,0.18758 0.6972701,-0.27832 L 9.6674499,9.0019553 c 0.10815,-0.0192 0.21855,-0.033675 0.3324702,-0.033675 z"
     id="path2" />
  <path
     d="m 12.850641,2.300718 v 0.9000292 c -0.0045,0.5012002 -0.414126,0.9040231 -0.91533,0.9000293 H 5.0626869 C 4.0080822,5.479599 1.8634585,5.2329772 1.1493595,3.6507619 H 3.3994327 V 1.8507033 H 1.1493595 C 1.8634585,0.268488 4.0080822,0.0218662 5.0626869,1.4006887 H 11.93441 c 0.501205,-0.004 0.910875,0.3988291 0.91533,0.9000293 z"
     id="path1"
     style="stroke-width:0.900029" />
</svg>
