<?xml version="1.0" encoding="UTF-8"?>
<svg id="beer" width="15" height="15" version="1.1" viewBox="0 0 15 15" xmlns="http://www.w3.org/2000/svg">
 <path d="m3.126 9.2844v-2.3328c0-0.55404-0.01458-1.0643-0.34992-1.5892-0.59778-0.91854 0.05832-2.1433 1.1664-2.3328 0.26244-0.04374 0.42282-0.1458 0.56862-0.34992 0.2916-0.40824 0.729-0.59778 1.2393-0.56862 0.23328 0.01458 0.39366-0.02916 0.5832-0.16038 0.97686-0.64152 2.2307-0.27702 2.741 0.78732 0.08748 0.17496 0.17496 0.30618 0.39366 0.39366 1.1081 0.4374 1.3997 1.735 0.61236 2.639-0.08748 0.10206-0.27702 0.16038-0.18954 0.32076 0.0729 0.1458 0.24786 0.10129 0.37908 0.10129 0.32467-0.00495 0.64152-0.042969 0.96228-0.013809 0.69984 0.08748 1.181 0.5832 1.1956 1.283 0.02916 0.9477 0.02916 1.8954 0 2.8431-0.01458 0.74358-0.56862 1.2539-1.3414 1.2976-0.30618 0.01458-0.61236 0.01458-0.91854 0-0.23328-0.01458-0.34992 0.04374-0.30618 0.2916v0.04374c-0.02916 1.3851-0.05832 1.4288-1.4726 1.4288h-4.3157c-0.71442 0-0.96228-0.24786-0.96228-0.96228 0-1.0498 0.01458-2.0849 0.01458-3.1201zm3.7762-3.922c0.6561 0 1.3122 0.01458 1.9683-0.01458 0.45198-0.01458 0.74358-0.32076 0.74358-0.71442s-0.24786-0.68526-0.67068-0.71442c-0.40824-0.02916-0.53946-0.24786-0.62694-0.59778-0.18954-0.78732-1.0643-1.0498-1.633-0.49572-0.26244 0.26244-0.5103 0.32076-0.86022 0.20412-0.32076-0.10206-0.61236 0.04374-0.68526 0.3645-0.11664 0.49572-0.3645 0.6561-0.86022 0.53946-0.2916-0.0729-0.53946 0.08748-0.69984 0.33534-0.1458 0.23328-0.20412 0.52488 0 0.729 0.2187 0.23328 0.2187 0.48114 0.2187 0.75816v1.006c0 0.27702 0.13122 0.48114 0.42282 0.49572 0.32076 0.01458 0.46656-0.18954 0.48114-0.49572 0.01458-0.33534 0.02916-0.67068 0-1.006s0.10206-0.40824 0.40824-0.39366c0.59778 0.02916 1.1956 0 1.7933 0zm2.9743 3.4846v0.55404c0 1.006 0 0.99144 1.0206 0.96228 0.24786-0.01458 0.30618-0.08748 0.30618-0.32076-0.01458-0.55404 0-1.0935 0-1.6475 0-1.0352 0-1.0352-1.0352-1.006-0.26244 0-0.2916 0.10206-0.2916 0.32076 0.01458 0.37908 0 0.75816 0 1.1372z"/>
</svg>
