<?xml version="1.0" encoding="UTF-8"?>
<svg id="billiards" width="15" height="15" version="1.1" viewBox="0 0 15 15" xmlns="http://www.w3.org/2000/svg">
 <path d="m7.5 1.128c-3.428 0-6.2068 2.8528-6.2068 6.372 0 3.5192 2.7788 6.3721 6.2068 6.3721 3.428 0 6.2069-2.8528 6.2069-6.3721 0-3.5192-2.7789-6.372-6.2069-6.372zm0.44339 1.8206c2.2037 0 3.9901 1.8339 3.9901 4.0963 0 2.2624-1.7863 4.0963-3.9901 4.0963-2.2037 0-3.9901-1.8339-3.9901-4.0963 0-2.2624 1.7863-4.0963 3.9901-4.0963zm-0.91121 1.4515c-0.11571 0.00269-0.2331 0.020319-0.34992 0.05421l3.95e-5 -4.07e-5c-0.74301 0.21562-1.1776 1.0154-0.96893 1.7829v1.219e-4c0.086314 0.31494 0.26826 0.57569 0.50381 0.75926-0.3925 0.53067-0.47091 1.1371-0.32046 1.6897 0.28058 1.0259 1.3161 1.6188 2.3037 1.3323 0.99146-0.28753 1.5716-1.3487 1.2916-2.3767-0.16606-0.60795-0.60082-1.0598-1.1319-1.2708 0.10832-0.28334 0.13593-0.6018 0.050173-0.91697-0.17704-0.64724-0.75326-1.0684-1.3781-1.0539zm0.018803 0.96348c0.20718-0.00467 0.40072 0.13403 0.45997 0.3513 0.069807 0.25547-0.075111 0.52219-0.3227 0.59409-0.24565 0.072228-0.50603-0.077181-0.57571-0.33356-0.069807-0.25559 0.075111-0.52215 0.32271-0.59405 0.038535-0.011115 0.077368-0.016905 0.11574-0.01778zm0.62048 1.8368c0.41271-0.010363 0.80252 0.26595 0.9215 0.70208 0.14037 0.51175-0.14783 1.0439-0.64553 1.188-0.49452 0.14451-1.0121-0.15418-1.1515-0.66604-0.14037-0.51164 0.14803-1.0439 0.64549-1.188 0.076418-0.022371 0.15367-0.034136 0.23008-0.036026z"/>
</svg>
