<?xml version="1.0" encoding="UTF-8"?>
<svg id="board" width="15" height="15" version="1.1" viewBox="0 0 15 15" xmlns="http://www.w3.org/2000/svg">
 <path d="m6.5098 0.92743c-0.3302-0.00627-0.33058-0.00556-1.0098 0.019531h-3.5c-0.54467 0-1 0.45533-1 1v7c0 0.036632 0.017477 0.067804 0.021484 0.10352-2.98e-4 0.00962-0.00586 0.017649-0.00586 0.027344v4.043c2e-7 0.52853 0.446 0.95508 1 0.95508h0.18555c0.554 0 1-0.42655 1-0.95508v-3.1738h3.7988c0.49118-0.0035 0.42802-0.0063 0.6543-0.0098 0.17239 0.0038 0.062092 0.0049 0.3457 0.0098h3.7969v3.1543c0 0.52853 0.446 0.95508 1 0.95508h0.1875c0.554 0 1-0.42655 1-0.95508v-4.043c0-0.00624-0.0038-0.011365-0.0039-0.017578 0.003294-0.032435 0.019525-0.060569 0.019525-0.09375v-7c0-0.54467-0.4553-1-1-1h-3.5c-2 0-2.66-0.013259-2.9902-0.019531zm-2.623 1.502h6.9746c0.277 0 0.52628 0.093926 0.70703 0.24414 0.18075 0.15021 0.29297 0.35769 0.29297 0.58789v4.1035c0 0.2302-0.11222 0.43768-0.29297 0.58789s-0.43003 0.24414-0.70703 0.24414h-6.9746c-0.277 0-0.52628-0.093926-0.70703-0.24414-0.18075-0.15021-0.29297-0.35769-0.29297-0.58789v-4.1035c0-0.2302 0.11222-0.43768 0.29297-0.58789 0.18075-0.15021 0.43003-0.24414 0.70703-0.24414z"/>
</svg>
