<?xml version="1.0" encoding="UTF-8" standalone="no"?>
<svg
   width="14"
   height="14"
   version="1.1"
   id="svg1"
   xmlns="http://www.w3.org/2000/svg"
   xmlns:svg="http://www.w3.org/2000/svg">
  <defs
     id="defs1" />
  <path
     d="M 2.592,0.93930137 A 1.844,1.844 0 0 0 2,1.0623014 v 8 c 0,0 3.188,-0.125 4,2.9999996 V 3.6623014 C 5.38,2.3563014 3.981,0.88230137 2.592,0.93930137 Z M 6,12.062301 c -2.063,-1.594 -5,-2 -5,-2 V 2.4623014 l -1,-0.4 v 8.9999996 l 6,2 h 2 l 6,-2 V 2.0623014 l -1,0.4 v 7.9999996 l -5,1.6 a 2.95,2.95 0 0 0 -2,0 z M 12,1.0623014 c -1.992,-0.10700003 -4.293,1.09 -5.5,2.12 v 8.4639996 c 1.115,-0.925 3.114,-2.1409996 5.5,-2.3849996 z"
     id="path1" />
</svg>
