<svg xmlns="http://www.w3.org/2000/svg" width="14" height="14"><path d="M0 0v3h.02C.59 3 1 3.448 1 4S.57 5 0 5v3h2V7H1V5.717C1.594 5.369 2 4.734 2 4c0-.734-.406-1.369-1-1.717V1h12v1.283c-.594.348-1 .983-1 1.717 0 .744.402 1.386 1 1.73V7h-1v1h2V5h-.031C13.398 5 13 4.552 13 4s.38-1 .951-1l.018.002V3H14V0H0Z"/><path d="M7 3C5.822 3 4.866 4.176 4.866 5.624c0 1.031.484 1.924 1.19 2.352.211.129-.02.462-.176.246-.391-.543-.961-.885-1.597-.885-1.178 0-2.134 1.176-2.134 2.624 0 1.448.956 2.622 2.134 2.622 1.169 0 2.122-1.156 2.134-2.589.002-.254.32-.28.32.062 0 .538-.422 3.399-.647 3.944.246-.076.656-.14.91-.14s.664.064.91.14c-.225-.545-.646-3.406-.646-3.944 0-.342.317-.316.319-.062.012 1.433.965 2.589 2.134 2.589 1.178 0 2.134-1.174 2.134-2.622s-.956-2.624-2.134-2.624c-.636 0-1.206.342-1.597.885-.156.216-.387-.117-.175-.246.705-.428 1.189-1.32 1.189-2.352C9.134 4.176 8.178 3 7 3Z"/></svg>