<?xml version="1.0" encoding="UTF-8"?>
<svg id="bowling" width="15" height="15" version="1.1" viewBox="0 0 15 15" xmlns="http://www.w3.org/2000/svg">
 <path d="m11.106 3.1664c0 1.006-0.335 1.857-0.693 2.77-0.414 1.052-0.86 2.185-0.86 3.73 0 2.166 0.687 4.333 1.409 4.333h1.444c0.723 0 1.409-2.166 1.409-4.333 0-1.545-0.446-2.678-0.86-3.73-0.358-0.912-0.693-1.764-0.693-2.77 0-0.722 0.144-0.723 0.144-1.445a0.743 0.743 0 0 0-0.722-0.722 0.743 0.743 0 0 0-0.722 0.722c0 0.723 0.144 0.723 0.144 1.445zm-2.552 6.5c0-1.234 0.254-2.236 0.55-3.091a4.5 4.5 0 1 0-0.17 6.038c-0.237-0.865-0.38-1.91-0.38-2.947zm-3.13-2.546a0.62 0.62 0 1 1-1.24 0 0.62 0.62 0 0 1 1.24 0zm-1 2a0.62 0.62 0 1 1-1.24 0 0.62 0.62 0 0 1 1.24 0zm2 0a0.62 0.62 0 1 1-1.24 0 0.62 0.62 0 0 1 1.24 0z"/>
</svg>
