<svg xmlns="http://www.w3.org/2000/svg" width="17.585" height="17.598"><path d="M15.398 8.249h-.586a6.01 6.01 0 0 0-1.373-3.311l.416-.417a.55.55 0 0 0-.765-.79l-.013.013-.416.415a6.01 6.01 0 0 0-3.312-1.373V2.2a.55.55 0 0 0-1.1 0v.586A6.01 6.01 0 0 0 4.938 4.16l-.418-.42a.55.55 0 0 0-.778.778l.416.414A6.01 6.01 0 0 0 2.787 8.25H2.2a.55.55 0 0 0 0 1.1h.586a6.01 6.01 0 0 0 1.372 3.311l-.416.416a.55.55 0 0 0 .765.792l.013-.014.416-.416a6.008 6.008 0 0 0 3.312 1.374v.586a.55.55 0 0 0 1.1 0v-.586a6.01 6.01 0 0 0 3.31-1.374l.418.415a.55.55 0 0 0 .79-.764l-.013-.013-.415-.416a6.01 6.01 0 0 0 1.374-3.311h.586a.55.55 0 0 0 0-1.1Zm-6.05-4.343A4.895 4.895 0 0 1 11.87 4.95L9.505 7.314a1.632 1.632 0 0 0-.157-.064V3.906Zm-1.1 0V7.25a1.632 1.632 0 0 0-.156.064L5.727 4.949a4.895 4.895 0 0 1 2.522-1.043Zm-3.3 1.82 2.365 2.366a1.632 1.632 0 0 0-.063.157H3.905a4.895 4.895 0 0 1 1.043-2.522ZM3.905 9.35H7.25c.019.053.04.106.064.157l-2.365 2.365A4.893 4.893 0 0 1 3.906 9.35Zm4.345 4.342a4.895 4.895 0 0 1-2.522-1.044l2.365-2.365c.051.024.104.045.157.064v3.344zm1.1 0v-3.344a1.96 1.96 0 0 0 .157-.064l2.365 2.365a4.893 4.893 0 0 1-2.522 1.043zm3.3-1.822-2.365-2.365c.024-.05.045-.103.064-.157h3.345a4.893 4.893 0 0 1-1.045 2.522zm-2.302-3.62a1.632 1.632 0 0 0-.064-.157l2.365-2.365a4.895 4.895 0 0 1 1.043 2.52h-3.344Z" overflow="visible"/></svg>