<?xml version="1.0" encoding="UTF-8"?>
<svg id="bulldozer" width="15" height="15" version="1.1" viewBox="0 0 15 15" xmlns="http://www.w3.org/2000/svg">
 <path d="m10.578 9c1.5 0 2 1 2 2s-0.5 2-2 2h-8.5c-1.5 0-2-1-2-2s0.5-2 2-2zm0.25 1c-0.55 0-1 0.45-1 1s0.45 1 1 1 1-0.45 1-1-0.45-1-1-1zm-9 0c-0.55 0-1 0.45-1 1s0.45 1 1 1 1-0.45 1-1-0.45-1-1-1zm6 0c-0.55 0-1 0.45-1 1s0.45 1 1 1 1-0.45 1-1-0.45-1-1-1zm-3 0c-0.55 0-1 0.45-1 1s0.45 1 1 1 1-0.45 1-1-0.45-1-1-1zm9.25-1c0-4 1.5-4 0.5-4s-2 0.5-2 4 1 4 2 4-0.5 0-0.5-4zm-7.6-6c0.5 0 0.6 0.5 0.6 0.5l0.5 2.5h-4.5v-3zm0.6-1h-4.5s-0.5 0-0.5 0.5v3.5h-0.5s-0.5 0-0.5 0.45v1.55c0 0.5 0.5 0.5 0.5 0.5h10.5s0-2.5-1-2.5h-2.25l-0.9-3.35s-0.1-0.65-0.85-0.65z"/>
</svg>
