<svg xmlns="http://www.w3.org/2000/svg" width="14" height="14"><path d="M1.059 9.998a2.5 2.5 0 0 0-.055.508 2.5 2.5 0 0 0 2.398 2.496V14L6 12.5 3.402 11v1a1.5 1.5 0 0 1-1.308-2.002H1.059ZM12.07 5a4.63 4.63 0 0 0-2.19.521C8.808 6.083 8.299 6.765 7.889 8h-.716L7 9h.808c0 .339-.016.66.012 1h-.648L7 11h.943c.095.427.103.494.234.795C8.831 13.283 10.192 14 12.05 14c.621 0 1.19-.114 1.704-.344v-1.223c-.432.388-1.032.58-1.801.58a3.022 3.022 0 0 1-1.537-.408c-.658-.38-1.072-.699-1.245-1.605h3.668l.174-1H9.041c-.003-.333-.013-.667 0-1h4.138l.166-1H9.14c.041-.325.1-.4.33-.76.226-.348.557-.583.836-.773.469-.32 1.048-.48 1.739-.48.637 0 1.207.2 1.709.599L14 5.48c-.523-.32-1.165-.48-1.93-.48Zm-1.472-5L8 1.5 10.598 3V1.998A1.5 1.5 0 0 1 11.906 4h1.036A2.5 2.5 0 0 0 10.598.996V0ZM3 0v1.03c-.42.029-.82.086-1.182.2-.483.154-.853.382-1.105.68-.252.296-.377.614-.377.955 0 .311.103.594.307.846.208.25.521.458.941.627.28.114.775.237 1.416.365v2.445a3.786 3.786 0 0 1-.654-.15c-.4-.135-.697-.312-.889-.527a1.624 1.624 0 0 1-.36-.834L0 5.709c.016.453.177.86.48 1.22.308.358.73.625 1.266.803.356.118.787.183 1.254.223V9h1V7.98c.524-.02 1.012-.093 1.441-.244.504-.178.889-.425 1.157-.742.267-.32.402-.661.402-1.021a1.41 1.41 0 0 0-.365-.961c-.244-.28-.623-.51-1.135-.692-.286-.1-.82-.217-1.5-.343v-2.14c.41.046.764.126 1.008.28.348.219.553.543.613.97l1.115-.066a1.74 1.74 0 0 0-.431-1.066c-.268-.314-.653-.55-1.153-.71C4.81 1.13 4.417 1.071 4 1.036V0H3Zm0 1.828v1.944c-.585-.125-1.031-.246-1.201-.366-.228-.157-.342-.358-.342-.601 0-.28.16-.518.48-.715.24-.148.617-.223 1.063-.262Zm1 3.086c.295.06.718.14.846.178.368.108.633.24.793.4.16.157.24.342.24.555 0 .21-.084.403-.252.582-.164.175-.416.314-.756.416A3.895 3.895 0 0 1 4 7.178V4.914Z"/></svg>