<svg xmlns="http://www.w3.org/2000/svg" width="14" height="14"><path d="M1.568.002c-.156 0-.3.014-.435.039h11.76a2.352 2.352 0 0 0-.436-.039S1.564-.002 1.568.002Zm12.418 1.309v11.441c.009-.083.014-.17.014-.262V1.576c0-.093-.005-.18-.014-.265ZM7 .46c-1.205.01-2.84.35-3.521.635-.691.288-1.151.575-1.295 1.295l-.52 3.994v5.502h.895v.861c0 1.051 1.537 1.051 1.537 0v-.861h5.806v.861c0 1.051 1.54 1.051 1.54 0v-.861h.894V6.385l-.52-3.994c-.144-.721-.604-1.007-1.296-1.295C9.839.812 8.205.472 7 .463ZM4.805 1.469h4.388c.432 0 .432.648 0 .648H4.807c-.433 0-.433-.646-.002-.648ZM3.639 2.77h6.72c.457 0 .578.234.633.586l.404 2.897c.037.278-.042.55-.425.55H3.03c-.383 0-.464-.272-.426-.55l.403-2.897c.055-.352.174-.586.63-.586Zm-.31 5.915a.739.739 0 0 1 0 1.476.739.739 0 1 1 0-1.476Zm7.343 0a.739.739 0 0 1 0 1.476.739.739 0 1 1 0-1.476Z"/></svg>