<?xml version="1.0" encoding="UTF-8"?>
<svg id="bus_trolley" width="15" height="15" version="1.1" viewBox="0 0 15 15" xmlns="http://www.w3.org/2000/svg">
 <path d="m8 1v1h3c1.1 0 2 0.9 2 2v8c0 1-1 1-1 1v1s0 1-1 1-1-1-1-1v-1h-5v1s0 1-1 1-1-1-1-1v-1c-1 0-1-1-1-1v-3.8-4.2c0-1.1 0.9-2 2-2h3v-1h-2.5c-0.28 0-0.5-0.22-0.5-0.5s0.22-0.5 0.5-0.5h6c0.28 0 0.5 0.22 0.5 0.5s-0.22 0.5-0.5 0.5h-2.5zm-4.5 4c-0.28 0-0.5 0.22-0.5 0.5v3c0 0.28 0.22 0.5 0.5 0.5h8c0.28 0 0.5-0.22 0.5-0.5v-3c0-0.28-0.22-0.5-0.5-0.5h-8zm0.5 5c-0.55 0-1 0.45-1 1s0.45 1 1 1 1-0.45 1-1-0.45-1-1-1zm7 0c-0.55 0-1 0.45-1 1s0.45 1 1 1 1-0.45 1-1-0.45-1-1-1zm-7-6.5c0 0.28 0.22 0.5 0.5 0.5h6c0.28 0 0.5-0.22 0.5-0.5s-0.22-0.5-0.5-0.5h-6c-0.28 0-0.5 0.22-0.5 0.5z"/>
</svg>
