<?xml version="1.0" encoding="UTF-8"?>
<svg id="bus_guided" width="15" height="15" version="1.1" viewBox="0 0 15 15" xmlns="http://www.w3.org/2000/svg">
 <path d="m2 3c0-1.1 0.9-2 2-2h7c1.1 0 2 0.9 2 2v8c0 0.55-0.45 1-1 1v1c0 0.55-0.45 1-1 1s-1-0.45-1-1v-1h-5v1c0 0.55-0.45 1-1 1s-1-0.45-1-1v-1c-0.55 0-1-0.45-1-1v-3.8-4.2zm1.5 1c-0.28 0-0.5 0.22-0.5 0.5v3c0 0.28 0.22 0.5 0.5 0.5h8c0.28 0 0.5-0.22 0.5-0.5v-3c0-0.28-0.22-0.5-0.5-0.5h-8zm0.5 5c-0.55 0-1 0.45-1 1s0.45 1 1 1 1-0.45 1-1-0.45-1-1-1zm7 0c-0.55 0-1 0.45-1 1s0.45 1 1 1 1-0.45 1-1-0.45-1-1-1zm-7-6.5c0 0.28 0.22 0.5 0.5 0.5h6c0.28 0 0.5-0.22 0.5-0.5s-0.22-0.5-0.5-0.5h-6c-0.28 0-0.5 0.22-0.5 0.5zm9.44 11.5c-0.06 0-0.11-0.01-0.17-0.03-0.26-0.09-0.39-0.38-0.3-0.64l1.54-4.3c0.04-0.1 0.13-0.17 0.24-0.17 0.14 0 0.25 0.11 0.25 0.25v4.39c0 0.28-0.22 0.5-0.5 0.5h-1.06zm-11.88 0h-1.06c-0.28 0-0.5-0.22-0.5-0.5v-4.39c0-0.14 0.11-0.25 0.25-0.25 0.11 0 0.2 0.07 0.24 0.17l1.54 4.3c0.09 0.26-0.04 0.55-0.3 0.64-0.06 0.02-0.11 0.03-0.17 0.03z"/>
</svg>
