<?xml version="1.0" encoding="UTF-8"?>
<svg width="15" height="15" version="1.1" viewBox="0 0 15 15" xmlns="http://www.w3.org/2000/svg">
 <path id="butcher" d="m6.8884 2.03c0.17555 0.677 0.45037 2.0028 1.031 3.2908 0.59991 1.3307 1.3221 2.3682 1.5908 2.7188zm1.6951 7.568c0.07486 0.62019 2.1685 3.5038 2.8763 4.0268 0.2733 0.2018 0.4643 0.0371 0.9283-0.2901 0.4641-0.3275 0.6388-0.6064 0.4697-1.0006-0.3471-0.8093-1.8654-3.7148-2.5782-4.1804-0.68584-0.99658-1.2605-1.7501-1.8257-3.1318-0.58474-1.4296-0.95794-2.8818-1.1817-3.7349-0.79603 0.23057-2.1142 0.7883-2.9252 1.1617-0.90359 0.41594-1.55 0.82205-2.268 1.2065 0.22712 0.65928 0.77017 2.2831 1.9043 4.0373 0.89611 1.3861 1.6495 2.4898 2.499 3.3294z"/>
</svg>
