<svg xmlns="http://www.w3.org/2000/svg" width="14" height="14"><path d="M6.268 9.868S5.232 8.655 4.154 6.891c-.854-1.4-1.645-3.243-1.717-3.44.583-.423 3.561-1.761 4.165-1.893.175.677.45 2.003 1.03 3.291.6 1.33 1.323 2.368 1.592 2.719-.644.606-2.956 2.3-2.956 2.3Zm2.029-.742c.075.62 2.168 3.504 2.876 4.027.273.202.464.037.928-.29.464-.327.64-.606.47-1-.347-.81-1.865-3.715-2.578-4.18-.686-.997-1.26-1.751-1.826-3.133C7.582 3.12 7.21 1.67 6.985.815c-.796.23-2.114.789-2.925 1.162-.903.416-1.55.822-2.268 1.207.227.659.77 2.283 1.904 4.037.897 1.386 1.65 2.49 2.5 3.33l2.1-1.425ZM5.149 3.358c0-.32.275-.58.614-.58.34 0 .614.26.614.58 0 .321-.275.581-.614.581-.34 0-.614-.26-.614-.58Z" clip-rule="evenodd"/></svg>