<?xml version="1.0" encoding="UTF-8"?>
<svg id="camper_trailer" width="15" height="15" version="1.1" viewBox="0 0 15 15" xmlns="http://www.w3.org/2000/svg">
 <path d="m10.5 10.75c0-1.1-0.9-2-2-2s-2 0.9-2 2h-6c-0.28 0-0.5-0.22-0.5-0.5s0.22-0.5 0.5-0.5h2.5c-1.1 0-2-0.9-2-2v-2.71c0-1.03 0.78-1.89 1.8-1.99 1.93-0.2 3.66-0.3 5.2-0.3s3.27 0.1 5.2 0.3c1.02 0.1 1.8 0.96 1.8 1.99v3.71c0 1.1-0.9 2-2 2zm-5-4c0.28 0 0.5-0.22 0.5-0.5v-1c0-0.28-0.22-0.5-0.5-0.5h-2c-0.28 0-0.5 0.22-0.5 0.5v1c0 0.28 0.22 0.5 0.5 0.5zm7 0c0.28 0 0.5-0.22 0.5-0.5v-1c0-0.28-0.22-0.5-0.5-0.5h-4c-0.28 0-0.5 0.22-0.5 0.5v1c0 0.28 0.22 0.5 0.5 0.5zm-4 5.5c-0.83 0-1.5-0.67-1.5-1.5s0.67-1.5 1.5-1.5 1.5 0.67 1.5 1.5-0.67 1.5-1.5 1.5z"/>
</svg>
