<?xml version="1.0" encoding="UTF-8"?>
<svg id="campfire" width="15" height="15" version="1.1" viewBox="0 0 15 15" xmlns="http://www.w3.org/2000/svg">
 <path d="m7.5387 1.5105s-0.51934 0.34013-1.2099 1.5616c-0.45522 0.80526-0.76294 2.0755-0.74063 2.284-0.034327-0.087034-0.36393-0.93701-0.3993-1.6578-0.70902 0.63489-1.1555 1.557-1.1555 2.5827 0 1.9132 1.5534 3.4666 3.4666 3.4666 1.9132 0 3.4666-1.5534 3.4666-3.4666 0-0.92145-0.36019-1.7595-0.94756-2.3807l-0.44531 1.8509s-0.090308-0.631-0.30207-1.0492c-0.20857-0.41181-0.94559-1.2085-1.1181-1.4287-0.48542-0.62038-0.61481-1.7628-0.61481-1.7628zm-3.8898 7.4747c-0.23165 0.00971-0.44605 0.15525-0.5324 0.38604-0.048315 0.12924-0.099865 0.26655-0.14818 0.39566-0.11513 0.30773 0.041141 0.65071 0.34887 0.76585 0.38626 0.14453 1.2312 0.46056 1.8824 0.70423-0.65124 0.2437-1.4961 0.55996-1.8824 0.7045-0.30773 0.11513-0.464 0.45799-0.34887 0.76558 0.048315 0.12924 0.099865 0.26668 0.14818 0.39592 0.11513 0.30773 0.45812 0.46374 0.76584 0.34861 0.74228-0.27778 2.1836-0.81702 3.6176-1.3536 1.434 0.53659 2.8753 1.0758 3.6176 1.3536 0.30773 0.11513 0.65071-0.04088 0.76584-0.34861 0.04831-0.12924 0.09986-0.26668 0.14818-0.39592 0.11513-0.30759-0.04114-0.65045-0.34887-0.76558-0.38627-0.14454-1.2311-0.4608-1.8824-0.7045 0.65121-0.24368 1.4961-0.5597 1.8824-0.70423 0.30773-0.11513 0.464-0.45812 0.34887-0.76585-0.048315-0.12911-0.099865-0.26642-0.14818-0.39566-0.11513-0.30773-0.45812-0.464-0.76584-0.34887-0.74229 0.27778-2.1836 0.81725-3.6176 1.3539-1.434-0.53663-2.8753-1.0761-3.6176-1.3539-0.076932-0.028789-0.15623-0.040423-0.23344-0.037174z"/>
</svg>
