<svg xmlns="http://www.w3.org/2000/svg" width="16" height="12"><path d="M14.974 5.287 13.61 4.02 12.4 1.6a1.155 1.155 0 0 0-.99-.55H4.59a1.155 1.155 0 0 0-.99.55L2.39 4.02 1.026 5.287a.55.55 0 0 0-.176.404V10.4a.55.55 0 0 0 .55.55h2.2c.22 0 .55-.22.55-.44v-.66h7.7v.55c0 .22.22.55.44.55h2.31a.55.55 0 0 0 .55-.55V5.69a.55.55 0 0 0-.176-.403zM4.7 2.15h6.6l1.1 2.2H3.6Zm.55 5.06c0 .22-.33.44-.55.44H2.39c-.22 0-.44-.33-.44-.55V5.89c.11-.33.33-.55.66-.44l2.2.44c.22 0 .44.33.44.55zm8.8-.11c0 .22-.22.55-.44.55H11.3c-.22 0-.55-.22-.55-.44v-.77c0-.22.22-.55.44-.55l2.2-.44c.33-.11.55.11.66.44z"/></svg>