<?xml version="1.0" encoding="UTF-8" standalone="no"?>
<svg
   width="16.823"
   height="17.959"
   version="1.1"
   id="svg1"
   xmlns="http://www.w3.org/2000/svg"
   xmlns:svg="http://www.w3.org/2000/svg">
  <defs
     id="defs1" />
  <path
     d="m 13.512,10.159 -1.1,-2.2 a 1.05,1.05 0 0 0 -0.9,-0.5 H 5.3119998 a 1.05,1.05 0 0 0 -0.9,0.5 l -1.1,2.2 -1.24,1.152 a 0.5,0.5 0 0 0 -0.16,0.367 v 4.28 a 0.5,0.5 0 0 0 0.5,0.5 h 2 c 0.2,0 0.5,-0.2 0.5,-0.4 v -0.6 H 11.912 v 0.5 c 0,0.2 0.2,0.5 0.4,0.5 h 2.1 a 0.5,0.5 0 0 0 0.5,-0.5 v -4.28 a 0.5,0.5 0 0 0 -0.16,-0.367 z M 5.4119998,8.459 H 11.412 l 1,2 H 4.4119998 Z m 0.5,4.6 c 0,0.2 -0.3,0.4 -0.5,0.4 h -2.1 c -0.2,0 -0.4,-0.3 -0.4,-0.5 v -1.1 c 0.1,-0.3 0.3,-0.5 0.6,-0.4 l 2,0.4 c 0.2,0 0.4,0.3 0.4,0.5 z M 13.912,12.959 c 0,0.2 -0.2,0.5 -0.4,0.5 h -2.1 c -0.2,0 -0.5,-0.2 -0.5,-0.4 v -0.7 c 0,-0.2 0.2,-0.5 0.4,-0.5 l 2,-0.4 c 0.3,-0.1 0.5,0.1 0.6,0.4 z m 1,-9.5 v 1 a 1.009,1.009 0 0 1 -1.017,1 H 6.2589998 a 2.549,2.549 0 0 1 -4.348,-0.5 h 2.5 v -2 h -2.5 a 2.549,2.549 0 0 1 4.348,-0.5 H 13.894 a 1.009,1.009 0 0 1 1.017,1 z"
     id="path1" />
</svg>
