<svg xmlns="http://www.w3.org/2000/svg" width="16" height="18"><path d="M13.1 10.2 12 8a1.05 1.05 0 0 0-.9-.5H4.9A1.05 1.05 0 0 0 4 8l-1.1 2.2-1.24 1.152a.5.5 0 0 0-.16.367V16a.5.5 0 0 0 .5.5h2c.2 0 .5-.2.5-.4v-.6h7v.5c0 .2.2.5.4.5H14a.5.5 0 0 0 .5-.5v-4.281a.5.5 0 0 0-.16-.367ZM5 8.5h6l1 2H4Zm.5 4.6c0 .2-.3.4-.5.4H2.9c-.2 0-.4-.3-.4-.5v-1.1c.1-.3.3-.5.6-.4l2 .4c.2 0 .4.3.4.5zm8-.1c0 .2-.2.5-.4.5H11c-.2 0-.5-.2-.5-.4v-.7c0-.2.2-.5.4-.5l2-.4c.3-.1.5.1.6.4zM14 1.5h-2.5a1 1 0 0 0-1 1h-8l-1 1v1l1 1L4 4l1.5 1.5L7 4l1.5 1.5h2a1 1 0 0 0 1 1H14a.5.5 0 0 0 .5-.5V2a.5.5 0 0 0-.5-.5ZM13.5 5a.5.5 0 0 1-1 0V3a.5.5 0 0 1 1 0z"/></svg>