<?xml version="1.0" encoding="UTF-8" standalone="no"?>
<svg
   width="14"
   height="14"
   version="1.1"
   id="svg1"
   xmlns="http://www.w3.org/2000/svg"
   xmlns:svg="http://www.w3.org/2000/svg">
  <defs
     id="defs1" />
  <path
     d="M 5,2 3,5 H 2 L 4,2 Z m 4,0 2,3 h 1 L 10,2 Z M 6.5,2 h 1 v 3 h -1 z M 6,0 4,1 h 6 L 8,0 Z"
     clip-rule="evenodd"
     id="path1" />
  <path
     d="M 10.95571,8.458841 10.102518,6.7524558 C 9.9535235,6.5101468 9.6888995,6.3631328 9.4044515,6.3646408 h -4.808903 c -0.284449,-0.0015 -0.549073,0.145506 -0.698067,0.387815 l -0.853193,1.7063852 -0.96178,0.893525 c -0.07921,0.07346 -0.124186,0.176628 -0.124101,0.284657 v 3.319694 c 0,0.214184 0.173631,0.387815 0.387815,0.387815 h 1.551259 c 0.155126,0 0.387815,-0.155126 0.387815,-0.310252 v -0.465378 h 5.429407 v 0.387815 c 0,0.155126 0.155126,0.387815 0.3102515,0.387815 h 1.628822 c 0.214184,0 0.387815,-0.173631 0.387815,-0.387815 V 9.637023 c 8.5e-5,-0.108029 -0.04489,-0.211197 -0.124101,-0.284657 z M 4.6731115,7.140271 h 4.653777 L 10.102518,8.69153 H 3.8974815 Z m 0.387814,3.567896 c 0,0.155126 -0.232689,0.310252 -0.387814,0.310252 h -1.628823 c -0.155126,0 -0.310251,-0.232689 -0.310251,-0.387815 V 9.777411 c 0.07756,-0.232688 0.232688,-0.387814 0.465377,-0.310251 l 1.551259,0.310251 c 0.155126,0 0.310252,0.232689 0.310252,0.387815 z m 6.2050365,-0.07756 c 0,0.155126 -0.155126,0.387815 -0.310252,0.387815 H 9.3268885 c -0.155126,0 -0.387815,-0.155126 -0.387815,-0.310252 v -0.542941 c 0,-0.155126 0.155126,-0.387815 0.310252,-0.387815 L 10.800584,9.467163 c 0.232689,-0.07756 0.387815,0.07756 0.465378,0.310251 z m 0.77563,-7.3684813 h -7.76e-4 z"
     id="path1-8"
     style="stroke-width:0.77563" />
</svg>
