<svg xmlns="http://www.w3.org/2000/svg" width="16.823" height="17.959"><path d="m13.923 10.159-1.1-2.2a1.05 1.05 0 0 0-.9-.5h-6.2a1.05 1.05 0 0 0-.9.5l-1.1 2.2-1.24 1.152a.5.5 0 0 0-.16.367v4.28a.5.5 0 0 0 .5.5h2c.2 0 .5-.2.5-.4v-.6h7v.5c0 .2.2.5.4.5h2.1a.5.5 0 0 0 .5-.5v-4.28a.5.5 0 0 0-.16-.367zm-8.1-1.7h6l1 2h-8Zm.5 4.6c0 .2-.3.4-.5.4h-2.1c-.2 0-.4-.3-.4-.5v-1.1c.1-.3.3-.5.6-.4l2 .4c.2 0 .4.3.4.5zm8-.1c0 .2-.2.5-.4.5h-2.1c-.2 0-.5-.2-.5-.4v-.7c0-.2.2-.5.4-.5l2-.4c.3-.1.5.1.6.4zm1-9.5v1a1.009 1.009 0 0 1-1.017 1H6.67a2.549 2.549 0 0 1-4.348-.5h2.5v-2h-2.5a2.549 2.549 0 0 1 4.348-.5h7.635a1.009 1.009 0 0 1 1.017 1z"/></svg>