<svg xmlns="http://www.w3.org/2000/svg" width="13.392" height="15.12"><path d="M9.72 4.536H3.672a.864.864 0 0 1-.864-.864v-2.16a.432.432 0 0 1 .864 0v1.296h.864v-.864a.864.864 0 1 1 1.728 0v.864h.864v-.864a.864.864 0 1 1 1.728 0v.864h.864V1.512a.432.432 0 0 1 .864 0v2.16a.864.864 0 0 1-.864.864zm2.592 9.072a.432.432 0 0 1-.432.432H1.512a.432.432 0 0 1 0-.864h.432a.864.864 0 0 0 .864-.864s.864-5.184.864-6.048a.864.864 0 0 1 .864-.864h4.32a.864.864 0 0 1 .864.864c0 .864.864 6.048.864 6.048a.864.864 0 0 0 .864.864h.432a.432.432 0 0 1 .432.423zm-4.32-3.456a1.296 1.296 0 0 0-2.592 0v3.024h2.592z" overflow="visible"/></svg>