<?xml version="1.0" encoding="UTF-8"?>
<svg id="caution" width="15" height="15" version="1.1" viewBox="0 0 15 15" xmlns="http://www.w3.org/2000/svg">
 <path d="m1.093 12.391 5.7474-10.502c0.28495-0.52067 1.0342-0.52067 1.3191 0l5.7474 10.502c0.2735 0.4998-0.089 1.1095-0.6596 1.1095h-11.495c-0.57063 0-0.93307-0.6097-0.65956-1.1095zm7.207-3.8924 0.40297-2.4178c0.05079-0.30477-0.18423-0.5822-0.4932-0.5822h-1.4195c-0.30897 0-0.54399 0.27743-0.49319 0.5822l0.40296 2.4178zm0.3 1.9c0-0.60751-0.49248-1.1-1.1-1.1-0.60751 0-1.1 0.49249-1.1 1.1 0 0.6075 0.49249 1.1 1.1 1.1 0.60752 0 1.1-0.4925 1.1-1.1z"/>
</svg>
