<?xml version="1.0" encoding="UTF-8" standalone="no"?>
<svg
   height="15"
   width="15"
   version="1.1"
   id="svg6"
   xmlns="http://www.w3.org/2000/svg"
   xmlns:svg="http://www.w3.org/2000/svg">
  <defs
     id="defs6" />
  <path
     d="M 4.3952031,0.14077105 0.19685671,3.7687763 H 1.0365203 V 9.2107811 H 3.5555342 V 6.4452078 h 1.7369132 l 5.7e-6,2.7655733 H 7.7538859 V 3.7687763 h 0.8396686 z"
     fill="#fff"
     fill-rule="evenodd"
     stroke="#ffffff"
     stroke-width="0.022029"
     id="path4"
     style="fill:#000000" />
  <path
     d="m 11.032983,6.8534359 -0.190866,0.405591 -0.153754,0.3260634 C 10.154571,8.71683 9.6186326,9.8480917 9.0819044,10.978269 8.8247781,10.624898 8.5675484,10.272014 8.3078356,9.9205519 L 8.1222709,9.6687146 7.9579139,9.9338071 C 6.9464165,11.552714 5.9448788,13.177518 4.9279106,14.790295 l -0.2014698,0.320761 0.3790818,0.0027 c 3.1758767,0.02694 6.3517114,0.05215 9.5274104,0.07953 l 0.339319,0.0027 L 14.82645,14.89113 C 13.629654,12.344683 12.426057,9.8023025 11.223849,7.2590269 Z"
     fill="#ffffff"
     id="path6"
     style="opacity:1;fill:#000000;stroke-width:0.0848299" />
</svg>
