<svg fill="none" height="13" viewBox="0 0 13 13" width="13" xmlns="http://www.w3.org/2000/svg"><g fill="#000"><path d="m12.9322 5.77624-2.93248-2.74625-3.31792-2.760499c-.09451-.099003-.25238-.103859-.35296-.010857l-.011.010857-6.2502689 5.482269c-.0944175.09946-.0892565.25562.0115222.3488.0454687.04204.1052097.06581.1675107.06666l1.753526.02467h10.74897c.1381.00046.2504-.10966.2509-.24595.0002-.06298-.0242-.12375-.0678-.1697z"/><path d="m9.00458 1.18863c0-.549605.44554-.995149.99515-.995149.54957 0 .99517.445543.99517.995149v2.81137l-1.99032-.7613z"/><path clip-rule="evenodd" d="m1.1535 8.19189c0-.55228.44772-1 1-1h9c.5523 0 1 .44772 1 1 0 .55229-.4477 1-1 1h-2.15347c0-.55228-.44771-1-1-1h-1c-.55228 0-1 .44772-1 1h-3.84653c-.55228 0-1-.44771-1-1zm4.84653 2.00001h-3.84653c-.55228 0-1 .4477-1 1s.44772 1 1 1h3.84653zm3 2h2.15347c.5523 0 1-.4477 1-1s-.4477-1-1-1h-2.15347z" fill-rule="evenodd"/></g></svg>