<?xml version="1.0" encoding="UTF-8" standalone="no"?>
<svg
   width="14"
   height="14"
   version="1.1"
   id="svg1"
   xmlns="http://www.w3.org/2000/svg"
   xmlns:svg="http://www.w3.org/2000/svg">
  <defs
     id="defs1" />
  <path
     d="m 12.735,13 c 0,-12 0.023,-10.048 0.023,-12 0,-1 -0.047,-1 -1.539,-1 v 13.039 c 0.048,0.964 0,0.961 0.719,0.961 0.765,0 0.797,0 0.797,-1 z M 1.727,11.625 c 1.989,0.633 3.127,0.633 5.093,-0.07 L 6.219,4 c -2,0.281 -2,0.305 -4,0 z M 3.539,0 h 1.399 l 0.554,3 c -1,0.305 -1.554,0.305 -2.554,0 z M 1.242,14 1.477,13 h 5.5 l 0.257,1 z M 8.703,0 h 1.96 v 0.61 h -1.96 z m 0,1 h 1.96 v 0.61 h -1.96 z m 0,1 h 1.96 v 0.61 h -1.96 z m 0,1 h 1.96 v 0.61 h -1.96 z m 0,1 h 1.96 v 0.61 h -1.96 z"
     id="path1" />
</svg>
