<svg xmlns="http://www.w3.org/2000/svg" width="18.15" height="15.73"><path d="M16.335 8.47v2.42a.605.605 0 0 1-1.21 0s.073-.605-1.21-.605h-1.21v3.025c0 .334-.27.605-.605.605H2.42a.605.605 0 0 1-.605-.605V8.47c0-.334.27-.605.605-.605h9.68c.334 0 .605.27.605.605v.605h1.21c1.283 0 1.21-.605 1.21-.605a.605.605 0 0 1 1.21 0zm-12.1-5.445a2.42 2.42 0 1 0 0 4.84 2.42 2.42 0 0 0 0-4.84zm0 3.63a1.21 1.21 0 1 1 0-2.42 1.21 1.21 0 0 1 0 2.42zm5.445-4.84a3.025 3.025 0 1 0 0 6.05 3.025 3.025 0 0 0 0-6.05zm0 4.84a1.815 1.815 0 1 1 0-3.63 1.815 1.815 0 0 1 0 3.63z"/></svg>