<?xml version="1.0" encoding="UTF-8"?>
<svg id="circle-dot" width="15" height="15" version="1.1" viewBox="0 0 15 15" xmlns="http://www.w3.org/2000/svg">
 <path d="m7.5 1c-3.5899 0-6.5 2.9101-6.5 6.5s2.9101 6.5 6.5 6.5 6.5-2.9101 6.5-6.5-2.9101-6.5-6.5-6.5zm0 1.6992c2.651 0 4.8008 2.1498 4.8008 4.8008 0 2.651-2.1498 4.8008-4.8008 4.8008-2.651 0-4.8008-2.1498-4.8008-4.8008 0-2.651 2.1498-4.8008 4.8008-4.8008zm-0.082031 2.2363a2.5092 2.5092 0 0 0-2.5098 2.5098 2.5092 2.5092 0 0 0 2.5098 2.5078 2.5092 2.5092 0 0 0 2.5078-2.5078 2.5092 2.5092 0 0 0-2.5078-2.5098z"/>
</svg>
