<?xml version="1.0" encoding="UTF-8"?>
<svg id="city" width="15" height="15" version="1.1" viewBox="0 0 15 15" xmlns="http://www.w3.org/2000/svg">
 <path d="m13.988 3.0812h-2.0692v-2.0691c-1.26e-4 -0.25168-0.20418-0.45566-0.45584-0.45559h-0.35103c-0.25166 0-0.45571 0.20403-0.45571 0.45571v2.069h-2.0686c-0.25168 0-0.45571 0.20403-0.45571 0.45571v7.1193h-4.5925c-0.25307 0-0.45824 0.20519-0.45824 0.45824v2.872c6.945e-4 0.25254 0.20566 0.45698 0.45824 0.45698h10.449c0.25166 0 0.45571-0.20405 0.45571-0.45571v-10.451c0-0.25168-0.20405-0.45533-0.45571-0.45533zm-8.3818 10.1h-1.2627v-1.2627h1.2627zm2.5254 0h-1.2627v-1.2627h1.2627zm2.5254 0h-1.2627v-1.2627h1.2627zm0-2.5254h-1.2627v-1.2627h1.2627zm0-2.5254h-1.2627v-1.2627h1.2627zm0-2.5254h-1.2627v-1.2627h1.2627zm2.5254 7.575h-1.2627v-1.2627h1.2627zm0-2.5254h-1.2627v-1.2627h1.2627zm0-2.5254h-1.2627v-1.2627h1.2627zm0-2.5254h-1.2627v-1.2627h1.2627zm-6.3138-4.5916c-7.58e-5 -0.25163-0.20408-0.45559-0.45571-0.45559h-2.8762c-0.25168 0-0.45571 0.20403-0.45571 0.45571v2.0697h-2.0697c-0.2508 6.187e-4 -0.45396 0.20378-0.45458 0.45458v10.465c0 0.24408 0.19787 0.44195 0.44195 0.44195h0.82001v-5.0493h5.05zm-3.7865 7.1183h-1.2627v-1.2627h1.2627zm0-2.5254h-1.2627v-1.2627h1.2627zm2.5254 2.5254h-1.2627v-1.2627h1.2627zm0-2.5254h-1.2627v-1.2627h1.2627zm0-2.5254h-1.2627v-1.2603h1.2627v1.2627z"/>
</svg>
