<svg xmlns="http://www.w3.org/2000/svg" width="14" height="14"><path d="M12.384.563s-.755-.707-2-.537c-1.246.17-4.71 1.83-6.32 3.258C2.454 4.712.24 7.002.098 8.524c-.142 1.52-.374 2.18 1.309 3.86 1.682 1.68 5.657.076 5.657.076s3.498-1.595 5.219-4.553c1.72-2.958 1.659-4.21 1.659-4.21s.239-1.094-.251-2.052C13.2.688 12.5.778 12.5.778s-.857.56-1.511 1.281c-.654.721-.643.743-.969 1.03-.325.289-.827.4-1.202.746-.374.347-1.29 2.608-2.974 3.996C4.16 9.22 3.297 9.554 2.878 10.015c-.42.46-.507.944-.823.854-.317-.09-.186-1.75.417-2.267.603-.517.765-.416 1.635-.984.87-.569 1.872-3.313 4.318-5.174 2.446-1.86 3.96-1.881 3.96-1.881Z"/></svg>