<?xml version="1.0" encoding="UTF-8"?>
<svg id="communications_tower" width="15" height="15" version="1.1" viewBox="0 0 15 15" xmlns="http://www.w3.org/2000/svg">
 <path d="m11.848 6.4961-0.4131-0.2813a4.7623 4.7623 0 0 0 0.2813-4.8779l-0.0835-0.1533 0.4355-0.2461 0.0908 0.167a5.2619 5.2619 0 0 1-0.311 5.3916zm1.1521 7.1316v0.4348h-11v-0.4348h2.4886l1.5487-7.1652a0.5 0.5 0 0 1 0.4888-0.3945h0.7255v-1.4041a1.14 1.14 0 0 1-0.8826-1.1014 1.1568 1.1568 0 1 1 2.3136 0 1.14 1.14 0 0 1-0.931 1.1112v1.3947h0.7223a0.5 0.5 0 0 1 0.4887 0.3941l1.5478 7.1648zm-4.5523-4.8142h-1.8955l-0.3228 1.4931h2.541zm-2.3264 1.9931-0.3233 1.4952h3.4036l-0.3231-1.4952zm0.8081-3.7382-0.2691 1.2451h1.6794l-0.2692-1.2451zm-1.4181 6.5593h3.9769l-0.1786-0.8259h-3.62zm-0.3079-8.5515a2.7523 2.7523 0 0 1 0.0161-3.0518l-0.4141-0.2793a3.25 3.25 0 0 0-0.019 3.6065zm5.5468-1.5137a3.2433 3.2433 0 0 0-0.5341-1.7861l-0.418 0.2754a2.7517 2.7517 0 0 1-0.0176 3.0488l0.4141 0.2793a3.2341 3.2341 0 0 0 0.5556-1.8174zm-7.2226 2.6182a4.7637 4.7637 0 0 1-0.1529-4.9882l-0.4335-0.25a5.2643 5.2643 0 0 0 0.1694 5.5137z"/>
</svg>
