<svg xmlns="http://www.w3.org/2000/svg" width="14" height="14"><path d="M2.5 0c-.25 0-.5.222-.5.666v10.668c0 .889 1 .889 1 0V.666C3 .222 2.75 0 2.5 0Zm6.135.006C8.12-.032 7.48.09 6.75.58 4.8 1.886 3.5.58 3.5.58v4.57s1.3 1.306 3.25 0c1.95-1.305 3.25 0 3.25 0V.58S9.492.07 8.635.006ZM9.5 6a1.5 1.5 0 1 0 0 3 1.5 1.5 0 0 0 0-3Zm.828 3.51a1.024 1.024 0 0 0-.394.025.909.909 0 0 0-.403.236c-.012.011-.027.016-.039.028l-1.658 1.705-1.809.51a.5.5 0 1 0 .271.96l1.925-.54c.017-.005.03-.017.047-.024.032-.01.06-.03.09-.047.019-.012.039-.022.056-.037.017-.013.037-.02.053-.037l1.017-1.047L10 14h2l-.799-3.785a1.074 1.074 0 0 0-.873-.705Z"/></svg>