<svg xmlns="http://www.w3.org/2000/svg" width="17.594" height="17.347"><path d="M3.844 3.675s.207-1.168 1.1-1.168h1.107V2.2a.55.55 0 0 1 .55-.55h4.382a.55.55 0 0 1 .55.55v.307h1.111a.916.916 0 0 1 .701.323 1.935 1.935 0 0 1 .4.845s.341 1.73.65 3.21h-1.031L12.646 3.6l-7.72-.005-.713 3.29H3.167zm12.1 5.406a1.1 1.1 0 0 1-1.099 1.1l-1.1 4.37s-.207 1.146-1.1 1.146h-7.7c-.894 0-1.1-1.146-1.1-1.146l-1.118-4.373a1.098 1.098 0 0 1 .017-2.197h12.1a1.1 1.1 0 0 1 1.1 1.1zm-9.862 4.562-.003-1.238-.43-1.69a.591.591 0 1 0-1.17.159l.225 1.534.206 1.394a.591.591 0 1 0 1.172-.16zm2.2-2.857a.587.587 0 0 0-.586-.586h-.012a.55.55 0 0 0-.393.166.582.582 0 0 0-.182.42v2.949a.587.587 0 1 0 1.173 0zm2.198 0a.585.585 0 0 0-.37-.542.55.55 0 0 0-.433 0 .584.584 0 0 0-.37.542v2.948a.586.586 0 1 0 1.173 0zm2.624.088a.591.591 0 1 0-1.171-.159l-.43 1.678-.003 1.25a.591.591 0 1 0 1.171.159z"/></svg>