<?xml version="1.0" encoding="UTF-8"?>
<svg id="cricket" width="15" height="15" version="1.1" viewBox="0 0 15 15" xmlns="http://www.w3.org/2000/svg">
 <path d="m7.1276 2c0 0.8284-0.6716 1.5-1.5 1.5s-1.5-0.6716-1.5-1.5 0.6716-1.5 1.5-1.5 1.5 0.6716 1.5 1.5zm2.88 5.68-2-2c-0.0985-0.1184-0.2461-0.1848-0.4-0.18h-4.73c-0.3764-0.0085-0.6992 0.2669-0.75 0.64l-1 7.7c-0.0068 0.0464-0.0068 0.0936 0 0.14 0 0.2761 0.2239 0.5 0.5 0.5 0.2251 0.0153 0.4315-0.1251 0.5-0.34l1.2-3.89 0.26-0.83 0.4 0.44 1.14 1.24v2.9c0 0.2761 0.2239 0.5 0.5 0.5s0.5-0.2239 0.5-0.5v-3c-0.0081-0.0788-0.0356-0.1544-0.08-0.22l-1.44-1.78 1-2.5h1.71l2 1.84c0.0928 0.1077 0.2278 0.1697 0.37 0.17 0.2563-0.0309 0.447-0.2519 0.44-0.51-3e-4 -0.1176-0.0429-0.2312-0.12-0.32zm3.12 4.09c-0.4142 0-0.75 0.3358-0.75 0.75s0.3358 0.75 0.75 0.75 0.75-0.3358 0.75-0.75-0.3358-0.75-0.75-0.75zm-3.24-1.53v-0.74c0-0.1381-0.1119-0.25-0.25-0.25s-0.25 0.1119-0.25 0.25v0.74c-0.1522 0.0855-0.2474 0.2455-0.25 0.42v3.34c0 0.2761 0.2239 0.5 0.5 0.5s0.5-0.2239 0.5-0.5v-3.34c-0.0026-0.1745-0.0978-0.3345-0.25-0.42z"/>
</svg>
