<?xml version="1.0" encoding="UTF-8"?>
<svg id="cross" width="15" height="15" version="1.1" viewBox="0 0 15 15" xmlns="http://www.w3.org/2000/svg">
 <path d="m3.64 2.2696 3.86 3.86 3.84-3.84c0.1714-0.1824 0.4097-0.2871 0.66-0.29 0.5523 0 1 0.4477 1 1 0.0047 0.2478-0.093 0.4866-0.27 0.66l-3.89 3.84 3.89 3.89c0.1648 0.1612 0.2615 0.3796 0.27 0.61 0 0.5523-0.4477 1-1 1-0.2577 0.0107-0.508-0.0873-0.69-0.27l-3.81-3.86-3.85 3.85c-0.1707 0.1763-0.4047 0.2771-0.65 0.28-0.5523 0-1-0.4477-1-1-0.0047-0.2478 0.093-0.4866 0.27-0.66l3.89-3.84-3.89-3.89c-0.1648-0.1612-0.2615-0.3796-0.27-0.61 0-0.5523 0.4477-1 1-1 0.2404 0.0029 0.4701 0.0998 0.64 0.27z"/>
</svg>
