<svg xmlns="http://www.w3.org/2000/svg" width="14" height="14"><path d="M1.297 0a.325.325 0 0 0-.324.324v2.324l-.94 2.14c-.016.048-.033.08-.033.128v8.76c0 .178.146.324.324.324H14V8.244H7.504l.002-3.328a.302.302 0 0 0-.031-.129l-.942-2.139V.324A.325.325 0 0 0 6.21 0H1.297Zm.324.664h4.264v1.902H1.62V.664Zm-.049 2.227h4.346l.016.033c-.302.682-.615 1.38-.875 1.959v3.361H3.432v5.096H.656C.641 10.582.648 7.772.648 4.996l.924-2.105Zm4.54.437.73 1.668v3.248H5.38V4.955l.002-.006.728-1.62ZM5.308 9.08a.952.952 0 1 1-.003 1.905.952.952 0 0 1 .003-1.905Zm6.418.408a1.301 1.301 0 1 1-.002 2.603 1.301 1.301 0 0 1 .002-2.603Zm-3.63 1.534a1.101 1.101 0 1 1 .001 2.202 1.101 1.101 0 0 1 0-2.203Z"/></svg>