<?xml version="1.0" encoding="UTF-8"?>
<svg id="dam" width="15" height="15" version="1.1" viewBox="0 0 15 15" xmlns="http://www.w3.org/2000/svg">
 <path d="m13.97 9.4999c0 0.2761-0.2239 0.5-0.5 0.5-0.259 0.0219-0.4994 0.1439-0.67 0.34-0.2714 0.2887-0.6175 0.4964-1 0.6-0.6115 0.1816-1.2734 0.0424-1.76-0.37l-0.39-0.35c-0.2976-0.3038-0.7851-0.3087-1.0889-0.0111l-0.0111 0.0111c-0.14 0.12-0.27 0.25-0.42 0.37-0.7278 0.5784-1.7663 0.5489-2.46-0.07l-0.34-0.33-0.1-0.06 0.3 1.22 0.49 2c0.0829 0.2634-0.0634 0.5441-0.3267 0.6271-0.0528 0.0166-0.108 0.0243-0.1633 0.0229h-4c-0.2761 0-0.5-0.2239-0.5-0.5v-12c0-0.2761 0.2239-0.5 0.5-0.5h1.1c0.2346-0.0011 0.4384 0.1611 0.49 0.39l0.91 3.67v0.14c0.6569-0.314 1.4361-0.2205 2 0.24 0.16 0.13 0.31 0.28 0.47 0.41 0.2847 0.2546 0.7153 0.2546 1 0 0.16-0.13 0.31-0.28 0.47-0.41 0.7076-0.5968 1.7424-0.5968 2.45 0 0.15 0.13 0.29 0.27 0.44 0.39 0.2847 0.2546 0.7153 0.2546 1 0l0.47-0.41c0.3163-0.2672 0.7159-0.4157 1.13-0.42 0.2761 0 0.5 0.2239 0.5 0.5s-0.2239 0.5-0.5 0.5c-0.259 0.0219-0.4994 0.1439-0.67 0.34-0.2714 0.2887-0.6175 0.4964-1 0.6-0.6115 0.1816-1.2734 0.0424-1.76-0.37l-0.33-0.34c-0.2976-0.3038-0.7851-0.3087-1.0889-0.0111l-0.0111 0.0111c-0.14 0.12-0.27 0.25-0.42 0.37-0.7278 0.5784-1.7663 0.5489-2.46-0.07l-0.39-0.34c-0.2847-0.2546-0.7153-0.2546-1 0l-0.06 0.05 0.69 2.76c0.3926 0.029 0.7665 0.1793 1.07 0.43 0.16 0.13 0.31 0.28 0.47 0.41 0.2847 0.2546 0.7153 0.2546 1 0 0.16-0.13 0.31-0.28 0.47-0.41 0.7076-0.5968 1.7424-0.5968 2.45 0 0.15 0.13 0.29 0.27 0.44 0.39 0.2847 0.2546 0.7153 0.2546 1 0l0.47-0.41c0.3177-0.2636 0.7172-0.4085 1.13-0.41 0.2761-0.0055 0.5044 0.2138 0.5099 0.4899 1e-4 0.0034 1e-4 0.0067 1e-4 0.0101z"/>
</svg>
