<?xml version="1.0" encoding="UTF-8"?>
<svg id="danger" width="15" height="15" version="1.1" viewBox="0 0 15 15" xmlns="http://www.w3.org/2000/svg">
 <path d="m13.94 14.663c-0.0749 0.194-0.262 0.3215-0.47 0.32-0.0595 0.0107-0.1205 0.0107-0.18 0l-5.79-2.44-5.8 2.44c-0.2572 0.1005-0.5472-0.0266-0.6476-0.2838-8e-4 -0.0021-0.0016-0.0041-0.0024-0.0062-0.1291-0.2441-0.0358-0.5467 0.2084-0.6757 0.0261-0.0138 0.0534-0.0253 0.0816-0.0343l4.85-2-4.85-2c-0.2642-0.0803-0.4133-0.3596-0.333-0.6238 0.0803-0.2642 0.3596-0.4133 0.6238-0.333 0.0237 0.0072 0.0468 0.0162 0.0692 0.0268l5.8 2.41 5.8-2.41c0.2494-0.1185 0.5477-0.0124 0.6662 0.237s0.0124 0.5477-0.237 0.6662c-0.0224 0.0107-0.0455 0.0196-0.0692 0.0268l-4.86 2 4.85 2c0.2607 0.091 0.3983 0.3761 0.3074 0.6368-0.0051 0.0147-0.0109 0.0291-0.0174 0.0432zm-1.94-10.45v0.45c-0.0021 0.2129-0.0722 0.4196-0.2 0.59-0.5586 0.6183-1.1601 1.1964-1.8 1.73v1.16c0.0015 0.208-0.126 0.3951-0.32 0.47l-2.16 0.87h-0.07l-2.17-0.87c-0.1784-0.0872-0.2883-0.2716-0.28-0.47v-1.16c-0.6472-0.5325-1.2554-1.1107-1.82-1.73-0.1207-0.1728-0.1837-0.3793-0.18-0.59v-0.45c0.1669-2.2183 1.8974-3.9993 4.11-4.23h0.75c2.2262 0.2131 3.9748 1.9997 4.14 4.23zm-6-0.23c0-0.5523-0.4477-1-1-1s-1 0.4477-1 1 0.4477 1 1 1 1-0.4477 1-1zm1 3c0-0.2761-0.2239-0.5-0.5-0.5s-0.5 0.2239-0.5 0.5v0.5c0 0.2761 0.2239 0.5 0.5 0.5s0.5-0.2239 0.5-0.5zm2 0c0-0.2761-0.2239-0.5-0.5-0.5s-0.5 0.2239-0.5 0.5v0.5c0 0.2761 0.2239 0.5 0.5 0.5s0.5-0.2239 0.5-0.5zm2-3c0-0.5523-0.4477-1-1-1-0.5523 0-1 0.4477-1 1s0.4477 1 1 1c0.5523 0 1-0.4477 1-1z"/>
</svg>
