<svg xmlns="http://www.w3.org/2000/svg" width="17.498" height="16.347"><path d="M2.201 7.477C-.424 2.42 6.194-.95 8.75 4.106c2.553-5.056 9.172-1.686 6.547 3.37-.095.184-.223.38-.342.574h-1.989L10.97 5.056a.688.688 0 0 0-1.21.126L7.944 9.714 6.482 8.251a.688.688 0 0 0-.486-.2H2.544c-.12-.194-.247-.39-.343-.574zm10.396 1.948a.688.688 0 0 1-.573-.306l-1.475-2.212-1.715 4.286a.688.688 0 0 1-1.124.231L5.712 9.425H3.506a46.938 46.938 0 0 0 4.906 5.14.51.51 0 0 0 .684 0 47.58 47.58 0 0 0 4.896-5.14z"/></svg>