<svg xmlns="http://www.w3.org/2000/svg" width="14" height="14"><path d="M5 0C4 0 4 0 4 1l.01 3H1v9c0 1 0 1 1 1h10c1 0 1 0 1-1V4h-2.96L10 1c0-1 0-1-1-1H5Zm0 1h4v3H5V1Zm1.568 4.5c.764 0 1.325.15 1.684.445.359.296.537.65.537 1.063 0 .23-.053.451-.164.664-.108.212-.24.385-.395.517-.154.133-.43.33-.83.592.331.33.675.637 1.034.92a4.16 4.16 0 0 0 .246-.605l1.474.326c-.077.27-.151.489-.222.652a5.597 5.597 0 0 1-.301.578l.709.485c.087.055.2.122.336.199L9.658 12.5a8.085 8.085 0 0 1-.58-.342 13.13 13.13 0 0 0-.533-.334 3.784 3.784 0 0 1-.984.473c-.455.135-.97.203-1.55.203-.906 0-1.58-.189-2.023-.565-.442-.375-.664-.83-.664-1.367 0-.385.131-.748.39-1.09.26-.344.685-.635 1.276-.873-.247-.298-.417-.556-.51-.775a1.738 1.738 0 0 1-.138-.676c0-.48.182-.874.55-1.185.369-.311.928-.469 1.676-.469Zm.078 1.016a.667.667 0 0 0-.468.168.515.515 0 0 0-.18.392c0 .191.17.469.51.832.244-.132.433-.275.566-.43.133-.157.2-.306.2-.445a.464.464 0 0 0-.167-.363c-.11-.102-.266-.154-.46-.154Zm-.812 3.037c-.26.181-.431.337-.518.466a.744.744 0 0 0-.127.41c0 .226.099.427.293.602.195.176.45.264.762.264.337 0 .716-.133 1.137-.395a21.13 21.13 0 0 1-1.547-1.347Z"/></svg>