<?xml version="1.0" encoding="UTF-8"?>
<svg id="diamond" width="15" height="15" version="1.1" viewBox="0 0 15 15" xmlns="http://www.w3.org/2000/svg">
 <path d="m7.0371 1.2015-4.9117 5.4985c-0.0758 0.08393-0.11974 0.19005-0.12491 0.3-0.00516 0.10994 0.02874 0.21013 0.09638 0.3l4.9096 6.4601c0.05583 0.0742 0.12979 0.1346 0.21566 0.1764 0.08587 0.0417 0.18115 0.0635 0.27784 0.0635s0.19197-0.0218 0.27784-0.0635c0.08587-0.0418 0.15982-0.1022 0.21566-0.1764l4.9096-6.4601c0.0676-0.08987 0.1016-0.19006 0.0964-0.3-0.0052-0.10995-0.0491-0.21607-0.1249-0.3l-4.9118-5.4985c-0.05694-0.06314-0.12784-0.11386-0.20777-0.14865-0.07994-0.0348-0.16698-0.05282-0.25508-0.05282s-0.17514 0.01802-0.25508 0.05282c-0.07993 0.03479-0.15083 0.08551-0.20777 0.14865z"/>
</svg>
