<?xml version="1.0" encoding="UTF-8"?>
<svg id="diamond_stroked" width="15" height="15" version="1.1" viewBox="0 0 15 15" xmlns="http://www.w3.org/2000/svg">
 <path d="m7.5 1c-0.0881 0-0.17592 0.017934-0.25586 0.052734-0.07993 0.03479-0.15009 0.085298-0.20703 0.14844l-4.9121 5.498c-0.0758 0.08393-0.11983 0.19083-0.125 0.30078-0.00516 0.10994 0.030016 0.21091 0.097656 0.30078l4.9082 6.459c0.05583 0.0742 0.13093 0.13398 0.2168 0.17578 0.08587 0.0417 0.18065 0.064453 0.27734 0.064453s0.19147-0.02275 0.27734-0.06445c0.08587-0.0418 0.16096-0.10158 0.2168-0.17578l4.9082-6.459c0.0676-0.08987 0.10286-0.19084 0.097656-0.30078-0.0052-0.10995-0.0492-0.21685-0.125-0.30078l-4.9121-5.498c-0.05694-0.06314-0.1271-0.11365-0.20703-0.14844-0.07994-0.0348-0.16776-0.052734-0.25586-0.052734zm0.01 1.4639 4.1809 4.5486-4.2395 5.4628-4.1204-5.4352z"/>
</svg>
