<svg xmlns="http://www.w3.org/2000/svg" width="15.123" height="16.718"><path d="M6.912 2.43c-1.318 0-2.344 1.49-2.743 1.966a.53.53 0 0 0-.119.345v4.752a.475.475 0 0 0 .778.389 3.24 3.24 0 0 1 2.084-1.264c1.523 0 2.106 1.372 3.694 1.372a5.703 5.703 0 0 0 2.948-1.177.53.53 0 0 0 .216-.432V2.916a.475.475 0 0 0-.67-.486 6.21 6.21 0 0 1-2.494 1.145C9.018 3.596 8.5 2.43 6.912 2.43ZM2.43 3.51a1.08 1.08 0 1 1 0-2.16 1.08 1.08 0 0 1 0 2.16Zm.54 1.08v10.238a.54.54 0 0 1-1.08 0V4.59a.54.54 0 0 1 1.08 0z"/></svg>