<svg xmlns="http://www.w3.org/2000/svg" width="15.948" height="17.6"><path d="M5.5 8.25A2.75 2.75 0 0 1 2.75 5.5V3.3a.55.55 0 0 1 .55-.55h.55a.55.55 0 0 0 0-1.1H3.3A1.65 1.65 0 0 0 1.65 3.3v2.2a3.84 3.84 0 0 0 1.661 3.157A4.851 4.851 0 0 1 4.95 12.1a3.85 3.85 0 1 0 7.7 0v-.627a2.2 2.2 0 1 0-1.1 0v.627a2.75 2.75 0 0 1-5.5 0A4.85 4.85 0 0 1 7.7 8.657 3.84 3.84 0 0 0 9.35 5.5V3.3A1.65 1.65 0 0 0 7.7 1.65h-.55a.55.55 0 0 0 0 1.1h.55a.55.55 0 0 1 .55.55v2.2A2.75 2.75 0 0 1 5.5 8.25m6.6 2.2a1.1 1.1 0 1 1 0-2.2 1.1 1.1 0 0 1 0 2.2z"/></svg>