<svg xmlns="http://www.w3.org/2000/svg" width="16.847" height="14.214"><path d="M11.089 1.206c-.37 0-.673-.02-.769.748l-.384 2.42 2.304 1.9h1.92c1.344 0 1.44-.92 1.44-.92l-1.824-2.13c-.672-.673-1.344-.79-2.016-.79v-.48s.065-.748-.671-.748zm-5.329.268s-.913.02-1.489.212c-.576.192-1.15.864-1.15 1.824v3.744c0 1.632-.673 1.9-.96 1.9 0 0-.96.02-.96.98v2.112s0 .768.768.768H3.12v-.67c0-.385-.192-.578-.48-.674v-1.056c.96 0 1.056-.192 1.44-.288l.529 2.109c.096.288.192.48.48.576h.96l.911-.017v-.769c0-.65-.96-.671-.96-.671v-2.4h3.36l.671 2.516c.384 1.344 1.25 1.324 1.25 1.324h1.44v-.769c0-.683-.96-.671-.96-.671l.095-3.915L8.88 5.314H4.56v-1.92c0-.384.266-.475.48-.48.475-.012.72 0 .72 0a.72.72 0 0 0 0-1.44zm6.72 2.4a.24.24 0 1 1 0 .48.24.24 0 0 1 0-.48z"/></svg>