<svg xmlns="http://www.w3.org/2000/svg" width="16.5" height="16.5"><path d="M9.213 12.089a.561.561 0 0 0 .792 0l.791-.792 2.399 2.376-.408.407a2.464 2.464 0 0 1-1.584.77H9.614a2.464 2.464 0 0 1-1.595-.77L2.442 8.503a2.464 2.464 0 0 1-.792-1.595V5.313a2.464 2.464 0 0 1 .792-1.595l.396-.396 2.398 2.387-.803.803a.561.561 0 0 0 0 .792zm5.192.418a1.1 1.1 0 0 0 .04-1.555l-.04-.04-.792-.792a1.1 1.1 0 0 0-1.556-.04l-.04.04ZM6.397 4.532a1.1 1.1 0 0 0 .04-1.555l-.833-.832a1.1 1.1 0 0 0-1.555-.04l-.045.04ZM11.55 1.65v2.2h-2.2v1.1h2.2v2.2h1.1v-2.2h2.2v-1.1h-2.2v-2.2z"/></svg>