<?xml version="1.0" encoding="UTF-8"?>
<svg id="emergency_phone" width="15" height="15" version="1.1" viewBox="0 0 15 15" xmlns="http://www.w3.org/2000/svg">
 <path d="m8.375 10.99a0.51 0.51 0 0 0 0.72 0l0.72-0.72 2.18 2.16-0.37 0.37a2.24 2.24 0 0 1-1.44 0.7h-1.445a2.24 2.24 0 0 1-1.45-0.7l-5.07-5.07a2.24 2.24 0 0 1-0.72-1.45v-1.45a2.24 2.24 0 0 1 0.72-1.45l0.36-0.36 2.18 2.17-0.73 0.73a0.51 0.51 0 0 0 0 0.72zm4.72 0.38a1 1 0 0 0 0.036-1.414l-0.756-0.756a1 1 0 0 0-1.414-0.036l-0.036 0.036zm-7.28-7.25a1 1 0 0 0 0.036-1.414l-0.756-0.756a1 1 0 0 0-1.414-0.036l-0.041 0.036zm4.685-2.62v2h-2v1h2v2h1v-2h2v-1h-2v-2z"/>
</svg>
