<?xml version="1.0" encoding="UTF-8"?>
<svg id="farm" width="15" height="15" version="1.1" viewBox="0 0 15 15" xmlns="http://www.w3.org/2000/svg">
 <path d="m13.865 6.855-2.04-2.62c-0.02-0.04-0.06-0.06-0.08-0.08l-4.1-2.18c-0.1-0.04-0.2-0.04-0.3 0l-4.06 2.18c-0.04 0.02-0.06 0.04-0.08 0.08l-2.06 2.62c-0.1 0.12-0.06 0.28 0.06 0.36 0.14 0.08 0.3 0.06 0.4-0.06l0.22-0.28v5.92c0 0.14 0.12 0.26 0.28 0.26h2.24v-3.84c3.1794-8e-3 3.1458 0.01224 6.3 0.12v3.7h2.24c0.16 0 0.28-0.12 0.28-0.26v-5.9l0.22 0.28c0.06 0.08 0.14 0.12 0.24 0.12 0.06 0 0.12-0.02 0.16-0.04 0.14-0.1 0.16-0.26 0.08-0.38zm-7.68-2.08c0-0.14 0.12-0.26 0.28-0.26h2.08c0.16 0 0.28 0.12 0.28 0.26v1.88c0 0.14-0.12 0.26-0.28 0.26h-2.08c-0.16 0-0.28-0.12-0.28-0.26zm-1.2 4.14c-4.9867-7.6133-2.4933-3.8067 0 0z"/>
</svg>
