<?xml version="1.0" encoding="UTF-8" standalone="no"?>
<!-- Created with Inkscape (http://www.inkscape.org/) -->

<svg version="1.1" id="svg2" width="16.000006" height="15.954186" viewBox="0 0 16.000006 15.954187" sodipodi:docname="farmyard.svg" inkscape:version="1.2.2 (b0a8486541, 2022-12-01)" xmlns:inkscape="http://www.inkscape.org/namespaces/inkscape" xmlns:sodipodi="http://sodipodi.sourceforge.net/DTD/sodipodi-0.dtd" xmlns="http://www.w3.org/2000/svg" xmlns:svg="http://www.w3.org/2000/svg">
  <defs id="defs6" />
  <sodipodi:namedview id="namedview4" pagecolor="#ffffff" bordercolor="#666666" borderopacity="1.0" inkscape:showpageshadow="2" inkscape:pageopacity="0.0" inkscape:pagecheckerboard="0" inkscape:deskcolor="#d1d1d1" showgrid="false" inkscape:zoom="15.141045" inkscape:cx="17.072798" inkscape:cy="16.148159" inkscape:window-width="1863" inkscape:window-height="1062" inkscape:window-x="0" inkscape:window-y="0" inkscape:window-maximized="1" inkscape:current-layer="g10">
    <inkscape:page x="0" y="0" id="page8" width="16.000006" height="15.954187" />
  </sodipodi:namedview>
  <g id="g10" inkscape:groupmode="layer" inkscape:label="Page 1" transform="matrix(1.3333333,0,0,-1.3333333,-1.8545066e-5,3990.2133)">
    <g id="g524" transform="matrix(0.01025808,0,0,0.01025808,-38.022688,2961.9611)" style="stroke-width:97.4842">
      <path d="M 4609.48,2548.97 C 4512.29,2548.97 4433.5,2627.75 4433.5,2724.95 C 4433.5,2822.12 4512.29,2900.9 4609.48,2900.9 C 4706.65,2900.9 4785.44,2822.12 4785.44,2724.95 C 4785.44,2627.75 4706.65,2548.97 4609.48,2548.97 Z M 4876.42,2725.71 L 4819.65,2782.03 L 4840.66,2859.16 L 4763.35,2879.58 L 4742.92,2956.89 L 4665.79,2935.88 L 4609.48,2992.66 L 4553.15,2935.88 L 4476.03,2956.89 L 4455.62,2879.58 L 4378.31,2859.16 L 4399.31,2782.03 L 4342.53,2725.71 L 4399.31,2669.4 L 4378.31,2592.27 L 4455.62,2571.85 L 4476.03,2494.54 L 4553.15,2515.54 L 4609.48,2458.76 L 4665.79,2515.54 L 4742.92,2494.54 L 4763.35,2571.85 L 4840.66,2592.27 L 4819.65,2669.4 L 4876.42,2725.71" style="fill:#11100e;fill-opacity:1;fill-rule:nonzero;stroke:none;stroke-width:9.74842" id="path76" />
      <path d="M 3706.61,2529.56 V 2472.99 C 3922.05,2275.87 4065.24,2048.76 4141.41,1827.33 L 4335,1826.95 C 4230.27,2149.05 3867.69,2421.43 3706.61,2529.56" style="fill:#11100e;fill-opacity:1;fill-rule:nonzero;stroke:none;stroke-width:9.74842" id="path78" />
      <path d="M 3706.61,1828.16 L 3950.5,1827.7 C 3913.57,1991.28 3833.7,2179.29 3706.61,2357.57 V 1828.16" style="fill:#11100e;fill-opacity:1;fill-rule:nonzero;stroke:none;stroke-width:9.74842" id="path80" />
      <path d="M 3931.38,2744.93 H 3855.42 V 2776.44 C 3855.42,2797.4 3872.42,2814.41 3893.4,2814.41 C 3914.39,2814.41 3931.38,2797.4 3931.38,2776.44 Z M 4232.11,2518.17 C 4170.83,2532.54 4114.94,2542.85 4062.82,2550.61 L 4063.04,2741.74 H 4099.31 L 4053.29,2833.92 L 3893.4,2915.51 L 3733.51,2833.92 L 3707.98,2782.78 V 2562.87 H 3749.95 C 4060.31,2407.57 4432.08,2127.61 4532.06,1837.64 C 4533.48,1834.14 4534.61,1830.22 4535.96,1826.57 L 4732.06,1826.2 C 4605.82,2178.63 4159.7,2437.17 3809.42,2563.29 V 2676.44 H 3964.51 V 2562.87 L 3965.17,2562.73 C 3964.73,2562.76 3964.25,2562.83 3963.82,2562.87 C 4201.91,2487.17 4506.96,2350.64 4710.74,2161.05 C 4785.26,2091.79 4837.86,2024.72 4876.42,1957.67 V 2191.58 C 4711.89,2350.73 4540.13,2445.94 4232.11,2518.17" style="fill:#11100e;fill-opacity:1;fill-rule:nonzero;stroke:none;stroke-width:9.74842" id="path82" />
    </g>
  </g>
</svg>
