<svg width="16.000006" height="15.954186" viewBox="0 0 16.000006 15.954187"
  xmlns="http://www.w3.org/2000/svg">
  <g stroke-width="97.4842" fill="#11100e">
    <path
      d="M12.34894994 6.0685487c-1.32931036 0-2.40695583-1.0775087-2.40695583-2.40695583 0-1.32903681 1.07764547-2.4065455 2.40695583-2.4065455 1.32903682 0 2.40668229 1.07750869 2.40668229 2.4065455 0 1.32944713-1.07764547 2.40695583-2.40668229 2.40695583Zm3.65105575-2.41735069-.77646825-.7703134.287363-1.05494092-1.05740286-.27929332L14.1740675.48924751l-1.05494092.28736301-.77017663-.77660502-.77045017.77660502-1.05480415-.287363-.27915654 1.05740285-1.05740286.27929332.28722623 1.05494092-.77660502.7703134.77660502.77017663-.28722623 1.05494092 1.05740286.27929332.27915654 1.05740286 1.05480415-.28722623.77045017.77660502.77017663-.77660502 1.05494092.28722623.2794301-1.05740286 1.05740285-.27929332-.287363-1.05494092.77646825-.77017663M0 6.3340278v.77373277c2.9466676 2.6960969 4.90514018 5.80238022 5.94695076 8.83097568l2.64781555.00519743C7.16232805 11.53843037 2.20316198 7.81296935 0 6.3340278M0 15.92738398l3.33579076.00629162C2.8306829 13.69632002 1.7382658 11.1248246 0 8.68641065v7.24097333" />
    <path
      d="M3.07427811 3.38831762H2.0353398V2.9573415c0-.28667913.23251647-.51933238.51946915-.51933238.28708946 0 .51946916.23265325.51946916.51933238Zm4.11321643 3.10149622c-.8381535-.1965448-1.6025856-.3375592-2.31545376-.44369614l.00300904-2.61416904h.49608073l-.62943577-1.26078639-2.18688583-1.1159423-2.18688582 1.1159423-.34918504.69946426V5.8784323h.57404214c4.24493018 2.12410638 9.32979192 5.95324238 10.69726234 9.91928956.01942196.04787104.03487747.1014866.05334201.15140926l2.68214592.00506065c-1.72663999-4.82034006-7.82841937-8.3565053-12.61935293-10.081504v-1.5476023H3.5274117V5.8784323l.0090271.00191484c-.00601807-.00041032-.01258324-.00136774-.01846454-.00191484 3.25646161 1.03538218 7.42876458 2.90276302 10.21595323 5.4958688 1.0192428.94729947 1.73867613 1.86464535 2.2660782 2.78171768v-3.19928991c-2.25034914-2.17676452-4.59958618-3.47899355-8.81251114-4.46691502" />
  </g>
</svg>
