<svg xmlns="http://www.w3.org/2000/svg" width="17.6" height="15.4"><path d="M15.95 8.25a1.1 1.1 0 0 1-1.1 1.1H2.75a1.1 1.1 0 1 1 0-2.2h12.1a1.1 1.1 0 0 1 1.1 1.1zM4.4 10.45H2.75a3.3 3.3 0 0 0 3.3 3.3h5.5a3.3 3.3 0 0 0 3.3-3.3zm-.55-4.4h-1.1v-2.2a2.2 2.2 0 0 1 2.2-2.2h7.7a2.2 2.2 0 0 1 2.2 2.2v2.2zm8.8-1.65a.55.55 0 1 0 1.1 0 .55.55 0 0 0-1.1 0zm-2.2-1.1a.55.55 0 1 0 1.1 0 .55.55 0 0 0-1.1 0zm-2.2 1.1a.55.55 0 1 0 1.1 0 .55.55 0 0 0-1.1 0Zm-2.2-1.1a.55.55 0 1 0 1.1 0 .55.55 0 0 0-1.1 0Zm-2.2 1.1a.55.55 0 1 0 1.1 0 .55.55 0 0 0-1.1 0Z"/></svg>