<svg xmlns="http://www.w3.org/2000/svg" width="14" height="14"><path d="M7 0c-.875 0-1.586.703-1.586 1.568 0 .638.388 1.187.94 1.432l-.022 1H2v1h4.313l-.124 5.895c-.002.125.002 1.393-1.699.517-1.706-.877-.743-1.871-.629-1.9C2.86 9.196 1.952 8.319 1.22 7.42c-.72 1.603.568 3.316.63 3.56.155-.169.386-.142.528-.119C4.113 13.567 6.389 13.241 7 14c.61-.758 2.887-.433 4.623-3.139.142-.023.372-.05.527.12.063-.245 1.351-1.958.631-3.561-.733.9-1.64 1.776-2.642 2.092.114.029 1.078 1.023-.627 1.9-1.702.876-1.699-.392-1.701-.518L7.688 5H12V4H7.668l-.022-1a1.57 1.57 0 0 0 .94-1.432C8.586.703 7.876 0 7 0Zm0 .994a.57.57 0 0 1 .563.574.568.568 0 0 1-.563.573.568.568 0 0 1-.562-.573c0-.316.252-.574.562-.574Z" clip-rule="evenodd"/></svg>