<svg xmlns="http://www.w3.org/2000/svg" width="15" height="15"><path d="M9.106 1.36a1.337 1.337 0 0 0 .396.95 1.353 1.353 0 0 0 1.474.292 1.354 1.354 0 0 0 .732-.727A1.336 1.336 0 0 0 11.415.41a1.354 1.354 0 0 0-.956-.393c-.359 0-.703.141-.957.393a1.34 1.34 0 0 0-.396.95Zm-7.309 9.13 2.86.735c.117.03.376.004.474-.02.25-.049.323-.165.421-.287l1.354-2.231 1.702 1.827-.687 3.416a.66.66 0 0 0-.033.183c0 .219.07.408.213.566a.66.66 0 0 0 .507.238c.371 0 .6-.214.688-.64l.835-4.147c.098-.438.054-.761-.131-.968L8.51 7.499l1.62-2.1 1.048 1.168c.11.122.235.183.377.183.185 0 .365-.092.54-.274l1.701-1.9a.677.677 0 0 0 .131-.402.641.641 0 0 0-.171-.457.534.534 0 0 0-.402-.183.459.459 0 0 0-.36.146l-1.407 1.572-1.702-1.9c-.131-.146-.299-.262-.491-.22l-3.706.825c-.16.036-.277.187-.397.333l-.823 1.42a.597.597 0 0 0-.197.456c0 .171.055.317.164.439a.51.51 0 0 0 .393.182.537.537 0 0 0 .425-.219l.956-1.6 1.553-.263-3.221 5-2.625-.754c-.207 0-.396.042-.538.189-.142.146-.286.275-.286.507 0 .219.09.41.232.561a.912.912 0 0 0 .473.283Z" clip-rule="evenodd"/></svg>