<svg xmlns="http://www.w3.org/2000/svg" width="18.697" height="18.904"><path d="M3.063 2.091a2.97 2.97 0 0 1 2.75 2.2l.55-3.3.55 3.3a2.97 2.97 0 0 1 2.75-2.2c-.22.033-1.1.286-1.1 2.2v.091a2.155 2.155 0 0 1-2.2 2.11h-.09a2.155 2.155 0 0 1-2.11-2.2c0-1.914-.88-2.168-1.1-2.2zm11.564 11 3.3-.55-3.3-.55a2.955 2.955 0 0 0 2.186-2.75c-.033.22-.272 1.1-2.186 1.1a2.2 2.2 0 0 0 0 4.4c1.913 0 2.153.88 2.186 1.1a2.955 2.955 0 0 0-2.186-2.75zM12.07 7.094a1.1 1.1 0 0 1 0-2.2 1.1 1.1 0 0 1 0-2.2 1.085 1.085 0 0 1 .937.558l.026-.014a1.076 1.076 0 0 1-.128-.488 1.1 1.1 0 1 1 2.2 0 1.076 1.076 0 0 1-.127.488l.02.011a1.085 1.085 0 0 1 .936-.55 1.1 1.1 0 0 1 .027 2.2 1.1 1.1 0 0 1-.028 2.2A1.085 1.085 0 0 1 15 6.55l-.018.01a1.076 1.076 0 0 1 .124.484 1.1 1.1 0 0 1-2.2 0 1.076 1.076 0 0 1 .125-.484l-.022-.012a1.085 1.085 0 0 1-.938.558zm.781-2.195a1.156 1.156 0 1 0 1.156-1.158A1.156 1.156 0 0 0 12.854 4.9zm-5.997 8.68-.568-.566 4.909-4.9a1.92 1.92 0 0 1-.498-.28l-4.8 4.79-.57-.57a17.656 17.656 0 0 0 1.49-4.462 3.71 3.71 0 0 1-.454.039c-.045 0-.08-.01-.123-.011a18.648 18.648 0 0 1-1.382 3.966l-.409-.408a.27.27 0 0 0-.44.087l-2.341 5.617a.316.316 0 0 0-.018.098.275.275 0 0 0 .275.275.318.318 0 0 0 .11-.021l5.61-2.337a.27.27 0 0 0 .087-.44l-.41-.409a18.561 18.561 0 0 1 3.974-1.382c0-.064-.017-.116-.017-.182a3.684 3.684 0 0 1 .034-.394 17.684 17.684 0 0 0-4.459 1.49z"/></svg>