<?xml version="1.0" encoding="UTF-8"?>
<svg id="florist" width="15" height="15" version="1.1" viewBox="0 0 15 15" xmlns="http://www.w3.org/2000/svg">
 <path d="m7.6743 11.106c1.1356 5.4256 7.5455 0.98441 1.1798-2.7951 7.0155 4.1668 7.0313-5.7838 0.015772-1.6202 7.0187-4.1636-1.3627-9.1373-1.3627-0.81012 0.00315-8.3304-8.3782-3.3567-1.3659 0.81012-7.0155-4.1668-7.0218 5.7838-0.00631 1.6202-6.3689 3.7763 0.025236 8.2239 1.1608 2.7886l0.37854 0.0097zm-1.0126-3.6052c0-0.48091 0.37854-0.86822 0.84224-0.86822 0.46686 0 0.84224 0.38731 0.84224 0.86822 0 0.47768-0.37854 0.86822-0.84224 0.86822s-0.84224-0.38731-0.84224-0.86822z"/>
</svg>
