<?xml version="1.0" encoding="UTF-8"?>
<svg id="furniture" width="15" height="15" version="1.1" viewBox="0 0 15 15" xmlns="http://www.w3.org/2000/svg">
 <path d="m13.243 1.37h-11.487c-0.8836 0-0.8836 1.3254 0 1.3254v2.4299h11.487v-2.4299c0.8836 0 0.8836-1.3254 0-1.3254zm-5.7434 2.6508c-0.2209 0-0.4418-0.2209-0.4418-0.4418s0.2209-0.4418 0.4418-0.4418 0.4418 0.2209 0.4418 0.4418-0.2209 0.4418-0.4418 0.4418zm-5.7434 4.418h11.487v-2.6508h-11.487zm5.7434-1.7672c0.2209 0 0.4418 0.2209 0.4418 0.4418s-0.2209 0.4418-0.4418 0.4418-0.4418-0.2209-0.4418-0.4418c0-0.2209 0.2209-0.4418 0.4418-0.4418zm-5.7434 2.4299v4.1971c0 0.4418 2.209 0.4418 2.209 0v-1.3254h7.0688v1.3254c0 0.4418 2.209 0.4418 2.209 0v-4.1971zm5.7434 1.1045c0.2209 0 0.4418 0.2209 0.4418 0.4418s-0.2209 0.4418-0.4418 0.4418-0.4418-0.2209-0.4418-0.4418 0.2209-0.4418 0.4418-0.4418z"/>
</svg>
