<?xml version="1.0" encoding="UTF-8"?>
<svg id="gaming" width="15" height="15" version="1.1" viewBox="0 0 15 15" xmlns="http://www.w3.org/2000/svg">
 <path d="m13.103 12.681c-0.6 0.3-1.4 0.1-1.8-0.5l-1.1-1.4h-5.4l-1.1 1.4c-0.5 0.7-1.4 0.8-2.1 0.3-0.5-0.4-0.7-1-0.6-1.5l0.7-3.7c0.2-1.2 1.3-2.1 2.5-2.1h2.8v-1.5c0-0.8 0.6-1.5 1.4-1.5h3.1c0.3 0 0.5 0.2 0.5 0.5s-0.2 0.5-0.5 0.5h-3c-0.3 0-0.5 0.2-0.5 0.4v1.6h2.8c1.2 0 2.3 0.9 2.5 2.1l0.7 3.7c0.1 0.7-0.2 1.4-0.9 1.7zm-7.1-5c0-0.8-0.7-1.5-1.5-1.5s-1.5 0.7-1.5 1.5 0.7 1.5 1.5 1.5 1.5-0.7 1.5-1.5zm6 0c0-0.3-0.2-0.5-0.5-0.5h-0.5v-0.5c0-0.3-0.2-0.5-0.5-0.5s-0.50002 0.2-0.50002 0.5v0.5h-0.5c-0.3 0-0.5 0.2-0.5 0.5s0.2 0.5 0.5 0.5h0.5v0.5c0 0.3 0.20002 0.5 0.50002 0.5s0.5-0.2 0.5-0.5v-0.5h0.5c0.3 0 0.5-0.2 0.5-0.5z"/>
</svg>
