<?xml version="1.0" encoding="UTF-8"?>
<svg id="garden" width="15" height="15" version="1.1" viewBox="0 0 15 15" xmlns="http://www.w3.org/2000/svg">
 <path d="m13 8.0144c0 3.31-2.19 6-5.5 6s-5.5-2.69-5.5-6c2.2643 0.0191 4.2694 1.4667 5 3.61v-4.61h-2.5c-0.8284 0-1.5-0.6716-1.5-1.5v-3c0-0.2761 0.2239-0.5 0.5-0.5 0.1574 0 0.3056 0.0741 0.4 0.2l1.53 2 1.65-3c0.1498-0.232 0.4593-0.2985 0.6913-0.1487 0.0595 0.0385 0.1102 0.0891 0.1487 0.1487l1.65 3 1.53-2c0.1657-0.2209 0.4791-0.2657 0.7-0.1 0.1259 0.0944 0.2 0.2426 0.2 0.4v3c0 0.8284-0.6716 1.5-1.5 1.5h-2.5v4.61c0.7306-2.1433 2.7357-3.5909 5-3.61z"/>
</svg>
