<?xml version="1.0" encoding="UTF-8"?>
<svg id="garden_centre" width="15" height="15" version="1.1" viewBox="0 0 15 15" xmlns="http://www.w3.org/2000/svg">
 <path d="m3.9995 5v-0.5c0-1.38 1.12-2.5 2.5-2.5s2.5 1.12 2.5 2.5v5.793l2.365-2.365-0.347-1.295c0-2e-3 -1e-3 -4e-3 -1e-3 -6e-3h-1e-3c-0.043-0.166 0-0.351 0.131-0.481 0.195-0.195 0.512-0.195 0.707 0l2 2c0.195 0.195 0.195 0.512 0 0.707-0.13 0.13-0.313 0.174-0.479 0.131-3e-3 -1e-3 -6e-3 -2e-3 -0.01-3e-3l-1.293-0.346-3.072 3.072v0.293c0 0.552-0.448 1-1 1h-3c-0.552 0-1-0.448-1-1v-0.464l-2.268-2.268c-0.975-0.976-0.975-2.56 0-3.536 0.488-0.488 1.128-0.732 1.768-0.732zm0 1h-0.5c-0.384 0-0.768 0.147-1.061 0.439-0.585 0.586-0.585 1.536 0 2.122l1.561 1.56zm4-1v-0.5c0-0.828-0.672-1.5-1.5-1.5s-1.5 0.672-1.5 1.5v0.5z"/>
</svg>
