<?xml version="1.0" encoding="UTF-8"?>
<svg id="globe" width="15" height="15" version="1.1" viewBox="0 0 15 15" xmlns="http://www.w3.org/2000/svg">
 <path d="m12.741 9.4715-0.721-0.721a4.979 4.979 0 1 1-7.02-7.02l-0.721-0.721a5.991 5.991 0 0 0 3.481 10.456v1.525h-0.5a0.5 0.5 0 0 0 0 1h2a0.5 0.5 0 0 0 0-1h-0.5v-1.527a5.983 5.983 0 0 0 3.981-1.992zm-4.481-0.481a3.5 3.5 0 1 0-3.5-3.5 3.5 3.5 0 0 0 3.5 3.5zm1-5 0.364-0.592a2.5 2.5 0 0 1 0.823 0.9l-0.187 0.692h-1zm-1.844-0.844 0.844 0.844v1l0.5 1h1.94a2.494 2.494 0 0 1-1.5 1.814l-0.44-0.814h-1.5l-1.45-2a2.5 2.5 0 0 1 1.606-1.844z"/>
</svg>
