<svg xmlns="http://www.w3.org/2000/svg" width="21" height="21"><path d="M3.928 2.853v.245c0 .489.388.855.905.855.388 0 .647-.244.776-.61l.259-.42 7.164 2.734-4.966 3.186c-.517.367-.517.856-.388 1.345l1.164 2.567-1.681 4.767c-.259.611.258 1.1.776 1.1.387 0 .646-.122.775-.61l1.81-4.89.13.366v4.279s0 .855.905.855.905-.855.905-.855v-4.034c0-.245 0-.367-.129-.612l-1.81-4.156 3.491-2.322c.259-.245.517-.367.517-.734s-.258-.611-.517-.733L4.704 1.63c-.114 0-.153.022-.259.122zm2.715 2.323c-1.034 0-1.94.855-1.94 1.833s.906 1.834 1.94 1.834c1.035 0 1.94-.856 1.94-1.834 0-.978-.905-1.833-1.94-1.833z"/></svg>