<?xml version="1.0" encoding="UTF-8"?>
<svg id="golf_green" width="11.4" height="10.851" version="1.1" viewBox="0 0 11.4 10.851" xmlns="http://www.w3.org/2000/svg">
 <path d="m7.8811 1.8198-3.3719-1.6859c-0.1179-0.058949-0.25937-0.047159-0.36548 0.011801-0.10611 0.058949-0.17685 0.20043-0.17685 0.33011v7.4983c0 0.21222 0.16506 0.37727 0.37727 0.37727 0.21222 0 0.37727-0.16506 0.37727-0.37727v-3.8906l3.1596-1.5798c0.12969-0.058949 0.21222-0.20043 0.21222-0.3419 0-0.14148-0.082526-0.27116-0.21222-0.3419zm-2.1811 3.9849c-0.16506 0-0.31832 0-0.47159 0.01181v1.8982c0.41264 0.1179 0.67202 0.33011 0.67202 0.56591 0 0.37727-0.69559 0.69559-1.5562 0.69559s-1.5562-0.30653-1.5562-0.69559c0-0.23579 0.27116-0.44801 0.67202-0.56591v-1.7095c-1.9807 0.38906-3.3601 1.2615-3.3601 2.2754 0 1.3676 2.5112 2.4758 5.6001 2.4758 3.0889 0 5.6001-1.1082 5.6001-2.4758 0-1.3676-2.5112-2.4758-5.6001-2.4758z"/>
</svg>
