<?xml version="1.0" encoding="UTF-8"?>
<svg id="gondola" width="15" height="15" version="1.1" viewBox="0 0 15 15" xmlns="http://www.w3.org/2000/svg">
 <path d="m7 2.87c-0.3-0.18-0.5-0.5-0.5-0.87v-0.12l-4.94 0.62c-0.27 0.03-0.52-0.16-0.56-0.44-0.03-0.27 0.16-0.52 0.44-0.56l5.07-0.63c0.06-0.49 0.48-0.87 0.99-0.87 0.42 0 0.78 0.26 0.93 0.63l5.01-0.63c0.27-0.03 0.52 0.16 0.56 0.44 0.03 0.27-0.16 0.52-0.44 0.56l-5.06 0.63v0.37c0 0.37-0.2 0.69-0.5 0.87v2.13h2.17c0.48 0 0.89 0.35 0.98 0.82l0.81 4.48c0.03 0.13 0.03 0.27 0 0.4l-0.79 3.52c-0.1 0.45-0.5 0.78-0.97 0.78h-5.4c-0.47 0-0.87-0.33-0.97-0.78l-0.79-3.52c-0.03-0.13-0.03-0.27 0-0.4l0.81-4.48c0.09-0.47 0.5-0.82 0.98-0.82h2.17v-2.13zm-2.02 3.13c-0.12 0-0.22 0.08-0.24 0.2l-0.68 3.5c-0.01 0.02-0.01 0.03-0.01 0.05 0 0.14 0.12 0.25 0.25 0.25h2.45c0.14 0 0.25-0.11 0.25-0.25v-3.5c0-0.14-0.11-0.25-0.25-0.25h-1.77zm5.04 0h-1.77c-0.14 0-0.25 0.11-0.25 0.25v3.5c0 0.14 0.11 0.25 0.25 0.25h2.45c0.13 0 0.25-0.11 0.25-0.25 0-0.02 0-0.03-0.01-0.05l-0.68-3.5c-0.02-0.12-0.12-0.2-0.24-0.2z"/>
</svg>
