<svg xmlns="http://www.w3.org/2000/svg" width="17.927" height="18.151"><path d="M15.396 1.65s-1.53-.045-2.14.55c-.587.573-.83 1.01-.83 2.2H2.197L3.73 9.698c.004.008.01.015.015.023a1.918 1.918 0 0 0 1.736 1.274l.015.007h7.15v.219s0 .331-.22.771-.329.66-1.209.66h-7.15c-1.1 0-1.1 1.65 0 1.65h7.04c1.32 0 2.309-.77 2.639-1.54.33-.77.33-1.43.33-1.43v-6.93c0-.576.252-1.1.77-1.1h.606a.825.825 0 0 0 0-1.65zm-4.4 12.65c-.66 0-1.1.44-1.1 1.1 0 .66.44 1.1 1.1 1.1.66 0 1.1-.44 1.1-1.1 0-.66-.44-1.1-1.1-1.1zm-5.5 0c-.66 0-1.1.44-1.1 1.1 0 .66.44 1.1 1.1 1.1.66 0 1.1-.44 1.1-1.1 0-.66-.44-1.1-1.1-1.1z"/></svg>