<?xml version="1.0" encoding="UTF-8" standalone="no"?>
<svg
   width="14"
   height="15"
   viewBox="0 0 14 15"
   fill="none"
   version="1.1"
   id="svg1"
   xmlns="http://www.w3.org/2000/svg"
   xmlns:svg="http://www.w3.org/2000/svg">
  <g
     clip-path="url(#clip0_9_850)"
     id="g1"
     transform="translate(-0.0625,-0.239)">
    <path
       fill-rule="evenodd"
       clip-rule="evenodd"
       d="M 13,5.5625 7.0625,1.353 1.125,5.5625 Z M 1.125,14.125 V 6.0625 H 13 V 14.125 Z M 2.44141,7.25 c -0.19693,0 -0.35547,0.15854 -0.35547,0.35547 v 5.33203 h 0.71094 v -1.4219 h 8.53122 v 1.4219 h 0.711 V 9.02734 c 0,-0.09427 -0.0375,-0.18469 -0.1042,-0.25135 -0.0666,-0.06666 -0.157,-0.10411 -0.2513,-0.10411 -0.0943,0 -0.1847,0.03745 -0.2514,0.10411 -0.0666,0.06666 -0.1041,0.15708 -0.1041,0.25135 V 10.8047 H 2.79688 V 7.60547 C 2.79688,7.40854 2.63834,7.25 2.44141,7.25 Z m 2.13281,0.71094 c -0.28283,0 -0.55407,0.11235 -0.75406,0.31234 -0.19999,0.19999 -0.31235,0.47124 -0.31235,0.75406 0,0.28283 0.11236,0.55408 0.31235,0.75407 0.19999,0.19999 0.47123,0.31239 0.75406,0.31239 0.28283,0 0.55407,-0.1124 0.75406,-0.31239 C 5.52827,9.58142 5.64062,9.31017 5.64062,9.02734 5.64062,8.74452 5.52827,8.47327 5.32828,8.27328 5.12829,8.07329 4.85705,7.96094 4.57422,7.96094 Z m 1.77734,0.71094 v 1.42192 h 4.26564 c 0,-0.71099 -0.73654,-1.42192 -1.42189,-1.42192 z"
       fill="#000000"
       id="path1" />
  </g>
  <defs
     id="defs1">
    <clipPath
       id="clip0_9_850">
      <rect
         width="14"
         height="14"
         fill="white"
         transform="translate(0 0.5)"
         id="rect1" />
    </clipPath>
  </defs>
</svg>
