<?xml version="1.0" encoding="UTF-8" standalone="no"?>
<svg height="14" width="14" version="1.1" id="svg8" sodipodi:docname="guest_house.svg" inkscape:version="1.2.2 (b0a8486541, 2022-12-01)" xmlns:inkscape="http://www.inkscape.org/namespaces/inkscape" xmlns:sodipodi="http://sodipodi.sourceforge.net/DTD/sodipodi-0.dtd" xmlns="http://www.w3.org/2000/svg" xmlns:svg="http://www.w3.org/2000/svg">
  <defs id="defs12" />
  <sodipodi:namedview id="namedview10" pagecolor="#ffffff" bordercolor="#666666" borderopacity="1.0" inkscape:showpageshadow="2" inkscape:pageopacity="0.0" inkscape:pagecheckerboard="0" inkscape:deskcolor="#d1d1d1" showgrid="false" inkscape:zoom="16.857143" inkscape:cx="7.029661" inkscape:cy="7.029661" inkscape:window-width="1863" inkscape:window-height="1062" inkscape:window-x="0" inkscape:window-y="0" inkscape:window-maximized="1" inkscape:current-layer="svg8" />
  <path d="M7 .853L1 5h2v8h3V8h2v5h3V5h2z" fill="gray" id="path4" />
  <path d="M.5 6c-.277 0-.5.223-.5.5V14h1v-2h12v2h1V8.5a.499.499 0 10-1 0V11H1V6.5C1 6.223.777 6 .5 6zm3 1a1.5 1.5 0 100 3 1.5 1.5 0 000-3zM6 8v2h6c0-1-1.036-2-2-2z" id="path6" />
</svg>
