<?xml version="1.0" encoding="UTF-8"?>
<svg id="guidepost" width="15" height="15" version="1.1" viewBox="0 0 15 15" xmlns="http://www.w3.org/2000/svg">
 <path d="m7.1035 0.91504c-0.14515 0-0.26367 0.11593-0.26367 0.26367v1.0527h-3.0254c-0.14515 0-0.26367 0.11852-0.26367 0.26367v2.1074c0 0.14515 0.11593 0.26562 0.26367 0.26562h3.0273v1.3164h-3.1816c-0.069984 0-0.13825 0.028877-0.1875 0.078125l-1.1621 1.0527c-0.10368 0.10368-0.10368 0.26937 0 0.37305l1.1621 1.0508c0.049248 0.049248 0.11752 0.078125 0.1875 0.078125h3.1816v5.0039c0 0.14515 0.11788 0.26367 0.26562 0.26367h0.78906c0.14515 0 0.26563-0.11593 0.26563-0.26367v-5.0039h3.0273c0.14515 0 0.26367-0.11593 0.26367-0.26367v-2.1074c0-0.14515-0.11593-0.26367-0.26367-0.26367h-3.0312v-1.3184h3.1836c0.06998 0 0.13825-0.026924 0.1875-0.076172l1.1602-1.0527c0.10368-0.10368 0.10368-0.26937 0-0.37305l-1.1602-1.0527c-0.04925-0.049248-0.11752-0.078125-0.1875-0.078125h-3.1836v-1.0527c0-0.14515-0.11593-0.26367-0.26367-0.26367z"/>
</svg>
