<svg xmlns="http://www.w3.org/2000/svg" width="21.417" height="15.1"><path d="M18 2.6s-2.2-.66-3.85.55l-4.73 3.3c-.88-.66-2.2-1.43-3.52-1.87V3.7c0-1.21-.99-2.2-2.2-2.2-1.21 0-2.2.99-2.2 2.2v1.65c0 .55.55.55.55.55h2.2c2.2 0 3.85 1.65 3.85 1.65S6.45 9.2 4.25 9.2h-2.2s-.55 0-.55.55v1.65c0 1.21.99 2.2 2.2 2.2 1.21 0 2.2-.99 2.2-2.2v-.88c1.32-.44 2.64-1.21 3.52-1.87l4.73 3.3c1.65 1.21 3.85.55 3.85.55l-7.15-4.95ZM4.8 4.8H2.6V3.7c0-.66.44-1.1 1.1-1.1.66 0 1.1.44 1.1 1.1zm0 6.6c0 .66-.44 1.1-1.1 1.1-.66 0-1.1-.44-1.1-1.1v-1.1h2.2Zm4.675-3.3a.55.55 0 1 1 0-1.1.55.55 0 0 1 0 1.1z"/></svg>