<svg xmlns="http://www.w3.org/2000/svg" width="19" height="19"><path fill="#fff" d="M9.5 2C7.5 2 6 3.567 6 5.5a3.492 3.492 0 0 0 2.5 3.338v6.039c-.93-.165-1.875-.55-2.648-1.27-1.053-.98-1.85-2.54-1.85-5.109a1 1 0 1 0-2.002 0c0 3.003 1.012 5.196 2.49 6.572C5.97 16.447 7.838 17 9.5 17c1.666 0 3.535-.56 5.012-1.94s2.486-3.573 2.486-6.562c.065-1.395-2.063-1.395-1.998 0 0 2.553-.8 4.115-1.854 5.1-.773.722-1.717 1.11-2.646 1.277V8.842A3.494 3.494 0 0 0 13 5.5C13 3.567 11.5 2 9.5 2zm0 2a1.5 1.5 0 1 1 0 3 1.5 1.5 0 0 1 0-3z" style="fill:#000;fill-opacity:1"/></svg>