<?xml version="1.0" encoding="UTF-8"?>
<svg id="hardware" width="15" height="15" version="1.1" viewBox="0 0 15 15" xmlns="http://www.w3.org/2000/svg">
 <path d="m13.78 3.2744s-1.676 1.675-2.1163 2.1208c-0.085 0.0861-0.1688 0.1135-0.282 0.0961-0.1481-0.0226-0.2974-0.038-0.4462-0.0558-0.4072-0.0485-0.8145-0.0966-1.2292-0.1458-0.0692-0.592-0.1395-1.1723-0.2005-1.7536-0.0057-0.0547 0.0332-0.1293 0.0748-0.1714 0.5071-0.5134 1.9261-1.9287 2.134-2.136-0.4508-0.2129-1.2243-0.2968-1.8007-0.2031-2.1801 0.3543-3.5112 2.534-2.8206 4.625 0.038 0.1149 0.0142 0.182-0.0678 0.2639-1.8483 1.8434-3.6938 3.6894-5.5394 5.5354-0.0616 0.0616-0.1231 0.124-0.1779 0.1913-0.5264 0.6473-0.3873 1.6264 0.2974 2.102 0.6044 0.4197 1.3658 0.3442 1.9053-0.1948 1.8534-1.8519 3.7059-3.7047 5.556-5.5598 0.0919-0.0921 0.1649-0.1235 0.2991-0.0778 0.6189 0.2109 1.2524 0.2354 1.8884 0.0884 1.9386-0.4478 3.1251-2.3732 2.6549-4.3034-0.0317-0.1301-0.0782-0.2589-0.1293-0.4214z"/>
</svg>
