<?xml version="1.0" encoding="UTF-8"?>
<svg id="heliport" width="15" height="15" version="1.1" viewBox="0 0 15 15" xmlns="http://www.w3.org/2000/svg">
 <path d="m4 2.5c-1 0-1 1 0 1h4v1c-0.277 0-0.5 0.223-0.5 0.5v0.5h-3.5684c-0.2275-0.8799-1.0194-1.4989-1.9316-1.5-1.1046 0-2 0.8954-2 2s0.8954 2 2 2c0.3722-1e-3 0.7368-0.1058 1.0527-0.3027l2.4473 3.3027c1.0074 1.4505 2.8182 1.5 3.5 1.5h5s1 0 1-1v-0.9941c0-0.7325-0.126-1.1319-0.5-1.5059l-3-3s-0.5916-0.5-1.2734-0.5h-0.7266v-0.5c0-0.277-0.223-0.5-0.5-0.5v-1h4c1 0 1-1 0-1zm-2 2.5c0.5523 0 1 0.4477 1 1s-0.4477 1-1 1-1-0.4477-1-1 0.4477-1 1-1zm8 1.5c0.5 0 0.7896 0.3231 1 0.5l2.5 2.5h-3.5s-1 0-1-1v-1s0-1 1-1z"/>
</svg>
