<svg xmlns="http://www.w3.org/2000/svg" width="14" height="14"><path d="M6 2s1.598 2.82 4 .5c.331.5 1 1.5 1 1.5S7.557 6.356 6 2zM1 4c.289.609.66 1.357 1 2 .504-1 2-1 2-1 1 0 1.734.392 1.734 1.027C5.734 6.662 5 7 4 7v1.5c1.31-.249 2.003.79 1.682 1.507C5.075 11.367 1.504 11.527 0 9c0 3.988 3.441 4 4 4 2 0 3-2 3-4 .52.543 1.355.546 2 0 .905-.765 1.259-2.01 2.5-2 1.514.012 1.5 3 .5 4s-3.394.645-4-1c0 1 0 3.001 3 3 3-.001 3.608-3.384 2.5-6-.685-1.617-1.967-2.05-3.35-1.622C9.082 5.71 9.13 6.183 8.5 7 8.17 7.396 8 8 7 8c-.347 0-.772-.274-1-.5C7.238 6.615 7.056 4.913 6 4c-1.388-1.2-3.84-.955-5 0zm6-2 1-1 1 1-1 1z"/></svg>