<?xml version="1.0" encoding="UTF-8"?>
<svg id="home" width="15" height="15" version="1.1" viewBox="0 0 15 15" xmlns="http://www.w3.org/2000/svg">
 <path d="m2.0011 13.749c0 0.13807 0.11193 0.25 0.25 0.25h3.749v-3h3v3h3.749c0.13807 0 0.25-0.11193 0.25-0.25v-5.7491h-10.998zm11.93-7.17-0.9319-0.8189v-3.7589c0-0.55228-0.44771-1-1-1s-1 0.44772-1 1v2l-3.3173-2.91c-0.0945-0.1003-0.25234-0.10522-0.3529-0.011l-0.011 0.011-6.2491 5.463c-0.0944 0.10076-0.08924 0.25897 0.01152 0.35337 0.04546 0.04259 0.10519 0.06667 0.16748 0.06753l1.7532 0.025h10.747c0.13807 4.6e-4 0.25037-0.1111 0.25083-0.24917 2.1e-4 -0.06381-0.02398-0.12528-0.06763-0.17183z"/>
</svg>
