<svg xmlns="http://www.w3.org/2000/svg" width="19.789" height="19.79"><path d="M8.25 2.74a1.1 1.1 0 1 1 1.1 1.1 1.1 1.1 0 0 1-1.1-1.1zm2.2 2.75a.532.532 0 0 0 0-.063.52.52 0 0 0-.55-.487H8.8a.532.532 0 0 0-.064 0 .52.52 0 0 0-.486.55v3.85h2.2zm7.535 4.01L15.73 6.92l.093-.56a.526.526 0 0 0 .01-.069.275.275 0 0 0-.276-.275.38.38 0 0 0-.173.062L11.55 9.34h-1.1l1.1 1.1v1.65a.55.55 0 0 1-1.1 0v-1.1l-2.2-1.65h-2.2a1.65 1.65 0 0 0-1.367.727 1.613 1.613 0 0 0-1.314-.727H3.3a1.594 1.594 0 0 0-1.65 1.54v.095a4.16 4.16 0 0 0 .615 2.105.306.306 0 0 0 .21.11.275.275 0 0 0 .275-.275V11.54s-.022-1.016.828-1.1c.55-.052.822.279.822.55v2.75l-.55 2.2v1.925a.275.275 0 0 0 .275.275.28.28 0 0 0 .275-.257V15.94l1.65-2.2v1.1l.55 3.08a.28.28 0 0 0 .27.22.275.275 0 0 0 .28-.27l-.16-2.7.71-1.43h2.75v1.1l.559 3.095a.283.283 0 0 0 .266.205.275.275 0 0 0 .275-.275V14.84l.404-1.1a1.27 1.27 0 0 0 .597-.66l2.377-4.143a.95.95 0 0 0 1.125.44l1.173.9a.65.65 0 0 0 .385.148.536.536 0 0 0 .522-.44.607.607 0 0 0-.148-.486z"/></svg>