<svg xmlns="http://www.w3.org/2000/svg" width="17.54" height="20.416"><path d="M15.41 16.575a1.742 1.742 0 0 0-1.216.457l-.48.448a.728.728 0 0 1-1.021 0c-.153-.13-.296-.284-.45-.426a1.847 1.847 0 0 0-2.503 0c-.162.142-.316.306-.48.448a.73.73 0 0 1-1.021 0c-.163-.142-.317-.306-.48-.448a1.848 1.848 0 0 0-2.492 0c-.153.142-.296.295-.45.426a.946.946 0 0 1-.306.175.823.823 0 0 1-.817-.273 6.49 6.49 0 0 0-.807-.633 1.198 1.198 0 0 0-.695-.174h-.061a.55.55 0 0 0 0 1.091.932.932 0 0 1 .66.338l.367.284a1.844 1.844 0 0 0 2.38.066c.194-.153.368-.35.561-.513a.73.73 0 0 1 1.022 0l.398.382a1.856 1.856 0 0 0 2.513.077c.154-.121.276-.273.429-.404a.751.751 0 0 1 1.06-.065l.463.447a1.834 1.834 0 0 0 1.798.403 2.157 2.157 0 0 0 1.02-.66 1.015 1.015 0 0 1 .608-.355.55.55 0 0 0 0-1.091zM8.73 5.618a3.158 3.158 0 0 0-.653 4.99 1.964 1.964 0 0 1 .618 1.863c-.344.982-1.199 1.895-.723 2.995.314-1.068 1.503-1.42 2.047-2.336 1.089-1.722-.17-3.3-1.133-4.67-.507-1.439 1.34-2.542.682-3.994a2.42 2.42 0 0 1-.837 1.152zm3.241 1.65a2.488 2.488 0 0 0 .578 3.416 1.165 1.165 0 0 1 .572 1.174c-.351.815-1.197 1.549-.755 2.508.411-.957 1.118-.708 1.999-1.7a2.487 2.487 0 0 0-.571-3.42 1.165 1.165 0 0 1-.58-1.174c.35-.815 1.197-1.547.756-2.506-.41.957-1.118.71-1.999 1.702zm-8.8 0a2.488 2.488 0 0 0 .578 3.416 1.165 1.165 0 0 1 .572 1.174c-.351.815-1.197 1.549-.755 2.508.411-.957 1.118-.708 1.999-1.7a2.487 2.487 0 0 0-.571-3.42 1.165 1.165 0 0 1-.58-1.174c.35-.815 1.197-1.547.756-2.506-.41.957-1.118.71-1.999 1.702z"/></svg>