<?xml version="1.0" encoding="UTF-8"?>
<svg id="hot_spring" width="15" height="15" version="1.1" viewBox="0 0 15 15" xmlns="http://www.w3.org/2000/svg">
 <path d="m2.6958 7.7053c-1.4344 0.55315-2.2313 1.3368-2.2313 2.2126 0 1.936 3.6202 2.9732 7.0355 2.9732 3.4153 0 7.0355-1.0372 7.0355-2.9732 0-0.5762-0.31876-1.3829-1.8898-2.0743-0.25046-0.11524-0.52368 0-0.63752 0.25353-0.11384 0.25353 0 0.5301 0.25046 0.64534 0.81967 0.34572 1.2978 0.78363 1.2978 1.1754 0 0.82972-2.2996 1.9821-6.0565 1.9821-3.7568 0-6.0565-1.1524-6.0565-1.9821 0-0.41486 0.61475-0.92192 1.5938-1.2907 0.25046-0.092192 0.38707-0.36877 0.27322-0.62229-0.091075-0.25353-0.3643-0.39181-0.61475-0.29962zm1.2839-5.2357c-0.11384 0.31569 0 0.66008 0.25046 0.80357 0.045537 0.028699 0.54645 0.34439 0.54645 1.0906 0 0.31569-0.15938 0.54528-0.45537 0.88967-0.34153 0.40179-0.75137 0.88967-0.75137 1.7506 0 1.4637 0.93351 2.1524 1.4344 2.2959 0.25046 0.086098 0.52368-0.1148 0.59198-0.43049 0.068306-0.31569-0.091075-0.66008-0.34153-0.74618-0.068306-0.028699-0.70583-0.25829-0.70583-1.0906 0-0.31569 0.15938-0.51658 0.45537-0.86097 0.34153-0.40179 0.77413-0.91837 0.77413-1.7793 0-1.5784-1.0701-2.1811-1.1157-2.2098-0.29599-0.17219-0.56922-0.028699-0.68306 0.28699zm5.8971 0c-0.11384 0.31569 0 0.66008 0.25046 0.80357 0.04554 0.028699 0.54645 0.34439 0.54645 1.0906 0 0.31569-0.15938 0.54528-0.45537 0.88967-0.34153 0.40179-0.75137 0.88967-0.75137 1.7506 0 1.4637 0.93351 2.1524 1.4344 2.2959 0.25046 0.086098 0.52368-0.1148 0.59198-0.43049 0.06831-0.31569-0.09108-0.66008-0.34153-0.74618-0.06831-0.028699-0.70583-0.25829-0.70583-1.0906 0-0.31569 0.15938-0.51658 0.45537-0.86097 0.34153-0.40179 0.77413-0.91837 0.77413-1.7793 0-1.5784-1.0701-2.1811-1.1157-2.2098-0.29599-0.17219-0.59198-0.028699-0.68306 0.28699zm-2.9599 0c-0.11384 0.31569 0 0.66008 0.25046 0.80357 0.045537 0.028699 0.54645 0.34439 0.54645 1.0906 0 0.31569-0.15938 0.54528-0.45537 0.88967-0.34153 0.40179-0.75137 0.88967-0.75137 1.7506 0 1.4637 0.93351 2.1524 1.4344 2.2959 0.25046 0.086098 0.52368-0.1148 0.59198-0.43049 0.068306-0.31569-0.091075-0.66008-0.34153-0.74618-0.068306-0.028699-0.7286-0.25829-0.70583-1.0906 0-0.31569 0.15938-0.51658 0.45537-0.86097 0.34153-0.40179 0.77413-0.91837 0.77413-1.7793 0-1.5784-1.0701-2.1811-1.1157-2.2098-0.29599-0.17219-0.56922-0.028699-0.68306 0.28699z"/>
</svg>
