<svg xmlns="http://www.w3.org/2000/svg" width="19.8" height="14.85"><path d="M2.2 1.65c-.33 0-.55.22-.55.55v10.45c0 .33.22.55.55.55.33 0 .55-.22.55-.55V11h14.3v1.65c0 .33.22.55.55.55.33 0 .55-.22.55-.55v-2.2c0-.33-.22-.55-.55-.55H2.75V2.2c0-.33-.22-.55-.55-.55Zm3.3.55c-.88 0-1.65.77-1.65 1.65 0 .88.77 1.65 1.65 1.65.88 0 1.65-.77 1.65-1.65 0-.88-.77-1.65-1.65-1.65Zm3.85 1.1C7.7 3.3 7.7 4.95 7.7 4.95V6.6H4.4c-.33 0-.55.22-.55.55v1.1c0 .33.22.55.55.55h13.75V6.05c0-2.75-2.75-2.75-2.75-2.75Z"/></svg>