<?xml version="1.0" encoding="UTF-8" standalone="no"?>
<svg
   id="home"
   width="15"
   height="15"
   version="1.1"
   viewBox="0 0 15 15"
   xmlns="http://www.w3.org/2000/svg"
   xmlns:svg="http://www.w3.org/2000/svg">
  <defs
     id="defs1" />
  <path
     d="m 2.0009636,13.749 c 0,0.13807 0.11193,0.25 0.25,0.25 h 3.749 3 3.7490004 c 0.13807,0 0.25,-0.11193 0.25,-0.25 L 12.935405,6.7922729 2.0009636,6.8558322 Z m 11.9300004,-7.17 -2.9319,-2.5778 -3.3173004,-2.91 c -0.0945,-0.1003 -0.25234,-0.10522 -0.3529,-0.011 l -0.011,0.011 -6.2491,5.463 c -0.0944,0.10076 -0.08924,0.25897 0.01152,0.35337 0.04546,0.04259 0.10519,0.06667 0.16748,0.06753 l 1.7532,0.025 H 13.747964 c 0.13807,4.6e-4 0.25037,-0.1111 0.25083,-0.24917 2.1e-4,-0.06381 -0.02398,-0.12528 -0.06763,-0.17183 z"
     id="path1" />
  <path
     d="M 10.143479,13.02966 H 4.7524462 V 11.70792 L 6.5633338,9.876218 Q 7.1253334,9.2829962 7.4375554,8.9291446 7.7601848,8.575293 7.8850736,8.3255154 8.0099624,8.0757378 8.0099624,7.8051454 8.0099624,7.4721086 7.791407,7.326405 7.583259,7.1807014 7.2918518,7.1807014 q -0.3538516,0 -0.7077032,0.1977406 Q 6.230297,7.5761826 5.7723714,7.9716638 L 4.669187,6.6811461 Q 5.0022238,6.3793315 5.3768902,6.1087391 5.761964,5.8381467 6.2719266,5.6716283 6.7818892,5.4947025 7.5208146,5.4947025 q 0.7597402,0 1.3113324,0.2705924 0.5515922,0.260185 0.8534068,0.7181106 0.312222,0.4579256 0.312222,1.0407401 0,0.6452588 -0.2393702,1.1552214 Q 9.5294428,9.1789222 9.0507024,9.6888848 8.5823694,10.18844 7.8746662,10.833699 l -0.5411848,0.489148 v 0.05204 h 2.8099976 z"
     id="text1"
     style="font-weight:900;font-size:10.4074px;font-family:'Noto Sans';-inkscape-font-specification:'Noto Sans Heavy';fill:#ffffff;stroke-width:1.95139"
     aria-label="2" />
</svg>
