<svg width="18.000004" height="14.000003" viewBox="0 0 4.762501 3.7041675"
  xmlns="http://www.w3.org/2000/svg">
  <g stroke="#000" stroke-linecap="round" stroke-linejoin="round">
    <path
      d="M.92604167.13229167a.79374999.79374999 0 0 1-.79375.79375V2.778125a.79374999.79374999 0 0 1 .79375.79375H3.8364583a.79374999.79374999 0 0 1 .79375-.79375V.92604167a.79374999.79374999 0 0 1-.79375-.79375Z"
      fill="none" stroke-width=".264584" paint-order="stroke markers fill" />
    <g aria-label="12"
      style="line-height:2.5ex;-inkscape-font-specification:&quot;Noto Sans, Normal&quot;"
      font-size="2.38125" font-family="Noto Sans" letter-spacing="0" word-spacing="0"
      stroke-width=".079375">
      <path
        d="M1.8204656 2.7140963h-.2047875V1.5258526q0-.1023937.0023812-.1643062.0023813-.0619125.0071438-.1285875-.0381.0381-.0690563.0642937-.0309562.0261938-.0785812.066675l-.180975.1476375-.1095375-.1404937.4595812-.3571875h.1738313ZM3.575448 2.7140963h-1.12395v-.1738312l.4452937-.4500563q.1285875-.1285875.2166938-.2286.0881062-.1000125.13335-.1952625.0452437-.0976312.0452437-.2119312 0-.1404937-.0833437-.2119312-.0833438-.0738188-.2166938-.0738188-.123825 0-.2190749.0428625-.0928688.0428625-.1905.1190625l-.1119188-.1404937q.1000125-.0833438.2286-.1404938.1309687-.05953122.2928937-.05953122.238125 0 .3762375.12144372.1381125.1190625.1381125.3309938 0 .13335-.0547687.2500312-.0547688.1166812-.1524.2309812-.0976313.1119188-.2286.2405063l-.3548062.3500437v.009525h.8596312Z" />
    </g>
  </g>
</svg>
