<svg xmlns="http://www.w3.org/2000/svg" width="14" height="14"><path d="M1.307 0 0 4.813h2.861v8.066H1.516V14H5.33v-1.121H3.984V4.813h2.862L5.527 0h-4.22Zm9.94.543a1.189 1.189 0 0 0-1.142.86 1.19 1.19 0 0 0-.738.055 1.189 1.189 0 0 0-.252 2.052 1.19 1.19 0 0 0 1.006 2.105 1.19 1.19 0 0 0 .717.74v2.301H8.543L9.596 14h3.363L14 8.656h-2.35V6.357a1.19 1.19 0 0 0 .758-.863c.129.048.265.073.402.074a1.189 1.189 0 0 0 .815-2.052 1.19 1.19 0 0 0-.815-2.055 1.189 1.189 0 0 0-.392.07 1.19 1.19 0 0 0-1.172-.988Zm.07 2.059a.884.884 0 1 1 0 1.768.884.884 0 0 1 0-1.768Z" clip-rule="evenodd"/></svg>