<svg xmlns="http://www.w3.org/2000/svg" width="14" height="14"><path d="M7.761 9.678c-.32.364-.68.657-1.079.88-.394.219-.79.328-1.19.328a2.43 2.43 0 0 1-1.279-.379c-.414-.252-.751-.64-1.012-1.164a3.872 3.872 0 0 1-.385-1.724c0-.772.2-1.543.599-2.314.404-.777.904-1.359 1.5-1.747.597-.388 1.176-.582 1.738-.582.428 0 .837.112 1.227.335.389.218.724.553 1.005 1.004l.251-1.128h1.323L9.395 8.07c-.148.679-.222 1.055-.222 1.127 0 .131.05.245.148.343a.537.537 0 0 0 .37.138c.26 0 .603-.148 1.027-.444a4.061 4.061 0 0 0 1.33-1.557 4.45 4.45 0 0 0 .496-2.023 4.32 4.32 0 0 0-.636-2.27c-.419-.704-1.047-1.267-1.885-1.689-.833-.422-1.754-.633-2.764-.633-1.153 0-2.208.267-3.164.8a5.5 5.5 0 0 0-2.217 2.286 6.726 6.726 0 0 0-.784 3.187c0 1.188.261 2.212.784 3.07.527.859 1.286 1.492 2.276 1.9.996.412 2.097.618 3.304.618 1.291 0 2.373-.213 3.245-.64.873-.427 1.525-.946 1.96-1.557H14c-.251.509-.682 1.028-1.294 1.557-.61.529-1.338.946-2.18 1.251-.843.31-1.858.466-3.046.466-1.094 0-2.104-.138-3.03-.415-.922-.276-1.708-.694-2.358-1.251A5.498 5.498 0 0 1 .62 10.42 7.13 7.13 0 0 1 0 7.451a7.99 7.99 0 0 1 .74-3.383c.6-1.315 1.453-2.322 2.557-3.02C4.405.349 5.748 0 7.325 0c1.222 0 2.319.247 3.29.742A5.432 5.432 0 0 1 12.92 2.94a5.43 5.43 0 0 1 .717 2.736c0 1.406-.503 2.656-1.508 3.747-.897.98-1.878 1.47-2.942 1.47-.34 0-.616-.051-.828-.153a.993.993 0 0 1-.458-.437c-.064-.12-.111-.33-.14-.625ZM4.184 7.706c0 .664.16 1.181.48 1.55.32.368.688.553 1.102.553.276 0 .566-.08.872-.24.305-.165.596-.408.872-.728.28-.32.51-.725.687-1.215.178-.495.267-.99.267-1.485 0-.66-.168-1.171-.503-1.535a1.575 1.575 0 0 0-1.212-.546c-.316 0-.614.08-.895.24-.276.156-.544.408-.805.757-.262.35-.471.774-.629 1.274a4.6 4.6 0 0 0-.236 1.375Z"/></svg>