<svg xmlns="http://www.w3.org/2000/svg" width="14" height="14" version="1.0"><path d="M7 0a1.978 1.978 0 1 0 .002 3.955A1.978 1.978 0 0 0 7 0zM5.799 4.26c-.373 0-.608.136-.822.35L2.33 7.261c-.723.723.256 1.65.979.927L4.906 6.58v1.508h4.168V6.57l1.64 1.645c.661.696 1.668-.24.98-.928L9.02 4.61a1.125 1.125 0 0 0-.846-.35H5.799zm-.893 4.61-1.338 1.34c-.43.43-.319 1.186.082 1.596l1.87 1.943a.696.696 0 0 0 .986-.975l-1.182-1.181 1.155-1.15L4.906 8.87zm4.16 0-1.572 1.572 1.154 1.15-1.181 1.182a.696.696 0 0 0 .986.975l1.87-1.943c.4-.41.511-1.166.081-1.596L9.066 8.87z" style="fill:#000;fill-opacity:1;stroke:none;stroke-width:.0330808"/></svg>