<svg xmlns="http://www.w3.org/2000/svg" width="17.592" height="13.475"><path d="M1.654 9.027c-.105-.07-.09-.188-.09-.188l.584-6.163s.01-.068.043-.103c.022-.021.049-.053.1-.071.587-.213 3.78-1.748 5.389-.32.267.275.556.679.556.987v5.216s.007.11-.106.178a.312.312 0 0 1-.27.002c-2.474-1.098-5.238.153-5.936.48a.27.27 0 0 1-.27-.018Zm14.006.019c-.697-.328-3.462-1.579-5.937-.48a.312.312 0 0 1-.269-.003c-.113-.067-.106-.178-.106-.178V3.17c0-.308.29-.712.556-.986 1.609-1.429 4.781.105 5.369.319.051.018.078.05.1.071a.213.213 0 0 1 .043.103l.604 6.163s.015.117-.09.188a.27.27 0 0 1-.27.019zm-5.35 2.691a.273.273 0 0 0 .131-.076.198.198 0 0 0 .047-.108c.055-.925 1.807-1.787 5.169-.029.086.044.185.04.27-.015.096-.062.094-.167.094-.167v-.546s0-.076-.03-.117a.243.243 0 0 0-.103-.085c-2.253-1.296-5.1-1.871-6.546-.157a.2.2 0 0 1-.08.09c-.064.043-.14.04-.14.04H8.47s-.077.003-.14-.04a.2.2 0 0 1-.081-.09c-1.445-1.714-4.293-1.167-6.545.13a.243.243 0 0 0-.103.085c-.03.041-.03.116-.03.116v.547s-.002.105.094.167a.267.267 0 0 0 .27.015c3.362-1.758 5.113-.869 5.168.056a.2.2 0 0 0 .047.108.273.273 0 0 0 .132.076c.802.177 1.966.247 3.027 0z"/></svg>