<?xml version="1.0" encoding="UTF-8"?>
<svg id="light_rail" width="15" height="15" version="1.1" viewBox="0 0 15 15" xmlns="http://www.w3.org/2000/svg">
 <path d="m8 1v1h2l1.41 1.41c0.38 0.38 0.59 0.89 0.59 1.42v6.17c0 1.1-0.9 2-2 2h-5c-1.1 0-2-0.9-2-2v-6.17c0-0.53 0.21-1.04 0.59-1.42l1.41-1.41h2v-1h-2c-0.28 0-0.5-0.22-0.5-0.5s0.22-0.5 0.5-0.5h5c0.28 0 0.5 0.22 0.5 0.5s-0.22 0.5-0.5 0.5h-2zm-2.25 12.5-0.75 1.5h-1.5l0.75-1.5h1.5zm5 0 0.75 1.5h-1.5l-0.75-1.5h1.5zm-6.75-8 0.01 2c0 0.28 0.22 0.5 0.5 0.5h1.99c0.28 0 0.5-0.22 0.5-0.5v-2c-0.01-0.28-0.23-0.5-0.5-0.5h-2c-0.28 0-0.5 0.22-0.5 0.5zm4 0 0.01 2c0 0.28 0.22 0.5 0.5 0.5h1.99c0.28 0 0.5-0.22 0.5-0.5v-2c-0.01-0.28-0.23-0.5-0.5-0.5h-2c-0.28 0-0.5 0.22-0.5 0.5zm-3-2v0.01c0.01 0.27 0.23 0.49 0.5 0.49h4.01c0.27 0 0.49-0.22 0.49-0.49v-0.01-0.01c-0.01-0.27-0.23-0.49-0.5-0.49h-4.01c-0.27 0-0.49 0.22-0.49 0.49v0.01zm0 8c0.55 0 1-0.45 1-1s-0.45-1-1-1-1 0.45-1 1 0.45 1 1 1zm5 0c0.55 0 1-0.45 1-1s-0.45-1-1-1-1 0.45-1 1 0.45 1 1 1z"/>
</svg>
