<svg xmlns="http://www.w3.org/2000/svg" width="14" height="14"><path d="M7 0 4 1.5C3.535 3 3.535 4 4 6h1l-1 8h6L9 6h1c.53-2 .53-3 0-4.5L7 0ZM.72 1.469c-.167.084-.23.376 0 .468l1.875.75c.306.124.493-.345.188-.468l-1.875-.75c-.077-.031-.132-.028-.188 0Zm12.375 0-1.875.75c-.306.123-.119.592.188.469l1.874-.75c.306-.124.119-.593-.187-.47ZM4.5 2h5c.26 1 .26 2 0 3h-5c-.259-1-.259-2 0-3ZM.75 3.25c-.33 0-.33.5 0 .5h2c.33 0 .33-.5 0-.5h-2Zm10.5 0c-.33 0-.33.5 0 .5h2c.33 0 .33-.5 0-.5h-2ZM2.594 4.375l-1.875.75c-.306.123-.119.592.188.469l1.875-.75c.305-.124.118-.592-.188-.469Zm8.625 0c-.167.084-.23.376 0 .469l1.875.75c.306.123.493-.346.188-.469l-1.876-.75c-.076-.03-.131-.028-.187 0Z"/></svg>