<svg width="14" height="14" viewBox="0 0 14 14" fill="none" xmlns="http://www.w3.org/2000/svg">
  <path
    d="M9.36662 13.5L4.63338 12.0792L1.03852 13.2775C0.785544 13.3688 0.549215 13.3474 0.329529 13.2133C0.109843 13.0792 0 12.8951 0 12.6612V3.33167C0 3.18902 0.0482644 3.06063 0.144793 2.9465C0.241322 2.83238 0.372801 2.74964 0.53923 2.69829L4.63338 1.5L9.36662 2.92083L12.9615 1.72254C13.2145 1.63124 13.4508 1.65264 13.6705 1.78673C13.8902 1.92083 14 2.10485 14 2.3388V11.6854C14 11.8281 13.9501 11.9536 13.8502 12.0621C13.7504 12.1705 13.6205 12.2504 13.4608 12.3017L9.36662 13.5ZM8.6077 11.9251V4.03352L5.3923 3.07489V10.9665L8.6077 11.9251Z"
    fill="black" />
</svg>
