<svg viewBox="0 0 22.588 78.943" fill="none" height="27.862" width="22.588"
  xmlns="http://www.w3.org/2000/svg" style="pointer-events:all">
  <circle style="fill:#000;fill-opacity:.01" cx="11.294" cy="31.107" r="22.402" />
  <path stroke-width="4" fill="#3170fe" stroke="#3170fe"
    d="M-18.706 30.104C-18.706 14.608-5.249 2 11.294 2s30 12.608 30 28.104c0 23.285-24.533 42.944-28.389 46.034-.24.192-.4.32-.468.38a1.734 1.734 0 0 1-1.143.425c-.41 0-.82-.142-1.142-.424-.07-.061-.229-.189-.469-.38-3.854-3.09-28.389-22.75-28.389-46.035Zm30 16.282c8.192 0 14.832-6.74 14.832-15.055 0-8.314-6.64-15.055-14.832-15.055-8.191 0-14.832 6.74-14.832 15.055s6.64 15.055 14.832 15.055Z" />
</svg>
