<?xml version="1.0" encoding="UTF-8"?>
<svg id="marker_stroked" width="15" height="15" version="1.1" viewBox="0 0 15 15" xmlns="http://www.w3.org/2000/svg">
 <path d="m5.117 2.8176c0.65255-0.55195 1.535-0.81756 2.383-0.81756s1.7305 0.26561 2.383 0.81756c0.62447 0.52823 1.117 1.3826 1.117 2.75 0 0.37272-0.1539 0.95648-0.4895 1.7239-0.3246 0.74209-0.77527 1.5594-1.2679 2.3667-0.60082 0.98449-1.2436 1.9212-1.7606 2.6516-0.52172-0.7299-1.166-1.6864-1.7625-2.6867-0.48517-0.81362-0.92644-1.6358-1.2434-2.3745-0.329-0.76682-0.47608-1.3363-0.47608-1.6808 0-1.3674 0.49248-2.2218 1.117-2.75zm2.9907 10.338c1.3514-1.8922 3.8923-5.6136 3.8923-7.5878 0-3.2793-2.4231-4.5676-4.5-4.5676s-4.5 1.2883-4.5 4.5676c0 1.8817 2.4753 5.6896 3.8675 7.5995 0.25414 0.3486 0.47219 0.634 0.63249 0.8329 0.05627-0.0785 0.12241-0.1701 0.197-0.2734 0.11769-0.163 0.25643-0.3552 0.41067-0.5712z"/>
</svg>
