<svg xmlns="http://www.w3.org/2000/svg" width="14" height="14"><path d="M5.545 1a1.5 1.5 0 1 0 0 3 1.5 1.5 0 0 0 0-3ZM4.33 4.51c-.39.051-.74.319-.873.705L2.158 9h2.069l.947-2.758L6.19 7.29c.016.016.036.024.053.037.017.015.038.025.057.037.03.018.058.036.09.047.016.007.029.019.046.024l1.924.54a.5.5 0 1 0 .272-.96l-1.809-.51L5.165 4.8c-.012-.012-.027-.017-.04-.028a.909.909 0 0 0-.401-.236 1.024 1.024 0 0 0-.395-.025ZM11.5 8a1.5 1.5 0 1 0 0 3 1.5 1.5 0 0 0 0-3ZM1 10c-.554 0-1 .446-1 1s.446 1 1 1h8.195l2.059.95c.067.03.137.042.205.042.014.001.027.008.041.008h2a.499.499 0 1 0 0-1h-1.94l-4.216-1.947a.467.467 0 0 0-.25-.034C7.06 10.017 7.034 10 7 10H1Z"/></svg>