<svg xmlns="http://www.w3.org/2000/svg" width="14" height="14"><path d="M7 1c-.598 0-1 .47-1 1v7l-2.887 5h1.155L6 11v3h2v-3l1.732 3h1.155L8 9V2c0-.496-.402-1-1-1Zm-4.285.545c-.167.084-.23.376 0 .469l1.875.75c.306.123.493-.346.187-.47l-1.875-.75c-.076-.03-.131-.027-.187 0Zm8.285.05-1.875.75c-.306.124-.119.593.187.47l1.876-.75c.305-.124.118-.593-.188-.47ZM2.746 3.327c-.33 0-.33.5 0 .5h2c.33 0 .33-.5 0-.5h-2Zm6.41.05c-.33.001-.33.501 0 .501h2c.33 0 .33-.5 0-.5h-2ZM4.59 4.452l-1.875.75c-.306.123-.12.592.187.469l1.875-.75c.306-.123.119-.592-.187-.469Zm4.535.051c-.167.084-.23.376 0 .469L11 5.72c.306.123.493-.346.188-.47L9.312 4.5c-.076-.03-.131-.027-.187 0Z"/></svg>