<?xml version="1.0" encoding="UTF-8" standalone="no"?>
<svg
   version="1.1"
   id="medical_supply"
   x="0px"
   y="0px"
   viewBox="0 0 15 15"
   xml:space="preserve"
   width="15"
   height="15"
   xmlns="http://www.w3.org/2000/svg"
   xmlns:svg="http://www.w3.org/2000/svg">
<path
   d="m 13.951189,1.9775191 h -1.763671 c -0.646694,0 -0.76793,0.2976186 -0.845086,0.6944335 L 9.9131134,9.9103659 c 0,0 -0.1910754,0.3894681 -0.5585035,0.3894681 -2.068636,0 -8.2708872,0 -8.2708872,0 -0.25353827,0 -0.4592769,0.205769 -0.4592769,0.459277 0,0.253507 0.20576933,0.459277 0.4592769,0.459277 h 0.2976185 c 0.3196587,0 0.2057694,0.187386 0.1837292,0.290272 -0.018382,0.08084 -0.025729,0.165346 -0.025729,0.253538 0,0.694433 0.5658502,1.260283 1.2602832,1.260283 0.694433,0 1.2602832,-0.56585 1.2602832,-1.260283 0,-0.08819 -0.011037,-0.176352 -0.025728,-0.260885 -0.022041,-0.0992 -0.117578,-0.286583 0.1580005,-0.286583 h 2.6197931 c 0.1653472,0 0.1028847,0.117578 0.084503,0.18004 -0.033076,0.11389 -0.055115,0.235156 -0.055115,0.363769 0,0.694434 0.5658505,1.260284 1.260283,1.260284 0.6944333,0 1.2602835,-0.56585 1.2602835,-1.260284 0,-0.121266 -0.018381,-0.238844 -0.047769,-0.349045 -0.018381,-0.06615 -0.058802,-0.194734 0.1175783,-0.194734 h 0.4482722 c 0.6576996,0 0.7679306,-0.297618 0.8450866,-0.694433 l 1.473397,-7.4514986 c 0,0 0.03308,-0.1763519 0.257197,-0.1763519 0.374773,0 1.491781,0 1.491781,0 0.253538,0 0.459276,-0.2057692 0.459276,-0.4592773 0.0037,-0.2499108 -0.20202,-0.4556801 -0.455558,-0.4556801 z"
   id="path1"
   style="stroke-width:0.0307395" /><path
   d="M 10.159304,2.9438725 C 10.060109,2.8226059 9.9094554,2.7564851 9.7441081,2.7564851 h -8.605239 c -0.16165827,0 -0.31231197,0.06615 -0.41519662,0.1837297 C 0.62078783,3.0577932 0.57670757,3.215793 0.5987477,3.3774513 L 1.4181055,8.9697717 C 1.4621855,9.2784263 1.7414529,9.51724 2.0500762,9.51724 h 6.4704824 c 0.3049656,0 0.5878904,-0.235156 0.6466952,-0.5327745 L 10.265878,3.3847984 c 0.03304,-0.1616894 -0.0074,-0.3196899 -0.106574,-0.4409259 z m -3.4024162,3.711041 h -0.620966 c 0,0 -0.139618,0.00372 -0.139618,0.1102311 0,0.1616582 0,0.6503528 0,0.6503528 0,0.3049651 -0.2461916,0.5548149 -0.5548147,0.5548149 -0.3086235,0 -0.5548151,-0.2461915 -0.5548151,-0.5548149 0,0 0,-0.4813473 0,-0.6430062 0,-0.1286131 -0.1212668,-0.1175777 -0.1212668,-0.1175777 H 4.1224011 c -0.3049652,0 -0.5548147,-0.2461921 -0.5548147,-0.5548148 0,-0.3049656 0.2461916,-0.5548147 0.5548147,-0.5548147 h 0.624624 c 0,0 0.1359601,0.00735 0.1359601,-0.1286138 0,-0.1580005 0,-0.6356591 0,-0.6356591 0,-0.3049657 0.2461919,-0.5548148 0.5548151,-0.5548148 0.3086231,0 0.5548147,0.2461915 0.5548147,0.5548148 0,0 0,0.5070461 0,0.6760813 0,0.091849 0.117578,0.084503 0.117578,0.084503 h 0.643006 c 0.3049653,0 0.5548151,0.2461914 0.5548151,0.5548148 0.00372,0.3086539 -0.246161,0.5585036 -0.5511263,0.5585033 z"
   id="path2"
   style="stroke-width:0.0307395" />
</svg>
