<svg xmlns="http://www.w3.org/2000/svg" width="14" height="14"><path d="m13.82 0-3.345.242V.25l-.01-.002-.53 4.398h-5.32v1.417h2.337a4.218 4.218 0 0 0-1.97 2.182h-2.94v.053l-.618 2.054c-.395.107-.744.34-.993.664a1.85 1.85 0 0 0 .77 2.844 1.875 1.875 0 0 0 2.439-1.006 1.849 1.849 0 0 0-.786-2.312l.121-.407h1.723a4.202 4.202 0 0 0 1.35 2.752 4.245 4.245 0 0 0 6.778-1.486 4.191 4.191 0 0 0-1.21-4.849l.607-5.016 1.73-.125L13.818 0ZM8.942 7.239a2.628 2.628 0 0 1 2.423 1.615 2.611 2.611 0 0 1-1.42 3.418 2.63 2.63 0 0 1-2.858-.567 2.615 2.615 0 0 1-.569-2.851 2.616 2.616 0 0 1 1.42-1.416c.318-.132.66-.2 1.004-.2Z"/></svg>