<svg xmlns="http://www.w3.org/2000/svg" width="20" height="20"><path d="m3.096 17.663 1.229-8.076.963-.577.943.592s1.069 8.159.968 8.11c-.1-.049-4.083.024-4.103-.049Z"/><path d="M2.446 6.13a.227.227 0 0 0-.142.062l-1.12 1.047a.227.227 0 0 0 .01.34l3.297 2.819-3.298 2.823a.227.227 0 0 0-.008.338l1.12 1.048c.1.093.259.078.338-.033l2.64-3.598 2.639 3.598c.08.109.237.124.336.033l1.12-1.047a.227.227 0 0 0-.009-.34l-3.297-2.822 3.297-2.82a.227.227 0 0 0 .009-.339l-1.12-1.047a.227.227 0 0 0-.164-.061.227.227 0 0 0-.172.094l-2.64 3.598-2.639-3.598a.227.227 0 0 0-.197-.094Zm2.837 4.132.141.136-.144.139-.142-.136.145-.14Zm8.295-4.786c0-.359-.13-.661-.389-.907a1.3 1.3 0 0 0-.927-.37c-.358 0-.664.124-.916.37a1.217 1.217 0 0 0-.38.907c0 .358.127.66.38.907.252.246.558.369.916.369a1.3 1.3 0 0 0 .927-.37c.26-.245.389-.548.389-.906ZM10.15 18.75c.279 0 .505-.133.677-.399l3.747-5.64.2.777-.558 4.226a.773.773 0 0 0 .638.877.746.746 0 0 0 .588-.13.706.706 0 0 0 .309-.508l.578-4.325c.013-.147 0-.3-.04-.46l-1.276-5.082 3.329-.598a.605.605 0 0 0 .419-.269.654.654 0 0 0 .119-.488.753.753 0 0 0-.299-.439L10.927 1.25l-.698 1.017c-.172.24-.133.445.12.618.239.146.445.106.617-.12l.4-.598 6.218 4.087-5.082.917a.73.73 0 0 0-.449.288.524.524 0 0 0-.09.489l1.097 4.285-3.588 5.363a.765.765 0 0 0 .13.926c.152.153.335.23.548.23v-.001Z"/></svg>