<svg xmlns="http://www.w3.org/2000/svg" width="11" height="17.6"><path d="M8.25 2.75V2.2a.55.55 0 0 0-1.1 0v.55h-4.4a1.1 1.1 0 0 0-1.1 1.1v11a1.1 1.1 0 0 0 1.1 1.1h5.5a1.1 1.1 0 0 0 1.1-1.1v-11a1.1 1.1 0 0 0-1.1-1.1zm-4.4 12.1h-1.1v-1.1h1.1zm0-2.2h-1.1v-1.1h1.1zm0-2.2h-1.1v-1.1h1.1zm2.2 4.4h-1.1v-1.1h1.1zm0-2.2h-1.1v-1.1h1.1zm0-2.2h-1.1v-1.1h1.1zm2.2 4.4h-1.1v-1.1h1.1zm0-2.2h-1.1v-1.1h1.1zm0-2.2h-1.1v-1.1h1.1zm0-2.75a.55.55 0 0 1-.55.55H3.3a.55.55 0 0 1-.55-.55V4.4a.55.55 0 0 1 .55-.55h4.4a.55.55 0 0 1 .55.55z"/></svg>