<?xml version="1.0" encoding="UTF-8"?>
<svg id="monorail" width="15" height="15" version="1.1" viewBox="0 0 15 15" xmlns="http://www.w3.org/2000/svg">
 <path d="m13 2v6.76c0 0.16-0.04 0.31-0.11 0.45l-1.61 3.24c-0.17 0.34-0.52 0.55-0.9 0.55h-0.38c-0.28 0-0.5-0.22-0.5-0.5v-1.75c0-0.41-0.34-0.75-0.75-0.75h-2.5c-0.41 0-0.75 0.34-0.75 0.75v1.75c0 0.28-0.22 0.5-0.5 0.5h-0.38c-0.38 0-0.73-0.21-0.9-0.55l-1.61-3.24c-0.07-0.14-0.11-0.29-0.11-0.45v-6.76c0-1.1 0.9-2 2-2h7c1.1 0 2 0.9 2 2zm-6.5 8.5h2c0.28 0 0.5 0.22 0.5 0.5v1.5c0 0.28-0.22 0.5-0.5 0.5h-0.5v2h-1v-2h-0.5c-0.28 0-0.5-0.22-0.5-0.5v-1.5c0-0.28 0.22-0.5 0.5-0.5zm-3.5-7v2c0 0.28 0.22 0.5 0.5 0.5h8c0.28 0 0.5-0.22 0.5-0.5v-2c0-0.28-0.22-0.5-0.5-0.5h-8c-0.28 0-0.5 0.22-0.5 0.5zm1-2c0 0.28 0.22 0.5 0.5 0.5h6c0.28 0 0.5-0.22 0.5-0.5s-0.22-0.5-0.5-0.5h-6c-0.28 0-0.5 0.22-0.5 0.5zm5 7c0 0.28 0.22 0.5 0.5 0.5h1.44c0.18 0 0.34-0.1 0.43-0.26l0.56-1c0.04-0.07 0.06-0.15 0.06-0.24 0-0.28-0.22-0.5-0.5-0.5h-1.99c-0.28 0-0.5 0.22-0.5 0.5zm-3 0v-1c0-0.28-0.22-0.5-0.5-0.5h-1.99c-0.28 0-0.5 0.22-0.5 0.5 0 0.09 0.02 0.17 0.06 0.24l0.56 1c0.09 0.16 0.25 0.26 0.43 0.26h1.44c0.28 0 0.5-0.22 0.5-0.5z"/>
</svg>
