<?xml version="1.0" encoding="UTF-8" standalone="no"?>
<svg
   width="15"
   height="15"
   version="1.1"
   id="svg1"
   xmlns="http://www.w3.org/2000/svg"
   xmlns:svg="http://www.w3.org/2000/svg">
  <defs
     id="defs1" />
  <path
     d="M 12.342761,11.067601 11.395596,10.187793 10.555369,8.5073403 A 0.80203447,0.80203447 0 0 0 9.8679115,8.1254191 H 5.1320892 A 0.80203447,0.80203447 0 0 0 4.444631,8.5073403 L 3.6044044,10.187793 2.65724,11.067601 a 0.38192117,0.38192117 0 0 0 -0.1222148,0.280538 v 3.26994 A 0.38192117,0.38192117 0 0 0 2.9169464,15 H 4.444631 c 0.1527685,0 0.3819212,-0.152768 0.3819212,-0.305537 v -0.458305 h 5.3468958 v 0.381921 C 10.173448,14.770848 10.326217,15 10.478986,15 h 1.604068 a 0.38192117,0.38192117 0 0 0 0.381921,-0.381921 V 11.347445 A 0.38192117,0.38192117 0 0 0 12.342761,11.067601 Z M 5.2084734,8.8892615 H 9.7915273 L 10.555369,10.416946 H 4.444631 Z m 0.3819212,3.5136745 c 0,0.152769 -0.2291527,0.305537 -0.3819212,0.305537 h -1.604069 c -0.1527684,0 -0.3055369,-0.229153 -0.3055369,-0.381921 v -0.840227 c 0.076384,-0.229152 0.2291527,-0.381921 0.4583054,-0.305537 l 1.5276847,0.305537 c 0.1527685,0 0.305537,0.229153 0.305537,0.381922 z m 6.1107384,-0.07638 c 0,0.152768 -0.152769,0.381921 -0.305537,0.381921 H 9.7915273 c -0.1527685,0 -0.381921,-0.152768 -0.381921,-0.305537 v -0.534689 c 0,-0.152769 0.1527683,-0.381922 0.3055367,-0.381922 l 1.527684,-0.305537 c 0.229153,-0.07638 0.381922,0.07638 0.458306,0.305537 z"
     id="path1"
     style="stroke-width:0.694402" />
  <path
     d="M 2.6079099,0 C 2.3982489,0 2.2584748,0.13977401 2.2584748,0.34943503 V 6.9887009 c 0,0.209661 0.1397741,0.349435 0.3494351,0.349435 0.2096611,0 0.3494351,-0.139774 0.3494351,-0.349435 V 5.9403956 h 9.08531 v 1.0483053 c 0,0.209661 0.139774,0.349435 0.349435,0.349435 0.209661,0 0.349435,-0.139774 0.349435,-0.349435 V 5.5909605 c 0,-0.209661 -0.139774,-0.349435 -0.349435,-0.349435 H 2.957345 V 0.34943503 C 2.957345,0.13977401 2.817571,0 2.6079099,0 Z m 2.0966102,0.34943503 c -0.5590961,0 -1.0483052,0.48920906 -1.0483052,1.04830507 0,0.5590961 0.4892091,1.0483051 1.0483052,1.0483051 0.559096,0 1.0483051,-0.489209 1.0483051,-1.0483051 0,-0.55909601 -0.4892091,-1.04830507 -1.0483051,-1.04830507 z M 7.1505652,1.0483051 c -1.0483051,0 -1.0483051,1.0483051 -1.0483051,1.0483051 V 3.1449153 H 4.00565 c -0.209661,0 -0.3494351,0.139774 -0.3494351,0.349435 v 0.6988701 c 0,0.209661 0.1397741,0.349435 0.3494351,0.349435 h 8.735875 V 2.7954803 c 0,-1.7471752 -1.747175,-1.7471752 -1.747175,-1.7471752 z"
     id="path1-4"
     style="stroke-width:0.635336" />
</svg>
