<?xml version="1.0" encoding="UTF-8" standalone="no"?>
<svg
   width="14"
   height="14"
   version="1.1"
   id="svg1"
   xmlns="http://www.w3.org/2000/svg"
   xmlns:svg="http://www.w3.org/2000/svg">
  <defs
     id="defs1" />
  <path
     d="M 11.842761,10.067601 10.895596,9.1877935 10.055369,7.5073403 A 0.80203447,0.80203447 0 0 0 9.3679113,7.1254191 H 4.632089 A 0.80203447,0.80203447 0 0 0 3.9446308,7.5073403 L 3.1044042,9.1877935 2.1572398,10.067601 A 0.38192117,0.38192117 0 0 0 2.035025,10.348139 v 3.26994 A 0.38192117,0.38192117 0 0 0 2.4169462,14 H 3.9446308 C 4.0973993,14 4.326552,13.847232 4.326552,13.694463 v -0.458305 h 5.3468962 v 0.381921 C 9.6734482,13.770848 9.8262164,14 9.9789854,14 h 1.6040686 a 0.38192117,0.38192117 0 0 0 0.381921,-0.381921 V 10.347445 A 0.38192117,0.38192117 0 0 0 11.842761,10.067601 Z M 4.7084732,7.8892615 H 9.2915271 L 10.055369,9.4169462 H 3.9446308 Z m 0.3819212,3.5136745 c 0,0.152769 -0.2291527,0.305537 -0.3819212,0.305537 h -1.604069 c -0.1527684,0 -0.3055369,-0.229153 -0.3055369,-0.381921 V 10.486325 C 2.8752513,10.257173 3.02802,10.104404 3.2571727,10.180788 l 1.5276847,0.305537 c 0.1527685,0 0.305537,0.229153 0.305537,0.381922 z m 6.1107386,-0.07638 c 0,0.152768 -0.152769,0.381921 -0.305537,0.381921 H 9.2915271 c -0.1527685,0 -0.381921,-0.152768 -0.381921,-0.305537 v -0.534689 c 0,-0.152769 0.1527683,-0.381922 0.3055367,-0.381922 l 1.5276842,-0.305537 c 0.229153,-0.07638 0.381922,0.07638 0.458306,0.305537 z"
     id="path1"
     style="stroke-width:0.694402" />
  <path
     d="M 2.1079098,0 C 1.8982487,0 1.7584747,0.13977401 1.7584747,0.34943503 V 6.9887009 c 0,0.209661 0.139774,0.349435 0.3494351,0.349435 0.209661,0 0.349435,-0.139774 0.349435,-0.349435 V 5.9403956 h 9.0853102 v 1.0483053 c 0,0.209661 0.139774,0.349435 0.349435,0.349435 0.209661,0 0.349435,-0.139774 0.349435,-0.349435 V 5.5909605 c 0,-0.209661 -0.139774,-0.349435 -0.349435,-0.349435 H 2.4573448 V 0.34943503 C 2.4573448,0.13977401 2.3175708,0 2.1079098,0 Z M 4.20452,0.34943503 c -0.5590961,0 -1.0483052,0.48920906 -1.0483052,1.04830507 0,0.5590961 0.4892091,1.0483051 1.0483052,1.0483051 0.559096,0 1.0483051,-0.489209 1.0483051,-1.0483051 0,-0.55909601 -0.4892091,-1.04830507 -1.0483051,-1.04830507 z M 6.6505651,1.0483051 C 5.60226,1.0483051 5.60226,2.0966102 5.60226,2.0966102 V 3.1449153 H 3.5056499 c -0.209661,0 -0.3494351,0.139774 -0.3494351,0.349435 v 0.6988701 c 0,0.209661 0.1397741,0.349435 0.3494351,0.349435 H 12.241525 V 2.7954803 c 0,-1.7471752 -1.747175,-1.7471752 -1.747175,-1.7471752 z"
     id="path1-4"
     style="stroke-width:0.635336" />
</svg>
