<?xml version="1.0" encoding="UTF-8"?>
<svg id="motorcycle_rental" width="15" height="15" version="1.1" viewBox="0 0 15 15" xmlns="http://www.w3.org/2000/svg">
 <path d="m9.16 7h-1.66c-0.28 0-0.5-0.22-0.5-0.5s0.22-0.5 0.5-0.5h1.99c0.03 0 0.06 0 0.09 0.01 0.08 0.01 0.16 0.04 0.22 0.09 0.05 0.04 0.09 0.08 0.13 0.14 0.01 0.03 0.03 0.06 0.04 0.09l1.07 2.67h0.46c1.38 0 2.5 1.12 2.5 2.5s-1.12 2.5-2.5 2.5-2.5-1.12-2.5-2.5c0-0.17 0.02-0.34 0.05-0.5h-1.05c0 0.55-0.45 1-1 1h-1.05c-0.23 1.14-1.24 2-2.45 2-1.38 0-2.5-1.12-2.5-2.5 0-1.21 0.86-2.22 2-2.45v-0.05h3l3.6-0.9zm-4.25 5h-0.91c-0.55 0-1-0.45-1-1v-0.91c-0.58 0.2-1 0.76-1 1.41 0 0.83 0.67 1.5 1.5 1.5 0.65 0 1.21-0.42 1.41-1zm5.6-1.63c-0.31 0.28-0.51 0.68-0.51 1.13 0 0.83 0.67 1.5 1.5 1.5s1.5-0.67 1.5-1.5-0.67-1.5-1.5-1.5h-0.06l0.52 1.31c0.11 0.26-0.02 0.55-0.27 0.65-0.26 0.11-0.55-0.02-0.65-0.27zm-5.51-1.87h-3v-1.5h2c0.55 0 1 0.45 1 1zm6.5-7.5c0.28 0 0.5 0.22 0.5 0.5v3c0 0.28-0.22 0.5-0.5 0.5h-1.5c-0.74 0-1.38-0.4-1.72-1h-0.78l-1-1-1 1-1-1-1 1-1-1 1-1h4.78c0.34-0.6 0.98-1 1.72-1zm-0.5 2.5v-1c0-0.28-0.22-0.5-0.5-0.5s-0.5 0.22-0.5 0.5v1c0 0.28 0.22 0.5 0.5 0.5s0.5-0.22 0.5-0.5z"/>
</svg>
