<svg xmlns="http://www.w3.org/2000/svg" width="14" height="14"><path d="M12.105 8.593c.23.143.365.301.43.502.022.066.023.08.024.215a.785.785 0 0 1-.018.226 1.825 1.825 0 0 1-.164.42l-.031.06-.108.007c-.39.02-.705.09-.978.22-.586.28-.955.803-1.137 1.615l-.016.065-.076.07a1.282 1.282 0 0 1-.127.102c-.253.16-.616.256-1.13.3-.232.02-.387.025-1.133.032-.438.004-.799.01-.801.012a.112.112 0 0 1-.037.004c-.04 0-.036.014-.014-.165a3.04 3.04 0 0 0-.01-.83c-.117-.667-.53-1.106-1.23-1.306-.308-.088-.58-.12-1.041-.127l-.295-.006-.02-.02a.478.478 0 0 1-.12-.396.436.436 0 0 1 .097-.182L5 8.567c1.8-.005 2.28.003 4 .018.096.023.53.894.576.967a.644.644 0 0 1 .074.199c.012 0 .172-.064.254-.102.22-.1.494-.496.633-.658.132-1.558-2.037-5.694 1.568-.398Zm-.084 1.607a1.83 1.83 0 0 1 1.407.512c.51.501.629 1.25.298 1.867-.274.513-.817.86-1.425.91a1.992 1.992 0 0 1-.717-.078 1.715 1.715 0 0 1-1.12-1.05 1.561 1.561 0 0 1 .165-1.366 1.788 1.788 0 0 1 1.392-.795Zm-7.13.004c.214 0 .274.006.43.043.698.166 1.22.709 1.32 1.375.018.123.018.339 0 .455-.09.556-.454 1.016-.993 1.258a1.98 1.98 0 0 1-.58.154 2.457 2.457 0 0 1-.468-.015c-.752-.12-1.322-.652-1.456-1.358a1.838 1.838 0 0 1-.005-.511c.06-.36.231-.671.503-.924a1.8 1.8 0 0 1 .957-.463c.068-.012.126-.014.291-.014Zm7.197.565a1.18 1.18 0 0 0-.871.431 1.28 1.28 0 0 0-.184.342c-.119.39-.003.795.307 1.076.078.071.195.152.279.192.066.03.201.075.281.091.1.021.326.027.424.012.472-.073.84-.398.95-.836.024-.1.03-.297.011-.4-.1-.552-.605-.935-1.197-.908Zm-7.194.004c-.208 0-.359.033-.533.117-.12.058-.21.118-.304.21-.156.152-.25.318-.301.528a1.334 1.334 0 0 0-.008.39c.043.254.197.504.408.663a1.2 1.2 0 0 0 .543.23c.096.015.298.015.385 0 .686-.116 1.105-.744.914-1.369a1.126 1.126 0 0 0-.723-.71 1.096 1.096 0 0 0-.38-.06ZM1 0v10h2V6.5h2.5c1.976 0 3.5-1 3.5-3.25S7.487 0 5.969 0H1Zm2 2h2.5C6.464 2 7 2.526 7 3.25c0 .725-.632 1.25-1.5 1.25H3V2Z" clip-rule="evenodd"/></svg>