<?xml version="1.0" encoding="UTF-8"?>
<svg id="motorcycle" width="15" height="15" version="1.1" viewBox="0 0 15 15" xmlns="http://www.w3.org/2000/svg">
 <path d="m9.3467 4.0329h-1.8467c-0.31149 0-0.55623-0.25425-0.55623-0.57784 0-0.32359 0.24474-0.57784 0.55623-0.57784h2.2138c0.03337 0 0.06675 0 0.10012 0.011557 0.089 0.011557 0.178 0.046227 0.24474 0.10401 0.05562 0.046227 0.10012 0.092455 0.14462 0.1618 0.01113 0.03467 0.03337 0.069342 0.0445 0.10401l1.1903 3.0857h0.51174c1.5352 0 2.7812 1.2944 2.7812 2.8892 0 1.5948-1.246 2.8892-2.7812 2.8892s-2.7812-1.2944-2.7812-2.8892c0-0.19647 0.022249-0.39293 0.055624-0.57784h-1.1681c0 0.63563-0.50061 1.1557-1.1125 1.1557h-1.1681c-0.25587 1.3175-1.3795 2.3114-2.7255 2.3114-1.5352 0-2.7812-1.2944-2.7812-2.8892 0-1.3984 0.95672-2.5656 2.2249-2.8314v-0.057784h3.3374l4.0049-1.0401zm-4.728 5.7784h-1.0123c-0.61186 0-1.1125-0.52006-1.1125-1.1557v-1.0517c-0.64523 0.23114-1.1125 0.87832-1.1125 1.6295 0 0.95922 0.74535 1.7335 1.6687 1.7335 0.7231 0 1.3461-0.48539 1.5686-1.1557zm6.2298-1.8838c-0.34487 0.32359-0.56736 0.78587-0.56736 1.3059 0 0.95922 0.74535 1.7335 1.6687 1.7335s1.6687-0.77431 1.6687-1.7335c0-0.95922-0.74535-1.7335-1.6687-1.7335h-0.06675l0.57848 1.5139c0.12237 0.30048-0.02225 0.63563-0.30037 0.7512-0.28924 0.12712-0.61186-0.02311-0.7231-0.31204zm-6.1297-2.1611h-3.3374v-1.7335h2.2249c0.61186 0 1.1125 0.52006 1.1125 1.1557z"/>
</svg>
