<svg xmlns="http://www.w3.org/2000/svg" width="14" height="14"><path d="M11.656 5.826c.299.21.473.441.558.734.028.097.03.117.03.315 0 .182-.001.23-.023.332a2.89 2.89 0 0 1-.213.614l-.04.089-.14.009c-.507.03-.915.132-1.27.323-.76.408-1.238 1.175-1.474 2.364l-.02.095-.1.102a1.662 1.662 0 0 1-.164.15c-.328.233-.8.373-1.468.44-.3.03-.501.035-1.47.045-.568.006-1.036.014-1.04.017a.13.13 0 0 1-.047.006c-.05 0-.047.022-.018-.24.045-.405.04-.875-.013-1.215-.151-.978-.687-1.62-1.597-1.913-.4-.129-.75-.175-1.35-.186l-.383-.009-.026-.028a.761.761 0 0 1-.157-.58.667.667 0 0 1 .127-.266l1.077-1.236c2.336-.008 2.96.005 5.191.027.124.033.689 1.309.748 1.414a1.017 1.017 0 0 1 .096.292c.015 0 .223-.093.33-.149.284-.147.64-.726.821-.963.172-2.281-2.643-8.336 2.035-.583Zm-.109 2.353c.68-.053 1.35.221 1.825.749a2.51 2.51 0 0 1 .388 2.733c-.357.751-1.061 1.259-1.85 1.332a2.308 2.308 0 0 1-.93-.114 2.362 2.362 0 0 1-1.453-1.538 2.538 2.538 0 0 1 .213-1.999c.393-.679 1.053-1.105 1.807-1.163Zm-9.254.005c.278 0 .357.01.558.063.907.242 1.583 1.037 1.713 2.013.024.18.024.496 0 .666-.115.814-.588 1.488-1.287 1.842a2.353 2.353 0 0 1-.753.225 2.84 2.84 0 0 1-.608-.022C.94 12.794.2 12.016.027 10.983a3.032 3.032 0 0 1-.007-.749c.078-.525.3-.981.654-1.352a2.25 2.25 0 0 1 1.242-.678c.087-.017.163-.02.377-.02Zm9.34.827c-.45.022-.856.25-1.13.632-.086.118-.2.36-.238.5a1.628 1.628 0 0 0 .76 1.855c.085.046.26.11.365.135.129.03.422.04.55.017.613-.107 1.09-.583 1.232-1.224.032-.147.04-.435.015-.586-.13-.807-.786-1.368-1.554-1.33Zm-9.335.005c-.27 0-.466.049-.692.172a1.583 1.583 0 0 0-.786 1.08 2.23 2.23 0 0 0-.01.572c.056.372.256.737.53.97.211.179.452.294.705.337.125.022.387.022.5 0 .889-.17 1.433-1.09 1.185-2.004a1.564 1.564 0 0 0-.937-1.04 1.274 1.274 0 0 0-.495-.087Z" clip-rule="evenodd"/></svg>