<?xml version="1.0" encoding="UTF-8"?>
<svg id="motorcycle_repair" width="15" height="15" version="1.1" viewBox="0 0 15 15" xmlns="http://www.w3.org/2000/svg">
 <path d="m9.16 7.25h-1.66c-0.28 0-0.5-0.22-0.5-0.5s0.22-0.5 0.5-0.5h1.99c0.03 0 0.06 0 0.09 0.01 0.08 0.01 0.16 0.04 0.22 0.09 0.05 0.04 0.09 0.08 0.13 0.14 0.01 0.03 0.03 0.06 0.04 0.09l1.07 2.67h0.46c1.38 0 2.5 1.12 2.5 2.5s-1.12 2.5-2.5 2.5-2.5-1.12-2.5-2.5c0-0.17 0.02-0.34 0.05-0.5h-1.05c0 0.55-0.45 1-1 1h-1.05c-0.23 1.14-1.24 2-2.45 2-1.38 0-2.5-1.12-2.5-2.5 0-1.21 0.86-2.22 2-2.45v-0.05h3l3.6-0.9zm-4.25 5h-0.91c-0.55 0-1-0.45-1-1v-0.91c-0.58 0.2-1 0.76-1 1.41 0 0.83 0.67 1.5 1.5 1.5 0.65 0 1.21-0.42 1.41-1zm5.6-1.63c-0.31 0.28-0.51 0.68-0.51 1.13 0 0.83 0.67 1.5 1.5 1.5s1.5-0.67 1.5-1.5-0.67-1.5-1.5-1.5h-0.06l0.52 1.31c0.11 0.26-0.02 0.55-0.27 0.65-0.26 0.11-0.55-0.02-0.65-0.27zm1.49-8.37c0.55 0 1 0.45 1 1s-0.45 1-1 1h-6.21c-0.39 0.88-1.27 1.5-2.29 1.5-1.02 0-1.9-0.62-2.29-1.5h2.29l0.5-1-0.5-1h-2.29c0.39-0.88 1.27-1.5 2.29-1.5 1.02 0 1.9 0.62 2.29 1.5zm-7 6.5h-3v-1.5h2c0.55 0 1 0.45 1 1z"/>
</svg>
