<?xml version="1.0" encoding="UTF-8"?>
<svg id="motorcycle_parking" width="15" height="15" version="1.1" viewBox="0 0 15 15" xmlns="http://www.w3.org/2000/svg">
 <path d="m0.44727 0.82812v8.7988h1.5996v-3.1992h2c1.5464 0 2.8008-1.2544 2.8008-2.8008s-1.2544-2.7988-2.8008-2.7988zm1.5996 1.5996h2c0.66274 0 1.2012 0.53647 1.2012 1.1992s-0.53843 1.2012-1.2012 1.2012h-2zm5.998 3.4219c-0.28034 0-0.5 0.23025-0.5 0.52148 0 0.29123 0.21966 0.51953 0.5 0.51953h1.6621l0.44141 1.1445-3.0781 0.79883c-0.025338-0.319-0.32033-0.57227-0.69141-0.57227h-2.1367c-0.3878 0-0.69922 0.27382-0.69922 0.61328 0 0.034048 0.015442 0.063195 0.021484 0.095703h-0.025391v0.052734c-1.1414 0.23923-2.002 1.2883-2.002 2.5469 0 1.4354 1.1222 2.6016 2.5039 2.6016 1.2115 0 2.2228-0.89434 2.4531-2.0801h1.0508c0.55067 0 1.002-0.46895 1.002-1.041h1.0508c-0.030033 0.16642-0.050781 0.34271-0.050781 0.51953 0 1.4354 1.1222 2.6016 2.5039 2.6016 1.3817 0 2.502-1.1662 2.502-2.6016 0-1.4354-1.1203-2.5996-2.502-2.5996h-0.46094l-1.0723-2.7773c-0.01002-0.031203-0.02904-0.062547-0.03906-0.09375-0.04005-0.062407-0.0808-0.10293-0.13086-0.14453-0.06007-0.052007-0.1406-0.083349-0.2207-0.09375-0.03004-0.010401-0.05981-0.011719-0.08984-0.011719zm3.9453 4.1602h0.06055c0.83102 0 1.502 0.69725 1.502 1.5605 0 0.8633-0.67094 1.5605-1.502 1.5605-0.83101 0-1.502-0.69725-1.502-1.5605 0-0.46805 0.19938-0.88455 0.50976-1.1758l0.53125 1.373c0.10012 0.26003 0.39007 0.39566 0.65039 0.28125 0.2503-0.10401 0.38162-0.40535 0.27148-0.67578zm-8.4512 0.09375v0.94726c0 0.57207 0.45128 1.041 1.002 1.041h0.91211c-0.20024 0.60327-0.76131 1.0391-1.4121 1.0391-0.83101 0-1.502-0.69725-1.502-1.5605 0-0.67608 0.41929-1.2588 1-1.4668z"/>
</svg>
