<svg width="17.647" height="15.4" xmlns="http://www.w3.org/2000/svg">
  <path d="m9.6430498 13.107337 5.2340172-8.6954884 5.234018 8.6954884Z" fill="#fff"
    fill-rule="evenodd" stroke="#fff" stroke-width="3" stroke-linecap="round"
    stroke-linejoin="round" />
  <path d="m9.6430498 13.107337 5.2340172-8.6954884 5.234018 8.6954884Z" fill="none" stroke="#000"
    stroke-linecap="round" stroke-linejoin="round" />
  <path
    d="m10.106284 12.391922 9.57396-.000358-2.186168-3.6319711-1.658845.7976268-.958164-.7976071-1.226042 1.2544584-1.390967-1.2544781Z"
    fill-rule="evenodd" stroke="#000" stroke-linecap="square" />
  <path d="m2.98942562 13.05406278 6.239077-10.4410478 6.2390784 10.4410478Z" fill="#fff"
    fill-rule="evenodd" stroke="#fff" stroke-width="3" stroke-linecap="round"
    stroke-linejoin="round" />
  <path d="m2.98942562 13.05406278 6.239077-10.4410478 6.2390784 10.4410478Z" fill="none"
    stroke="#000" stroke-linecap="round" stroke-linejoin="round" />
  <path
    d="m3.54161262 12.19503278 11.4123954-.00043-2.605966-4.361064-1.562469 1.8210129-1.5570697-1.8210128-1.3451245 1.1801995-.8523577-1.6438387Z"
    fill-rule="evenodd" stroke="#000" stroke-linecap="square" />
  <path d="m-2.0982265 13.107588 5.2340168-8.6954884 5.2340181 8.6954884Z" fill="#fff"
    fill-rule="evenodd" stroke="#fff" stroke-width="3" stroke-linecap="round"
    stroke-linejoin="round" />
  <path d="m-2.0982265 13.107588 5.2340168-8.6954884 5.2340181 8.6954884Z" fill="none" stroke="#000"
    stroke-linecap="round" stroke-linejoin="round" />
  <path
    d="m-1.634992 12.392173 9.5739594-.000358-2.1861679-3.6319711-1.3954249.7973758-1.8778395-.9147996L0 9.6347666Z"
    fill-rule="evenodd" stroke="#000" stroke-linecap="square" />
</svg>
