<?xml version="1.0" encoding="UTF-8"?>
<svg id="natural" width="15" height="15" version="1.1" viewBox="0 0 15 15" xmlns="http://www.w3.org/2000/svg">
 <path d="m8.442 6.376a0.5 0.5 0 0 1-0.51 0 4.109 4.109 0 0 1-1.743-2.778 2.779 2.779 0 0 0-0.59-1.506l-0.019-0.027a0.257 0.257 0 0 1-0.056-0.144 0.237 0.237 0 0 1 0.25-0.25 0.264 0.264 0 0 1 0.057 0.011 3.523 3.523 0 0 1 1.358 0.916l0.78-1.56a0.246 0.246 0 0 1 0.44 0l0.78 1.56a3.4 3.4 0 0 1 1.339-0.907 0.283 0.283 0 0 1 0.1-0.021c0.175 9e-3 0.212 0.119 0.221 0.249a0.35 0.35 0 0 1-0.043 0.141 5.2 5.2 0 0 0-0.617 1.538 4.113 4.113 0 0 1-1.747 2.778zm-3.753 1.722h1.289a0.25 0.25 0 0 0 0.25-0.25 0.241 0.241 0 0 0-0.061-0.15l-1.778-2.365a0.255 0.255 0 0 0-0.391 0l-1.791 2.354a0.274 0.274 0 0 0-0.062 0.161 0.25 0.25 0 0 0 0.25 0.25h1.294l-2.665 2.6a0.273 0.273 0 0 0-0.058 0.152 0.25 0.25 0 0 0 0.252 0.248h1.471l-1.565 1.565a0.255 0.255 0 0 0 0.18 0.435h2.385v1h1v-1h2.385a0.255 0.255 0 0 0 0.18-0.435l-1.565-1.565h1.471a0.25 0.25 0 0 0 0.25-0.25 0.233 0.233 0 0 0-0.058-0.149zm9.345 3.748a0.252 0.252 0 0 1-0.252 0.252h-5.185a0.252 0.252 0 0 1-0.226-0.365l2.588-5.184a0.252 0.252 0 0 1 0.451 0l2.6 5.184a0.251 0.251 0 0 1 0.024 0.113zm-1.595-1.748-1.25-2.5-1.25 2.5z"/>
</svg>
