<?xml version="1.0" encoding="UTF-8"?>
<svg id="noodle" width="15" height="15" version="1.1" viewBox="0 0 15 15" xmlns="http://www.w3.org/2000/svg">
 <path d="m4.4629 12.236-3.457-3.9892v-1h13v1l-3.4961 3.9891zm-0.4688-9.4892a0.5 0.5 0 0 0-1 0v0.5671l-1.7969 0.3675a0.25001 0.25001 0 1 0 0.094 0.4911l1.7029-0.2776v0.5662l-1.75 0.0357a0.25 0.25 0 0 0 0 0.5l1.75 0.0357v1.2123h1zm9.5 1.5-7.5 0.2625v-1.2674l7.594-1.0737a0.50002 0.50002 0 0 0-0.1881-0.9822l-7.4149 1.5163a0.4963 0.4963 0 0 0-0.991 0.0445v0.2276l-0.493 0.1009v0.3515l0.493-0.08v1.1974l-0.493 0.01v0.4608l8.993 0.2318a0.5 0.5 0 0 0 0-1zm-3.4882 9h-5v0.5757h5z"/>
</svg>
