<?xml version="1.0" encoding="UTF-8"?>
<svg id="observation_tower" width="15" height="15" version="1.1" viewBox="0 0 15 15" xmlns="http://www.w3.org/2000/svg">
 <path d="m12 12.75h-0.5l-1.5-3.5v-2c0.9951 0 0.9951-0.75 0.9951-0.75l0.5049-3.25s0-0.5-0.5-0.5h-1s0-0.5-0.5-0.5h-1v-0.5s0-1-1-1-1 1-1 1v0.5h-1c-0.5 0-0.5 0.5-0.5 0.5h-1c-0.5 0-0.5 0.5-0.5 0.5l0.5049 3.25s0 0.75 0.9951 0.75v2l-1.5 3.5h-0.5s-1 0-1 0.75 1 0.75 1 0.75h9s1 0 1-0.75-1-0.75-1-0.75zm-1.75-9-0.25 1.5h-5l-0.25-1.5029zm-1.75 3.5v1h-2v-1zm-1.9994 2.4971h1.9988l1.0006 3.0029h-4z"/>
</svg>
