<svg xmlns="http://www.w3.org/2000/svg" width="25.2" height="10.8"><path d="M22.68 3.24h-.974a2.52 2.52 0 0 0-2.27-1.44h-3.593a2.521 2.521 0 0 0-2.438 1.907A3.47 3.47 0 0 0 12.6 3.6a3.47 3.47 0 0 0-.805.107A2.522 2.522 0 0 0 9.357 1.8H5.764a2.52 2.52 0 0 0-2.27 1.44H2.52a.719.719 0 0 0-.719.719v.002a.72.72 0 0 0 .719.719h.721v.72C3.24 7.688 4.683 9 7.2 9h.72c2.517 0 3.96-1.312 3.96-3.6v-.229c.216-.069.476-.131.72-.131s.504.062.72.131V5.4c0 2.288 1.443 3.6 3.96 3.6H18c2.517 0 3.96-1.312 3.96-3.6v-.72h.72a.72.72 0 0 0 0-1.44zM10.44 5.4c0 1.005-.286 2.16-2.52 2.16H7.2c-2.234 0-2.52-1.155-2.52-2.16V4.323c0-.597.487-1.083 1.084-1.083h3.592c.598 0 1.084.486 1.084 1.083zm10.08 0c0 1.005-.287 2.16-2.52 2.16h-.72c-2.233 0-2.52-1.155-2.52-2.16V4.323c0-.597.485-1.083 1.083-1.083h3.593c.597 0 1.084.487 1.084 1.084z"/></svg>