<svg xmlns="http://www.w3.org/2000/svg" width="19.601" height="18.374"><path d="M12.645 12.478c-.73.526-1.62.783-2.519.726h-2.09v3.52h-2.09v-9.9h4.312a3.52 3.52 0 0 1 2.376.759c.636.615.963 1.483.891 2.365a3.036 3.036 0 0 1-.88 2.53zm-1.65-3.564a1.716 1.716 0 0 0-1.1-.33H8.036v2.915h1.86a1.64 1.64 0 0 0 1.1-.352c.28-.295.425-.694.395-1.1a1.353 1.353 0 0 0-.396-1.133zm5.951-2.96a.55.55 0 0 0-.264-.725l-7.337-3.41-7.38 3.41a.551.551 0 1 0 .461 1l6.92-3.2 6.918 3.19a.55.55 0 0 0 .726-.264z"/></svg>