<svg xmlns="http://www.w3.org/2000/svg" width="14.378" height="15.331"><path d="M12.938 5.971a1.68 1.68 0 0 0-.96-1.545 1.19 1.19 0 0 0-1.2-1.095 1.149 1.149 0 0 0-.279.058 1.152 1.152 0 0 0-1.92-.749 1.2 1.2 0 1 0-2.4 0s.039.02.039.048a1.171 1.171 0 0 0-1.92.71 1.431 1.431 0 0 0-.47-.067 1.44 1.44 0 0 0-1.345 1.987 1.43 1.43 0 0 0 0 2.756 1.43 1.43 0 0 0 2.775-.221c.175.153.393.25.624.278v4.8l.007.96h1.71l-.037-.96v-1.92a6.529 6.529 0 0 1 2.659-1.92 1.43 1.43 0 0 0 1.757-1.42 1.405 1.405 0 0 0 0-.154 1.68 1.68 0 0 0 .96-1.546zm-5.376 4.33V6.998c.26.462.747.748 1.277.75h.268c.015.42.216.814.548 1.074a6.96 6.96 0 0 0-2.093 1.479z"/></svg>