<?xml version="1.0" encoding="UTF-8"?>
<svg id="park" width="15" height="15" version="1.1" viewBox="0 0 15 15" xmlns="http://www.w3.org/2000/svg">
 <path d="m13.49 5.735c0.0113-0.6863-0.3798-1.3159-1-1.61-0.0525-0.6494-0.5986-1.1474-1.25-1.14-0.0988 0.0079-0.1962 0.0281-0.29 0.06-0.0607-0.66-0.6449-1.1458-1.3048-1.0851-0.2587 0.0238-0.5026 0.1309-0.6952 0.3051 0-0.6904-0.5596-1.25-1.25-1.25s-1.25 0.5596-1.25 1.25c0 0 0.04 0.02 0.04 0.05-0.5114-0.4387-1.2816-0.3797-1.7203 0.1318-0.1481 0.1727-0.245 0.3833-0.2797 0.6082-0.1583-0.0505-0.3239-0.0741-0.49-0.07-0.8284-0.0069-1.5056 0.659-1.5125 1.4874-0.0017 0.1998 0.0366 0.3978 0.1125 0.5826-0.7925 0.2215-1.2554 1.0436-1.0339 1.8361 0.1402 0.5017 0.5322 0.8937 1.0339 1.0339 0.2533 0.7829 1.0934 1.2123 1.8763 0.959 0.5353-0.1732 0.9274-0.6331 1.0137-1.189 0.183 0.1591 0.4093 0.2601 0.65 0.29v5l-1.65 1h5l-1.6-1v-2c0.7381-0.8915 1.6915-1.5799 2.77-2 0.8012 0.1879 1.603-0.3092 1.7909-1.1103 0.0284-0.1211 0.0416-0.2453 0.0391-0.3697 0.0029-0.0533 0.0029-0.1067 0-0.16 0.6202-0.2941 1.0113-0.9237 1-1.61zm-5.6 4.51v-3.44c0.2703 0.4807 0.7785 0.7787 1.33 0.78h0.28c0.0156 0.4391 0.2242 0.849 0.57 1.12-0.8157 0.374-1.5549 0.8962-2.18 1.54z"/>
</svg>
