<?xml version="1.0" encoding="UTF-8"?>
<svg id="parking_paid" width="15" height="15" version="1.1" viewBox="0 0 15 15" xmlns="http://www.w3.org/2000/svg">
 <path d="m0.99915 13v-11h4.5a3.5 3.5 0 0 1 3.21 2.103 3.36 3.36 0 0 0-0.504 0.676c-0.23 0.41-0.232 0.837-0.174 1.154l0.3 1.625a3.495 3.495 0 0 1-2.832 1.442h-2.5v4zm4.5-6a1.5 1.5 0 1 0 0-3h-2.5v3zm3.516-1.248a0.716 0.716 0 0 1 0.062-0.484c0.237-0.42 0.9-1.268 2.422-1.268 1.521 0 2.185 0.847 2.421 1.268a0.716 0.716 0 0 1 0.064 0.484l-0.966 5.248h-1.019v2h-1v-2h-1.019zm3.734 1.248 0.25-1.345c-0.17-0.246-0.58-0.655-1.5-0.655s-1.33 0.41-1.5 0.655l0.25 1.345z"/>
</svg>
