<svg xmlns="http://www.w3.org/2000/svg" width="14" height="14"><path d="M1.9 3.983C0 4 0 4.196 0 5.99l.016 6.043C0 14 0 14 1.93 14.035l10.122-.037C14 14 14 14 14.05 11.982V5.997C14 4 14 4 12.051 3.992l-10.153-.01ZM8 5.016a4 4 0 1 1 0 8 4 4 0 0 1 0-8ZM1.984 1.98h1.032C4 2 4 3 4.032 3.49l-2.982.033C1 3 1 2 1.984 1.982Zm8.522 7.057a2.5 2.5 0 1 1-5 0 2.5 2.5 0 0 1 5 0ZM9.001.982l-.017 2.605 5.032-.016.017-2.703C14 0 14 0 13.018.002l-2.961.012C9 0 9 0 9 .982Zm1.103.049 2.914-.017L13.05 3l-2.915.015-.032-1.984Z"/></svg>