<?xml version="1.0" encoding="UTF-8"?>
<svg id="pizza" width="15" height="15" version="1.1" viewBox="0 0 15 15" xmlns="http://www.w3.org/2000/svg">
 <path d="m2.5274 8.9747-1.368-0.616a14.05 14.05 0 0 1 7.739-7.316l0.027 0.07 0.511 1.331-3e-3 1e-3a12.613 12.613 0 0 0-6.906 6.53zm10.963 4.96-9.936-4.477a11.604 11.604 0 0 1 6.354-6.009l3e-3 -1e-3 0.817 2.122c-0.028-2e-3 -0.052-0.016-0.081-0.016a1.062 1.062 0 1 0 0.764 1.793l2.413 6.273a0.249 0.249 0 0 1-0.334 0.316zm-4.93-5.371a0.925 0.925 0 1 0-1.849 0 0.925 0.925 0 0 0 1.849 0zm3.017 2.03a0.925 0.925 0 1 0-0.07 0.353 0.924 0.924 0 0 0 0.07-0.354z"/>
</svg>
