<svg width="16" height="16" xmlns="http://www.w3.org/2000/svg">
  <path
    d="M3.8928575.57286982c-.8612914.0539349-1.6088297.85130888-1.6071428 1.71428568.000328.8973892.816896 1.713659 1.7142857 1.713659.8973896 0 1.7139576-.8162698 1.7142856-1.713659.0018286-.934452-.8888023-1.77269078-1.8214285-1.71428568ZM13.035715 4.0014411c-.861293.0539345-1.60883.8513089-1.607143 1.7142856.000328.8973893.816896 1.7136591 1.714285 1.7136591.897389 0 1.713957-.8162698 1.714285-1.7136591.001828-.9344519-.888801-1.7726906-1.821427-1.7142856Zm-9.6071432.5714286c-1.6811314 0-2.1323828 2.1410361-2.2499999 3.2857141L5e-7 7.4300124v1.1428571l6.8214283 2.4285715-1.1071428 4.428571h4.571429l-1.0714291-3.571428L16 14.287155v-1.142857l-1.071428-.392857c.187498-.984375.785713-4.75-1.214287-4.75-1.872527 0-2.18881 2.565144-2.25 3.535714L4.6785718 9.1085838c.2185851-1.2928217.5945714-4.5357141-1.25-4.5357141Z" />
</svg>
