<svg xmlns="http://www.w3.org/2000/svg" width="16.489" height="18.708"><path d="M1.702 2.915a1.65 1.65 0 1 1 3.194.833 1.65 1.65 0 0 1-3.194-.833zm12.1 12.287a1.1 1.1 0 0 1-.875 1.286l-.005.001a1.1 1.1 0 0 1-1.177-.539l-1.848-3.707-1.595.319-.242.088h-.066v2.365l.682-.165h.154a.572.572 0 0 1 .21 1.1l-5.5 1.1a.562.562 0 0 1-.188 0 .572.572 0 0 1-.22-1.1l4.565-.913V12.65l-3.542.638a1.101 1.101 0 0 1-1.33-.748h-.023l-1.1-4.477a1.1 1.1 0 0 1 0-.473 1.1 1.1 0 0 1 .88-.825l5.17-.572V1.65h.242v4.51h.066l.242-.022.44-.088h.231a.55.55 0 0 1 .407.66.539.539 0 0 1-.539.44l-.539.088h-.308v3.146h.066l.242-.066 1.991-.396a1.1 1.1 0 0 1 1.1.66l2.2 4.334c.085.083.155.18.21.286zm-6.05-7.909-2.75.297.814 3.234 1.936-.374z"/></svg>