<svg fill="none" height="14" viewBox="0 0 17 14" width="17" xmlns="http://www.w3.org/2000/svg"><path clip-rule="evenodd" d="m2.00391 1h12.99669c1.0287 0 1.3846 1.38794.4884 1.89286l-6.98918 3.93742c-.32563.18345-.7264.17-1.039-.03488l-6.00762-3.93742c-.830909-.54458-.44276-1.85798.55071-1.85798zm-.22834 4.51226c-.33242-.21956-.77557.01883-.77557.41721v6.07053c0 .5523.44772 1 1 1h13c.5523 0 1-.4477 1-1v-6.07012c0-.38316-.4133-.62394-.7466-.43495l-6.65226 3.77161c-.35959.25153-.84115.23924-1.18743-.03031z" fill="#000" fill-rule="evenodd"/></svg>