<svg fill="none" height="14" viewBox="0 0 21 14" width="21" xmlns="http://www.w3.org/2000/svg"><g clip-rule="evenodd" fill="#000" fill-rule="evenodd"><path d="m11.1248 7.83571c.5894 1.6481 1.3554 3.47729 2.105 5.16429h-11.2298c-.55228 0-1-.4477-1-1v-6.07053c0-.39838.44315-.63677.77557-.41721l5.63814 3.72397c.34628.26955.82784.28184 1.18743.03031zm-.5492-6.83571c-.3211.79507-.4993 1.67399-.4993 2.59812 0 .545.1384 1.27993.3728 2.134l-1.94928 1.09816c-.32563.18345-.7264.17-1.039-.03488l-6.00762-3.93742c-.830909-.54458-.44276-1.85798.55071-1.85798z"/><path d="m12 4.16277c0-2.29833 1.7919-4.16277 4-4.16277v.00285087c2.2079 0 4 1.86452913 4 4.16276913 0 2.29823-4 9.83438-4 9.83438s-4-7.5389-4-9.83723zm4 1.83723c-1.1059 0-2-.8976-2-2s.8942-2 2-2 2 .89324 2 2c0 1.1024-.8942 2-2 2z"/></g></svg>