<svg width="18" height="13" viewBox="0 0 4.7625 3.4395835" xmlns="http://www.w3.org/2000/svg">
  <defs>
    <linearGradient id="a">
      <stop offset="0" />
      <stop offset="1" stop-opacity="0" />
    </linearGradient>
  </defs>
  <g aria-label="Main"
    style="line-height:2.5ex;-inkscape-font-specification:&quot;Noto Sans, Normal&quot;"
    font-size="1.85208" font-family="Noto Sans" letter-spacing="0" word-spacing="0" stroke="#000"
    stroke-width=".079375" stroke-linecap="round" stroke-linejoin="round">
    <path fill="none" stroke-width=".264583" stroke-linecap="butt" paint-order="stroke markers fill"
      d="M4.6302009 3.307292H.1322837V.1322916h4.4979172z" />
    <path d="M.13224971.13229149 2.4113689 1.3229179 4.6302478.13229149Z" fill="none"
      stroke-width=".264583" stroke-linecap="butt" />
    <g aria-label="1234"
      style="line-height:125%;-inkscape-font-specification:&quot;Andale Mono, Normal&quot;"
      font-size="1.62546" font-family="Andale Mono" stroke-width=".105833">
      <path
        d="M1.2320038 2.81453907H.64309198v-.1134965H.8804028v-.869875l-.22381823.1119091v-.1301638l.24207291-.124608h.11190912v1.0127377h.2214372ZM2.1780723 2.81453907h-.6158969v-.0944481q.2341361-.2611213.30398-.3500136.069844-.0888923.1134965-.1865152.0436525-.0976228.0436525-.194452 0-.0936544-.0571451-.1476248-.0563514-.0539703-.1587363-.0539703-.0785745 0-.2111193.0484145l-.0182547-.1119091q.1198459-.0507956.2508034-.0507956.1500058 0 .2412792.0849239.0920671.0841303.0920671.2254056 0 .1007976-.0476209.2000078-.0468272.0992102-.1206396.1904836t-.2873128.3269968h.4714469ZM2.9320699 2.21292837q.102385.0285726.1642921.104766.0619072.0753998.0619072.1698479 0 .1476248-.1150838.2484223-.1150839.1000039-.2714392.1000039-.1333385 0-.2388981-.0587324l.0253978-.107147q.1103217.0515893.2182624.0515893.1015913 0 .1730226-.0627009.0722251-.0634945.0722251-.1627047 0-.0976229-.0769872-.1587363-.0769871-.0611135-.2039761-.0611135h-.0341284v-.1071471h.0095242q.122227 0 .2015952-.057145.0793681-.0579388.0793681-.1555616 0-.0793682-.0571451-.1238144-.057145-.0452398-.1571489-.0452398-.0865113 0-.1936583.0468272l-.017461-.1119091q.1079407-.0492083.2174687-.0492083.1500059 0 .246835.0793682.0976229.0785745.0976229.2023888 0 .0857176-.0595262.1603237-.0587324.0738124-.142069.0928607ZM4.2019606 2.55579887H4.06386v.2587402h-.1301638v-.2587402h-.4873205v-.0992102l.4420806-.7619344H4.06386v.7476481h.1381006Zm-.2682644-.1134965v-.6190717l-.3555694.6190717Z" />
    </g>
  </g>
</svg>
