<?xml version="1.0" encoding="UTF-8" standalone="no"?>
<svg
   width="17.305"
   height="14"
   version="1.1"
   id="svg1"
   xmlns="http://www.w3.org/2000/svg"
   xmlns:svg="http://www.w3.org/2000/svg">
  <defs
     id="defs1" />
  <path
     d="m 9.9958559,8.82106 v 4.08249 A 0.74227074,0.74227074 0 0 1 9.2535851,13.64582 H 1.0886062 A 0.74227074,0.74227074 0 0 1 0.34633544,12.90355 V 8.82106 a 0.37113536,0.37113536 0 0 1 0.37113532,-0.3711354 0.36303787,0.36303787 0 0 1 0.1558769,0 L 5.1710953,11.419007 9.4762664,8.4499246 a 0.36236307,0.36236307 0 0 1 0.1484534,0 0.37113536,0.37113536 0 0 1 0.3711361,0.3711354 z m -9.46395277,-1.9150584 0.0593817,0.059382 4.57981047,2.969083 4.5946576,-2.969083 h 0.04453 A 0.36371265,0.36371265 0 0 0 9.9958559,6.5942479 0.37113536,0.37113536 0 0 0 9.6247198,6.2231125 H 0.71747076 A 0.37113536,0.37113536 0 0 0 0.34633544,6.5942479 0.36438745,0.36438745 0 0 0 0.53190313,6.9060016 Z"
     overflow="visible"
     id="path1"
     style="stroke-width:0.674791" />
  <path
     d="m 13.294305,0.86718049 c -1.739575,0 -3.151359,1.42536921 -3.151359,3.18245291 0,1.7570838 3.151359,7.5206046 3.151359,7.5206046 0,0 3.15136,-5.761414 3.15136,-7.5184252 0,-1.757011 -1.411857,-3.18245281 -3.15136,-3.18245281 z m -0.01051,4.13269911 c -0.537833,0 -0.972694,-0.4408836 -0.972694,-0.982357 0,-0.5414732 0.43489,-0.9823569 0.972694,-0.9823569 0.537834,0 0.972695,0.4387406 0.972695,0.9823569 0,0.5414734 -0.43489,0.982357 -0.972695,0.982357 z"
     id="path1-0"
     style="fill:#1a1a1a;stroke:#ffffff;stroke-width:1.026;stroke-dasharray:none;stroke-opacity:1" />
</svg>
