<svg width="12" height="17" viewBox="0 0 12 17" fill="none" xmlns="http://www.w3.org/2000/svg">
  <path fill-rule="evenodd" clip-rule="evenodd"
    d="M6.52826 3.69589C6.38408 2.99256 5.7455 2.48501 5.0075 2.48501C4.42727 2.48501 3.90271 2.79538 3.63389 3.29667L3.63364 3.29713L3.42679 3.67758L2.9845 3.7216L2.98437 3.72161C2.47095 3.77308 2.07447 4.17152 2.03177 4.66735L2.01711 4.83745H1L1.0113 4.64176C1.06661 3.68371 1.81037 2.90064 2.77537 2.75466C3.21786 2.0061 4.05155 1.5 5.0075 1.5C6.20775 1.5 7.21314 2.29412 7.49701 3.37063C8.19345 3.47223 8.75678 3.95971 8.94213 4.60248L9.00989 4.83745H7.95893L7.90534 4.7361C7.78765 4.5135 7.55584 4.35624 7.28548 4.33946L7.28473 4.33942L6.65211 4.29539L6.52826 3.69589ZM1.16687 5.4382C1.07471 5.4382 1 5.51291 1 5.60507V6.28441C1 6.3569 1.0468 6.4211 1.11581 6.44328L1.41533 6.53956H1.40049V13.9034L1.11581 13.9949C1.0468 14.0171 1 14.0813 1 14.1538V14.8331C1 14.9253 1.07471 15 1.16687 15H8.84302C8.93518 15 9.00989 14.9253 9.00989 14.8331V14.146C9.00989 14.0773 8.9678 14.0157 8.90383 13.9906L8.6554 13.8934C8.65434 13.893 8.65328 13.8926 8.65222 13.8922C8.65067 13.8916 8.64911 13.8911 8.64755 13.8906C8.64672 13.8903 8.64588 13.89 8.64505 13.8898C8.64429 13.8895 8.64353 13.8893 8.64277 13.8891V6.54914C8.64703 6.54785 8.65125 6.5464 8.6554 6.54477L8.90383 6.44756C8.9678 6.42253 9.00989 6.36085 9.00989 6.29216V5.60507C9.00989 5.51291 8.93518 5.4382 8.84302 5.4382H1.16687ZM3.05253 7.44067C2.82213 7.44067 2.63535 7.62745 2.63535 7.85785V12.597C2.63535 12.8274 2.82213 13.0142 3.05253 13.0142C3.28294 13.0142 3.46972 12.8274 3.46972 12.597V7.85785C3.46972 7.62745 3.28294 7.44067 3.05253 7.44067ZM5.02163 7.44067C4.79123 7.44067 4.60445 7.62745 4.60445 7.85785V12.597C4.60445 12.8274 4.79123 13.0142 5.02163 13.0142C5.25204 13.0142 5.43881 12.8274 5.43881 12.597V7.85785C5.43881 7.62745 5.25204 7.44067 5.02163 7.44067ZM6.6403 7.85785C6.6403 7.62745 6.82708 7.44067 7.05748 7.44067C7.28788 7.44067 7.47466 7.62745 7.47466 7.85785V12.597C7.47466 12.8274 7.28788 13.0142 7.05748 13.0142C6.82708 13.0142 6.6403 12.8274 6.6403 12.597V7.85785ZM11.7132 8.92583C11.7132 10.1831 10.4086 11.9389 9.44376 12.124V10.8364C9.98334 10.6004 10.6619 9.55671 10.6619 8.94252C10.6619 8.31045 10.1946 8.30946 9.44376 8.30867V7.27386C10.8885 7.27964 11.7132 7.6637 11.7132 8.92583Z"
    fill="black" />
</svg>
