<?xml version="1.0" encoding="UTF-8" standalone="no"?>
<svg
   width="14"
   height="14"
   version="1.1"
   id="svg1"
   xmlns="http://www.w3.org/2000/svg"
   xmlns:svg="http://www.w3.org/2000/svg">
  <defs
     id="defs1" />
  <path
     d="m 7,0.5 -7,2 v 1 l 7,-2 7,2 v -1 z M 3.537,4.072 C 3.381,4.078 3.227,4.109 3.072,4.168 v 6.22 c 0,0 2.504,-0.095 3.143,2.335 V 6.189 C 5.728,5.174 4.629,4.029 3.537,4.072 Z m 2.678,8.65 C 4.595,11.483 2.285,11.168 2.285,11.168 V 5.258 L 1.5,4.945 v 7 L 6.215,13.5 h 1.57 L 12.5,11.945 v -7 l -0.785,0.313 v 6.22 l -3.93,1.245 a 2.34,2.34 0 0 0 -1.57,0 z M 10.928,4.168 C 9.362,4.085 7.556,5.016 6.608,5.816 v 6.582 c 0.875,-0.719 2.445,-1.664 4.32,-1.853 z"
     id="path1" />
</svg>
