<?xml version="1.0" encoding="UTF-8"?>
<svg id="racetrack" width="15" height="15" version="1.1" viewBox="0 0 15 15" xmlns="http://www.w3.org/2000/svg">
 <path d="m4.9972 1.5822c0.0454-0.27239-0.13861-0.53-0.41099-0.5754-0.27239-0.045396-0.53 0.13861-0.5754 0.411l-2 12c-0.0454 0.2724 0.13861 0.53 0.411 0.5754 0.27238 0.0454 0.53-0.1386 0.57539-0.411l0.66999-4.0199c0.80627 0.11738 1.6766 0.15632 2.3628 0.63762 0.42457 0.305 0.91551 0.5047 1.4324 0.5828 0.96561 0.1458 1.8297-0.3852 2.7836-0.2338l1.289 0.194c0.2598 0.0392 0.5299-0.1602 0.569-0.42l0.884-5.934 4e-3 -4e-3c0.0361-0.2603-0.1667-0.52813-0.427-0.564l-1.289-0.194c-0.9628-0.14278-1.8286 0.37271-2.7826 0.22919-0.42787-0.06437-0.83499-0.22703-1.1894-0.47519-0.73872-0.51714-1.6188-0.60285-2.4857-0.72499zm-0.5897 3.5382 0.32867-1.972c0.59943 0.08113 1.2334 0.12844 1.7888 0.3685l-0.29474 1.9652c-0.5705-0.23274-1.2135-0.27853-1.8228-0.36174zm-0.65802 3.9481 0.32887-1.9732c0.62015 0.08605 1.2772 0.12863 1.8586 0.36757l0.29973-1.9763c0.65794 0.26941 1.1591 0.73279 1.8933 0.84126l0.3-1.98c0.73802 0.11148 1.3486-0.17668 2.058-0.234l-0.3 1.966c-0.71011 0.06061-1.3244 0.36063-2.06 0.25l-0.28598 1.9778c-0.73616-0.1091-1.2381-0.57498-1.899-0.84385l-0.3 1.976c-0.59479-0.23851-1.2626-0.28117-1.8935-0.37139zm4.0935-0.76047c0.73384 0.11123 1.351-0.19105 2.061-0.25014l0.284-1.978c0.6545-0.06031 1.3247 0.11134 1.968 0.209l-0.28 1.976c-0.6443-0.09706-1.3157-0.26875-1.971-0.207l-0.3 1.976c-0.70871 0.0477-1.3351 0.3603-2.062 0.25z"/>
</svg>
