<?xml version="1.0" encoding="UTF-8"?>
<svg id="railway" width="15" height="15" version="1.1" viewBox="0 0 15 15" xmlns="http://www.w3.org/2000/svg">
 <path d="m3 0.5c-0.5523 0-1 0.4477-1 1v8c0 0.5523 0.4477 1 1 1h9c0.5523 0 1-0.4477 1-1v-8c0-0.5523-0.4477-1-1-1zm2.75 0.5h3.5098c0.1381 0 0.25 0.1119 0.25 0.25s-0.1119 0.25-0.25 0.25h-3.5098c-0.1381 0-0.25-0.1119-0.25-0.25s0.1119-0.25 0.25-0.25zm-2.25 1.5h3.5v4h-3.5c-0.2761 0-0.5-0.2239-0.5-0.5v-3c0-0.2761 0.2239-0.5 0.5-0.5zm4.5 0h3.5c0.2761 0 0.5 0.2239 0.5 0.5v3c0 0.2761-0.2239 0.5-0.5 0.5h-3.5zm-3 5c0.5523 0 1 0.4477 1 1s-0.4477 1-1 1-1-0.4477-1-1 0.4477-1 1-1zm5 0c0.5523 0 1 0.4477 1 1s-0.4477 1-1 1-1-0.4477-1-1 0.4477-1 1-1zm0.44531 3.9941c-0.06471 0.0055-0.13033 0.02444-0.19141 0.05664-0.2233 0.1176-0.32367 0.38314-0.23438 0.61914l0.16992 0.33008h-5.3789l0.12891-0.26953c0.0977-0.2583-0.032716-0.54683-0.29102-0.64453-0.236-0.0892-0.50154 0.01117-0.61914 0.23437l-1 2c-0.0212 0.0576-0.030697 0.11839-0.029297 0.17969 0 0.2761 0.2239 0.5 0.5 0.5 0.1802-1e-3 0.34509-0.10057 0.42969-0.25977v-0.05078h0.070312l0.31055-0.68945h6.3789l0.31055 0.68945v0.05078c0.0846 0.1592 0.24949 0.25877 0.42969 0.25977 0.2761 0 0.5-0.2239 0.5-0.5 0.0199-0.0788 0.0199-0.16143 0-0.24023l-1-2c-0.09652-0.18322-0.29023-0.28216-0.48438-0.26562z"/>
</svg>
