<?xml version="1.0" encoding="UTF-8"?>
<svg id="recycling" width="15" height="15" version="1.1" viewBox="0 0 15 15" xmlns="http://www.w3.org/2000/svg">
 <path d="m2.5664 8.8518c-0.3376 0.5978-0.9546 1.6887 0.1374 2.4178 0.3432 0.2268 0.7275 0.3836 1.131 0.4614 0.3074 0.0456 0.3226 0.5185-0.0385 0.5074-0.3849-0.0193-2.2596-0.1934-2.5606-1.5995-0.1556-0.8213 0.0204-1.5571 0.504-2.3556l0.6974-1.2329-1.3067-0.7432 3.4804-2.0688v4l-1.3059-0.6943zm4.2444-6.5794c1.155-0.628 1.823 0.43 2.191 1.007l0.8059 1.2631-1.2659 0.8079 3.569 1.874-0.197-4.026-1.2639 0.8066-0.7601-1.1886c-0.5218-0.7459-0.904-1.2968-1.835-1.545-1.637-0.3127-2.6433 1.5864-2.633 1.574-0.1639 0.2871 0.2156 0.5399 0.451 0.21 0.2582-0.3201 0.577-0.5861 0.938-0.783zm6.594 6.187c-0.0877-0.1897-0.5487-0.1413-0.419 0.267 0.1312 0.3892 0.1845 0.8003 0.157 1.21-0.093 1.312-1.348 1.302-2.032 1.302h-1.5v-1.5l-3.5 2 3.488 2.025 0.0046-1.525h1.5074c0.8906 0.0153 1.5999-0.1759 2.2-0.713 1.2-1.061 0.094-3.066 0.094-3.066z"/>
</svg>
