<svg xml:space="preserve" width="15.999999" height="13.01551" xmlns="http://www.w3.org/2000/svg">
  <g stroke-width="61.25">
    <path d="M1.96979584 6.50465279 0 13.0093056l1.24946934-.00636735.85175507-3.32897947C3.25371416 5.16424468 4.43755085.5386122 4.5126529.24114282L4.57534677-3e-8H3.93975495ZM3.73616313 6.50775483l-1.39673465 6.50775486 5.02298692-.00620408c.00317534-.4306444.03186563-1.1265113.05048228-1.78497953.0282449-1.00212241.05012245-1.86661217.05012245-1.91983666v-.09714286h.53240814c.29436734 0 .53240814.00310205.53240814.00620409.01077829.1181417.07289812 2.81976495.0901667 3.80179577l5.03946577-.00310204-1.35918363-6.34171405c-.74840813-3.4888162-1.37485709-6.41697935-1.39673464-6.50775485L10.86710163-2e-8H8.31167316l.0187755.65763262.01877552.65763263H7.64440788L7.66628543.6576326 7.69126502-3e-8H5.12979573Zm4.6349386-4.16522433c0 .1377959.00946938.54497957.02187755.90824486l.0187755.66399997H7.57877524l.0187755-.4290612c.01257143-.23493877.02187756-.64195916.02187756-.90824487v-.47918365h.75167344Zm.07510203 3.34775497c.0094694.39461223.0282449.9928163.03755102 1.33093873l.01877551.6200816H7.48799971l.01877552-.3382857c.00946939-.18481631.0282449-.7828571.03755102-1.33093872l.0187755-.99281629H8.42742827ZM11.44016284.03755099c0 .02187755.7453061 2.95314275 1.656653 6.5108569l1.65355095 6.46693853 1.24963261-.0032653-1.97306115-6.50775486L12.0571424-3e-8h-.3100408c-.22546938 0-.30693876.00946939-.30693876.03755102Z"/>
  </g>
</svg>
