<?xml version="1.0" encoding="UTF-8" standalone="no"?>
<!-- Svg Vector Icons : http://www.onlinewebfonts.com/icon -->

<svg version="1.1" x="0px" y="0px" viewBox="0 0 15.999999 13.01551" enable-background="new 0 0 1000 1000" xml:space="preserve" id="svg51460" sodipodi:docname="road.svg" inkscape:version="1.2.2 (b0a8486541, 2022-12-01)" width="15.999999" height="13.01551" xmlns:inkscape="http://www.inkscape.org/namespaces/inkscape" xmlns:sodipodi="http://sodipodi.sourceforge.net/DTD/sodipodi-0.dtd" xmlns="http://www.w3.org/2000/svg" xmlns:svg="http://www.w3.org/2000/svg"><defs id="defs51464" /><sodipodi:namedview id="namedview51462" pagecolor="#ffffff" bordercolor="#666666" borderopacity="1.0" inkscape:showpageshadow="2" inkscape:pageopacity="0.0" inkscape:pagecheckerboard="0" inkscape:deskcolor="#d1d1d1" showgrid="false" inkscape:zoom="21.360282" inkscape:cx="5.2667845" inkscape:cy="14.723589" inkscape:window-width="1863" inkscape:window-height="1062" inkscape:window-x="0" inkscape:window-y="0" inkscape:window-maximized="1" inkscape:current-layer="svg51460" />
<metadata id="metadata51448"> Svg Vector Icons : http://www.onlinewebfonts.com/icon </metadata>
<g id="g51458" transform="matrix(0.01632653,0,0,0.01632653,-0.1632653,-1.2577959)" style="stroke-width:61.25"><g transform="matrix(0.1,0,0,-0.1,0,441)" id="g51456" style="stroke-width:61.25"><path d="M 1306.5,-344.5 L 100,-4328.6 L 865.3,-4324.7 L 1387,-2285.7 C 2092.9,476.5 2818,3309.7 2864,3491.9 L 2902.4,3639.6 H 2706.8 H 2513.1 Z" id="path51450" sodipodi:nodetypes="ccccccccc" style="stroke-width:61.25" /><path d="M 2388.4,-346.4 L 1532.9,-4332.4 L 4609.4796,-4328.6 C 4611.4245,-4064.8303 4628.9973,-3638.6118 4640.4,-3235.3 C 4657.7,-2621.5 4671.1,-2092 4671.1,-2059.4 V -1999.9 H 4997.2 C 5177.5,-1999.9 5323.3,-2001.8 5323.3,-2003.7 C 5329.9017,-2076.0618 5367.9501,-3730.8061 5378.5271,-4332.3 L 8465.2,-4330.4 L 7632.7,-446.1 C 7174.3,1690.8 6790.6,3484.3 6777.2,3539.9 L 6756.1,3639.6 H 5973.5 H 5190.9 L 5202.4,3236.8 L 5213.9,2834 H 4999 H 4782.2 L 4795.6,3236.8 L 4810.9,3639.6 H 4026.4 H 3242 Z M 5227.3,2204.8 C 5227.3,2120.4 5233.1,1871 5240.7,1648.5 L 5252.2,1241.8 H 4997.1 H 4742 L 4753.5,1504.6 C 4761.2,1648.5 4766.9,1897.8 4766.9,2060.9 V 2354.4 H 4997.1 H 5227.3 Z M 5273.3,154.3 C 5279.1,-87.4 5290.6,-453.8 5296.3,-660.9 L 5307.8,-1040.7 H 4997.1 H 4686.4 L 4697.9,-833.5 C 4703.7,-720.3 4715.2,-354 4720.9,-18.3 L 4732.4,589.8 H 4997.1 H 5261.8 Z" id="path51452" sodipodi:nodetypes="ccccscscccccccccccccccccccccccsccccccccccccccc" style="stroke-width:61.25" /><path d="M 7107.1,3616.6 C 7107.1,3603.2 7563.6,1807.8 8121.8,-371.3 L 9134.6,-4332.3 L 9900,-4330.3 L 8691.5,-344.3 L 7485,3639.6 H 7295.1 C 7157,3639.6 7107.1,3633.8 7107.1,3616.6 Z" id="path51454" sodipodi:nodetypes="scccccss" style="stroke-width:61.25" /></g></g>
</svg>
