<?xml version="1.0" encoding="UTF-8"?>
<svg id="rocket" width="15" height="15" version="1.1" viewBox="0 0 15 15" xmlns="http://www.w3.org/2000/svg">
 <path d="m12.499 1.0556c-2.1441 0-5.0211 1.471-6.9531 4h-1.6016c-1.1573 0-1.8206 0.8638-2.2773 1.7773l-0.6114 1.2227h2.8887l3 3v2.8887l1.2227-0.6113c0.9135-0.4568 1.7773-1.1201 1.7773-2.2774v-1.6016c2.529-1.932 4-4.809 4-6.9531v-1.4453zm-2.5547 3c0.5523 0 0.99997 0.4477 0.99997 1s-0.44767 1-0.99997 1-1-0.4477-1-1 0.4477-1 1-1zm-6.5 6-0.5 0.5c-0.7222 0.7222-1 2.5-1 2.5s1.698-0.198 2.5-1l0.5-0.5z"/>
</svg>
