<svg xmlns="http://www.w3.org/2000/svg" width="14" height="14"><path d="M.83 10.095H4.2L3.755 14H1.209l-.38-3.905ZM1.368.07C-2.63 2.67 4.593 3.095.15 6.18l.878-.011C5.195 2.877-2.067 2.637 2.332.043l-.964.026Z"/><path d="M4.402.07C.404 2.67 7.627 3.097 3.184 6.181l.878-.011C8.229 2.878.967 2.637 5.366.043L4.402.07Zm5.807 3.547a1.392 1.392 0 1 0 0-2.785 1.392 1.392 0 0 0 0 2.785ZM8.859 9.78l-2.502 3.024a.766.766 0 0 0 .05 1.014.62.62 0 0 0 .93-.046l2.502-3.024a.766.766 0 0 0-.05-1.014.62.62 0 0 0-.93.046Zm.86-2.992-2.643.904a.48.48 0 1 0 .313.91l2.643-.904a.48.48 0 1 0-.313-.91Z"/><path d="m10.357 7.372 1.25-2.459a.48.48 0 0 0-.208-.642.471.471 0 0 0-.638.205L9.512 6.934a.48.48 0 0 0 .207.643c.234.12.52.029.638-.205Zm3 2.15L9.36 9.514a.644.644 0 0 0 0 1.286l3.998.008a.644.644 0 0 0 0-1.286ZM14 12.1h-3.409v.73H14v-.73Z"/><path d="M13.96 9.921 12.012 4.5a.662.662 0 1 0-1.247.449l1.949 5.421a.662.662 0 1 0 1.246-.449Z"/></svg>