<?xml version="1.0" encoding="UTF-8"?>
<svg id="school_bus" width="15" height="15" version="1.1" viewBox="0 0 15 15" xmlns="http://www.w3.org/2000/svg">
 <path d="m2 3c0-1.1 0.9-2 2-2h7c1.1 0 2 0.9 2 2v8c0 1-1 1-1 1v1c0 0.55-0.45 1-1 1s-1-0.45-1-1v-1h-5v1c0 0.55-0.45 1-1 1s-1-0.45-1-1v-1c-1 0-1-1-1-1v-8zm1.5 1c-0.28 0-0.5 0.22-0.5 0.5v3c0 0.28 0.22 0.5 0.5 0.5h3c0.28 0 0.5-0.22 0.5-0.5v-3c0-0.28-0.22-0.5-0.5-0.5h-3zm5 0c-0.28 0-0.5 0.22-0.5 0.5v3c0 0.28 0.22 0.5 0.5 0.5h3c0.28 0 0.5-0.22 0.5-0.5v-3c0-0.28-0.22-0.5-0.5-0.5h-3zm-5.5-1.5c0 0.41 0.34 0.75 0.75 0.75s0.75-0.34 0.75-0.75-0.34-0.75-0.75-0.75-0.75 0.34-0.75 0.75zm7.5 0c0 0.41 0.34 0.75 0.75 0.75s0.75-0.34 0.75-0.75-0.34-0.75-0.75-0.75-0.75 0.34-0.75 0.75zm-2 0c0 0.41 0.34 0.75 0.75 0.75s0.75-0.34 0.75-0.75-0.34-0.75-0.75-0.75-0.75 0.34-0.75 0.75zm-3.5 0c0 0.41 0.34 0.75 0.75 0.75s0.75-0.34 0.75-0.75-0.34-0.75-0.75-0.75-0.75 0.34-0.75 0.75zm-1 6.5c-0.55 0-1 0.45-1 1s0.45 1 1 1 1-0.45 1-1-0.45-1-1-1zm7 0c-0.55 0-1 0.45-1 1s0.45 1 1 1 1-0.45 1-1-0.45-1-1-1z"/>
</svg>
