<svg xmlns="http://www.w3.org/2000/svg" width="17.602" height="17.069"><path d="M5.95 13.2a1.65 1.65 0 1 1-3.098 0zm9.515-6.6h-.614V3.3h.386a.31.31 0 0 0 .245-.163l.295-.59a.367.367 0 0 0 .01-.072.275.275 0 0 0-.276-.275h-.66v-.33a.236.236 0 0 0-.22-.22h-3.905a.275.275 0 0 0 0 .55h3.025v5.06L8.91 11H7.15V8.25a.55.55 0 0 0-.55-.55h-.55V5.5h1.925a.275.275 0 0 0 0-.55l-4.933-.513c-.006 0-.01-.007-.017-.007a.275.275 0 0 0-.275.275v.52a.275.275 0 0 0 .275.275h.825v2.2H3.3a1.692 1.692 0 0 0-1.65 1.65v2.2a.52.52 0 0 0 .486.55H8.8l2.75-1.1h3.85a.52.52 0 0 0 .55-.486V7.15a.52.52 0 0 0-.486-.55zM14.3 12.1a1.65 1.65 0 1 0 1.65 1.65 1.692 1.692 0 0 0-1.65-1.65z"/></svg>