<?xml version="1.0" encoding="UTF-8"?>
<svg id="seafood" width="15" height="15" version="1.1" viewBox="0 0 15 15" xmlns="http://www.w3.org/2000/svg">
 <path d="m11.448 10.125h2.49v0.75h-2.0705a4.81 4.81 0 0 1 1.6226 2.3011l-0.71 0.2422a4.01 4.01 0 0 0-1.74-2.1971 1.7775 1.7775 0 0 1-1.0352 0.4538l-1.5525 1.3463h-1.9186l-1.5349-1.3622a2.0222 2.0222 0 0 1-1.0929-0.44 4.0093 4.0093 0 0 0-1.7426 2.1988l-0.71-0.2422a4.8146 4.8146 0 0 1 1.622-2.3007h-2.0704v-0.75h2.4939l0.8633-0.6764-1.0143-1.6558a2.2738 2.2738 0 0 1-0.269 0.0293 2.0192 2.0192 0 0 1-2.0532-2.08c0-2.08 1.979-4.16 1.979-4.16l-0.7366 4.4471 1.7255-0.0012 1.0127-3.0067v2.9956a2.0936 2.0936 0 0 1-0.6993 1.4121l0.8536 1.3936 0.0844-0.0657a3.8669 3.8669 0 0 1 4.4784 0l0.0605 0.0474 0.869-1.4152a2.1177 2.1177 0 0 1-0.6433-1.3722v-2.9956l0.9836 3.0067 1.7547 0.0012-0.7367-4.4466s1.982 2.08 1.982 4.16a2.0211 2.0211 0 0 1-2.0562 2.08 2.3125 2.3125 0 0 1-0.3441-0.0376l-1.0103 1.6456 0.8407 0.6593c0.0129 0.01 0.0135 0.0244 0.0247 0.0351z"/>
</svg>
