<svg xmlns="http://www.w3.org/2000/svg" width="14" height="14"><path d="M5 0C4 0 4 0 4 1l.01 3H1v9c0 1 0 1 1 1h10c1 0 1 0 1-1V4h-2.96L10 1c0-1 0-1-1-1H5Zm0 1h4v3H5V1Zm2.506 4 .203.037a4.052 4.052 0 0 1 3.094 2.592c.12.333.195.676.224 1.017.082.945-.227 1.86-.765 2.63h.367a.49.49 0 0 1 .488.486l-.002.373c0 .266-.22.485-.488.484l-2.34-.004a.303.303 0 0 1-.3-.3l.003-2.329a.49.49 0 0 1 .49-.484l.375.002c.268 0 .487.22.487.486v.125c.302-.633.444-1.339.193-2.03A2.705 2.705 0 0 0 7.471 6.36l-.203-.035L7.506 5Zm-4.133.38 2.34.007a.3.3 0 0 1 .3.299l-.005 2.328a.49.49 0 0 1-.488.486l-.375-.002a.487.487 0 0 1-.485-.486l-.002-.13c-.304.634-.445 1.338-.193 2.03a2.708 2.708 0 0 0 2.062 1.73l.205.036L6.494 13l-.205-.037a4.051 4.051 0 0 1-3.092-2.594c-.457-1.256-.168-2.592.567-3.642h-.395a.489.489 0 0 1-.486-.487v-.373c0-.266.223-.486.49-.486Z"/></svg>