<?xml version="1.0" encoding="UTF-8"?>
<svg id="shelter" width="12" height="10" version="1.1" viewBox="0 0 12 10" xmlns="http://www.w3.org/2000/svg">
 <path d="m6.0052 0.038032c-0.057458-0.00179-0.11295 0.018148-0.1582 0.060547l-0.011719 0.0097656-5.623 4.916c-0.08496 0.090684-0.080918 0.2334 0.009766 0.31836 0.040914 0.038331 0.09433 0.061727 0.15039 0.0625l0.74219 0.00977v4.2852c0 0.12426 0.10035 0.22656 0.22461 0.22656 0.7979-0.042764 0.91498 0.3405 0.88281-0.69141v-3.1973c0-0.3878 0.31337-0.70117 0.70117-0.70117h6.3555c0.3878 0 0.69922 0.31337 0.69922 0.70117v3.1973c-0.021678 0.8062 0.014046 0.67386 0.80859 0.69141 0.12426 0 0.22656-0.1023 0.22656-0.22656v-4.2734h0.60938c0.12426 4.138e-4 0.22615-0.10035 0.22656-0.22461 1.89e-4 -0.057429-0.02127-0.1124-0.06055-0.1543l-0.83984-0.73633c-3.2099-2.8984 0.83988 0.73604-1.7988-1.584l-2.9863-2.6191c-0.042525-0.045135-0.10074-0.068522-0.1582-0.070312z"/>
</svg>
