<svg xmlns="http://www.w3.org/2000/svg" width="16" height="16"><path d="M0 0c0 1 .655 1.64 1 1.984.345.346.843.213.843.473 0 0 .157.527.657.527h1.25c0 .288.25.5.25.5s-.25.14-.25.5H2.5c-.5 0-.5.25-.5.5v1c0 .24.231.5.5.5h1.25v1H3c0 .406.27.732.75 1v5.5c0 .659 1.5.716 1.5 0v-7.5h3.5v7.5c0 .692 1.5.644 1.5 0v-5.5c.48-.311.75-.592.75-1h-.75v-1h1.25c.221 0 .5-.26.5-.5v-1c0-.5-.274-.5-.5-.5h-1.25c.024-.263-.25-.5-.25-.5s.25-.212.25-.5h1.25c.5 0 .5-.5.5-.5 0-.236.583-.138 1-.5C13.417 1.623 14 1 14 0 8 1 5 1 0 0zm5.25 2.984h1v1h-1c0-.287-.25-.5-.25-.5s.25-.188.25-.5zm2.5 0h1c0 .265.25.5.25.5s-.25.237-.25.5h-1z"/></svg>