<svg xmlns="http://www.w3.org/2000/svg" width="17.6" height="13.193"><path d="M11 6.043A10.967 10.967 0 0 1 9.554 5L7.16 1.886a.614.614 0 0 0-1.1.307h-.01v1.65H4.08a.55.55 0 0 1-.393-.163s-.387-.937-.937-.937H2.2a.55.55 0 0 0-.55.55v4.95H7.7c1.65 0 2.2 1.1 3.85 1.1h4.4v-.55c0-1.65-3.798-2.097-4.95-2.75zm0 4.4a3.444 3.444 0 0 1-1.679-.492 4.51 4.51 0 0 0-2.171-.608h-5.5v1.65a.55.55 0 0 0 .55.55h4.4a.55.55 0 0 0 .55-.55v-.55a3.447 3.447 0 0 1 1.679.492 4.51 4.51 0 0 0 2.171.608h4.4a.55.55 0 0 0 .55-.55v-.55z"/></svg>