<?xml version="1.0" encoding="UTF-8"?>
<svg id="shoes" width="15" height="15" version="1.1" viewBox="0 0 15 15" xmlns="http://www.w3.org/2000/svg">
 <path d="m9.5 7.0002a9.97 9.97 0 0 1-1.315-0.948l-2.175-2.831a0.558 0.558 0 0 0-1 0.279h-0.01v1.5h-1.791a0.5 0.5 0 0 1-0.357-0.148s-0.352-0.852-0.852-0.852h-0.5a0.5 0.5 0 0 0-0.5 0.5v4.5h5.5c1.5 0 2 1 3.5 1h4v-0.5c0-1.5-3.453-1.906-4.5-2.5zm0 4a3.131 3.131 0 0 1-1.526-0.447 4.1 4.1 0 0 0-1.974-0.553h-5v1.5a0.5 0.5 0 0 0 0.5 0.5h4a0.5 0.5 0 0 0 0.5-0.5v-0.5a3.134 3.134 0 0 1 1.526 0.447 4.1 4.1 0 0 0 1.974 0.553h4a0.5 0.5 0 0 0 0.5-0.5v-0.5z"/>
</svg>
