<svg xmlns="http://www.w3.org/2000/svg" width="15.497" height="14.85"><path d="M13.526 5.445h-1.811l-.386-2.307a1.98 1.98 0 0 0-1.396-1.475 3.722 3.722 0 0 0-1.07-.178H6.646a3.722 3.722 0 0 0-1.07.178 1.98 1.98 0 0 0-1.395 1.475l-.386 2.307H1.983a.495.495 0 0 0-.475.643l1.861 6.237c.194.619.768 1.04 1.416 1.04h5.94a1.485 1.485 0 0 0 1.405-1.04l1.862-6.236a.495.495 0 0 0-.466-.644Zm-8.722 0 .357-2.148a.9.9 0 0 1 .732-.693 2.82 2.82 0 0 1 .753-.129h2.217c.26.008.516.051.763.129a.9.9 0 0 1 .732.693l.347 2.148h-5.94Z"/></svg>