<svg xmlns="http://www.w3.org/2000/svg" width="14" height="14"><path d="M3.267 4.41a2.722 2.722 0 0 1 5.35 1.006" clip-rule="evenodd"/><path d="M7.558.853A.716.716 0 0 0 6.15.588l-.517 2.75a.716.716 0 1 0 1.408.265l.517-2.75ZM5.19 8.66a.855.855 0 1 0 .316-1.682.855.855 0 0 0-.316 1.681Zm-.464 2.608a.856.856 0 1 0 .316-1.681.856.856 0 0 0-.316 1.681Zm-.551 2.612a.856.856 0 1 0 .315-1.68.856.856 0 0 0-.316 1.681Zm3.633-5.267a.855.855 0 1 0 .316-1.681.855.855 0 0 0-.316 1.681Zm-.04 2.667a.856.856 0 1 0 .316-1.68.856.856 0 0 0-.316 1.682Zm.062 2.705a.855.855 0 1 0 .316-1.681.855.855 0 0 0-.316 1.681Zm-5-6.269a.855.855 0 1 0 .317-1.682.855.855 0 0 0-.316 1.682ZM1.752 10.16a.856.856 0 1 0 .316-1.682.856.856 0 0 0-.316 1.682ZM.698 12.62a.856.856 0 1 0 .315-1.682.856.856 0 0 0-.315 1.682Z"/><path d="M14 .733a.71.71 0 0 0-.708-.72L7.12-.008a.724.724 0 0 0-.725.714.71.71 0 0 0 .708.719l6.173.023A.724.724 0 0 0 14 .733Z"/><path d="M13.992 1.461 14 .028 10.136 0l-.008 1.433 3.864.028Z"/></svg>