<svg xmlns="http://www.w3.org/2000/svg" width="14" height="14"><path d="M6.984 0 5.982 1c.062.437.078.775.125 1.156-1.224.38-2.13 1.498-2.13 2.844 0 1.357.922 2.473 2.161 2.844-.05.376-.085.73-.156 1.156l.501.5v.406C5.561 9.286 4.582 8.596 3.977 8 1.944 6 2.48 2.5 4.979 1 2.98 1.5 1 3.308 1 6c0 3 2.977 4 2.977 5l1.002-1 1.285.719c-.614.38-1.285.781-1.285.781l.501.5 1.066-.594v.719c-.326.165-.564.486-.564.875a1.001 1.001 0 0 0 2.005 0 .96.96 0 0 0-.533-.875v-.719L8.488 12l.502-.5s-.707-.443-1.254-.781L8.99 10l1.002 1C9.992 10 13 9 13 6c0-2.692-2.005-4.5-4.01-5 2.506 1.5 3.041 5 1.002 7-.615.603-1.571 1.311-2.506 1.938V9.5l.5-.5c-.068-.414-.106-.775-.156-1.156C9.07 7.473 9.992 6.357 9.992 5c0-1.357-.923-2.473-2.162-2.844.05-.381.088-.742.157-1.156L6.984 0zm.721 3.125A2.007 2.007 0 0 1 8.99 5c0 .853-.532 1.587-1.285 1.875a19.374 19.374 0 0 1 0-3.75zm-1.504.031c.009-.004.022.004.031 0 .135 1.39.151 2.483.032 3.719A2.007 2.007 0 0 1 6.2 3.156zM4.478 12a.5.5 0 1 0-.001 1.001.5.5 0 0 0 0-1.001zm5.013 0a.5.5 0 1 0-.001 1.001.5.5 0 0 0 0-1.001z"/></svg>