<?xml version="1.0" encoding="UTF-8"?>
<svg id="sikh" width="15" height="15" version="1.1" viewBox="0 0 15 15" xmlns="http://www.w3.org/2000/svg">
 <path d="m7.48 0-1.08 1.07c0.07 0.47 0.08 0.83 0.13 1.24-1.32 0.41-2.31 1.61-2.31 3.05 0 1.45 1 2.65 2.35 3.04-0.06 0.41-0.1 0.79-0.17 1.24l0.54 0.54v0.43c-1-0.66-2.06-1.4-2.72-2.04-2.2-2.14-1.62-5.89 1.09-7.5-2.16 0.54-4.31 2.48-4.31 5.36 0 3.21 3.22 4.28 3.22 5.36l1.09-1.08 1.39 0.77c-0.66 0.41-1.39 0.84-1.39 0.84l0.54 0.54 1.16-0.64v0.77c-0.35 0.18-0.61 0.52-0.61 0.94 0 0.59 0.48 1.07 1.08 1.07s1.09-0.48 1.09-1.07c0-0.42-0.22-0.76-0.58-0.94v-0.77l1.12 0.64 0.54-0.54s-0.76-0.47-1.35-0.84l1.35-0.77 1.09 1.08c0-1.08 3.26-2.15 3.26-5.36 0-2.88-2.17-4.82-4.35-5.36 2.72 1.61 3.3 5.36 1.09 7.5-0.67 0.65-1.7 1.41-2.71 2.08v-0.47l0.54-0.54c-0.08-0.44-0.12-0.83-0.17-1.24 1.34-0.39 2.34-1.59 2.34-3.04 0-1.46-1-2.65-2.34-3.05 0.05-0.41 0.09-0.79 0.17-1.24l-1.09-1.07zm0.78 3.35c0.82 0.31 1.39 1.09 1.39 2.01 0 0.91-0.57 1.7-1.39 2.01-0.13-1.38-0.13-2.64 0-4.02zm-1.63 0.03c0.01 0 0.03 0.01 0.04 0 0.15 1.49 0.16 2.66 0.03 3.99-0.81-0.31-1.39-1.1-1.39-2.01 0-0.89 0.55-1.65 1.32-1.98zm-1.86 9.48c-0.3 0-0.55 0.24-0.55 0.53 0 0.3 0.25 0.54 0.55 0.54s0.54-0.24 0.54-0.54c0-0.29-0.24-0.53-0.54-0.53zm5.43 0c-0.3 0-0.55 0.24-0.55 0.53 0 0.3 0.25 0.54 0.55 0.54s0.54-0.24 0.54-0.54c0-0.29-0.24-0.53-0.54-0.53z"/>
</svg>
