<svg xmlns="http://www.w3.org/2000/svg" width="19.5" height="12.9"><path d="M18 10.3a1.1 1.1 0 0 1-1.1 1.1h-5.045a1.1 1.1 0 0 1-.777-.322L9.36 9.36a.549.549 0 0 0-.389-.161H5.167a1.1 1.1 0 0 1-.66-.22L3.024 7.867A1.114 1.114 0 0 1 2.6 7a1.095 1.095 0 0 1 .52-.928L7 3.7l1.142-1.861A.55.55 0 0 1 9.2 2.05V5.9L10.3 7h1.1l5.953-1.091a.55.55 0 0 1 .39 1.006L15.8 8.1l1.794 1.346A1.089 1.089 0 0 1 18 10.3Zm-10.45 0H5.048a3.3 3.3 0 0 1-1.584-.405l-1.15-.627a.55.55 0 0 0-.528.965l1.396.762c.485.266 1.03.405 1.584.405H7.55a.55.55 0 0 0 0-1.1Z"/></svg>