<?xml version="1.0" encoding="UTF-8"?>
<svg id="snow" width="15" height="15" version="1.1" viewBox="0 0 15 15" xmlns="http://www.w3.org/2000/svg">
 <path d="m13.447 10.339-1.0642-0.62582c-0.11991-0.076317-0.11991-0.24422 0.01508-0.30528l0.82434-0.3816c0.23982-0.12211 0.3897-0.39686 0.32975-0.65635-0.089928-0.35107-0.46464-0.51897-0.76441-0.3816l-1.8736 0.87004-1.4239-0.83952c-0.3897-0.22896-0.3897-0.80899 0-1.0379l1.4239-0.83952 1.8736 0.87004c0.07495 0.030522 0.14989 0.045794 0.22483 0.045794 0.23981 0 0.44965-0.15263 0.52459-0.39686 0.08993-0.27475-0.05995-0.56477-0.31476-0.68688l-0.82436-0.3816c-0.11991-0.061046-0.1349-0.24422-0.015067-0.30528l1.0642-0.62582c0.23981-0.13738 0.35972-0.42739 0.26979-0.68688-0.11991-0.35107-0.5096-0.47318-0.80938-0.30528l-1.0791 0.64109c-0.11991 0.076316-0.26979-0.030524-0.2548-0.1679l0.08994-0.91584c0.02997-0.29002-0.17987-0.59529-0.46465-0.64109-0.31476-0.045793-0.59954 0.18317-0.62951 0.50371l-0.19485 2.0912-1.4239 0.83952c-0.3897 0.22896-0.88432-0.061063-0.88432-0.51897v-1.679l1.6488-1.2059c0.22483-0.15263 0.31476-0.45792 0.20984-0.70214-0.14989-0.33581-0.55457-0.42739-0.82436-0.22896l-0.76441 0.5495c-0.11991 0.076316-0.26979 0-0.26979-0.13738v-1.2364c0-0.29001-0.23981-0.58003-0.52459-0.59529-0.31476-0.015219-0.58455 0.24422-0.58455 0.56477v1.2669c0 0.13738-0.16488 0.22896-0.26979 0.13738l-0.73443-0.53424c-0.22482-0.15263-0.52459-0.15263-0.71944 0.030523-0.2548 0.25949-0.22483 0.67161 0.059947 0.87004l1.6787 1.2059v1.679c0 0.45792-0.49462 0.74793-0.88432 0.51897l-1.4239-0.83952-0.19485-2.0606c-0.029982-0.27475-0.22483-0.50371-0.49462-0.53424-0.35972-0.030523-0.6445 0.27475-0.61452 0.61056l0.089929 0.94636c0.015051 0.13738-0.13489 0.24422-0.2548 0.1679l-1.0492-0.62582c-0.2548-0.15263-0.61452-0.076317-0.76441 0.1679-0.17986 0.27475-0.089929 0.64108 0.19485 0.79372l1.0792 0.64109c0.11991 0.076316 0.11991 0.24422-0.015051 0.30528l-0.86933 0.39686c-0.2548 0.12211-0.40469 0.41213-0.31476 0.68688 0.074947 0.24422 0.29977 0.39686 0.52459 0.39686 0.074947 0 0.14989-0.01522 0.22483-0.045794l1.8736-0.87004 1.4239 0.83952c0.3897 0.22896 0.3897 0.80899 0 1.0379l-1.4239 0.83952-1.8735-0.87004c-0.31476-0.13738-0.68947 0.030522-0.76441 0.3816-0.059946 0.27475 0.089929 0.5495 0.32975 0.65635l0.82436 0.3816c0.11991 0.061046 0.13489 0.24422 0.015051 0.30528l-1.0642 0.62582c-0.23982 0.13738-0.35972 0.42739-0.2548 0.68688 0.089929 0.22896 0.29977 0.36634 0.52459 0.36634 0.089929 0 0.19485-0.0305 0.26979-0.07631l1.0792-0.64108c0.11991-0.07631 0.26979 0.03051 0.2548 0.1679l-0.089929 0.9311c-0.029982 0.30528 0.16488 0.58003 0.46464 0.62582h0.089929c0.28478 0 0.52459-0.21369 0.55457-0.51897l0.19485-2.0912 1.4239-0.83952c0.3897-0.22896 0.88432 0.061063 0.88432 0.51897v1.679l-1.6637 1.2364c-0.23981 0.1679-0.32975 0.48845-0.17986 0.74793 0.10491 0.18317 0.29977 0.29002 0.47963 0.29002 0.10491 0 0.22482-0.0305 0.31476-0.10686l0.76441-0.5495c0.11991-0.07631 0.26979 0 0.26979 0.13738v1.2364c0 0.29001 0.23981 0.58003 0.52459 0.59529 0.31476 0.01522 0.58455-0.24422 0.58455-0.56476v-1.2669c0-0.13738 0.16488-0.22896 0.26979-0.13738l0.76441 0.5495c0.10491 0.07631 0.20984 0.10686 0.31476 0.10686 0.19485 0 0.37471-0.10686 0.47963-0.29002 0.13489-0.25948 0.044964-0.58003-0.17986-0.74793l-1.6487-1.1906v-1.679c0-0.45792 0.49462-0.74793 0.88432-0.51897l1.4239 0.83952 0.20984 2.0912c0.02999 0.29001 0.2698 0.51898 0.55457 0.51898 0.02997 0 0.05994 0 0.08993-0.01522 0.28478-0.04579 0.47963-0.33581 0.46464-0.62582l-0.10494-0.94637c-0.01508-0.13738 0.13489-0.24422 0.2548-0.1679l1.0792 0.64108c0.08993 0.0458 0.17986 0.07631 0.26979 0.07631 0.22482 0 0.43466-0.13738 0.5246-0.36634 0.11991-0.25949-0.01508-0.56476-0.23982-0.70214z"/>
</svg>
