<?xml version="1.0" encoding="UTF-8"?>
<svg id="soccer" width="15" height="15" version="1.1" viewBox="0 0 15 15" xmlns="http://www.w3.org/2000/svg">
 <path d="m7.5 1.5a6 6 0 0 0-6 6 6 6 0 0 0 6 6 6 6 0 0 0 6-6 6 6 0 0 0-6-6zm-0.033482 0.85714a5.1429 5.1429 0 0 1 0.033482 0 5.1429 5.1429 0 0 1 1.048 0.10881l0.66629 2.0475 2.4626-0.00335a5.1429 5.1429 0 0 1 0.95589 2.7171l-1.7043 1.1301 0.63783 2.2818a5.1429 5.1429 0 0 1-2.1847 1.6456l-1.8817-1.3695-1.8783 1.3661a5.1429 5.1429 0 0 1-2.1897-1.6389l0.63951-2.2851-1.7009-1.1283a5.1429 5.1429 0 0 1 0.96094-2.7321l2.4543 0.00335 0.6596-2.0273a5.1429 5.1429 0 0 1 1.0212-0.11551zm-1.3091 3.4286-0.81864 2.5229 2.1429 1.5586 2.1429-1.5586-0.81864-2.5229z" stroke-width=".85714"/>
</svg>
