<svg xmlns="http://www.w3.org/2000/svg" width="14" height="14"><path d="M5.543 1.276a1.253 1.253 0 0 1-.782 1.164 1.274 1.274 0 0 1-1.657-.682A1.253 1.253 0 0 1 3.79.112a1.275 1.275 0 0 1 1.382.273c.238.236.371.556.371.89Zm6.853 8.559-2.682.689c-.11.028-.352.003-.444-.02-.235-.045-.303-.154-.395-.269L7.606 8.144 6.01 9.857l.645 3.202a.62.62 0 0 1 .03.171.77.77 0 0 1-.199.532.618.618 0 0 1-.476.222c-.347 0-.562-.2-.644-.6l-.783-3.887c-.092-.411-.051-.714.123-.908L6.102 7.03 4.583 5.06l-.982 1.097a.464.464 0 0 1-.353.17c-.174 0-.342-.085-.506-.256L1.146 4.29a.634.634 0 0 1-.122-.377c0-.171.053-.314.16-.428a.5.5 0 0 1 .377-.172.43.43 0 0 1 .337.137l1.32 1.474 1.596-1.782c.122-.137.28-.246.46-.205l3.474.773c.15.033.26.175.372.312l.772 1.33a.56.56 0 0 1 .184.428c0 .16-.051.297-.153.411a.478.478 0 0 1-.369.171.504.504 0 0 1-.399-.205l-.896-1.5-1.455-.247 3.02 4.687 2.46-.706c.194 0 .372.04.505.176.133.137.268.259.268.476a.765.765 0 0 1-.218.526.855.855 0 0 1-.444.266Z" clip-rule="evenodd"/></svg>