<?xml version="1.0" encoding="UTF-8"?>
<svg id="statue" width="15" height="15" version="1.1" viewBox="0 0 15 15" xmlns="http://www.w3.org/2000/svg">
 <path d="m9.15 9.15v2.75h-3.3v-2.75h-1.397c-0.308 0-0.55-0.242-0.55-0.55 0-0.066 0.011-0.132 0.033-0.198l1.76-3.619c0.099-0.187 0.286-0.308 0.495-0.308h2.618c0.209 0 0.396 0.121 0.495 0.308l1.76 3.619c0.11 0.286-0.033 0.605-0.319 0.715-0.055 0.022-0.121 0.033-0.198 0.033zm2.2 3.3v1.1h1.1v1.1h-9.9v-1.1h1.1v-1.1zm-3.85-12.1c0.913 0 1.65 0.737 1.65 1.65s-0.737 1.65-1.65 1.65-1.65-0.737-1.65-1.65 0.737-1.65 1.65-1.65z"/>
</svg>
