<?xml version="1.0" encoding="UTF-8" standalone="no"?>
<!-- Created with Inkscape (http://www.inkscape.org/) -->

<svg width="22.000002" height="12.000003" viewBox="0 0 5.8208338 3.1750009" version="1.1" id="svg5" inkscape:version="1.2.2 (b0a8486541, 2022-12-01)" sodipodi:docname="street.svg" xmlns:inkscape="http://www.inkscape.org/namespaces/inkscape" xmlns:sodipodi="http://sodipodi.sourceforge.net/DTD/sodipodi-0.dtd" xmlns="http://www.w3.org/2000/svg" xmlns:svg="http://www.w3.org/2000/svg">
  <sodipodi:namedview id="namedview7" pagecolor="#ffffff" bordercolor="#666666" borderopacity="1.0" inkscape:showpageshadow="2" inkscape:pageopacity="0.0" inkscape:pagecheckerboard="0" inkscape:deskcolor="#d1d1d1" inkscape:document-units="px" showgrid="true" inkscape:zoom="19.02887" inkscape:cx="0.94593109" inkscape:cy="1.7079311" inkscape:window-width="1863" inkscape:window-height="1062" inkscape:window-x="0" inkscape:window-y="0" inkscape:window-maximized="1" inkscape:current-layer="text1883">
    <inkscape:grid type="xygrid" id="grid1464" originx="1.3473185e-06" originy="1.2973186e-06" />
  </sodipodi:namedview>
  <defs id="defs2" />
  <g inkscape:label="Layer 1" inkscape:groupmode="layer" id="layer1">
    <path id="rect234" style="fill:none;fill-rule:evenodd;stroke:#000000;stroke-width:0.264584;stroke-linecap:round;stroke-linejoin:round;paint-order:stroke markers fill" d="M 0.66145834,0.13229167 L 0.13229167,0.66145834 V 2.5135417 L 0.66145834,3.0427084 H 5.1593751 L 5.6885417,2.5135417 V 0.66145834 L 5.1593751,0.13229167 Z" sodipodi:nodetypes="ccccccccc" />
    <g aria-label="Main" id="text1883" style="font-size:1.85208px;line-height:2.5ex;font-family:'Noto Sans';-inkscape-font-specification:'Noto Sans, Normal';letter-spacing:0px;word-spacing:0px;stroke:#000000;stroke-width:0.079375;stroke-linecap:round;stroke-linejoin:round">
      <path d="M 1.4880197,2.2607315 L 1.0527809,1.1013294 H 1.0453725 Q 1.0509288,1.1587439 1.0546329,1.2569041 Q 1.0583371,1.3532123 1.0583371,1.4587808 V 2.2607315 H 0.90461447 V 0.93834635 H 1.1509411 L 1.5583987,2.0218131 H 1.565807 L 1.9806729,0.93834635 H 2.2251475 V 2.2607315 H 2.0603124 V 1.4476683 Q 2.0603124,1.3513602 2.0640165,1.2569041 Q 2.0695728,1.162448 2.0732769,1.1031815 H 2.0658686 L 1.6250736,2.2607315 Z" id="path10071" />
      <path d="M 2.9381975,1.2513479 Q 3.1197014,1.2513479 3.2067491,1.3309873 Q 3.2937969,1.4106267 3.2937969,1.5847223 V 2.2607315 H 3.1752638 L 3.1437784,2.1199734 H 3.1363701 Q 3.0715473,2.2014649 2.9993162,2.2403586 Q 2.9289371,2.2792523 2.8029957,2.2792523 Q 2.6677939,2.2792523 2.578894,2.2088732 Q 2.4899942,2.1366421 2.4899942,1.9847715 Q 2.4899942,1.8366051 2.6066752,1.7569657 Q 2.7233563,1.6754742 2.9659787,1.6680659 L 3.134518,1.6625096 V 1.6032431 Q 3.134518,1.4791537 3.0808077,1.4309996 Q 3.0270974,1.3828455 2.9289371,1.3828455 Q 2.8511498,1.3828455 2.7807707,1.4069226 Q 2.7103917,1.4291475 2.6492731,1.4587808 L 2.5992669,1.3365435 Q 2.6640897,1.301354 2.7529895,1.277277 Q 2.8418894,1.2513479 2.9381975,1.2513479 Z M 2.9863516,1.7810427 Q 2.8011436,1.7884511 2.7289125,1.8403093 Q 2.6585335,1.8921675 2.6585335,1.9866236 Q 2.6585335,2.0699672 2.7085396,2.1088609 Q 2.7603979,2.1477546 2.8400373,2.1477546 Q 2.9659787,2.1477546 3.0493223,2.0792276 Q 3.1326659,2.0088486 3.1326659,1.8643863 V 1.7754865 Z" id="path10073" />
      <path d="M 3.6845873,0.89574851 Q 3.7216289,0.89574851 3.7494101,0.92167763 Q 3.7790434,0.94575467 3.7790434,0.99946499 Q 3.7790434,1.0513232 3.7494101,1.0772523 Q 3.7216289,1.1031815 3.6845873,1.1031815 Q 3.6438415,1.1031815 3.6160603,1.0772523 Q 3.5882791,1.0513232 3.5882791,0.99946499 Q 3.5882791,0.94575467 3.6160603,0.92167763 Q 3.6438415,0.89574851 3.6845873,0.89574851 Z M 3.7642267,1.2680166 V 2.2607315 H 3.6012437 V 1.2680166 Z" id="path10075" />
      <path d="M 4.556916,1.2494958 Q 4.7347157,1.2494958 4.8254676,1.3365435 Q 4.9162195,1.4217392 4.9162195,1.6143555 V 2.2607315 H 4.7550885 V 1.625468 Q 4.7550885,1.3865497 4.532839,1.3865497 Q 4.3680038,1.3865497 4.3050331,1.4791537 Q 4.2420624,1.5717577 4.2420624,1.7458532 V 2.2607315 H 4.0790794 V 1.2680166 H 4.210577 L 4.2346541,1.4032184 H 4.2439145 Q 4.2920686,1.3254311 4.3772642,1.2883895 Q 4.4624599,1.2494958 4.556916,1.2494958 Z" id="path10077" />
    </g>
  </g>
</svg>
