<svg width="16" height="13" viewBox="0 0 16 13" fill="none" xmlns="http://www.w3.org/2000/svg">
<g clip-path="url(#clip0_1_3955)">
<path d="M0 13.0015L3.93975 -0.0078125H4.57535L4.51265 0.23333C4.47343 0.388694 4.13176 1.72471 3.65008 3.60822C3.2095 5.33099 2.65178 7.51179 2.10122 9.66615L1.24947 12.9951L0 13.0015Z" fill="black"/>
<path d="M13.0968 6.5406C12.1855 2.98288 11.4402 0.0516161 11.4402 0.0297385C11.4402 0.00165689 11.5216 -0.0078125 11.7471 -0.0078125H12.0571L16 13.0043L14.7504 13.0075L13.0968 6.5406Z" fill="black"/>
<path fill-rule="evenodd" clip-rule="evenodd" d="M8 2.21798C6.60779 2.21798 5.47792 3.35872 5.47792 4.76494C5.47792 6.17116 8 10.7838 8 10.7838C8 10.7838 10.5221 6.17285 10.5221 4.76669C10.5221 2.64402 8.84069 2.1831 8 2.21798ZM8 6.14657C8.79488 6.14657 9.43925 5.5022 9.43925 4.70732C9.43925 3.91244 8.79488 3.26807 8 3.26807C7.20512 3.26807 6.56074 3.91244 6.56074 4.70732C6.56074 5.5022 7.20512 6.14657 8 6.14657Z" fill="black"/>
</g>
<defs>
<clipPath id="clip0_1_3955">
<rect width="16" height="13.0155" fill="white" transform="translate(0 -0.0078125)"/>
</clipPath>
</defs>
</svg>
