<svg width="22.000002" height="12.000003" viewBox="0 0 5.8208338 3.1750009"
  xmlns="http://www.w3.org/2000/svg">
  <g stroke="#000" stroke-linecap="round" stroke-linejoin="round">
    <path
      d="M.66145834.13229167.13229167.66145834V2.5135417l.52916667.5291667H5.1593751l.5291666-.5291667V.66145834L5.1593751.13229167Z"
      fill="none" stroke-width=".264584" paint-order="stroke markers fill" />
    <g aria-label="Main"
      style="line-height:2.5ex;-inkscape-font-specification:&quot;Noto Sans, Normal&quot;"
      font-size="1.85208" font-family="Noto Sans" letter-spacing="0" word-spacing="0"
      stroke-width=".079375">
      <path
        d="m1.4880197 2.2607315-.4352388-1.1594021h-.0074084q.0055563.0574145.0092604.1555747.0037042.0963082.0037042.2018767v.8019507H.90461447V.93834635h.24632663l.4074576 1.08346675h.0074083L1.9806729.93834635h.2444746V2.2607315h-.1648351v-.8130632q0-.0963081.0037041-.1907642.0055563-.0944561.0092604-.1537226h-.0074083l-.440795 1.15755ZM2.9381975 1.2513479q.1815039 0 .2685516.0796394.0870478.0796394.0870478.253735v.6760092h-.1185331l-.0314854-.1407581h-.0074083q-.0648228.0814915-.1370539.1203852-.0703791.0388937-.1963205.0388937-.1352018 0-.2241017-.0703791-.0888998-.0722311-.0888998-.2241017 0-.1481664.116681-.2278058.1166811-.0814915.3593035-.0888998l.1685393-.0055563v-.0592665q0-.1240894-.0537103-.1722435-.0537103-.0481541-.1518706-.0481541-.0777873 0-.1481664.0240771-.070379.0222249-.1314976.0518582l-.0500062-.1222373q.0648228-.0351895.1537226-.0592665.0888999-.0259291.185208-.0259291Zm.0481541.5296948q-.185208.0074084-.2574391.0592666-.070379.0518582-.070379.1463143 0 .0833436.0500061.1222373.0518583.0388937.1314977.0388937.1259414 0 .209285-.068527.0833436-.070379.0833436-.2148413v-.0888998ZM3.6845873.89574851q.0370416 0 .0648228.02592912.0296333.02407704.0296333.07778736 0 .05185821-.0296333.07778731-.0277812.0259292-.0648228.0259292-.0407458 0-.068527-.0259292-.0277812-.0259291-.0277812-.07778731 0-.05371032.0277812-.07778736.0277812-.02592912.068527-.02592912Zm.0796394.37226809v.9927149h-.162983v-.9927149ZM4.556916 1.2494958q.1777997 0 .2685516.0870477.0907519.0851957.0907519.277812v.646376h-.161131V1.625468q0-.2389183-.2222495-.2389183-.1648352 0-.2278059.092604-.0629707.092604-.0629707.2666995v.5148783h-.162983v-.9927149h.1314976l.0240771.1352018h.0092604q.0481541-.0777873.1333497-.1148289.0851957-.0388937.1796518-.0388937Z" />
    </g>
  </g>
</svg>
