<?xml version="1.0" encoding="UTF-8"?>
<svg id="subway" width="15" height="15" version="1.1" viewBox="0 0 15 15" xmlns="http://www.w3.org/2000/svg">
 <path d="m5.5 0s-0.75 0-1 1l-1.5 5.5v3.5c0 1 1 1 1 1h7s1 0 1-1v-3.5l-1.5-5.5c-0.2727-1-1-1-1-1h-4zm1 1.5h2s0.5357 0 0.75 1l0.75 3.5c0.2146 1.0017-1 1-1 1h-3s-1.2146 0.0017-1-1l0.75-3.5c0.2143-1 0.75-1 0.75-1zm-1.5 6.5c0.5523 0 1 0.4477 1 1s-0.4477 1-1 1-1-0.4477-1-1 0.4477-1 1-1zm1.75 0h1.5c0.1385 0 0.25 0.1115 0.25 0.25s-0.1115 0.25-0.25 0.25h-1.5c-0.1385 0-0.25-0.1115-0.25-0.25s0.1115-0.25 0.25-0.25zm3.25 0c0.5523 0 1 0.4477 1 1s-0.4477 1-1 1-1-0.4477-1-1 0.4477-1 1-1zm-5.875 4-1.125 3h1.5l0.375-1h5.25l0.375 1h1.5l-1.125-3h-1.5l0.375 1h-4.5l0.375-1h-1.5z"/>
</svg>
