<?xml version="1.0" encoding="UTF-8"?>
<svg id="sushi" width="15" height="15" version="1.1" viewBox="0 0 15 15" xmlns="http://www.w3.org/2000/svg">
 <path d="m5.6105 3c-0.2761 0-0.5 0.2239-0.5 0.5h-2.25c-1.5235 0-2.75 1.2265-2.75 2.75 0 0.8274 0.3687 1.5592 0.9434 2.0625-0.5631 0.355-0.9434 0.9768-0.9434 1.6875 0 1.0994 0.9006 2 2 2h8c1.0994 0 2-0.9006 2-2 0-0.4883-0.1863-0.9294-0.4805-1.2773l2.1777 0.9629c0.3716 0.1831 0.8213 0.0303 1.0044-0.3413s0.0303-0.8213-0.3413-1.0044c-0.0188-0.0093-0.038-0.0178-0.0576-0.0254l-1.8105-0.8027 1.6309-0.2715c0.4099-0.0599 0.6936-0.4408 0.6337-0.8507-0.0544-0.3724-0.3765-0.6469-0.7528-0.6415-0.0426 3e-4 -0.085 0.0042-0.127 0.0117l-2.1309 0.3555c-0.4866-1.1632-1.7074-2.3316-3.7461-2.5665v-0.0488c0-0.2761-0.2239-0.5-0.5-0.5zm0.5 1h1v7h-1v-2zm3.5 4c0.259 0 0.4638 0.1974 0.4902 0.4492l0.0762-0.1328c0.1385-0.2399 0.4437-0.3201 0.6836-0.1816s0.3201 0.4418 0.1816 0.6816l-0.2578 0.4473c0.1989 0.1813 0.3262 0.4384 0.3262 0.7363 0 0.5626-0.4374 1-1 1h-2v-2h1v-0.5c0-0.277 0.223-0.5 0.5-0.5zm-7.0605 0.0703c0.1934-0.0242 0.3903 0.0662 0.4941 0.2461l0.2012 0.3477c0.0912-0.0994 0.219-0.1641 0.3652-0.1641 0.277 0 0.5 0.223 0.5 0.5h1v2h-3c-0.5626 0-1-0.4374-1-1s0.4374-1 1-1h0.1738l-0.1054-0.1836c-0.1385-0.2399-0.0583-0.5431 0.1816-0.6816 0.06-0.0347 0.125-0.0564 0.1895-0.0645z"/>
</svg>
