<?xml version="1.0" encoding="UTF-8"?>
<svg id="tako" width="15" height="15" version="1.1" viewBox="0 0 15 15" xmlns="http://www.w3.org/2000/svg">
 <path d="m7.5634 0.56539c-2.373-0.030614-4.2555 1.6486-4.3061 3.723-0.017603 0.72383 0.00415 1.2878 0.39207 2.9825 0.44895 1.9612-1.6688 2.9763-3.0063 2.5839-0.30703-0.08987-0.61351 0.13802-0.56271 0.41856 0.15294 0.78435 1.0582 1.7827 3.6447 1.749 0.1147-8.08e-4 0.19353 0.10053 0.15109 0.19405-0.21957 0.51328-0.5348 0.99101-0.93301 1.4135-0.23461 0.22141-0.13101 0.58138 0.19524 0.67849 1.3028 0.378 3.1766-0.0694 4.2244-1.6083 0.062032-0.09118 0.21238-0.09118 0.27441 0 1.0478 1.5389 2.9216 1.9863 4.2244 1.6083 0.32625-0.09712 0.42986-0.45708 0.19524-0.67849-0.3982-0.42244-0.71344-0.90017-0.93301-1.4135-0.04245-0.09352 0.0367-0.19486 0.1514-0.19405 2.5865 0.03374 3.4914-0.96461 3.6443-1.749 0.05104-0.28087-0.25608-0.509-0.56334-0.41856-1.3375 0.3926-3.4557-0.6227-3.0063-2.5839 0.38759-1.6948 0.40967-2.2586 0.39206-2.9828-0.048449-2.0154-1.8817-3.6932-4.1787-3.7227zm0.064661 1.8489a2.3407 2.6786 0 0 1 0.047945 5.527e-4 2.3407 2.6786 0 0 1 0.047943 0.00166 2.3407 2.6786 0 0 1 0.047945 0.00276 2.3407 2.6786 0 0 1 0.047943 0.00415 2.3407 2.6786 0 0 1 0.047628 0.00499 2.3407 2.6786 0 0 1 0.047628 0.0061 2.3407 2.6786 0 0 1 0.047628 0.0072 2.3407 2.6786 0 0 1 0.047313 0.00857 2.3407 2.6786 0 0 1 0.047313 0.00941 2.3407 2.6786 0 0 1 0.046998 0.0108 2.3407 2.6786 0 0 1 0.046998 0.011622 2.3407 2.6786 0 0 1 0.046682 0.012728 2.3407 2.6786 0 0 1 0.046366 0.013848 2.3407 2.6786 0 0 1 0.046052 0.015225 2.3407 2.6786 0 0 1 0.046052 0.016056 2.3407 2.6786 0 0 1 0.04542 0.017163 2.3407 2.6786 0 0 1 0.045106 0.017993 2.3407 2.6786 0 0 1 0.045106 0.019378 2.3407 2.6786 0 0 1 0.044474 0.020208 2.3407 2.6786 0 0 1 0.044159 0.021315 2.3407 2.6786 0 0 1 0.043844 0.022422 2.3407 2.6786 0 0 1 0.043527 0.02353 2.3407 2.6786 0 0 1 0.042896 0.024359 2.3407 2.6786 0 0 1 0.042267 0.025468 2.3407 2.6786 0 0 1 0.042267 0.026298 2.3407 2.6786 0 0 1 0.041635 0.027405 2.3407 2.6786 0 0 1 0.041005 0.028513 2.3407 2.6786 0 0 1 0.040373 0.029343 2.3407 2.6786 0 0 1 0.040059 0.030173 2.3407 2.6786 0 0 1 0.039428 0.03128 2.3407 2.6786 0 0 1 0.039113 0.032111 2.3407 2.6786 0 0 1 0.038166 0.032941 2.3407 2.6786 0 0 1 0.037851 0.033772 2.3407 2.6786 0 0 1 0.036903 0.034879 2.3407 2.6786 0 0 1 0.036589 0.03571 2.3407 2.6786 0 0 1 0.035641 0.03654 2.3407 2.6786 0 0 1 0.035327 0.037094 2.3407 2.6786 0 0 1 0.034381 0.038201 2.3407 2.6786 0 0 1 0.033749 0.039031 2.3407 2.6786 0 0 1 0.033119 0.039586 2.3407 2.6786 0 0 1 0.032488 0.040693 2.3407 2.6786 0 0 1 0.031542 0.041247 2.3407 2.6786 0 0 1 0.030911 0.0418 2.3407 2.6786 0 0 1 0.03028 0.042907 2.3407 2.6786 0 0 1 0.029334 0.043185 2.3407 2.6786 0 0 1 0.028388 0.044292 2.3407 2.6786 0 0 1 0.028072 0.044568 2.3407 2.6786 0 0 1 0.026811 0.045399 2.3407 2.6786 0 0 1 0.02618 0.045953 2.3407 2.6786 0 0 1 0.025233 0.046783 2.3407 2.6786 0 0 1 0.024602 0.04706 2.3407 2.6786 0 0 1 0.023656 0.04789 2.3407 2.6786 0 0 1 0.02271 0.048167 2.3407 2.6786 0 0 1 0.022079 0.04872 2.3407 2.6786 0 0 1 0.020819 0.049551 2.3407 2.6786 0 0 1 0.020187 0.049827 2.3407 2.6786 0 0 1 0.01924 0.050104 2.3407 2.6786 0 0 1 0.018294 0.050658 2.3407 2.6786 0 0 1 0.017663 0.051212 2.3407 2.6786 0 0 1 0.016401 0.051489 2.3407 2.6786 0 0 1 0.015778 0.052043 2.3407 2.6786 0 0 1 0.014502 0.052043 2.3407 2.6786 0 0 1 0.013565 0.052595 2.3407 2.6786 0 0 1 0.012936 0.05315 2.3407 2.6786 0 0 1 0.011676 0.05315 2.3407 2.6786 0 0 1 0.011046 0.053426 2.3407 2.6786 0 0 1 0.00977 0.053705 2.3407 2.6786 0 0 1 0.00914 0.053981 2.3407 2.6786 0 0 1 0.00788 0.053981 2.3407 2.6786 0 0 1 0.00695 0.054257 2.3407 2.6786 0 0 1 0.00599 0.054534 2.3407 2.6786 0 0 1 0.00505 0.054534 2.3407 2.6786 0 0 1 0.0041 0.054811 2.3407 2.6786 0 0 1 0.00315 0.054534 2.3407 2.6786 0 0 1 0.00221 0.055087 2.3407 2.6786 0 0 1 0.00126 0.054811 2.3407 2.6786 0 0 1 0 0.035987 2.3407 2.6786 0 0 1-3.231e-4 0.055087 2.3407 2.6786 0 0 1-0.00158 0.054811 2.3407 2.6786 0 0 1-0.00252 0.054811 2.3407 2.6786 0 0 1-0.00347 0.054534 2.3407 2.6786 0 0 1-0.00441 0.054811 2.3407 2.6786 0 0 1-0.00536 0.054534 2.3407 2.6786 0 0 1-0.00631 0.054257 2.3407 2.6786 0 0 1-0.00726 0.054257 2.3407 2.6786 0 0 1-0.00851 0.054257 2.3407 2.6786 0 0 1-0.00914 0.053705 2.3407 2.6786 0 0 1-0.010092 0.053705 2.3407 2.6786 0 0 1-0.011353 0.053426 2.3407 2.6786 0 0 1-0.012306 0.052874 2.3407 2.6786 0 0 1-0.012936 0.052874 2.3407 2.6786 0 0 1-0.014196 0.052595 2.3407 2.6786 0 0 1-0.014825 0.052043 2.3407 2.6786 0 0 1-0.015778 0.051766 2.3407 2.6786 0 0 1-0.017033 0.051488 2.3407 2.6786 0 0 1-0.017664 0.050936 2.3407 2.6786 0 0 1-0.018609 0.050658 2.3407 2.6786 0 0 1-0.019555 0.050106 2.3407 2.6786 0 0 1-0.020502 0.049551 2.3407 2.6786 0 0 1-0.021448 0.049275 2.3407 2.6786 0 0 1-0.022079 0.048444 2.3407 2.6786 0 0 1-0.023025 0.048167 2.3407 2.6786 0 0 1-0.023972 0.047614 2.3407 2.6786 0 0 1-0.024918 0.04706 2.3407 2.6786 0 0 1-0.025549 0.046229 2.3407 2.6786 0 0 1-0.026495 0.045952 2.3407 2.6786 0 0 1-0.027126 0.045122 2.3407 2.6786 0 0 1-0.028072 0.044568 2.3407 2.6786 0 0 1-0.029019 0.043737 2.3407 2.6786 0 0 1-0.029649 0.043185 2.3407 2.6786 0 0 1-0.03028 0.042354 2.3407 2.6786 0 0 1-0.031227 0.0418 2.3407 2.6786 0 0 1-0.031858 0.040969 2.3407 2.6786 0 0 1-0.032488 0.040138 2.3407 2.6786 0 0 1-0.033435 0.039586 2.3407 2.6786 0 0 1-0.034066 0.038755 2.3407 2.6786 0 0 1-0.034695 0.037925 2.3407 2.6786 0 0 1-0.035327 0.036818 2.3407 2.6786 0 0 1-0.035958 0.036263 2.3407 2.6786 0 0 1-0.036905 0.035434 2.3407 2.6786 0 0 1-0.03722 0.034326 2.3407 2.6786 0 0 1-0.037849 0.033772 2.3407 2.6786 0 0 1-0.03848 0.032665 2.3407 2.6786 0 0 1-0.039113 0.031835 2.3407 2.6786 0 0 1-0.039742 0.030728 2.3407 2.6786 0 0 1-0.040059 0.030173 2.3407 2.6786 0 0 1-0.040992 0.028789 2.3407 2.6786 0 0 1-0.041005 0.028236 2.3407 2.6786 0 0 1-0.04195 0.026852 2.3407 2.6786 0 0 1-0.041951 0.026298 2.3407 2.6786 0 0 1-0.042896 0.024914 2.3407 2.6786 0 0 1-0.042898 0.024083 2.3407 2.6786 0 0 1-0.043527 0.022976 2.3407 2.6786 0 0 1-0.044159 0.022146 2.3407 2.6786 0 0 1-0.044159 0.021039 2.3407 2.6786 0 0 1-0.044789 0.019931 2.3407 2.6786 0 0 1-0.044789 0.018823 2.3407 2.6786 0 0 1-0.04542 0.017993 2.3407 2.6786 0 0 1-0.045735 0.016609 2.3407 2.6786 0 0 1-0.046052 0.015779 2.3407 2.6786 0 0 1-0.046052 0.014672 2.3407 2.6786 0 0 1-0.046682 0.013564 2.3407 2.6786 0 0 1-0.046682 0.012458 2.3407 2.6786 0 0 1-0.046682 0.011353 2.3407 2.6786 0 0 1-0.047312 0.010248 2.3407 2.6786 0 0 1-0.047313 0.00914 2.3407 2.6786 0 0 1-0.047313 0.00803 2.3407 2.6786 0 0 1-0.047628 0.00665 2.3407 2.6786 0 0 1-0.047628 0.00581 2.3407 2.6786 0 0 1-0.047945 0.0047 2.3407 2.6786 0 0 1-0.047943 0.0036 2.3407 2.6786 0 0 1-0.047628 0.00249 2.3407 2.6786 0 0 1-0.047943 0.00139 2.3407 2.6786 0 0 1-0.031858 0 2.3407 2.6786 0 0 1-0.047943-5.528e-4 2.3407 2.6786 0 0 1-0.047943-0.00166 2.3407 2.6786 0 0 1-0.047628-0.00276 2.3407 2.6786 0 0 1-0.047945-0.00387 2.3407 2.6786 0 0 1-0.047943-0.00499 2.3407 2.6786 0 0 1-0.047628-0.00636 2.3407 2.6786 0 0 1-0.047314-0.0072 2.3407 2.6786 0 0 1-0.047628-0.00831 2.3407 2.6786 0 0 1-0.046998-0.0097 2.3407 2.6786 0 0 1-0.047309-0.010517 2.3407 2.6786 0 0 1-0.046682-0.011622 2.3407 2.6786 0 0 1-0.046682-0.013002 2.3407 2.6786 0 0 1-0.046366-0.013848 2.3407 2.6786 0 0 1-0.046052-0.014948 2.3407 2.6786 0 0 1-0.046052-0.016056 2.3407 2.6786 0 0 1-0.04542-0.017163 2.3407 2.6786 0 0 1-0.04542-0.018271 2.3407 2.6786 0 0 1-0.044789-0.019101 2.3407 2.6786 0 0 1-0.044474-0.020484 2.3407 2.6786 0 0 1-0.044159-0.021315 2.3407 2.6786 0 0 1-0.043842-0.022422 2.3407 2.6786 0 0 1-0.043527-0.023253 2.3407 2.6786 0 0 1-0.042896-0.024359 2.3407 2.6786 0 0 1-0.042581-0.025468 2.3407 2.6786 0 0 1-0.041951-0.026574 2.3407 2.6786 0 0 1-0.041635-0.027405 2.3407 2.6786 0 0 1-0.041005-0.028236 2.3407 2.6786 0 0 1-0.040374-0.029343 2.3407 2.6786 0 0 1-0.040059-0.030173 2.3407 2.6786 0 0 1-0.039428-0.031286 2.3407 2.6786 0 0 1-0.039113-0.032111 2.3407 2.6786 0 0 1-0.038166-0.032942 2.3407 2.6786 0 0 1-0.037849-0.034048 2.3407 2.6786 0 0 1-0.036903-0.034603 2.3407 2.6786 0 0 1-0.036588-0.03571 2.3407 2.6786 0 0 1-0.035958-0.03654 2.3407 2.6786 0 0 1-0.035015-0.037356 2.3407 2.6786 0 0 1-0.03438-0.038205 2.3407 2.6786 0 0 1-0.034066-0.038755 2.3407 2.6786 0 0 1-0.032804-0.039862 2.3407 2.6786 0 0 1-0.032488-0.040417 2.3407 2.6786 0 0 1-0.031541-0.041247 2.3407 2.6786 0 0 1-0.030912-0.042078 2.3407 2.6786 0 0 1-0.03028-0.04263 2.3407 2.6786 0 0 1-0.029334-0.043461 2.3407 2.6786 0 0 1-0.028704-0.044015 2.3407 2.6786 0 0 1-0.027756-0.044846 2.3407 2.6786 0 0 1-0.026811-0.045399 2.3407 2.6786 0 0 1-0.02618-0.045953 2.3407 2.6786 0 0 1-0.025233-0.046507 2.3407 2.6786 0 0 1-0.024602-0.04706 2.3407 2.6786 0 0 1-0.023657-0.04789 2.3407 2.6786 0 0 1-0.022709-0.048167 2.3407 2.6786 0 0 1-0.02208-0.048997 2.3407 2.6786 0 0 1-0.021133-0.049275 2.3407 2.6786 0 0 1-0.019872-0.049828 2.3407 2.6786 0 0 1-0.01924-0.050382 2.3407 2.6786 0 0 1-0.018611-0.050658 2.3407 2.6786 0 0 1-0.017348-0.050935 2.3407 2.6786 0 0 1-0.016401-0.051765 2.3407 2.6786 0 0 1-0.015778-0.051765 2.3407 2.6786 0 0 1-0.014502-0.052319 2.3407 2.6786 0 0 1-0.013872-0.052596 2.3407 2.6786 0 0 1-0.012613-0.052873 2.3407 2.6786 0 0 1-0.011983-0.05315 2.3407 2.6786 0 0 1-0.010723-0.053426 2.3407 2.6786 0 0 1-0.010092-0.053705 2.3407 2.6786 0 0 1-0.00883-0.053981 2.3407 2.6786 0 0 1-0.00788-0.053981 2.3407 2.6786 0 0 1-0.00695-0.054534 2.3407 2.6786 0 0 1-0.00631-0.054257 2.3407 2.6786 0 0 1-0.00505-0.054534 2.3407 2.6786 0 0 1-0.0041-0.054811 2.3407 2.6786 0 0 1-0.00285-0.054811 2.3407 2.6786 0 0 1-0.00221-0.054811 2.3407 2.6786 0 0 1-0.00126-0.054811 2.3407 2.6786 0 0 1 0-0.036264 2.3407 2.6786 0 0 1 3.23e-4 -0.054811 2.3407 2.6786 0 0 1 0.00158-0.054811 2.3407 2.6786 0 0 1 0.00252-0.054811 2.3407 2.6786 0 0 1 0.00347-0.054811 2.3407 2.6786 0 0 1 0.00441-0.054534 2.3407 2.6786 0 0 1 0.00536-0.054534 2.3407 2.6786 0 0 1 0.00631-0.054534 2.3407 2.6786 0 0 1 0.00726-0.054257 2.3407 2.6786 0 0 1 0.00821-0.053981 2.3407 2.6786 0 0 1 0.00946-0.053981 2.3407 2.6786 0 0 1 0.010092-0.053426 2.3407 2.6786 0 0 1 0.011353-0.053426 2.3407 2.6786 0 0 1 0.011983-0.05315 2.3407 2.6786 0 0 1 0.013242-0.052874 2.3407 2.6786 0 0 1 0.013873-0.052319 2.3407 2.6786 0 0 1 0.015132-0.052319 2.3407 2.6786 0 0 1 0.015778-0.051766 2.3407 2.6786 0 0 1 0.017033-0.051213 2.3407 2.6786 0 0 1 0.017663-0.050935 2.3407 2.6786 0 0 1 0.018609-0.050658 2.3407 2.6786 0 0 1 0.019555-0.050105 2.3407 2.6786 0 0 1 0.020502-0.049551 2.3407 2.6786 0 0 1 0.021448-0.049275 2.3407 2.6786 0 0 1 0.022079-0.04872 2.3407 2.6786 0 0 1 0.023026-0.048167 2.3407 2.6786 0 0 1 0.023972-0.047337 2.3407 2.6786 0 0 1 0.024918-0.04706 2.3407 2.6786 0 0 1 0.025549-0.046506 2.3407 2.6786 0 0 1 0.026495-0.045675 2.3407 2.6786 0 0 1 0.027126-0.045122 2.3407 2.6786 0 0 1 0.028072-0.044568 2.3407 2.6786 0 0 1 0.029019-0.043738 2.3407 2.6786 0 0 1 0.029334-0.043185 2.3407 2.6786 0 0 1 0.030596-0.042631 2.3407 2.6786 0 0 1 0.031227-0.041523 2.3407 2.6786 0 0 1 0.031856-0.041247 2.3407 2.6786 0 0 1 0.032488-0.040139 2.3407 2.6786 0 0 1 0.033435-0.039309 2.3407 2.6786 0 0 1 0.034066-0.038755 2.3407 2.6786 0 0 1 0.034695-0.037925 2.3407 2.6786 0 0 1 0.035327-0.037094 2.3407 2.6786 0 0 1 0.035958-0.036263 2.3407 2.6786 0 0 1 0.036905-0.035156 2.3407 2.6786 0 0 1 0.03722-0.034603 2.3407 2.6786 0 0 1 0.037849-0.033496 2.3407 2.6786 0 0 1 0.038481-0.032665 2.3407 2.6786 0 0 1 0.039112-0.031835 2.3407 2.6786 0 0 1 0.039742-0.031004 2.3407 2.6786 0 0 1 0.040059-0.029897 2.3407 2.6786 0 0 1 0.040688-0.029066 2.3407 2.6786 0 0 1 0.04132-0.027959 2.3407 2.6786 0 0 1 0.041635-0.027129 2.3407 2.6786 0 0 1 0.042267-0.026021 2.3407 2.6786 0 0 1 0.042581-0.025191 2.3407 2.6786 0 0 1 0.043213-0.024084 2.3407 2.6786 0 0 1 0.043527-0.022976 2.3407 2.6786 0 0 1 0.043843-0.021869 2.3407 2.6786 0 0 1 0.044474-0.021039 2.3407 2.6786 0 0 1 0.044474-0.019932 2.3407 2.6786 0 0 1 0.045106-0.0191 2.3407 2.6786 0 0 1 0.04542-0.017716 2.3407 2.6786 0 0 1 0.045735-0.016886 2.3407 2.6786 0 0 1 0.046052-0.015503 2.3407 2.6786 0 0 1 0.046052-0.014672 2.3407 2.6786 0 0 1 0.046366-0.013564 2.3407 2.6786 0 0 1 0.046998-0.012458 2.3407 2.6786 0 0 1 0.046682-0.011353 2.3407 2.6786 0 0 1 0.047302-0.010248 2.3407 2.6786 0 0 1 0.047313-0.00914 2.3407 2.6786 0 0 1 0.047313-0.00803 2.3407 2.6786 0 0 1 0.047628-0.00692 2.3407 2.6786 0 0 1 0.047628-0.00581 2.3407 2.6786 0 0 1 0.047945-0.0047 2.3407 2.6786 0 0 1 0.047628-0.0036 2.3407 2.6786 0 0 1 0.047945-0.00221 2.3407 2.6786 0 0 1 0.047943-0.00139 2.3407 2.6786 0 0 1 0.031542-2.836e-4z"/>
</svg>
