<?xml version="1.0" encoding="UTF-8"?>
<svg id="taxi" width="15" height="15" version="1.1" viewBox="0 0 15 15" xmlns="http://www.w3.org/2000/svg">
 <path d="m13.708 7.242-2.367-3.987c-0.093-0.174-0.321-0.255-0.516-0.255h-2.127v-1.8c0-0.33-0.27-0.6-0.6-0.6h-1.5c-0.33 0-0.6 0.27-0.6 0.6v1.8h-1.788c-0.195 0-0.432 0.081-0.525 0.255l-2.376 4.02c-0.39 0-0.711 0.297-0.711 0.696v3.642c0 0.402 0.318 0.687 0.711 0.687h0.792v1.134c0 0.6 0.399 0.966 0.984 0.966h0.354c0.585 0 1.062-0.366 1.062-0.966v-1.134h6v1.134c0 0.6 0.513 0.966 1.101 0.966h0.354c0.585 0 0.945-0.366 0.945-0.966v-1.134h0.828c0.39 0 0.672-0.285 0.672-0.687v-3.642c0-0.399-0.3-0.729-0.69-0.729zm-11.157 2.913c-0.489 0-0.888-0.408-0.888-0.909 0-0.504 0.396-0.909 0.888-0.909s0.888 0.408 0.888 0.912-0.396 0.909-0.888 0.909zm0.531-2.955 1.614-2.814c0.087-0.18 0.318-0.186 0.513-0.186h4.614c0.195 0 0.426 9e-3 0.513 0.186l1.617 2.814zm9.402 2.958c-0.489 0-0.888-0.408-0.888-0.909 0-0.504 0.399-0.909 0.888-0.909s0.888 0.408 0.888 0.912-0.396 0.909-0.888 0.909z"/>
</svg>
