<?xml version="1.0" encoding="UTF-8"?>
<svg id="teahouse" width="15" height="15" version="1.1" viewBox="0 0 15 15" xmlns="http://www.w3.org/2000/svg">
 <path d="m8 5.5s2-0.1 2-1.6c0-0.93402-0.82249-1.1914-1.5239-1.4108-0.52148-0.16316-0.97606-0.30539-0.97606-0.68917 0-0.91316 0.5-1.3 0.5-1.3s-1 0.53158-1 1.5c0 0.71063 0.54045 0.96176 1.0595 1.2029 0.47941 0.22276 0.94053 0.43702 0.94053 0.99708 0 1-0.99998 1.3-0.99998 1.3zm3.8372 1.6745c-0.4617 1.9462-1.0518 4.4328-2.8372 5.3255v2h-3v-2c-1.7854-0.8927-2.3755-3.3794-2.8372-5.3255-0.05548-0.23386-0.10912-0.45992-0.16276-0.67447h9c-0.0536 0.21453-0.1073 0.44063-0.1628 0.67447zm-4.8372-2.6745c0 1-1.5 1-1.5 1s0.79297-0.1 0.79297-0.7c0-0.27474-0.27691-0.44511-0.57443-0.62816-0.34537-0.21249-0.71852-0.44207-0.71852-0.87184 0-0.8339 0.99998-1.3 0.99998-1.3s-0.5 0.27344-0.5 1c0 0.38823 0.35324 0.54095 0.71689 0.69818 0.3857 0.16676 0.78311 0.33857 0.78311 0.80182z"/>
</svg>
