<svg xmlns="http://www.w3.org/2000/svg" width="16.038" height="16.093"><path d="M4.261 9.068a.561.561 0 0 0 0 .792l.792.792-2.376 2.398-.407-.407a2.464 2.464 0 0 1-.77-1.584V9.464a2.464 2.464 0 0 1 .77-1.595l5.577-5.577A2.464 2.464 0 0 1 9.442 1.5h1.595a2.464 2.464 0 0 1 1.595.792l.396.396-2.387 2.398-.803-.803a.561.561 0 0 0-.792 0zm-.418 5.192a1.1 1.1 0 0 0 1.555.04l.04-.04.792-.792a1.1 1.1 0 0 0 .04-1.555l-.04-.04Zm7.975-8.008a1.1 1.1 0 0 0 1.555.04l.832-.832a1.1 1.1 0 0 0 .04-1.555l-.04-.04Z"/></svg>