<svg xmlns="http://www.w3.org/2000/svg" width="17.216" height="17.194"><path d="M14.792 2.406C13.096.71 9.784 1.552 7.884 3.56A7.511 7.511 0 0 0 5.816 8.4a6.3 6.3 0 0 1-.627 2.992.75.75 0 0 0-.737.187l-2.739 2.75a.764.764 0 0 0 0 1.078l.077.077a.776.776 0 0 0 1.078 0l2.75-2.74a.751.751 0 0 0 .198-.725 9.426 9.426 0 0 1 3.432-.638 7.204 7.204 0 0 0 4.39-2.057c2.232-2.233 2.75-5.325 1.154-6.92zm-2.42-.044a2.538 2.538 0 0 1 1.804.67 2.803 2.803 0 0 1 .55 2.685L11.481 2.46a4.251 4.251 0 0 1 .891-.1zm-5.027 7.49a2.913 2.913 0 0 1-.528-2.804l3.344 3.344a3.137 3.137 0 0 1-2.816-.54Zm3.168.43L6.927 6.685a5.679 5.679 0 0 1 .54-1.188L11.7 9.732a6.06 6.06 0 0 1-1.188.55zm1.474-.726L7.653 5.21a5.724 5.724 0 0 1 .814-.99l4.51 4.51a6.256 6.256 0 0 1-.99.825zM13.208 8.5l-4.51-4.51a6.129 6.129 0 0 1 .924-.715l4.312 4.312a6.29 6.29 0 0 1-.726.913zm.902-1.2L9.92 3.1a4.588 4.588 0 0 1 1.198-.528l3.52 3.52a6.122 6.122 0 0 1-.528 1.21z"/></svg>