<?xml version="1.0" encoding="UTF-8"?>
<svg id="terminal" width="15" height="15" version="1.1" viewBox="0 0 15 15" xmlns="http://www.w3.org/2000/svg">
 <path d="m3.2903 2.0766c0.12776-0.06388 0.27675-0.07007 0.40938-0.01699l5.9269 2.3719 3.5132-1.4571c0.6708-0.2782 1.4415 0.02361 1.7449 0.68333 0.3277 0.71237-0.0179 1.5532-0.7518 1.8291l-9.4328 3.5468c-0.73587 0.27669-1.5656 0.0966-2.1205-0.46026l-2.3928-2.4011c-0.09626-0.0966-0.069749-0.25908 0.052221-0.32007l0.50676-0.25338c0.1529-0.07645 0.33427-0.06949 0.48086 0.01847l2.2646 1.3588 3.0476-1.264-3.8033-3.0408c-0.11403-0.09116-0.09513-0.26981 0.03545-0.3351zm-2.7991 9.8996c-0.27614 0-0.5 0.2239-0.5 0.5s0.22386 0.5 0.5 0.5h14c0.2761 0 0.5-0.2239 0.5-0.5s-0.2239-0.5-0.5-0.5z"/>
</svg>
