<?xml version="1.0" encoding="UTF-8"?>
<svg id="theme_park" width="15" height="15" version="1.1" viewBox="0 0 15 15" xmlns="http://www.w3.org/2000/svg">
 <path d="m13.5 7c0 2.028-1.0061 3.821-2.5465 4.907l1.0465 2.0929h-9l1.0464-2.0929c-1.5403-1.086-2.5464-2.879-2.5464-4.907 0-3.3137 2.6863-6 6-6 3.3137 0 6 2.6863 6 6zm-1.2016 0.125h-3.3035c-0.02643 0.3203-0.15349 0.61206-0.34949 0.84361l2.336 2.336c0.7905-0.83258 1.2855-1.9485 1.317-3.1796zm-1.4938 3.3564-2.336-2.336c-0.13725 0.11618-0.29565 0.20813-0.46861 0.26927v3.3596c1.0821-0.112 2.0574-0.5835 2.8046-1.2929zm-4.7995-3.3564h-3.3035c0.03147 1.2311 0.5265 2.347 1.317 3.1796l2.336-2.336c-0.196-0.23155-0.32306-0.52331-0.34949-0.84361zm-1.8097 3.3564c0.74717 0.7094 1.7225 1.1809 2.8046 1.2929v-3.3596c-0.17296-0.06114-0.33136-0.15309-0.46861-0.26927zm8.103-3.6064c-0.0315-1.2311-0.5265-2.347-1.317-3.1796l-2.336 2.336c0.196 0.23155 0.32306 0.52331 0.34949 0.84361zm-1.4938-3.3564c-0.83258-0.79054-1.9485-1.2856-3.1796-1.317v3.3035c0.3203 0.02643 0.61206 0.15349 0.84361 0.34949zm-3.4296 1.9865v-3.3035c-1.2311 0.03147-2.347 0.5265-3.1796 1.317l2.336 2.336c0.23155-0.196 0.52331-0.32306 0.84361-0.34949zm-1.0204 0.52626-2.336-2.336c-0.79054 0.83256-1.2856 1.9484-1.317 3.1796h3.3035c0.02643-0.3203 0.15349-0.61206 0.34949-0.84361z"/>
</svg>
