<svg xmlns="http://www.w3.org/2000/svg" width="19.557" height="19.5"><path d="M6.507 4.8a1.65 1.65 0 1 1 0-3.3 1.65 1.65 0 0 1 0 3.3zm10.45-1.65a1.65 1.65 0 1 0-3.3 0 1.65 1.65 0 0 0 3.3 0zm-5.654 5.654L8.575 6.065a.561.561 0 0 0-.418-.165h-3.3a.56.56 0 0 0-.385.154L1.71 8.793a.572.572 0 1 0 .803.803L4.857 7.22l-2.2 6.38h2.2v3.663a.553.553 0 0 0 0 .165.561.561 0 0 0 1.1 0V13.6h1.1v3.85a.561.561 0 0 0 1.1 0 .553.553 0 0 0 0-.165V13.6h2.2l-2.2-6.38 2.354 2.376a.56.56 0 0 0 .418.187.572.572 0 0 0 .528-.583.561.561 0 0 0-.154-.396zM17.507 5.9h-4.4a.55.55 0 0 0-.55.55v5.5a.55.55 0 0 0 1.1 0v5.5a.55.55 0 0 0 1.1 0v-5.5h1.1v5.5a.55.55 0 0 0 1.1 0v-5.5a.55.55 0 0 0 1.1 0v-5.5a.55.55 0 0 0-.55-.55z"/></svg>