<svg xmlns="http://www.w3.org/2000/svg" width="14" height="14"><path d="M8.068.052a5.331 5.331 0 0 0-1.638.35l.85.848c1.385-.37 2.9-.039 3.994 1.05 1.093 1.09 1.425 2.601 1.054 3.982l.85.847c.725-1.864.356-4.082-1.149-5.582A5.168 5.168 0 0 0 8.627.052a5.382 5.382 0 0 0-.559 0Zm-.021 2.35a3.186 3.186 0 0 0-1.375.302l.803.8a2.056 2.056 0 0 1 1.998.526A2.04 2.04 0 0 1 10 6.022l.803.8c.543-1.153.357-2.575-.596-3.524a3.08 3.08 0 0 0-2.16-.896Zm-5.049.353a5.234 5.234 0 0 0 0 7.417 5.272 5.272 0 0 0 7.44 0L7.21 6.956l1.357-1.351-.73-.728-1.355 1.35-3.485-3.472Zm-.637 8.179-1.898 3.11h7.27v-1.428a6.256 6.256 0 0 1-5.372-1.682Z"/></svg>