<?xml version="1.0" encoding="UTF-8"?>
<svg id="town" width="15" height="15" version="1.1" viewBox="0 0 15 15" xmlns="http://www.w3.org/2000/svg">
 <path d="m11.324 6.6489c-0.05401-0.041612-0.12124-0.064295-0.19054-0.064295-0.0693 0-0.13653 0.022683-0.19054 0.064295l-2.7246 2.1074c-0.034965 0.027077-0.063157 0.061346-0.082478 0.10028-0.019333 0.038943-0.029296 0.081557-0.029175 0.12468v5.3909c0 0.07821 0.032355 0.15328 0.08993 0.20853 0.057586 0.05525 0.13568 0.08637 0.21712 0.08637h1.8132c0.08143 0 0.15953-0.03112 0.21712-0.08637 0.05759-0.05525 0.08993-0.13032 0.08993-0.20853v-2.0363h1.2136v2.0363c0 0.07821 0.0324 0.15328 0.08993 0.20853 0.05765 0.05525 0.13568 0.08637 0.21712 0.08637h1.8132c0.08144 0 0.15959-0.03112 0.21712-0.08637 0.05753-0.05525 0.08993-0.13032 0.08993-0.20853v-5.3933c8.49e-4 -0.044654-9e-3 -0.088901-0.02876-0.12932-0.01978-0.040424-0.04903-0.075928-0.08531-0.1038zm-0.79007 4.5214h-1.2136v-1.1656h1.2136zm2.4272 0h-1.2136v-1.1656h1.2136zm-7.6337-10.706c-0.027901-0.040393-0.065766-0.073528-0.11023-0.096449-0.044467-0.022921-0.094153-0.034917-0.14463-0.034917-0.050463 0-0.10015 0.011995-0.14462 0.034917-0.04448 0.022921-0.082345 0.056057-0.11025 0.096449l-3.9418 4.8035c-0.033399 0.048373-0.051142 0.10515-0.050972 0.16318v8.9414c-1.5778e-4 0.03858 0.007597 0.07681 0.022816 0.11248 0.015219 0.03566 0.037622 0.06819 0.0659 0.09558 0.02829 0.02739 0.061919 0.04919 0.098959 0.06399 0.037052 0.01492 0.076786 0.02273 0.11694 0.02284h3.0341c0.080488-9.32e-4 0.15733-0.03228 0.21391-0.0873 0.056567-0.0549 0.088291-0.12915 0.088279-0.20643v-2.0375h1.2136v2.0375c0 0.07786 0.032221 0.15258 0.089577 0.20771 0.057356 0.05514 0.13515 0.08602 0.21626 0.08602h0.90779v-6.9936c-4.86e-5 -0.087549 0.020437-0.17398 0.059929-0.25288 0.039504-0.0789 0.097005-0.14824 0.16823-0.20287l2.1991-1.8755c0-0.05828-3.9928-4.8781-3.9928-4.8781zm-2.0753 9.5405h-1.2136v-1.1656h1.2136zm0-3.4968h-1.2136v-1.1656h1.2136zm2.4272 3.4968h-1.2136v-1.1656h1.2136zm0-3.4968h-1.2136v-1.1656h1.2136z"/>
</svg>
