<svg xmlns="http://www.w3.org/2000/svg" xml:space="preserve" width="16" height="13.37"><defs><clipPath id="a" clipPathUnits="userSpaceOnUse"><path d="M168 3813.6v100h100v-100Z"/></clipPath><clipPath id="b" clipPathUnits="userSpaceOnUse"><path d="M168 3813.6v100h100v-100Z"/></clipPath><clipPath id="c" clipPathUnits="userSpaceOnUse"><path d="M168 3813.6v100h100v-100Z"/></clipPath><clipPath id="d" clipPathUnits="userSpaceOnUse"><path d="M168 3813.6v100h100v-100Z"/></clipPath><clipPath id="e" clipPathUnits="userSpaceOnUse"><path d="M168 3813.6v100h100v-100Z"/></clipPath><clipPath id="f" clipPathUnits="userSpaceOnUse"><path d="M168 3813.6v100h100v-100Z"/></clipPath><clipPath id="g" clipPathUnits="userSpaceOnUse"><path d="M168 3813.6v100h100v-100Z"/></clipPath><clipPath id="h" clipPathUnits="userSpaceOnUse"><path d="M168 3813.6v100h100v-100Z"/></clipPath><clipPath id="i" clipPathUnits="userSpaceOnUse"><path d="M168 3813.6v100h100v-100Z"/></clipPath><clipPath id="j" clipPathUnits="userSpaceOnUse"><path d="M168 3813.6v100h100v-100Z"/></clipPath><clipPath id="k" clipPathUnits="userSpaceOnUse"><path d="M168 3813.6v100h100v-100Z"/></clipPath><clipPath id="l" clipPathUnits="userSpaceOnUse"><path d="M168 3813.6v100h100v-100Z"/></clipPath><clipPath id="m" clipPathUnits="userSpaceOnUse"><path d="M168 3813.6v100h100v-100Z"/></clipPath><clipPath id="n" clipPathUnits="userSpaceOnUse"><path d="M168 3813.6v100h100v-100Z"/></clipPath><clipPath id="o" clipPathUnits="userSpaceOnUse"><path d="M168 3813.6v100h100v-100Z"/></clipPath><clipPath id="p" clipPathUnits="userSpaceOnUse"><path d="M168 3813.6v100h100v-100Z"/></clipPath><clipPath id="q" clipPathUnits="userSpaceOnUse"><path d="M168 3813.6v100h100v-100Z"/></clipPath><clipPath id="r" clipPathUnits="userSpaceOnUse"><path d="M168 3813.6v100h100v-100Z"/></clipPath><clipPath id="s" clipPathUnits="userSpaceOnUse"><path d="M168 3813.6v100h100v-100Z"/></clipPath><clipPath id="t" clipPathUnits="userSpaceOnUse"><path d="M168 3813.6v100h100v-100Z"/></clipPath><clipPath id="u" clipPathUnits="userSpaceOnUse"><path d="M168 3813.6v100h100v-100Z"/></clipPath><clipPath id="v" clipPathUnits="userSpaceOnUse"><path d="M168 3813.6v100h100v-100Z"/></clipPath><clipPath id="w" clipPathUnits="userSpaceOnUse"><path d="M168 3813.6v100h100v-100Z"/></clipPath><clipPath id="x" clipPathUnits="userSpaceOnUse"><path d="M168 3813.6v100h100v-100Z"/></clipPath><clipPath id="y" clipPathUnits="userSpaceOnUse"><path d="M168 3813.6v100h100v-100Z"/></clipPath><clipPath id="z" clipPathUnits="userSpaceOnUse"><path d="M168 3813.6v100h100v-100Z"/></clipPath><clipPath id="A" clipPathUnits="userSpaceOnUse"><path d="M168 3813.6v100h100v-100Z"/></clipPath><clipPath id="B" clipPathUnits="userSpaceOnUse"><path d="M168 3813.6v100h100v-100Z"/></clipPath><clipPath id="C" clipPathUnits="userSpaceOnUse"><path d="M168 3813.6v100h100v-100Z"/></clipPath><clipPath id="D" clipPathUnits="userSpaceOnUse"><path d="M168 3813.6v100h100v-100Z"/></clipPath><clipPath id="E" clipPathUnits="userSpaceOnUse"><path d="M168 3813.6v100h100v-100Z"/></clipPath><clipPath id="F" clipPathUnits="userSpaceOnUse"><path d="M168 3813.6v100h100v-100Z"/></clipPath><clipPath id="G" clipPathUnits="userSpaceOnUse"><path d="M168 3813.6v100h100v-100Z"/></clipPath><clipPath id="H" clipPathUnits="userSpaceOnUse"><path d="M168 3813.6v100h100v-100Z"/></clipPath><clipPath id="I" clipPathUnits="userSpaceOnUse"><path d="M168 3813.6v100h100v-100Z"/></clipPath><clipPath id="J" clipPathUnits="userSpaceOnUse"><path d="M168 3813.6v100h100v-100Z"/></clipPath><clipPath id="K" clipPathUnits="userSpaceOnUse"><path d="M168 3813.6v100h100v-100Z"/></clipPath><clipPath id="L" clipPathUnits="userSpaceOnUse"><path d="M168 3813.6v100h100v-100Z"/></clipPath><clipPath id="M" clipPathUnits="userSpaceOnUse"><path d="M168 3813.6v100h100v-100Z"/></clipPath><clipPath id="N" clipPathUnits="userSpaceOnUse"><path d="M168 3813.6v100h100v-100Z"/></clipPath><clipPath id="O" clipPathUnits="userSpaceOnUse"><path d="M168 3813.6v100h100v-100Z"/></clipPath><clipPath id="P" clipPathUnits="userSpaceOnUse"><path d="M168 3813.6v100h100v-100Z"/></clipPath><clipPath id="Q" clipPathUnits="userSpaceOnUse"><path d="M168 3813.6v100h100v-100Z"/></clipPath><clipPath id="R" clipPathUnits="userSpaceOnUse"><path d="M168 3813.6v100h100v-100Z"/></clipPath><clipPath id="S" clipPathUnits="userSpaceOnUse"><path d="M168 3813.6v100h100v-100Z"/></clipPath><clipPath id="T" clipPathUnits="userSpaceOnUse"><path d="M168 3813.6v100h100v-100Z"/></clipPath><clipPath id="U" clipPathUnits="userSpaceOnUse"><path d="M168 3813.6v100h100v-100Z"/></clipPath><clipPath id="V" clipPathUnits="userSpaceOnUse"><path d="M168 3813.6v100h100v-100Z"/></clipPath><clipPath id="W" clipPathUnits="userSpaceOnUse"><path d="M168 3813.6v100h100v-100Z"/></clipPath><clipPath id="X" clipPathUnits="userSpaceOnUse"><path d="M168 3813.6v100h100v-100Z"/></clipPath><clipPath id="Y" clipPathUnits="userSpaceOnUse"><path d="M168 3813.6v100h100v-100Z"/></clipPath><clipPath id="Z" clipPathUnits="userSpaceOnUse"><path d="M168 3813.6v100h100v-100Z"/></clipPath><clipPath id="aa" clipPathUnits="userSpaceOnUse"><path d="M168 3813.6v100h100v-100Z"/></clipPath><clipPath id="ab" clipPathUnits="userSpaceOnUse"><path d="M168 3813.6v100h100v-100Z"/></clipPath><clipPath id="ac" clipPathUnits="userSpaceOnUse"><path d="M168 3813.6v100h100v-100Z"/></clipPath><clipPath id="ad" clipPathUnits="userSpaceOnUse"><path d="M168 3813.6v100h100v-100Z"/></clipPath><clipPath id="ae" clipPathUnits="userSpaceOnUse"><path d="M168 3813.6v100h100v-100Z"/></clipPath><clipPath id="af" clipPathUnits="userSpaceOnUse"><path d="M168 3813.6v100h100v-100Z"/></clipPath><clipPath id="ag" clipPathUnits="userSpaceOnUse"><path d="M168 3813.6v100h100v-100Z"/></clipPath><clipPath id="ah" clipPathUnits="userSpaceOnUse"><path d="M168 3813.6v100h100v-100Z"/></clipPath><clipPath id="ai" clipPathUnits="userSpaceOnUse"><path d="M168 3813.6v100h100v-100Z"/></clipPath><clipPath id="aj" clipPathUnits="userSpaceOnUse"><path d="M168 3813.6v100h100v-100Z"/></clipPath><clipPath id="ak" clipPathUnits="userSpaceOnUse"><path d="M168 3813.6v100h100v-100Z"/></clipPath><clipPath id="al" clipPathUnits="userSpaceOnUse"><path d="M168 3813.6v100h100v-100Z"/></clipPath><clipPath id="am" clipPathUnits="userSpaceOnUse"><path d="M168 3813.6v100h100v-100Z"/></clipPath><clipPath id="an" clipPathUnits="userSpaceOnUse"><path d="M168 3813.6v100h100v-100Z"/></clipPath><clipPath id="ao" clipPathUnits="userSpaceOnUse"><path d="M168 3813.6v100h100v-100Z"/></clipPath><clipPath id="ap" clipPathUnits="userSpaceOnUse"><path d="M168 3813.6v100h100v-100Z"/></clipPath><clipPath id="aq" clipPathUnits="userSpaceOnUse"><path d="M168 3813.6v100h100v-100Z"/></clipPath><clipPath id="ar" clipPathUnits="userSpaceOnUse"><path d="M168 3813.6v100h100v-100Z"/></clipPath><clipPath id="as" clipPathUnits="userSpaceOnUse"><path d="M168 3813.6v100h100v-100Z"/></clipPath><clipPath id="at" clipPathUnits="userSpaceOnUse"><path d="M168 3813.6v100h100v-100Z"/></clipPath><clipPath id="au" clipPathUnits="userSpaceOnUse"><path d="M168 3813.6v100h100v-100Z"/></clipPath><clipPath id="av" clipPathUnits="userSpaceOnUse"><path d="M168 3813.6v100h100v-100Z"/></clipPath><clipPath id="aw" clipPathUnits="userSpaceOnUse"><path d="M168 3813.6v100h100v-100Z"/></clipPath><clipPath id="ax" clipPathUnits="userSpaceOnUse"><path d="M168 3813.6v100h100v-100Z"/></clipPath><clipPath id="ay" clipPathUnits="userSpaceOnUse"><path d="M168 3813.6v100h100v-100Z"/></clipPath><clipPath id="az" clipPathUnits="userSpaceOnUse"><path d="M168 3813.6v100h100v-100Z"/></clipPath><clipPath id="aA" clipPathUnits="userSpaceOnUse"><path d="M168 3813.6v100h100v-100Z"/></clipPath><clipPath id="aB" clipPathUnits="userSpaceOnUse"><path d="M168 3813.6v100h100v-100Z"/></clipPath><clipPath id="aC" clipPathUnits="userSpaceOnUse"><path d="M168 3813.6v100h100v-100Z"/></clipPath><clipPath id="aD" clipPathUnits="userSpaceOnUse"><path d="M168 3813.6v100h100v-100Z"/></clipPath><clipPath id="aE" clipPathUnits="userSpaceOnUse"><path d="M168 3813.6v100h100v-100Z"/></clipPath><clipPath id="aF" clipPathUnits="userSpaceOnUse"><path d="M168 3813.6v100h100v-100Z"/></clipPath><clipPath id="aG" clipPathUnits="userSpaceOnUse"><path d="M168 3813.6v100h100v-100Z"/></clipPath><clipPath id="aH" clipPathUnits="userSpaceOnUse"><path d="M168 3813.6v100h100v-100Z"/></clipPath><clipPath id="aI" clipPathUnits="userSpaceOnUse"><path d="M168 3813.6v100h100v-100Z"/></clipPath><clipPath id="aJ" clipPathUnits="userSpaceOnUse"><path d="M168 3813.6v100h100v-100Z"/></clipPath><clipPath id="aK" clipPathUnits="userSpaceOnUse"><path d="M168 3813.6v100h100v-100Z"/></clipPath><clipPath id="aL" clipPathUnits="userSpaceOnUse"><path d="M168 3813.6v100h100v-100Z"/></clipPath><clipPath id="aM" clipPathUnits="userSpaceOnUse"><path d="M168 3813.6v100h100v-100Z"/></clipPath><clipPath id="aN" clipPathUnits="userSpaceOnUse"><path d="M168 3813.6v100h100v-100Z"/></clipPath><clipPath id="aO" clipPathUnits="userSpaceOnUse"><path d="M168 3813.6v100h100v-100Z"/></clipPath><clipPath id="aP" clipPathUnits="userSpaceOnUse"><path d="M168 3813.6v100h100v-100Z"/></clipPath><clipPath id="aQ" clipPathUnits="userSpaceOnUse"><path d="M168 3813.6v100h100v-100Z"/></clipPath><clipPath id="aR" clipPathUnits="userSpaceOnUse"><path d="M168 3813.6v100h100v-100Z"/></clipPath><clipPath id="aS" clipPathUnits="userSpaceOnUse"><path d="M168 3813.6v100h100v-100Z"/></clipPath><clipPath id="aT" clipPathUnits="userSpaceOnUse"><path d="M168 3813.6v100h100v-100Z"/></clipPath><clipPath id="aU" clipPathUnits="userSpaceOnUse"><path d="M168 3813.6v100h100v-100Z"/></clipPath><clipPath id="aV" clipPathUnits="userSpaceOnUse"><path d="M168 3813.6v100h100v-100Z"/></clipPath></defs><path d="M5.244 399.999c-.535.001-1.128.002-1.362-.003-.197-.004-.682-.083-1.007-.298-.308-.203-.516-.764-.516-.764s-.32-1.022-.373-1.224c-.201-.75-.315-1.498-.315-1.498l-.006-1.72c0-.441.17-.883.312-1.164.266-.477.812-.515.812-.515l.305-.717s-1.081-.37-1.803-.913c-.877-.66-1.291-1.13-1.291-1.13v-.749h.807s.557 1.1 2.192 2.037c1.34.768 3.59.755 3.59.755s-.973-.423-1.61-1.148c-.639-.725-1.006-1.644-1.006-1.644h1.232s.37 1.28 1.5 2.104c1.14.749 2.333.688 2.333.688l3.762.016v.232l-1.043-.003.01.28s.116.01.126.129c.007.075 0 .227 0 .227l.007.935s.015.157-.04.214c-.076.08-.619.148-.619.148s-1.126.213-1.605.592c-.478.378-.487.411-.754.802-.27.395-.65 1.614-.65 1.614l-.43 1.652s-.086.55-.553.83c-.421.255-.993.23-.993.23L5.244 400Zm-.318-.293a.455.455 0 1 0 .001-.91.455.455 0 0 0 0 .91Zm-2.283-1.216h2.09l-.129-1.413H2.255Zm2.424 0H7.15l.116-1.413H4.926Zm3.316-2.474s.433-1.172 1.427-1.586c.994-.415 1.711-.437 1.711-.437v-.49s-1.06 0-1.867.249c-.807.25-1.27.678-1.27.678Zm-5.578-.86a.53.53 0 1 0 0-1.062.53.53 0 0 0 0 1.061Zm3.958-.005a.53.53 0 1 0 0-1.061.53.53 0 0 0 0 1.06Z" style="fill:#000;fill-opacity:1;fill-rule:nonzero;stroke:none;stroke-width:1" transform="matrix(1.25 0 0 -1.25 0 500)"/></svg>