<?xml version="1.0" encoding="UTF-8"?>
<svg id="tram_stop" width="15" height="15" version="1.1" viewBox="0 0 15 15" xmlns="http://www.w3.org/2000/svg">
 <path d="m8 1v1h1.5l1.41 1.41c0.38 0.38 0.59 0.89 0.59 1.42v6.17c0 1.1-0.9 2-2 2h-4c-1.1 0-2-0.9-2-2v-6.17c0-0.53 0.21-1.04 0.59-1.42l1.41-1.41h1.5v-1h-1.5c-0.28 0-0.5-0.22-0.5-0.5s0.22-0.5 0.5-0.5h4c0.28 0 0.5 0.22 0.5 0.5s-0.22 0.5-0.5 0.5zm-1.75 12.5-0.75 1.5h-1.5l0.75-1.5zm4 0 0.75 1.5h-1.5l-0.75-1.5zm-1.75-1.5h1c0.55 0 1-0.45 1-1v-1c-1.1 0-2 0.9-2 2zm-2 0c0-1.1-0.9-2-2-2v1c0 0.55 0.45 1 1 1zm-2-6.5v3c0 0.28 0.22 0.5 0.5 0.5h5c0.28 0 0.5-0.22 0.5-0.5v-3c0-0.28-0.22-0.5-0.5-0.5h-5c-0.28 0-0.5 0.22-0.5 0.5zm1-2c0 0.28 0.22 0.5 0.5 0.5h3c0.28 0 0.5-0.22 0.5-0.5s-0.22-0.5-0.5-0.5h-3c-0.28 0-0.5 0.22-0.5 0.5z"/>
</svg>
