<svg xmlns="http://www.w3.org/2000/svg" width="15.995" height="21.601"><path d="M5.597 1.8c-.6 0-.6.6-.6.6v1.2c0 .333.268.6.6.6.333 0 .6-.267.6-.6V3h1.2v2.4h-1.2s-2.4 0-2.4 2.4v3.6c0 3.6 3.6 3.6 3.6 3.6h1.2s3.6 0 3.6-3.6V7.8c0-2.4-2.4-2.4-2.4-2.4h-1.2V3h1.2v.6c0 .333.268.6.6.6.333 0 .6-.267.6-.6V2.4c0-.6-.6-.6-.6-.6zm2.4 4.8 2.454.929.546 2.072c.158.6-.6.6-.6.6h-4.8s-.758 0-.6-.6l.547-2.072zm0 4.8a.6.6 0 1 1 0 1.2.6.6 0 0 1 0-1.2zm-4.05 4.8-1.35 3.6h1.8l.45-1.2h6.3l.45 1.2h1.8l-1.35-3.6h-1.8l.45 1.2h-5.4l.45-1.2z"/></svg>