<?xml version="1.0" encoding="UTF-8"?>
<svg id="transit" width="15" height="15" version="1.1" viewBox="0 0 15 15" xmlns="http://www.w3.org/2000/svg">
 <path d="m13 3.5v8c0 1.1-0.9 2-2 2h-7c-1.1 0-2-0.9-2-2v-8c0-1.1 0.9-2 2-2h7c1.1 0 2 0.9 2 2zm-4 7.5c0 0.55 0.45 1 1 1s1-0.45 1-1-0.45-1-1-1-1 0.45-1 1zm-3 0c0-0.55-0.45-1-1-1s-1 0.45-1 1 0.45 1 1 1 1-0.45 1-1zm-3-6 0.01 3c0 0.28 0.23 0.5 0.5 0.5h3c0.27 0 0.5-0.22 0.5-0.5l-0.02-3c0-0.28-0.22-0.5-0.5-0.5h-2.99c-0.28 0-0.5 0.22-0.5 0.5zm5 0 0.01 3c0 0.28 0.23 0.5 0.5 0.5h3c0.27 0 0.5-0.22 0.5-0.5l-0.02-3c0-0.28-0.22-0.5-0.5-0.5h-2.99c-0.28 0-0.5 0.22-0.5 0.5zm-4-2c0 0.28 0.22 0.5 0.5 0.5h6c0.28 0 0.5-0.22 0.5-0.5s-0.22-0.5-0.5-0.5h-6c-0.28 0-0.5 0.22-0.5 0.5z"/>
</svg>
