<?xml version="1.0" encoding="UTF-8"?>
<svg id="truck" width="15" height="15" version="1.1" viewBox="0 0 15 15" xmlns="http://www.w3.org/2000/svg">
 <path d="m2.75 9.625c-0.75 0-1.25 0.5-1.25 1.25s0.5 1.25 1.25 1.25 1.25-0.5 1.25-1.25-0.5-1.25-1.25-1.25zm9 0c-0.75 0-1.25 0.5-1.25 1.25s0.5 1.25 1.25 1.25 1.25-0.5 1.25-1.25-0.5-1.25-1.25-1.25zm2.75-6.75h-9c-0.59 0-0.5 0.5-0.5 0.5v3.5h-0.75v-2.5c0-0.5-0.5-0.5-0.5-0.5h-1.75c-1.5 0-1.5 2-1.5 3 0 0-0.5 0-0.5 0.5v3.5h1c0-1.25 0.75-1.75 1.75-1.75s1.75 0.5 1.75 1.75h5.5c0-1.25 0.75-1.75 1.75-1.75s1.75 0.5 1.75 1.75h1.5v-7.5s0-0.5-0.5-0.5zm-11.5 2v2h-1.5c0-1 0-2 0.5-2z"/>
</svg>
