<svg xmlns="http://www.w3.org/2000/svg" width="14" height="14"><path d="M8.769.027c2.252 0 4.075 3.129 4.075 6.986C12.844 10.87 11.021 14 8.77 14s-4.076-3.131-4.076-6.987C4.693 3.156 6.518.027 8.77.027ZM7.022 7.013c0 2.213.913 3.99 2.038 3.99 1.164 0 2.038-1.788 2.038-3.992 0-2.205-.912-3.993-2.038-3.993-1.164 0-2.038 1.788-2.038 3.993v.002ZM9.06 3.52c-.327 0-.628.27-.871.71.359.72.58 1.7.58 2.783 0 1.165-.223 2.061-.582 2.783.245.443.545.71.873.71.805 0 1.455-1.56 1.455-3.493 0-1.93-.652-3.493-1.455-3.493ZM4.111 7.013c0-3.68 1.542-6.695 3.493-6.986V0H5.858C3.283.027 1.2 3.147 1.2 7.013 1.2 10.87 3.283 14 5.858 14h1.724c-1.93-.297-3.47-3.307-3.47-6.987Z"/></svg>