<?xml version="1.0" encoding="UTF-8" standalone="no"?>
<svg
   width="14"
   height="14"
   version="1.1"
   id="svg1"
   xmlns="http://www.w3.org/2000/svg"
   xmlns:svg="http://www.w3.org/2000/svg">
  <defs
     id="defs1" />
  <path
     d="M 11.717393,10.169401 10.794749,9.3123695 9.9762734,7.6754194 A 0.78127178,0.78127178 0 0 0 9.3066124,7.3033852 H 4.6933884 A 0.78127178,0.78127178 0 0 0 4.0237268,7.6754194 L 3.2052516,9.3123695 2.2826068,10.169401 a 0.37203418,0.37203418 0 0 0 -0.1190509,0.273276 v 3.185289 A 0.37203418,0.37203418 0 0 0 2.5355901,14 H 4.0237268 C 4.1725405,14 4.395761,13.851186 4.395761,13.702373 v -0.446442 h 5.2084784 v 0.372035 C 9.6042394,13.77678 9.7530534,14 9.9018674,14 H 11.46441 a 0.37203418,0.37203418 0 0 0 0.372034,-0.372034 v -3.185965 a 0.37203418,0.37203418 0 0 0 -0.119051,-0.2726 z M 4.7677952,8.0474535 H 9.2322054 L 9.9762734,9.53559 H 4.0237268 Z m 0.3720342,3.4227135 c 0,0.148814 -0.2232206,0.297628 -0.3720342,0.297628 H 3.2052516 c -0.1488136,0 -0.2976273,-0.223221 -0.2976273,-0.372035 v -0.818474 c 0.074407,-0.223221 0.2232205,-0.372035 0.446441,-0.297628 l 1.4881367,0.297628 c 0.1488137,0 0.2976274,0.22322 0.2976274,0.372034 z m 5.9525466,-0.07441 c 0,0.148814 -0.148814,0.372034 -0.297627,0.372034 H 9.2322054 c -0.148814,0 -0.3720344,-0.148813 -0.3720344,-0.297627 v -0.520848 c 0,-0.148814 0.1488137,-0.372034 0.2976274,-0.372034 l 1.4881376,-0.297627 c 0.22322,-0.07441 0.372034,0.07441 0.44644,0.297627 z"
     id="path1-4"
     style="stroke-width:0.676426" />
  <path
     d="m 2.5,0 c -0.6666664,0 -0.6666664,1 0,1 h 4 C 7.1666664,1 7.1666664,0 6.5,0 Z M 11,0 9.545,3.637 9,2 H 8 l 1,3 h 1 L 12,0 Z M 2.5,2 c -0.6666664,0 -0.6666664,1 0,1 h 4 c 0.6666664,0 0.6666664,-1 0,-1 z m 0,2 c -0.6666664,0 -0.6666664,1 0,1 h 4 c 0.6666664,0 0.6666664,-1 0,-1 z"
     id="path1" />
</svg>
