<svg xmlns="http://www.w3.org/2000/svg" width="14" height="14"><path d="M4.94.125c-1.42 0-1.646 1.93-1.282 2.906.23.623.934 1.225 1.656.969.934-.462 1.197-1.645.938-2.563C6.126.828 5.638.125 4.939.125Zm3.968 0c-.7 0-1.187.701-1.313 1.313-.26.917.004 2.1.938 2.562.722.256 1.425-.346 1.656-.969.364-.976.138-2.906-1.281-2.906ZM.875 3.219c-.56.56-.487 2.174.531 2.844.66.338 1.33-.1 1.563-.625.392-.747.284-1.809-.407-2.344-.66-.442-1.169-.393-1.687.125Zm10.563-.125c-.483.278-.8 1.597-.407 2.344.233.525.934.963 1.594.625 1.018-.67 1.072-2.273.5-2.844-.532-.446-1.162-.429-1.688-.125ZM7 4.5a4.5 4.5 0 1 0 0 9 4.5 4.5 0 0 0 0-9ZM6 6h2v2h2v2l-2 .031V12H6v-2H4V8h2V6Z"/></svg>