<?xml version="1.0" encoding="UTF-8"?>
<svg id="veterinary" width="15" height="15" version="1.1" viewBox="0 0 15 15" xmlns="http://www.w3.org/2000/svg">
 <path d="m7.495 5.8612c-2.5 0-3 2.28-3 3.47a6.149 6.149 0 0 0-1.7 0.89 2 2 0 0 0-0.4 2.78 2.06 2.06 0 0 0 2.8 0.4 4 4 0 0 1 2.3-0.69 4 4 0 0 1 2.3 0.69 2 2 0 0 0 2.8-0.3 1.929 1.929 0 0 0-0.226-2.72c-0.024-0.021-0.049-0.041-0.074-0.06l-0.1-0.1a8.992 8.992 0 0 0-1.7-0.89c0-1.18-0.5-3.47-3-3.47zm-5.42-1.7a1.58 1.58 0 0 0-0.76 2 1.52 1.52 0 0 0 1.61 1.4 1.58 1.58 0 0 0 0.76-2 1.52 1.52 0 0 0-1.61-1.4zm10.85 0a1.58 1.58 0 0 1 0.76 2 1.52 1.52 0 0 1-1.61 1.4 1.58 1.58 0 0 1-0.76-2 1.52 1.52 0 0 1 1.61-1.4zm-7.85-3c-0.68 0.09-1 0.94-0.76 1.87a1.77 1.77 0 0 0 1.61 1.53c0.68-0.09 1-0.94 0.76-1.87a1.77 1.77 0 0 0-1.61-1.53zm4.85 0c0.68 0.09 1 0.94 0.76 1.87a1.77 1.77 0 0 1-1.62 1.53c-0.68-0.08-1-0.94-0.76-1.87a1.769 1.769 0 0 1 1.62-1.53z"/>
</svg>
