<svg xmlns="http://www.w3.org/2000/svg" width="14" height="14"><path d="M3.22 3.825c-.473.113-.76.276-1.12.642a4.154 4.154 0 0 0-.952 1.476c-.307.65-.519 1.36-.67 2.015C.134 9.473.053 10.99.134 11.703c.186.844.4 1.317.794 1.706.406.405.704.535 1.295.563.58.028 1.014-.079 1.43-.355.321-.214 1.16-1.087 1.656-1.734l.332-.44 1.47-.01c.81-.006 1.47 0 1.47.016.31.453.689.885 1.041 1.307.743.867 1.408 1.227 2.258 1.227.608 0 .98-.158 1.408-.591.63-.642.782-1.149.777-2.562 0-1.047-.057-1.588-.276-2.675-.29-1.15-.685-2.383-1.346-3.277-.169-.225-.422-.512-.574-.636-.856-.704-2.602-.653-3.503.107-.162.115-.404.25-.551.32a3.518 3.518 0 0 1-.344.147c-.096.074-.552.08-.71.006-.067-.034-.239-.079-.394-.158-.544-.313-1.11-.693-1.599-.822a3.428 3.428 0 0 0-1.548-.017Zm1.346 2.23c.118.113.13.169.13.665 0 .343.016.647.016.647s.31.028.636.028c.434 0 .535.017.665.118.079.062.135.136.118.164.03.199.02.373-.124.518-.118.112-.214.089-.715.111l-.597.017v.666c-.022.529-.114.636-.21.704-.287.173-.556.135-.702-.164-.073-.14-.099-.326-.101-.687l-.004-.55s-.757-.005-1.117-.03c-.293-.102-.377-.45-.175-.715.113-.14.153-.146.693-.163l.614-.017.019-.571c.039-.648.022-.655.246-.837a.519.519 0 0 1 .608.096Zm6.117.173c.55.69-.476 1.52-1.043.859-.606-.648.403-1.595 1.043-.859ZM9.517 7.327c.593.696-.382 1.637-1.035.959-.715-.743.41-1.691 1.035-.96Zm2.354-.111c.712.674-.246 1.667-.93.998-.729-.712.288-1.607.93-.998Zm-.895 1.741c.015 1.006-1.381.928-1.4-.007-.021-.922 1.348-.915 1.4.007Z"/><path d="M1.332-.06c-.028.528.267.92.624 1.286.356.365.825.697 1.35.951.523.254 1.103.43 1.691.437.588.007 1.205-.179 1.658-.65.646-.671 1.217-.693 1.52-.571.152.06.237.155.273.244.035.087.043.181-.04.338-.279.445-.686.878-1.054 1.36-.371.485-.722 1.055-.719 1.762l1.043-.005c-.002-.355.182-.703.504-1.124.323-.422.764-.883 1.12-1.456l.006-.01.007-.012c.221-.4.253-.862.1-1.243a1.508 1.508 0 0 0-.853-.822C7.797.12 6.767.344 5.903 1.242c-.23.24-.515.334-.894.33-.379-.004-.831-.13-1.25-.333A3.943 3.943 0 0 1 2.701.498c-.254-.261-.327-.51-.328-.501L1.333-.06Z"/></svg>