<?xml version="1.0" encoding="UTF-8"?>
<svg id="viewpoint" width="15" height="15" version="1.1" viewBox="0 0 15 15" xmlns="http://www.w3.org/2000/svg">
 <path id="cf3b542b-d2af-4732-9b92-9e3dc05e460f" d="m6.02 8.3075a2.3859 2.3859 0 0 0-0.46 0.44l-4.55-3.5a7.9976 7.9976 0 0 1 1.51-1.51zm6.46-4.56-3.5 4.55a2.3971 2.3971 0 0 1 0.45 0.45l4.56-3.5a7.945 7.945 0 0 0-1.51-1.5zm-5.1758 6.1479a1.5 1.5 0 1 0 1.6829 1.2914 1.5 1.5 0 0 0-1.6829-1.2914zm-0.8742-7.7779a7.9329 7.9329 0 0 0-2.06 0.55l2.2 5.32a2.0438 2.0438 0 0 1 0.61-0.17zm2.14 0.01-0.75 5.69a2.49 2.49 0 0 1 0.61 0.16l2.2-5.3a7.2129 7.2129 0 0 0-2.06-0.55z"/>
</svg>
