<svg xmlns="http://www.w3.org/2000/svg" width="14" height="14"><path d="M9.656.594c-.302.046-.574.248-.75.5-.415.56-.521 1.254-.719 1.906-.22.842-.435 1.7-.562 2.563-.02.248.168.302.406.062.825-.768 1.638-1.58 2.438-2.375.194-.206.389-.41.53-.656.222-.37.326-.858.095-1.25-.24-.396-.676-.665-1.125-.75a.932.932 0 0 0-.313 0ZM4.22.656C3.757.664 3.3.904 3 1.25c-.275.32-.265.785-.093 1.156.277.64.816 1.097 1.281 1.594a23.664 23.664 0 0 0 1.938 1.75c.204.142.338.014.25-.312-.252-1.1-.526-2.191-.813-3.282-.08-.271-.17-.566-.312-.812C5.04.967 4.674.652 4.219.656Zm-3.22 5c-.326.057-.643.235-.812.532-.224.404-.244.912-.093 1.343.138.4.56.651.968.688.693.08 1.337-.19 2-.344.84-.228 1.69-.462 2.5-.781.226-.106.17-.319-.156-.406-1.077-.333-2.162-.64-3.25-.938a3.678 3.678 0 0 0-.844-.094c-.107-.002-.203-.019-.312 0Zm11.688 0c-.284 0-.567.029-.843.094-1.088.297-2.173.605-3.25.938-.327.087-.382.3-.157.406.811.32 1.66.553 2.5.781.664.154 1.308.424 2 .344.408-.037.83-.289.97-.688.15-.431.13-.94-.095-1.343-.224-.396-.694-.54-1.125-.532ZM6.281 8.063a.353.353 0 0 0-.156.062c-.682.542-1.32 1.168-1.938 1.781-.465.498-1.004.923-1.28 1.563-.173.37-.183.837.093 1.156.298.346.756.617 1.219.625.455.004.822-.342 1.03-.719.143-.246.232-.51.313-.78.287-1.091.561-2.214.813-3.313.066-.245.027-.382-.094-.375Zm1.469.062c-.074.014-.135.095-.125.219.127.862.341 1.689.562 2.531.198.652.304 1.377.72 1.938.234.335.647.547 1.062.468.449-.085.886-.354 1.125-.75.231-.392.127-.88-.094-1.25-.142-.246-.337-.45-.531-.656-.8-.795-1.613-1.575-2.438-2.344-.12-.12-.207-.17-.281-.156Z"/></svg>