<?xml version="1.0" encoding="UTF-8"?>
<svg id="village" width="15" height="15" version="1.1" viewBox="0 0 15 15" xmlns="http://www.w3.org/2000/svg">
 <path d="m6.2974 0.88063a0.29923 0.28052 0 0 0-0.42301 0l-5.2876 4.957a0.30043 0.28165 0 0 0 0.2115 0.47767h1.6824v7.6056a0.30043 0.28165 0 0 0 0.29923 0.28052h4.206a0.29803 0.27939 0 0 0 0.30163-0.27827v-8.3706c0-0.074355 0.031244-0.14646 0.087725-0.19828l1.7149-1.8555zm-0.2115 11.068h-1.2017v-1.1266h1.2017zm0-2.2532h-1.2017v-1.1266h1.2017zm0-3.3798v1.1266h-1.2017v-1.1266zm8.1116-3.3798h-0.60086a0.30043 0.28165 0 0 0-0.30043 0.28165v1.9715l-1.5911-2.0549a0.29923 0.28052 0 0 0-0.42301 0l-2.7255 3.1049a0.29562 0.27714 0 0 0-0.067296 0.17575v7.5031a0.29923 0.28052 0 0 0 0.29562 0.2839h1.8026a0.30404 0.28503 0 0 0 0.30524-0.2839v-1.9693h1.2017v1.9682a0.30404 0.28503 0 0 0 0.30404 0.28503h1.8026a0.30043 0.28165 0 0 0 0.29683-0.28052v-10.704a0.30043 0.28165 0 0 0-0.30043-0.28165zm-3.3047 5.6329h-1.2017v-1.1266h1.2017zm2.4034 0h-1.2017v-1.1266h1.2017zm-2.4034 2.2532h-1.2017v-1.1266h1.2017zm2.4034 0h-1.2017v-1.1266h1.2017z"/>
</svg>
