<?xml version="1.0" encoding="UTF-8"?>
<svg id="volleyball" width="15" height="15" version="1.1" viewBox="0 0 15 15" xmlns="http://www.w3.org/2000/svg">
 <path d="m13.92 7.94a5.9086 5.9086 0 0 1-0.13 0.94 8.8218 8.8218 0 0 0-2.17-1.49 8.89 8.89 0 0 0-1.4-0.56 8.6142 8.6142 0 0 0-1.82-0.35 0.221 0.221 0 0 0-0.08-0.01 7.32 7.32 0 0 1-0.81-1.88c-0.01-0.01-0.01-0.01 0-0.02a7.7573 7.7573 0 0 1 1.52 0.15 7.0987 7.0987 0 0 1 1.56 0.5 6.8585 6.8585 0 0 1 1.4 0.78 7.4165 7.4165 0 0 1 1.93 1.94zm-1.87-5a6.2232 6.2232 0 0 0-1.85-1.27 4.2725 4.2725 0 0 0-0.98-0.36 5.6412 5.6412 0 0 0-1.55-0.23 1.2882 1.2882 0 0 0-0.32 0 7.4263 7.4263 0 0 0-0.13 1.42c0 0.2 0.01 0.39 0.02 0.58a2.28 2.28 0 0 1 0.26-0.01 2.6438 2.6438 0 0 1 0.28 0.01 8.2865 8.2865 0 0 1 1.49 0.16 8.9879 8.9879 0 0 1 1.35 0.37 8.7922 8.7922 0 0 1 1.53 0.7 10.18 10.18 0 0 1 1.39 0.97 6.4588 6.4588 0 0 0-1.49-2.34zm-8.03 5.82a9.4084 9.4084 0 0 1-0.62-1.37 9.1038 9.1038 0 0 1-0.37-1.41 9.1748 9.1748 0 0 1-0.16-1.67v-0.03a8.455 8.455 0 0 1 0.1-1.34 6.28 6.28 0 0 0-1.49 2.36 6.2222 6.2222 0 0 0-0.4 2.2c0 0.15 0.01 0.3 0.02 0.44a5.9086 5.9086 0 0 0 0.13 0.94 5.7343 5.7343 0 0 0 0.41 1.23c0.22-0.05 0.44-0.11 0.65-0.17a8.0188 8.0188 0 0 0 1.9-0.88c-0.06-0.1-0.12-0.2-0.17-0.3zm2.6-2.28a9 9 0 0 1-0.63-1.76 9.135 9.135 0 0 1-0.24-1.48c-0.02-0.25-0.03-0.49-0.03-0.74a9.3777 9.3777 0 0 1 0.08-1.19 4.2725 4.2725 0 0 0-0.98 0.36 7.7038 7.7038 0 0 0-0.42 1.94c-0.02 0.22-0.03 0.44-0.03 0.67a7.2659 7.2659 0 0 0 0.06 0.93 7.4258 7.4258 0 0 0 0.37 1.63 6.4705 6.4705 0 0 0 0.59 1.28 8.0174 8.0174 0 0 0 1.27-1.57 0.2522 0.2522 0 0 1-0.04-0.07zm6.09 3.45s0-0.01-0.01 0a7.0128 7.0128 0 0 0-1.7-1.16c-0.06 0.1-0.11 0.19-0.17 0.29a8.783 8.783 0 0 1-0.88 1.22 8.9125 8.9125 0 0 1-1.06 1.07 10.418 10.418 0 0 1-1.38 0.98 8.9933 8.9933 0 0 1-2.64 1.02 6.2985 6.2985 0 0 0 5.28 0 5.9674 5.9674 0 0 0 2.42-1.89 4.8258 4.8258 0 0 0 0.65-1.03 6.0315 6.0315 0 0 0-0.51-0.5zm-5.17-2c-0.01 0.01-0.02 0.03-0.03 0.04a9.26 9.26 0 0 1-1.25 1.4 9.5925 9.5925 0 0 1-1.19 0.91 9.2683 9.2683 0 0 1-2.62 1.18 6.0989 6.0989 0 0 0 0.53 0.61 7.7353 7.7353 0 0 0 3.15-0.72 7.3839 7.3839 0 0 0 1.38-0.82 7.6429 7.6429 0 0 0 1.25-1.16 7.7441 7.7441 0 0 0 0.82-1.15 7.3414 7.3414 0 0 0-2.04-0.29z"/>
</svg>
