<svg xmlns="http://www.w3.org/2000/svg" width="13.964" height="17.3"><path d="M11.914 8.1h-.55a.469.469 0 0 0-.053.011 4.932 4.932 0 0 0-2.147-3.575V2.05a.55.55 0 0 0-.55-.55h-4.4a.55.55 0 0 0-.55.55v2.486a4.95 4.95 0 0 0 0 8.228v2.486a.55.55 0 0 0 .55.55h4.4a.55.55 0 0 0 .55-.55v-2.486a4.935 4.935 0 0 0 2.147-3.575.469.469 0 0 0 .053.011h.55a.55.55 0 0 0 0-1.1zm-5.5 4.4a3.85 3.85 0 1 1 3.85-3.85 3.85 3.85 0 0 1-3.85 3.85zm1.65-4.4h-1.1V6.45a.55.55 0 0 0-1.1 0v2.2a.55.55 0 0 0 .55.55h1.65a.55.55 0 0 0 0-1.1z"/></svg>