<?xml version="1.0" encoding="UTF-8" standalone="no"?>
<svg width="13" height="12" version="1.1" id="svg8" sodipodi:docname="water_well.svg" inkscape:version="1.2.2 (b0a8486541, 2022-12-01)" xmlns:inkscape="http://www.inkscape.org/namespaces/inkscape" xmlns:sodipodi="http://sodipodi.sourceforge.net/DTD/sodipodi-0.dtd" xmlns="http://www.w3.org/2000/svg" xmlns:svg="http://www.w3.org/2000/svg">
  <defs id="defs12" />
  <sodipodi:namedview id="namedview10" pagecolor="#ffffff" bordercolor="#666666" borderopacity="1.0" inkscape:showpageshadow="2" inkscape:pageopacity="0.0" inkscape:pagecheckerboard="0" inkscape:deskcolor="#d1d1d1" showgrid="false" inkscape:zoom="16.857143" inkscape:cx="3.2033898" inkscape:cy="6.0211864" inkscape:window-width="1863" inkscape:window-height="1062" inkscape:window-x="0" inkscape:window-y="0" inkscape:window-maximized="1" inkscape:current-layer="svg8" />
  <g fill-rule="evenodd" id="g6" style="fill:#000000;fill-opacity:1;stroke:none" transform="translate(-1,-1)">
    <path d="M 6.518,1 L 1,5 H 3 V 13 H 10 V 7 H 11 V 10 H 14 V 9 H 12 V 6 H 10 V 5 H 12 Z M 4,5 H 9 V 6 H 4 Z M 4,7 H 6 V 9 H 4 Z M 7,7 H 9 V 9 H 7 Z" fill="#f0f6ff" stroke="#fcfcfc" stroke-width="3" stroke-linecap="round" stroke-linejoin="round" opacity="0.5" id="path2" style="fill:#000000;fill-opacity:1;stroke:none" />
    <path d="M 6.518,1 L 1,5 H 3 V 13 H 10 V 7 H 11 V 10 H 14 V 9 H 12 V 6 H 10 V 5 H 12 Z M 4,5 H 9 V 6 H 4 Z M 4,7 H 6 V 9 H 4 Z M 7,7 H 9 V 9 H 7 Z" fill="#0064ff" id="path4" style="fill:#000000;fill-opacity:1;stroke:none" />
  </g>
</svg>
