<?xml version="1.0" encoding="UTF-8"?>
<svg id="water_park" width="15" height="15" version="1.1" viewBox="0 0 15 15" xmlns="http://www.w3.org/2000/svg">
 <path d="m9.5 0.17223c-1 0-1.6752 1.0351-2.0117 1.8137-0.33757-0.81661-0.98828-1.8594-1.9883-1.8594-1.5004 0-2 1.9238-2 2.9238s1 0.67465 1 0.03047c1-2 2-1.614 2.2422 1.5477v0.34961c-0.383-0.18921-0.81199-0.30859-1.2422-0.30859-1.4671 0-2.75 1.0325-2.75 3v1c0 1 1.5 1 1.5 0v-1c0-0.96596 0.68302-1.5 1.25-1.5 0.54947 0 1.202 0.53618 1.2422 1.418v2.5238c0.75781-0.57815 0.75781-0.59417 1.4848 0l0.02306-2.4418v-0.125c0.04105-0.88061 0.69313-1.416 1.2422-1.416 0.56698 0 1.25 0.53404 1.25 1.5v1c0 1 1.5 1 1.5 0v-1c0-1.9675-1.283-3-2.75-3-0.43042 0-0.85904 0.12117-1.2422 0.31055 0-0.08984-0.01671-0.18125 0-0.26953 0.25-2.7442 1.25-3.5582 2.25-1.5582 0 0.52775 1 0.92384 1-0.07617 0-1-0.4996-2.8629-2-2.8629z"/>
 <path d="m2.5 9.4752-2.5 1.5v1.5l2.5-1.5 2.5 1.5 2.502-1.5 2.5 1.5 1.998-1.5 3 1.5v-1.5l-3-1.5-1.998 1.5-2.5-1.5-2.502 1.5z"/>
 <path d="m2.5 11.874-2.5 1.5v1.5l2.5-1.5 2.5 1.5 2.502-1.5 2.5 1.5 1.998-1.5 3 1.5v-1.5l-3-1.5-1.998 1.5-2.5-1.5-2.502 1.5z"/>
</svg>
