<?xml version="1.0" encoding="UTF-8"?>
<svg id="watermill" width="15" height="15" version="1.1" viewBox="0 0 15 15" xmlns="http://www.w3.org/2000/svg">
 <path d="m1.5648 10.34 2.1582-1.2623 2.6978 1.5779 1.5819-0.92445c-0.33097-0.15926-0.64132-0.35366-0.90948-0.59709l1.5249-1.4865c0.24928 0.20566 0.5606 0.33673 0.90517 0.36492v1.3008l0.26978 0.1579v-1.4587c0.34456-0.028192 0.65589-0.15926 0.90517-0.36492l1.5249 1.4865c-0.43802 0.39774-0.97596 0.68292-1.5677 0.84187l1.161 0.67966 0.75366-0.44087c1.174-0.86407 1.9441-2.2225 1.9441-3.7669 0-2.6144-2.1741-4.7338-4.856-4.7338-1.4118 0-2.6718 0.59688-3.5592 1.5345l-1.8364-1.5345-3.7769 3.1558h1.0791zm10.849-1.3918-1.5249-1.4865c0.21086-0.243 0.34543-0.54659 0.37435-0.88237h2.1581c-0.03378 0.91477-0.40834 1.7416-1.0076 2.3689zm1.0077-2.6319h-2.1581c-0.02892-0.33589-0.16338-0.63937-0.37435-0.88237l1.5249-1.4865c0.59913 0.62717 0.97369 1.4541 1.0076 2.3689zm-3.6284-3.5371c0.9384 0.033031 1.7867 0.39806 2.4301 0.9822l-1.5249 1.4865c-0.24928-0.20555-0.56071-0.33662-0.90517-0.36482v-2.1039zm-0.26978 0v2.1038c-0.34446 0.028297-0.65589 0.15937-0.90517 0.36492l-1.5249-1.4865c0.64337-0.58404 1.4917-0.94917 2.4301-0.9822zm-2.6208 1.1682 1.5249 1.4865c-0.21097 0.243-0.34543 0.54649-0.37435 0.88237h-2.1582c0.033884-0.91477 0.40845-1.7417 1.0077-2.3689zm1.1506 2.6319c0.02892 0.33578 0.16349 0.63937 0.37435 0.88237l-1.5249 1.4865c-0.59924-0.62717-0.9738-1.4541-1.0077-2.3689zm1.0677 3.5503-2.7 1.5779-2.6978-1.5779-2.6978 1.5779v1.5779l2.6978-1.5779 2.6978 1.5779 2.7-1.5779 2.6956 1.5779 2.6978-1.5779v-1.5779l-2.6978 1.5779z"/>
</svg>
