<?xml version="1.0" encoding="UTF-8"?>
<svg id="water_tower" width="15" height="15" version="1.1" viewBox="0 0 15 15" xmlns="http://www.w3.org/2000/svg">
 <path d="m11 8.855 1.11 4.43c0.08 0.33-0.12 0.67-0.46 0.76-0.33 0.08-0.67-0.12-0.76-0.46l-0.99-3.99c-0.49 0.18-1.08 0.28-1.78 0.32 0 0.01 0.01 0.01 0.01 0.02v3.5c0 0.35-0.28 0.63-0.63 0.63-0.35 0-0.62-0.28-0.62-0.63v-3.5-0.02c-0.7-0.04-1.29-0.14-1.78-0.32l-0.99 3.99c-0.09 0.34-0.43 0.54-0.76 0.46-0.34-0.09-0.54-0.43-0.46-0.76l1.11-4.43v-4.42h7zm-3.5-7.92 4.5 2v1h-9v-1z"/>
</svg>
