<svg xmlns="http://www.w3.org/2000/svg" width="19.489" height="18.4"><path d="M15.68 3.7h2.31V1.5h-11s-4.4 0-4.4 4.4v6.05c-1.21.88-1.43 2.64-.55 3.85.88 1.21 2.64 1.43 3.85.55 1.1.88 2.75.66 3.74-.44.66.66 1.65.99 2.64.99 2.31 0 4.07-1.76 4.18-4.07 0-1.76-1.1-3.3-2.75-3.85V5.9c-.11-1.21.77-2.2 1.98-2.2zm-3.19 5.5v.55c1.65.11 2.86 1.65 2.75 3.3-.11 1.54-1.43 2.75-2.97 2.75-1.21.11-1.98-.66-2.31-1.1h-.88c-.11.22-.44 1.1-1.54 1.1S6.11 15.14 6 14.7h-.22c-.22.44-.55.88-.99.99-.99.33-1.87-.22-2.09-1.1-.22-.88.22-1.76.99-1.98V7c0-.55.44-1.1 1.1-1.1.55 0 1.1.44 1.1 1.1v4.95c0 .33.22.55.55.55.33 0 .55-.22.55-.55V8.1c0-.66.44-1.1 1.1-1.1.66 0 1.1.44 1.1 1.1v3.85c0 .33.22.55.55.55.33 0 .55-.22.55-.55V7c0-.66.44-1.1 1.1-1.1.66 0 1.1.44 1.1 1.1z"/></svg>