<?xml version="1.0" encoding="UTF-8"?>
<svg id="wetland" width="15" height="15" version="1.1" viewBox="0 0 15 15" xmlns="http://www.w3.org/2000/svg">
 <path d="m1.23 4.4989c0.425-0.3533 0.9683-0.532 1.52-0.5 1.2273-0.0869 2.3154 0.7836 2.5 2l0.78 4.68c-0.6394-0.2893-1.3759-0.2709-2 0.05l-0.8-4.73c-0.2926-0.8653-1.0874-1.4613-2-1.5zm6 6.74c0.3816-0.3076 0.825-0.5293 1.3-0.65l1.22-7.59c0.2926-0.8653 1.0874-1.4613 2-1.5-0.4198-0.3485-0.955-0.5269-1.5-0.5-1.2273-0.0869-2.3154 0.7836-2.5 2l-1.3 7.79c0.2786 0.1152 0.5408 0.2665 0.78 0.45zm4.32-0.5c0.1565-0.1277 0.3238-0.2414 0.5-0.34l0.7-4.4c0.2926-0.8653 1.0874-1.4613 2-1.5-0.4198-0.3485-0.955-0.5269-1.5-0.5-1.2273-0.0869-2.3154 0.7836-2.5 2l-0.67 4c0.5431 0.123 1.0478 0.377 1.47 0.74zm2.2 1.26c-0.4346-0.01-0.8579 0.1394-1.19 0.42l-0.47 0.41c-0.2847 0.2546-0.7153 0.2546-1 0-0.15-0.12-0.29-0.26-0.44-0.39-0.7076-0.5968-1.7424-0.5968-2.45 0-0.16 0.13-0.31 0.28-0.47 0.41-0.2847 0.2546-0.7153 0.2546-1 0-0.16-0.13-0.31-0.28-0.47-0.41-0.7059-0.5912-1.7341-0.5912-2.44 0-0.15 0.13-0.29 0.27-0.44 0.39-0.0892 0.0715-0.1909 0.1258-0.3 0.16-0.2922 0.0652-0.5969-0.0301-0.8-0.25-0.2475-0.214-0.5117-0.4079-0.79-0.58-0.2064-0.1179-0.4426-0.1735-0.68-0.16h-0.06c-0.2761 0-0.5 0.2239-0.5 0.5s0.2239 0.5 0.5 0.5c0.246 0.0145 0.4762 0.126 0.64 0.31l0.36 0.26c0.6717 0.55 1.6308 0.5747 2.33 0.06 0.19-0.14 0.36-0.32 0.55-0.47 0.2847-0.2546 0.7153-0.2546 1 0l0.39 0.35c0.6937 0.6189 1.7322 0.6484 2.46 0.07 0.15-0.11 0.27-0.25 0.42-0.37 0.2976-0.3038 0.7851-0.3087 1.0889-0.0111l0.0111 0.0111 0.39 0.35c0.4866 0.4124 1.1485 0.5516 1.76 0.37 0.3825-0.1036 0.7286-0.3113 1-0.6 0.1549-0.1772 0.3674-0.294 0.6-0.33 0.2761 0 0.5-0.2239 0.5-0.5s-0.2239-0.5-0.5-0.5z"/>
</svg>
