<svg xmlns="http://www.w3.org/2000/svg" width="18.668" height="19.5"><path d="M14.7 3.15a1.65 1.65 0 1 1-3.3 0 1.65 1.65 0 0 1 3.3 0zM4.602 6.857l1.914-1.881 2.035 1.419-.814 1.375a6.04 6.04 0 0 1 2.981 2.068l.968-1.65a.946.946 0 0 0-.371-1.285l-.003-.002-.682-.407L6.769 3.81a.55.55 0 0 0-.704.055l-2.2 2.2a.55.55 0 0 0 .737.792zm5.841 6.677a4.521 4.521 0 0 1-1.694 3.476 4.4 4.4 0 0 1-2.772.99A4.477 4.477 0 0 1 1.5 13.534a4.4 4.4 0 0 1 1.001-2.783c.205-.255.438-.488.693-.693a4.4 4.4 0 0 1 2.783-1.001 4.477 4.477 0 0 1 4.466 4.477zM8.1 14.931A2.519 2.519 0 0 0 4.569 11.4a1.891 1.891 0 0 0-.693.693 2.519 2.519 0 0 0 3.487 3.487 3.43 3.43 0 0 0 .737-.649zm9.02 1.1-2.739-5.5a.825.825 0 0 0-.781-.506h-2.739c.362.504.644 1.06.836 1.65h1.386l2.519 5.038a.829.829 0 1 0 1.485-.737z"/></svg>