<?xml version="1.0" encoding="UTF-8"?>
<svg id="wine" width="15" height="15" version="1.1" viewBox="0 0 15 15" xmlns="http://www.w3.org/2000/svg">
 <path d="m10.517 0.7839h-6.0339v4.7013c0.00453 1.2218 0.9342 2.287 2.2627 2.5924v4.7953h-0.75424c-0.41649 0-0.75424 0.30075-0.75424 0.67161 0 0.37086 0.33775 0.67161 0.75424 0.67161h3.0169c0.41649 0 0.75424-0.30075 0.75424-0.67161 0-0.37086-0.33775-0.67161-0.75424-0.67161h-0.75424v-4.7953c1.3285-0.30545 2.2582-1.3706 2.2627-2.5924v-0.080593zm-1.5085 4.7013c0 0.74186-0.67534 1.3432-1.5085 1.3432s-1.5085-0.60136-1.5085-1.3432v-3.3581h3.0169z" stroke-width="1.4234"/>
</svg>
