<svg xmlns="http://www.w3.org/2000/svg" width="19.508" height="13.45"><path d="M10.734 3.032S9.958 4.25 9.208 4.25h-2.75c-.75 0-1.428.45-1.95.95l-2.45 2.35c-.296.284-.542.845-.55 1.1-.017.55 0 1.1 0 1.1s1.1 0 1.1-1.1V8.1l1.1-1.1h.55l.174.318s-1.05 2.007-1.05 3.882c0 .75.75.75.75.75h.75s.376 0 0-.375l-.374-.375c0-.75.85-1.817 1.4-2.55 0 0 .018 1.274 0 2.2-.009.45.3 1.1.75 1.1h.75s.375 0 0-.375l-.375-.375c-.344-.626.525-3.1.525-3.1 1.399 0 1.65.55 3.3.55l.4 2.55c.122.781.7.75.7.75h1.65c.375 0 1.057-.343.375-.851l-.375-.249v-2.2c1.335-.19 2.2-1.1 2.2-2.2h1.1c.353 0 1.1 0 1.1-.55V4.8l-1.875-1.85c-.826-.815-1.425-1.45-2.525-1.45-1.599 0-2.35.626-2.874 1.532z"/></svg>